<svg width="56" height="45" viewBox="0 0 56 45" fill="none" xmlns="http://www.w3.org/2000/svg">
<g clip-path="url(#clip0_238_1432)">
<path d="M5.9 37.84L4.98 38.22L7.66 44.69L48.31 27.85L40.65 9.37L0 26.21L2.68 32.68L3.61 32.29C3.98 32.14 4.37 32.06 4.75 32.06C5.93 32.06 7.05 32.76 7.53 33.92C7.68 34.29 7.75 34.68 7.75 35.06C7.75 36.24 7.06 37.36 5.9 37.84ZM26 23.5L26.3 18.96L29.72 21.96L34.13 20.84L32.33 25.02L34.76 28.87L30.23 28.45L27.32 31.95L26.31 27.51L22.08 25.82L25.99 23.49L26 23.5ZM17.45 36.96L15.6 37.73L14.88 35.98L16.73 35.21L17.45 36.96ZM16 33.47L14.15 34.24L13.43 32.49L15.28 31.72L16 33.47ZM14.56 29.98L12.71 30.75L11.99 29L13.84 28.23L14.56 29.98ZM12.39 24.75L13.11 26.5L11.26 27.27L10.54 25.52L12.39 24.75Z" fill="white"/>
<path d="M6.95 16.84L8.48 20.53L41.73 6.76L47.86 21.54L55.25 18.48L47.6 0L6.95 16.84Z" fill="white"/>
</g>
<defs>
<clipPath id="clip0_238_1432">
<rect width="55.25" height="44.69" fill="white"/>
</clipPath>
</defs>
</svg>
