<svg width="51" height="50" viewBox="0 0 51 50" fill="none" xmlns="http://www.w3.org/2000/svg">
<g clip-path="url(#clip0_242_2876)">
<path d="M5.92017 30.3931C5.7916 30.4625 5.64396 30.534 5.48053 30.6051C5.15366 30.7454 4.7625 30.8793 4.33212 30.9787C4.21717 31.0044 4.0995 31.0284 3.97964 31.0497C4.01288 31.1224 4.04774 31.2016 4.08424 31.2884C4.29616 31.7817 4.57183 32.4978 4.83931 33.3783C4.90905 33.5979 4.97006 33.829 5.03925 34.0677C5.10408 34.307 5.16727 34.5555 5.23047 34.8117C5.29312 35.0679 5.35196 35.3323 5.40861 35.6037C5.46963 35.8741 5.51757 36.1533 5.56987 36.4368C5.67175 37.0038 5.75782 37.5937 5.82374 38.1957C5.8902 38.7976 5.93923 39.4116 5.96593 40.0278C5.99099 40.6434 5.99698 41.2607 5.979 41.8675C5.96429 42.475 5.91908 43.072 5.86133 43.6478C5.8281 43.9351 5.79378 44.218 5.75564 44.4939C5.71369 44.7692 5.66793 45.0385 5.62163 45.2991C5.5203 45.8202 5.41406 46.3102 5.28985 46.7559C5.17654 47.2038 5.03598 47.6053 4.92103 47.9615C4.79028 48.3138 4.6737 48.6186 4.56965 48.866C4.53097 48.9534 4.49447 49.0337 4.46069 49.1069L4.5375 49.1173C4.59471 49.1239 4.64483 49.1364 4.69604 49.1484C4.74725 49.1616 4.79791 49.1714 4.84858 49.1889L4.99894 49.2408C5.04851 49.2593 5.09482 49.2817 5.14221 49.3036C5.32908 49.3921 5.48597 49.4986 5.60746 49.5843C5.73004 49.6728 5.81829 49.7335 5.90655 49.7843C5.94959 49.811 5.99426 49.8302 6.03838 49.852C6.06018 49.8629 6.08524 49.8689 6.10812 49.8782C6.13209 49.8864 6.15333 49.899 6.18003 49.9044C6.23178 49.9159 6.27918 49.9367 6.33529 49.9432C6.38814 49.9525 6.44098 49.9623 6.49274 49.9711C6.52651 49.9744 6.55974 49.9782 6.59298 49.9815C6.62621 49.9847 6.66107 49.9886 6.68232 49.9897C6.7319 49.9913 6.77875 49.9995 6.83105 49.9989C6.9351 50.0039 7.03044 49.9973 7.12578 49.9853C7.31373 49.9634 7.51965 49.8859 7.7343 49.8405C7.94677 49.7963 8.1369 49.7908 8.28453 49.8078C8.43271 49.8231 8.5433 49.8487 8.61848 49.8711C8.69312 49.8919 8.7318 49.905 8.7318 49.905C8.7318 49.905 8.73888 49.8241 8.75196 49.6734C8.7683 49.5232 8.78682 49.3025 8.82005 49.0255C8.84457 48.748 8.87399 48.411 8.90776 48.0243C8.91921 47.8314 8.93174 47.6266 8.94481 47.4103C8.95189 47.3027 8.95952 47.1923 8.96715 47.0793C8.97096 46.9662 8.97477 46.8498 8.97859 46.7319C9.0031 46.2604 9.00746 45.7492 9.01345 45.2111C9.00801 44.9413 9.0091 44.6649 9.00637 44.383C8.9933 44.1006 8.98839 43.8127 8.97913 43.5199C8.95952 43.2271 8.94699 42.93 8.93065 42.629C8.91866 42.4788 8.90668 42.3275 8.89415 42.1756C8.8827 42.0238 8.87617 41.8708 8.86037 41.7179C8.80099 41.1055 8.74324 40.4839 8.65662 39.8645L8.59778 39.3996C8.57436 39.245 8.55148 39.091 8.52805 38.9369C8.50245 38.7829 8.48447 38.6289 8.45832 38.4759C8.43326 38.323 8.4082 38.17 8.38368 38.0182C8.36026 37.8657 8.33084 37.715 8.30414 37.5648C8.27799 37.414 8.25184 37.2643 8.2257 37.1152C8.16795 36.8181 8.11075 36.5242 8.05463 36.2352C7.9375 35.6578 7.81929 35.1001 7.69834 34.5719C7.57849 34.0437 7.45973 33.5439 7.34369 33.0828C7.23201 32.6207 7.11869 32.1995 7.02172 31.8237C6.92039 31.4485 6.83159 31.1213 6.75914 30.8514C6.68395 30.5816 6.6273 30.368 6.58426 30.2232C6.54286 30.0779 6.52052 30.0004 6.52052 30.0004C6.52052 30.0004 6.42573 30.0845 6.24704 30.2003C6.15769 30.2582 6.04765 30.3248 5.91908 30.3937L5.92017 30.3931Z" fill="white"/>
<path d="M45.9918 47.9603C45.8768 47.6047 45.7363 47.2027 45.623 46.7548C45.4988 46.309 45.3925 45.819 45.2912 45.2979C45.2449 45.0368 45.1997 44.7681 45.1572 44.4928C45.1185 44.2169 45.0842 43.9345 45.0515 43.6466C44.9938 43.0709 44.9485 42.4738 44.9338 41.8664C44.9158 41.2595 44.9218 40.6423 44.9469 40.0267C44.9731 39.411 45.0221 38.7965 45.0891 38.1946C45.155 37.5926 45.2411 37.0027 45.343 36.4357C45.3953 36.1522 45.4432 35.8736 45.5042 35.6026C45.5609 35.3317 45.6197 35.0673 45.6824 34.8106C45.7456 34.5544 45.8088 34.3058 45.8736 34.0666C45.9428 33.8279 46.0038 33.5968 46.0735 33.3772C46.341 32.4972 46.6167 31.7806 46.8286 31.2873C46.858 31.2174 46.8863 31.1524 46.9141 31.0917C46.797 31.0928 46.682 31.089 46.5698 31.0775C46.3508 31.0535 46.1416 31.0082 45.9471 30.947C45.7521 30.8902 45.5712 30.8208 45.4072 30.7476C45.0782 30.6023 44.8178 30.4346 44.6424 30.2997C44.5547 30.2309 44.4876 30.173 44.443 30.1298C44.3983 30.0877 44.3754 30.0615 44.3754 30.0615C44.3754 30.0615 44.3754 30.0604 44.3749 30.0604C44.364 30.0981 44.3487 30.1522 44.3286 30.2227C44.2855 30.3669 44.2289 30.581 44.1537 30.8508C44.0807 31.1201 43.9924 31.4479 43.8911 31.8232C43.7941 32.199 43.6814 32.6201 43.5691 33.0823C43.4536 33.5427 43.3343 34.0426 43.2145 34.5713C43.0935 35.0995 42.9748 35.6578 42.8582 36.2346C42.8021 36.5236 42.7449 36.8169 42.6871 37.1146C42.661 37.2638 42.6348 37.4134 42.6087 37.5642C42.5814 37.7144 42.552 37.8652 42.5291 38.0176C42.5041 38.17 42.4796 38.3224 42.454 38.4753C42.4278 38.6283 42.4093 38.7829 42.3842 38.9364C42.3614 39.0904 42.3379 39.2444 42.3145 39.399L42.2557 39.8639C42.169 40.4833 42.1113 41.105 42.0519 41.7173C42.0361 41.8702 42.0296 42.0232 42.0181 42.175C42.0062 42.3269 41.9936 42.4782 41.9816 42.6284C41.9653 42.9294 41.9533 43.2266 41.9332 43.5194C41.9239 43.8121 41.919 44.1 41.9059 44.3824C41.9026 44.6643 41.9037 44.9407 41.8988 45.2105C41.9048 45.7486 41.9092 46.2599 41.9337 46.7313C41.9375 46.8498 41.9413 46.9656 41.9451 47.0787C41.9528 47.1918 41.9604 47.3021 41.968 47.4097C41.9811 47.626 41.9936 47.8309 42.0051 48.0237C42.0388 48.4099 42.0688 48.7469 42.0928 49.025C42.126 49.3019 42.1445 49.5226 42.1609 49.6728C42.174 49.8241 42.181 49.9044 42.181 49.9044C42.181 49.9044 42.2197 49.8913 42.2943 49.8705C42.369 49.8482 42.4801 49.8225 42.6283 49.8072C42.7759 49.7903 42.9661 49.7952 43.1785 49.84C43.3937 49.8847 43.5991 49.9629 43.7871 49.9847C43.8824 49.9967 43.9777 50.0033 44.0818 49.9984C44.1341 49.9989 44.1809 49.9907 44.2305 49.9891C44.2512 49.9885 44.2861 49.9847 44.3199 49.9809C44.3531 49.9776 44.3863 49.9743 44.4201 49.9705C44.4718 49.9612 44.5241 49.9519 44.5775 49.9427C44.6337 49.9361 44.681 49.9153 44.7328 49.9039C44.7595 49.8984 44.7807 49.8858 44.8047 49.8776C44.8281 49.8684 44.8527 49.8624 44.8744 49.8514C44.9186 49.8296 44.9627 49.811 45.0063 49.7837C45.0945 49.7329 45.1822 49.6717 45.3054 49.5838C45.4269 49.4975 45.5843 49.3915 45.7706 49.303C45.818 49.2817 45.8649 49.2588 45.9139 49.2402L46.0643 49.1883C46.1149 49.1708 46.1656 49.1604 46.2168 49.1479C46.268 49.1358 46.3181 49.1233 46.3753 49.1167L46.4521 49.1063C46.4184 49.0332 46.3813 48.9529 46.3432 48.8655C46.2391 48.618 46.1225 48.3132 45.9918 47.9609V47.9603Z" fill="white"/>
<path d="M4.39205 35.8975C4.26947 34.698 4.12238 33.5012 3.96385 32.306C3.91536 31.9394 3.87287 31.6199 3.838 31.3566C3.82438 31.255 3.81185 31.1616 3.80041 31.0775C3.75411 31.0846 3.70943 31.0928 3.66258 31.0988C3.43268 31.1299 3.19679 31.1485 2.96035 31.1578C2.72392 31.166 2.48585 31.1616 2.25159 31.1463C2.01733 31.1294 1.78689 31.101 1.56516 31.06C1.34343 31.019 1.13042 30.9671 0.931577 30.9043C0.732731 30.8426 0.548049 30.7694 0.381345 30.6951C0.298537 30.6541 0.219544 30.617 0.145998 30.5782C0.101325 30.5525 0.0588322 30.5279 0.0174286 30.5039V49.7214C0.0174286 49.7727 0.0108912 49.8224 -0.000549316 49.8705C0.0544739 49.8705 0.111131 49.8721 0.168879 49.877C0.377531 49.8874 0.600348 49.9257 0.82153 49.9519C1.0389 49.9715 1.25572 49.983 1.49162 49.9612C1.551 49.9546 1.61038 49.9497 1.6703 49.9459L1.71552 49.9426L1.73786 49.9409C1.697 49.9415 1.72805 49.9409 1.71988 49.9409H1.72315L1.72969 49.9393L1.74276 49.9371C1.77763 49.9322 1.81195 49.9267 1.84736 49.9218L1.9002 49.9142L1.92581 49.9104L1.94215 49.9049C1.96394 49.8972 1.98519 49.8912 2.00644 49.8852C2.02714 49.8809 2.05002 49.8727 2.07453 49.8628C2.09796 49.8541 2.12193 49.8459 2.14536 49.8383C2.23579 49.7978 2.31914 49.7541 2.41502 49.6902C2.51145 49.6279 2.63185 49.5362 2.78929 49.4395C2.94619 49.3434 3.13959 49.2439 3.34606 49.1839C3.54981 49.1243 3.75955 49.0904 3.95295 49.0839L4.0995 49.079L4.24278 49.085L4.28037 49.0866C4.29235 48.9987 4.30597 48.902 4.32177 48.796C4.97388 44.5495 4.82679 40.1571 4.39096 35.8975H4.39205Z" fill="white"/>
<path d="M0.0179749 -6.14265e-06V29.9817C0.0375871 29.9812 0.0566545 29.9807 0.0768116 29.9796C0.215187 29.9768 0.369906 29.9714 0.536065 29.9665C0.862391 29.9533 1.24374 29.9386 1.65178 29.9222C1.7809 29.9173 1.91328 29.9118 2.0473 29.9064C2.11376 29.7125 2.1933 29.4759 2.28755 29.2012C2.43028 28.78 2.59589 28.2671 2.78385 27.6788C2.97289 27.091 3.17827 26.4257 3.39727 25.6992C3.50514 25.3354 3.62118 24.9579 3.73177 24.5646C3.84726 24.173 3.96112 23.766 4.0788 23.3487C4.31088 22.5124 4.54949 21.6302 4.78157 20.7136C5.01964 19.7986 5.23973 18.8476 5.46691 17.8824C5.57369 17.3984 5.68155 16.9106 5.78997 16.4207C5.89021 15.929 6.00025 15.438 6.09341 14.9431C6.18984 14.4487 6.29389 13.956 6.37833 13.4617C6.42192 13.2148 6.46768 12.9684 6.51398 12.7231C6.56084 12.4779 6.59788 12.2321 6.63983 11.9879C6.68123 11.7437 6.72209 11.5001 6.76295 11.2576C6.80109 11.015 6.83922 10.7736 6.87681 10.5332C6.9144 10.2929 6.95145 10.0542 6.98795 9.81711C7.02172 9.57949 7.05496 9.34406 7.08819 9.11027C7.12142 8.87648 7.15465 8.64432 7.18734 8.41435C7.21676 8.18438 7.24617 7.95605 7.27505 7.73045C7.33225 7.27926 7.39218 6.83734 7.43739 6.40636C7.48534 5.97537 7.53219 5.55585 7.5774 5.14999C7.61772 4.74304 7.6564 4.35029 7.69344 3.97283C7.73485 3.59538 7.75446 3.23267 7.78769 2.88799C7.81656 2.54331 7.85034 2.21502 7.86886 1.90803C7.8912 1.60049 7.90863 1.31207 7.93151 1.04551C7.95276 0.778393 7.97455 0.533129 7.98381 0.310261C7.98926 0.19992 7.99525 0.0977717 8.0007 -0.000552388H8.20554C8.21589 0.0955867 8.22679 0.196096 8.23714 0.303706C8.28344 0.746711 8.31886 1.28913 8.36135 1.91131C8.38695 2.22321 8.38968 2.55314 8.40493 2.90274C8.41038 3.07754 8.41583 3.25671 8.42182 3.4397C8.42727 3.62324 8.43326 3.81115 8.43272 4.00288C8.43272 4.38634 8.43217 4.78619 8.43163 5.1997C8.4289 5.61375 8.40766 6.04037 8.39622 6.4801C8.3875 6.92037 8.351 7.37048 8.32539 7.83151C8.31068 8.06203 8.29924 8.29527 8.27854 8.53016C8.2573 8.76504 8.23605 9.00211 8.2148 9.24082C8.19247 9.47953 8.17394 9.72152 8.14834 9.9635C8.12001 10.2055 8.09114 10.4497 8.06226 10.6949C8.03284 10.9402 8.00343 11.1871 7.97401 11.4351C7.9386 11.6825 7.90264 11.9311 7.86668 12.1802C7.79695 12.6794 7.71741 13.1814 7.62861 13.684C7.54635 14.1876 7.44448 14.6896 7.35023 15.1927C7.30283 15.4445 7.24781 15.6947 7.19333 15.9443C7.1394 16.1945 7.08492 16.4442 7.03099 16.6932C6.91876 17.1909 6.79673 17.6841 6.67579 18.173C6.54831 18.6608 6.42791 19.1459 6.28844 19.6195C6.22089 19.8571 6.15388 20.0931 6.08742 20.3274C6.01987 20.5612 5.94577 20.7917 5.87604 21.0211C5.59657 21.9388 5.29585 22.8161 4.99785 23.6431C4.69604 24.4685 4.39314 25.2425 4.09732 25.9494C3.79932 26.6557 3.51386 27.2975 3.24582 27.8596C2.98106 28.4228 2.731 28.9051 2.52344 29.3006C2.40359 29.5322 2.29299 29.731 2.1982 29.8987C2.22435 29.8976 2.24996 29.8965 2.27611 29.8954C2.48857 29.8878 2.70431 29.8796 2.92004 29.872C3.13741 29.8659 3.35423 29.8599 3.56834 29.8539C3.78298 29.8496 3.99545 29.8457 4.20246 29.8468C4.40948 29.8457 4.61105 29.8479 4.80391 29.8534C4.81971 29.8534 4.83441 29.8545 4.84967 29.855C4.98369 29.6835 5.14712 29.4743 5.34215 29.2339C5.37865 29.1886 5.41624 29.1416 5.45492 29.0936C5.49142 29.0438 5.52847 28.993 5.5666 28.9412C5.64233 28.8374 5.72187 28.7281 5.80413 28.615C5.96811 28.3878 6.15061 28.1464 6.34183 27.8874C6.53142 27.6269 6.721 27.3379 6.92693 27.0408C7.0299 26.8922 7.13504 26.7392 7.24345 26.583C7.29902 26.506 7.35132 26.4257 7.40198 26.3427C7.45374 26.2607 7.50604 26.1772 7.55943 26.0936C7.76917 25.7565 7.99961 25.4146 8.22025 25.0492C8.43707 24.6815 8.66098 24.3019 8.89088 23.9113C9.10825 23.5142 9.33216 23.1062 9.56042 22.6888C9.61817 22.585 9.67482 22.4802 9.72658 22.3715C9.78051 22.2644 9.83499 22.1562 9.88947 22.0481C9.99897 21.8318 10.109 21.6133 10.2202 21.3931C10.3356 21.1752 10.4321 20.9452 10.5399 20.7191C10.6462 20.4924 10.753 20.264 10.8603 20.0341C10.9153 19.9199 10.9665 19.803 11.015 19.685C11.0651 19.5676 11.1152 19.4496 11.1654 19.3316C11.2672 19.0962 11.3696 18.8597 11.4726 18.622C11.666 18.1413 11.8551 17.6552 12.0468 17.1674C12.1367 16.921 12.2266 16.6747 12.3165 16.4278C12.4069 16.1809 12.499 15.9345 12.5785 15.6832C12.7452 15.184 12.9223 14.688 13.0688 14.1843C13.1462 13.9336 13.2235 13.6834 13.3009 13.4343C13.3723 13.1831 13.4436 12.9329 13.5145 12.6833C13.5853 12.4336 13.6577 12.1856 13.7188 11.9354C13.7841 11.6869 13.8495 11.4389 13.9143 11.1931C13.9819 10.9478 14.0336 10.6998 14.0936 10.4557C14.1491 10.211 14.2145 9.96951 14.2668 9.72753C14.372 9.24355 14.4809 8.76887 14.5724 8.30073C14.6198 8.06694 14.6667 7.83533 14.713 7.607C14.7549 7.37758 14.7963 7.15089 14.8377 6.92747C14.9271 6.48119 14.9881 6.04256 15.0644 5.62086C15.1292 5.19752 15.1968 4.78838 15.2501 4.39399C15.2779 4.19679 15.3057 4.00397 15.3324 3.81497C15.3564 3.62597 15.3804 3.44134 15.4032 3.26108C15.4539 2.9011 15.486 2.55806 15.5269 2.23577C15.595 1.59121 15.6571 1.02693 15.6931 0.561534C15.7094 0.353414 15.7247 0.166052 15.7377 -0.00109863H15.9033C15.9197 0.166052 15.9355 0.353961 15.948 0.563173C15.9818 1.0324 16.0096 1.60322 16.0216 2.25872C16.0292 2.91421 16.0265 3.65492 15.99 4.46227C15.9845 4.66438 15.9709 4.87032 15.9578 5.08007C15.9448 5.28983 15.9311 5.50396 15.9175 5.72136C15.899 5.93877 15.8799 6.15945 15.8603 6.38341C15.8505 6.49539 15.8402 6.60847 15.8303 6.72263C15.8178 6.83625 15.8058 6.95042 15.7933 7.06567C15.7671 7.29619 15.741 7.52944 15.7138 7.76596C15.6816 8.00194 15.6489 8.2401 15.6157 8.48154C15.5994 8.60226 15.5825 8.72353 15.5656 8.84534C15.5487 8.96715 15.5258 9.08897 15.5057 9.21133C15.4648 9.45659 15.4228 9.70404 15.3809 9.95422C15.1978 10.95 14.987 11.9775 14.7152 13.0072C14.6476 13.265 14.5806 13.5234 14.5125 13.7829C14.439 14.0407 14.3616 14.2985 14.2842 14.5569C14.1361 15.0753 13.9596 15.5876 13.7901 16.1017C13.7062 16.3589 13.6103 16.6124 13.5156 16.8659C13.4208 17.1193 13.3265 17.3728 13.2323 17.6251C13.1369 17.8775 13.0285 18.1244 12.9261 18.3724C12.8215 18.6199 12.7207 18.8678 12.6139 19.112C12.39 19.596 12.1748 20.0794 11.9411 20.547C11.8218 20.7797 11.7036 21.0108 11.5859 21.2407C11.4672 21.4696 11.3538 21.699 11.2247 21.9181C11.0994 22.1388 10.9747 22.3578 10.8516 22.5741C10.7268 22.7899 10.6108 23.0078 10.4762 23.2121C10.346 23.4186 10.2169 23.6229 10.0894 23.825C9.96084 24.026 9.83935 24.2276 9.70751 24.4188C9.44057 24.799 9.18071 25.1688 8.9301 25.5266C8.8048 25.7052 8.66697 25.8707 8.53949 26.0384C8.40983 26.2045 8.2829 26.3672 8.15869 26.5273C8.09604 26.6065 8.03393 26.6852 7.97292 26.7633C7.91245 26.8419 7.85089 26.9179 7.7866 26.99C7.65967 27.1364 7.536 27.2795 7.4156 27.4188C7.29466 27.5575 7.17644 27.6924 7.06204 27.8241C6.946 27.9541 6.84031 28.0857 6.72264 28.2015C6.49274 28.4375 6.28082 28.6604 6.08034 28.8614C5.98064 28.9625 5.8853 29.0591 5.79378 29.1515C5.74802 29.1973 5.70335 29.2421 5.65976 29.2864C5.61455 29.3279 5.57042 29.3689 5.52738 29.4082C5.34052 29.5819 5.17382 29.7321 5.02945 29.861C5.14004 29.8649 5.24845 29.8692 5.35087 29.8752C5.69299 29.8938 5.98445 29.9222 6.19256 29.949C6.40013 29.9746 6.52434 29.9992 6.52434 29.9992C6.52434 29.9992 6.64146 29.9178 6.85556 29.7583C7.07021 29.6005 7.37856 29.3601 7.76481 29.0493C8.15215 28.7396 8.60759 28.3463 9.12132 27.8885C9.2488 27.7733 9.38064 27.6542 9.51575 27.5313C9.64867 27.4062 9.78542 27.2773 9.92543 27.1451C10.2082 26.884 10.492 26.5939 10.7938 26.2995C10.9404 26.1477 11.0902 25.9931 11.2433 25.8357C11.3195 25.7571 11.3969 25.6779 11.4742 25.5976C11.5494 25.5151 11.6257 25.4321 11.7025 25.3485C11.8561 25.1819 12.0125 25.012 12.1716 24.8399C12.3257 24.6635 12.4816 24.4838 12.6401 24.3024C12.7191 24.2118 12.7986 24.12 12.8787 24.0282C12.9566 23.9343 13.0345 23.8392 13.1135 23.7442C13.2704 23.5535 13.4295 23.3607 13.5902 23.1657C13.7449 22.9663 13.9013 22.7642 14.0593 22.5605C14.1382 22.4589 14.2178 22.3567 14.2979 22.2546C14.3741 22.1491 14.451 22.0437 14.5278 21.9377C14.6819 21.7258 14.8372 21.5122 14.9936 21.297C15.1428 21.0769 15.2937 20.8556 15.4452 20.6328C15.5209 20.5213 15.5966 20.4099 15.6729 20.2974C15.7486 20.1848 15.8173 20.0679 15.8903 19.9527C16.0357 19.7227 16.1817 19.4911 16.3277 19.259C16.4737 19.0263 16.605 18.7837 16.745 18.5456C16.8142 18.4259 16.8829 18.3058 16.9521 18.1861L17.0572 18.0064L17.1553 17.8229C17.2849 17.5776 17.4151 17.3318 17.5453 17.0854C17.6091 16.962 17.6783 16.8407 17.7382 16.7151L17.9169 16.3371C18.0378 16.0858 18.1588 15.8351 18.2797 15.5838C18.3974 15.3315 18.5003 15.0731 18.6109 14.8185L18.7744 14.4356C18.8267 14.3072 18.8893 14.1832 18.9351 14.0527C19.0331 13.7943 19.1312 13.5365 19.2282 13.2803C19.433 12.7707 19.5915 12.249 19.7648 11.7388C19.8073 11.611 19.8498 11.4837 19.8923 11.3564C19.9369 11.2302 19.9663 11.0997 20.0039 10.9719C20.0764 10.7157 20.1489 10.4617 20.2202 10.2099C20.3771 9.70895 20.473 9.20149 20.5961 8.71151C20.6255 8.58861 20.655 8.46625 20.6838 8.34443C20.7127 8.22262 20.7438 8.10245 20.7634 7.98009C20.8091 7.73701 20.8543 7.49721 20.8985 7.26014C20.9442 7.02307 20.9889 6.78927 21.0336 6.5593C21.0581 6.44459 21.0723 6.32879 21.0881 6.21462C21.1044 6.10046 21.1207 5.98684 21.1365 5.87431C21.2003 5.42421 21.27 4.9894 21.3229 4.56988C21.3654 4.14873 21.4062 3.7456 21.4449 3.36159C21.4645 3.16931 21.4874 2.98195 21.5026 2.7995C21.513 2.61651 21.5233 2.43952 21.5331 2.26746C21.5549 1.92332 21.5718 1.60049 21.5942 1.3017C21.6034 1.15202 21.617 1.00836 21.622 0.871255C21.6247 0.734147 21.6269 0.603049 21.6296 0.479051C21.6318 0.306437 21.6356 0.146388 21.6399 -6.14265e-06H29.2805C29.2849 0.146388 29.2882 0.305891 29.2909 0.479051C29.2931 0.603049 29.2958 0.734147 29.2985 0.871255C29.3034 1.00836 29.3165 1.15202 29.3263 1.3017C29.3486 1.60049 29.3655 1.92332 29.3873 2.26746C29.3971 2.43952 29.4075 2.61705 29.4178 2.7995C29.4336 2.98195 29.4565 3.16931 29.4756 3.36159C29.5142 3.74505 29.5551 4.14873 29.5976 4.56988C29.6499 4.9894 29.7202 5.42421 29.7839 5.87431C29.8003 5.98684 29.816 6.10046 29.8324 6.21462C29.8487 6.32879 29.8624 6.44459 29.8869 6.5593C29.931 6.78982 29.9762 7.02307 30.022 7.26014C30.0667 7.49721 30.1113 7.73701 30.1571 7.98009C30.1772 8.1019 30.2078 8.22262 30.2366 8.34443C30.2655 8.46625 30.2949 8.58861 30.3243 8.71151C30.4475 9.20204 30.5433 9.70895 30.7002 10.2099C30.7716 10.4617 30.8435 10.7162 30.9165 10.9719C30.9541 11.0991 30.9835 11.2297 31.0282 11.3564C31.0707 11.4832 31.1132 11.611 31.1557 11.7388C31.3289 12.249 31.4874 12.7707 31.6923 13.2803C31.7898 13.537 31.8873 13.7943 31.9854 14.0527C32.0311 14.1832 32.0938 14.3072 32.1461 14.4356L32.3095 14.8185C32.4207 15.0731 32.5236 15.3315 32.6408 15.5838C32.7617 15.8345 32.8826 16.0858 33.0036 16.3371L33.1823 16.7151C33.2422 16.8407 33.3114 16.962 33.3751 17.0854C33.5053 17.3318 33.6355 17.5776 33.7652 17.8229L33.8633 18.0064L33.9684 18.1861C34.0376 18.3063 34.1068 18.4259 34.1754 18.5456C34.3154 18.7837 34.4462 19.0268 34.5927 19.259C34.7393 19.4911 34.8853 19.7227 35.0302 19.9527C35.1032 20.0679 35.1718 20.1848 35.2476 20.2974C35.3238 20.4093 35.3995 20.5213 35.4753 20.6328C35.6267 20.8556 35.7771 21.0774 35.9269 21.297C36.0832 21.5122 36.2385 21.7258 36.3927 21.9377C36.4695 22.0437 36.5463 22.1497 36.6226 22.2546C36.7027 22.3573 36.7822 22.4589 36.8612 22.5605C37.0192 22.7642 37.1755 22.9658 37.3303 23.1657C37.491 23.3607 37.6501 23.5535 37.8069 23.7442C37.8859 23.8392 37.9638 23.9343 38.0418 24.0282C38.1218 24.12 38.2014 24.2118 38.2804 24.3024C38.4389 24.4843 38.5947 24.6635 38.7489 24.8399C38.908 25.012 39.0643 25.1819 39.2179 25.3485C39.2948 25.4321 39.371 25.5156 39.4462 25.5976C39.5241 25.6779 39.6009 25.7571 39.6772 25.8357C39.8297 25.9931 39.9795 26.1482 40.1266 26.2995C40.4285 26.5939 40.7117 26.884 40.995 27.1451C41.1356 27.2773 41.2718 27.4062 41.4047 27.5313C41.5404 27.6537 41.6716 27.7727 41.7991 27.8885C42.3129 28.3463 42.7683 28.7401 43.1556 29.0493C43.5419 29.3601 43.8502 29.601 44.0649 29.7583C44.218 29.8725 44.3209 29.9457 44.3672 29.979C44.3716 29.9692 44.3776 29.9604 44.3863 29.9528C44.3939 29.9457 44.4027 29.9408 44.4119 29.9375H44.413C44.413 29.9375 44.4446 29.926 44.5029 29.9102C44.5612 29.8933 44.6456 29.8725 44.7508 29.849C44.9616 29.8031 45.2552 29.7561 45.5952 29.7327C45.6415 29.7288 45.6905 29.7272 45.7385 29.725C45.6328 29.6294 45.5173 29.5245 45.3931 29.4087C45.35 29.3694 45.3059 29.3284 45.2607 29.2869C45.2171 29.2432 45.1724 29.1984 45.1267 29.152C45.0352 29.0597 44.9398 28.963 44.8401 28.8619C44.6396 28.6609 44.4272 28.4386 44.1973 28.2021C44.0791 28.0863 43.9739 27.9546 43.8579 27.8246C43.7429 27.693 43.6252 27.5581 43.5043 27.4193C43.3839 27.28 43.2597 27.1369 43.1333 26.9905C43.069 26.9179 43.0075 26.8419 42.947 26.7638C42.886 26.6863 42.8239 26.6076 42.7612 26.5278C42.637 26.3683 42.5095 26.205 42.3804 26.0389C42.2529 25.8713 42.1151 25.7057 41.9898 25.5271C41.7387 25.1693 41.4788 24.7995 41.2124 24.4193C41.0806 24.2281 40.9591 24.026 40.8305 23.8256C40.703 23.624 40.5739 23.4192 40.4437 23.2127C40.3091 23.0084 40.1931 22.7904 40.0683 22.5747C39.9452 22.3578 39.8205 22.1393 39.6952 21.9186C39.5661 21.6996 39.4527 21.4702 39.334 21.2413C39.2163 21.0119 39.0981 20.7802 38.9788 20.5475C38.7451 20.08 38.5299 19.5965 38.306 19.1126C38.1992 18.8684 38.0984 18.6204 37.9938 18.3729C37.8908 18.125 37.783 17.878 37.6876 17.6257C37.5934 17.3728 37.4986 17.1199 37.4044 16.8664C37.3096 16.6129 37.2131 16.36 37.1298 16.1022C36.9604 15.5882 36.7833 15.0758 36.6357 14.5574C36.5583 14.2991 36.4809 14.0418 36.4074 13.7834C36.3398 13.5239 36.2723 13.2656 36.2047 13.0077C35.9329 11.9781 35.7221 10.9506 35.539 9.95477C35.4971 9.70513 35.4557 9.45714 35.4143 9.21187C35.3946 9.08897 35.3718 8.9677 35.3543 8.84589C35.3374 8.72407 35.3206 8.60281 35.3042 8.48209C35.271 8.24065 35.2388 8.00194 35.2061 7.76651C35.1795 7.52998 35.1528 7.29674 35.1266 7.06622C35.1141 6.95096 35.1015 6.8368 35.0896 6.72318C35.0792 6.60956 35.0694 6.49649 35.0596 6.38396C35.04 6.16 35.0215 5.93877 35.0024 5.72191C34.9888 5.50451 34.9752 5.29038 34.9621 5.08062C34.949 4.87086 34.9348 4.66493 34.9299 4.46282C34.8934 3.65547 34.8907 2.91476 34.8983 2.25926C34.9103 1.60322 34.9381 1.03294 34.9719 0.563719C34.9844 0.355053 35.0008 0.166599 35.0166 -0.000552388H35.1822C35.1953 0.166052 35.2105 0.353961 35.2268 0.56208C35.2628 1.02748 35.3249 1.59121 35.393 2.23632C35.4333 2.55861 35.466 2.9011 35.5167 3.26162C35.5396 3.44188 35.5635 3.62651 35.5875 3.81552C35.6142 4.00397 35.6414 4.19734 35.6698 4.39454C35.7237 4.78892 35.7907 5.19806 35.8555 5.6214C35.9318 6.04365 35.9928 6.48174 36.0822 6.92802C36.123 7.15143 36.165 7.37813 36.2069 7.60755C36.2532 7.83588 36.3001 8.06749 36.3475 8.30128C36.439 8.76941 36.548 9.2441 36.6531 9.72807C36.7054 9.97006 36.7708 10.211 36.8263 10.4562C36.8863 10.7004 36.938 10.9478 37.0056 11.1936C37.0704 11.4395 37.1358 11.6875 37.2011 11.936C37.2622 12.1856 37.3346 12.4342 37.4054 12.6838C37.4763 12.9334 37.5476 13.1836 37.619 13.4349C37.6964 13.6845 37.7737 13.9347 37.8511 14.1849C37.9982 14.6885 38.1747 15.1845 38.3414 15.6838C38.4209 15.9351 38.513 16.1814 38.6034 16.4283C38.6933 16.6752 38.7837 16.9221 38.8731 17.1679C39.0649 17.6552 39.2539 18.1419 39.4473 18.6226C39.5503 18.8602 39.6527 19.0967 39.7546 19.3322C39.8047 19.4501 39.8548 19.5681 39.9049 19.6856C39.9539 19.8036 40.0046 19.9205 40.0596 20.0346C40.167 20.2646 40.2743 20.4929 40.38 20.7196C40.4878 20.9458 40.5843 21.1757 40.6998 21.3937C40.8109 21.6138 40.9215 21.8323 41.0304 22.0486C41.0849 22.1568 41.1394 22.2649 41.1933 22.372C41.2451 22.4807 41.3017 22.5856 41.3595 22.6894C41.5878 23.1062 41.8111 23.5148 42.029 23.9119C42.2595 24.3024 42.4834 24.6826 42.6997 25.0497C42.9203 25.4151 43.1507 25.7571 43.3605 26.0941C43.4133 26.1782 43.4656 26.2613 43.5179 26.3432C43.5691 26.4262 43.6214 26.5065 43.6765 26.5836C43.7843 26.7398 43.89 26.8927 43.993 27.0413C44.1989 27.3385 44.3885 27.6274 44.5781 27.888C44.7698 28.1469 44.9518 28.3878 45.1158 28.6156C45.1986 28.7292 45.2776 28.8379 45.3533 28.9417C45.3914 28.9936 45.4285 29.0444 45.465 29.0941C45.5037 29.1422 45.5413 29.1891 45.5778 29.2345C45.7232 29.4131 45.8507 29.5748 45.9618 29.7163C46.0201 29.7152 46.0779 29.7135 46.1378 29.7135C46.3285 29.7119 46.5268 29.7201 46.7294 29.748C46.9321 29.7736 47.1391 29.8255 47.3505 29.8758C47.5619 29.9282 47.7781 29.973 47.9961 30.0014C48.105 30.0162 48.214 30.0271 48.3224 30.0396C48.4313 30.05 48.5397 30.0604 48.6471 30.0708C48.701 30.0746 48.7538 30.079 48.8072 30.0828C48.6934 29.8845 48.5441 29.625 48.3769 29.3017C48.1693 28.9062 47.9192 28.4239 47.6545 27.8607C47.3859 27.2986 47.1004 26.6568 46.803 25.9505C46.5066 25.2431 46.2037 24.4696 45.9019 23.6442C45.6045 22.8172 45.3037 21.9399 45.0243 21.0222C44.9545 20.7928 44.8804 20.5623 44.8129 20.3285C44.7464 20.0942 44.6794 19.8582 44.6119 19.6206C44.4718 19.147 44.352 18.6614 44.2245 18.1741C44.103 17.6852 43.9815 17.192 43.8693 16.6943C43.8154 16.4452 43.7614 16.1956 43.707 15.9454C43.6525 15.6953 43.5975 15.4456 43.5501 15.1938C43.4553 14.6907 43.3539 14.1887 43.2717 13.6851C43.1829 13.1825 43.1033 12.6805 43.0336 12.1813C42.9977 11.9316 42.9617 11.6831 42.9263 11.4362C42.8969 11.1882 42.8675 10.9413 42.838 10.696C42.8092 10.4508 42.7808 10.2066 42.752 9.9646C42.7264 9.72206 42.7073 9.48062 42.6855 9.24191C42.6642 9.00266 42.643 8.76614 42.6218 8.53125C42.6005 8.29636 42.5896 8.06312 42.5749 7.8326C42.5493 7.37103 42.5123 6.92092 42.5041 6.48119C42.4921 6.04146 42.4714 5.6143 42.4687 5.20079C42.4687 4.78729 42.4681 4.38743 42.4676 4.00397C42.467 3.81224 42.473 3.62433 42.4785 3.44079C42.4839 3.25725 42.4899 3.07808 42.4954 2.90383C42.5106 2.55424 42.5133 2.2243 42.5384 1.9124C42.5804 1.28968 42.6158 0.747803 42.6626 0.304799C42.673 0.196642 42.6839 0.0966792 42.6942 0.000540102H42.8991C42.905 0.0988642 42.911 0.201012 42.9165 0.311354C42.9257 0.534222 42.9475 0.779486 42.9688 1.0466C42.9917 1.31371 43.0091 1.60158 43.0314 1.90912C43.05 2.21611 43.0837 2.5444 43.1126 2.88908C43.1453 3.23376 43.1649 3.59647 43.2069 3.97393C43.2439 4.35138 43.2826 4.74413 43.3229 5.15108C43.3681 5.55695 43.415 5.97646 43.4629 6.40745C43.5081 6.83844 43.568 7.28035 43.6252 7.73155C43.6541 7.95715 43.6835 8.18493 43.713 8.41545C43.7456 8.64542 43.7783 8.87702 43.8116 9.11136C43.8448 9.34516 43.878 9.58113 43.9118 9.8182C43.9488 10.0553 43.9859 10.294 44.0229 10.5343C44.0605 10.7741 44.0987 11.0156 44.1368 11.2587C44.1777 11.5006 44.2185 11.7443 44.2599 11.989C44.3019 12.2332 44.3395 12.479 44.3863 12.7242C44.4326 12.9695 44.4784 13.2158 44.522 13.4628C44.6064 13.9571 44.7105 14.4498 44.8069 14.9442C44.9 15.4391 45.0101 15.9307 45.1103 16.4218C45.2187 16.9117 45.3266 17.3995 45.4334 17.8835C45.6606 18.8487 45.8807 19.7997 46.1187 20.7147C46.3503 21.6313 46.5894 22.5135 46.8215 23.3498C46.9386 23.7677 47.0525 24.1741 47.168 24.5657C47.2786 24.959 47.3946 25.3365 47.5025 25.7003C47.7209 26.4268 47.9269 27.0921 48.1159 27.6799C48.3039 28.2682 48.4695 28.7816 48.6122 29.2023C48.7386 29.5715 48.8394 29.873 48.9167 30.0932C49.0399 30.1025 49.1624 30.1107 49.2823 30.1161C49.4882 30.126 49.6876 30.126 49.8772 30.1254C50.0668 30.1254 50.246 30.1156 50.4122 30.1047C50.495 30.0976 50.5745 30.091 50.6502 30.0844C50.726 30.0752 50.7973 30.067 50.8649 30.0588C50.897 30.0555 50.9281 30.0511 50.9575 30.0468V-6.14265e-06" fill="white"/>
<path d="M50.9521 30.3783C50.9521 30.3783 50.951 30.3783 50.9504 30.3788C50.8845 30.4072 50.8142 30.4367 50.7401 30.4684C50.665 30.4968 50.5854 30.5263 50.5026 30.5575C50.3354 30.6143 50.1523 30.6727 49.9562 30.7257C49.7606 30.7803 49.5509 30.8246 49.3335 30.8672C49.1156 30.9087 48.8895 30.9458 48.6585 30.9715C48.4275 30.9983 48.1927 31.0158 47.9574 31.0289C47.722 31.0409 47.4856 31.0622 47.2524 31.0775C47.2056 31.0808 47.1587 31.0835 47.1119 31.0857C47.101 31.1676 47.0885 31.2578 47.0754 31.3561C47.0405 31.6194 46.9986 31.9389 46.9495 32.3054C46.9043 32.672 46.8488 33.0828 46.7959 33.5318C46.7403 33.9797 46.6848 34.4653 46.6281 34.9777C46.572 35.4901 46.517 36.0297 46.4652 36.588C46.4407 36.8666 46.4156 37.1501 46.39 37.4374C46.3683 37.7242 46.3465 38.0148 46.3247 38.3076C46.3051 38.6004 46.286 38.8953 46.2696 39.1914C46.2609 39.3394 46.2522 39.4875 46.2435 39.6361L46.2261 40.0818C46.1945 40.6761 46.1868 41.2704 46.1759 41.8555C46.1716 42.0018 46.1743 42.1471 46.1754 42.2924C46.1749 42.4372 46.1738 42.5814 46.1732 42.7251C46.177 43.0119 46.1808 43.2954 46.1847 43.5739C46.1901 43.8525 46.2064 44.1262 46.2103 44.3949C46.2195 44.6637 46.2391 44.9254 46.2484 45.1815C46.2582 45.4377 46.2838 45.6852 46.2969 45.9272C46.3072 46.1692 46.3356 46.4002 46.3535 46.6247C46.3628 46.7367 46.3715 46.8465 46.3802 46.9541C46.3884 47.0617 46.4042 47.1655 46.4135 47.2676C46.4347 47.4725 46.4543 47.667 46.4734 47.8494C46.5186 48.2154 46.5578 48.5344 46.5905 48.7977C46.6069 48.9037 46.6205 49.0003 46.6319 49.0883L46.6695 49.0866L46.8128 49.0806L46.9593 49.0856C47.1527 49.0916 47.3625 49.1254 47.5662 49.1855C47.7722 49.2451 47.9661 49.345 48.123 49.4412C48.2804 49.5378 48.4008 49.6296 48.4973 49.6919C48.5937 49.7558 48.677 49.7995 48.7669 49.8399C48.7904 49.8476 48.8143 49.8558 48.8378 49.8645C48.8617 49.8743 48.8852 49.8825 48.9059 49.8869C48.9271 49.8929 48.9489 49.8989 48.9701 49.9066L48.9865 49.912L49.0121 49.9158L49.0649 49.9235C49.0998 49.929 49.1347 49.9339 49.1695 49.9388L49.1826 49.941L49.1891 49.9421H49.1924C49.1842 49.9421 49.2158 49.9432 49.1744 49.9421L49.1968 49.9437L49.242 49.947C49.3019 49.9508 49.3613 49.9557 49.4207 49.9623C49.6566 49.9841 49.8734 49.9732 50.0908 49.953C50.3119 49.9268 50.5348 49.8885 50.7434 49.8782C50.8322 49.8705 50.9177 49.8705 50.9989 49.8732C50.9684 49.7984 50.951 49.7165 50.951 49.6302V30.3794L50.9521 30.3783Z" fill="white"/>
</g>
<defs>
<clipPath id="clip0_242_2876">
<rect width="51" height="50" fill="white"/>
</clipPath>
</defs>
</svg>
