<svg width="34" height="50" viewBox="0 0 34 50" fill="none" xmlns="http://www.w3.org/2000/svg">
<g clip-path="url(#clip0_238_354)">
<path d="M6.27271 19.0466C6.27271 19.5726 5.81192 20 5.24478 20C4.67765 20 4.21686 19.5726 4.21686 19.0466V0.953425C4.21686 0.427397 4.67765 0 5.24478 0C5.81192 0 6.27271 0.427397 6.27271 0.953425V19.0466Z" fill="white"/>
<path d="M30.0332 19.0466C30.0332 19.5726 29.5724 20 29.0053 20C28.4382 20 27.9774 19.5726 27.9774 19.0466V0.953425C27.9774 0.427397 28.4382 0 29.0053 0C29.5724 0 30.0332 0.427397 30.0332 0.953425V19.0466Z" fill="white"/>
<path d="M27.7871 3.24414V12.9844H6.46289V3.24414H27.7871ZM15.9971 6.55469L13.4736 6.92285L15.2998 8.71191L14.8682 11.2373L17.125 10.0488L19.3818 11.2373L18.9502 8.71191L20.7764 6.92285L18.2529 6.55469L17.125 4.25488L15.9971 6.55469Z" fill="white"/>
<path d="M30.3379 48.43C30.7246 48.7881 30.7246 49.372 30.3379 49.73C29.9513 50.088 29.3206 50.088 28.934 49.73L3.91798 26.5671C3.53129 26.209 3.53129 25.6251 3.91798 25.2671C4.30467 24.909 4.93528 24.909 5.32197 25.2671L30.3379 48.43Z" fill="white"/>
<path d="M3.91798 48.43C3.53129 48.7881 3.53129 49.372 3.91798 49.73C4.30467 50.088 4.93528 50.088 5.32197 49.73L30.3379 26.5671C30.7246 26.209 30.7246 25.6251 30.3379 25.2671C29.9513 24.909 29.3206 24.909 28.934 25.2671L3.91798 48.43Z" fill="white"/>
<path d="M33.625 22.3496C33.625 23.6154 32.6089 24.6375 31.3506 24.6375H2.89944C1.64702 24.6375 0.625 23.6154 0.625 22.3496C0.625 21.0839 1.64111 20.0618 2.89944 20.0618H31.3565C32.6089 20.0618 33.6309 21.0839 33.6309 22.3496H33.625Z" fill="white"/>
</g>
<defs>
<clipPath id="clip0_238_354">
<rect width="33" height="50" fill="white" transform="translate(0.625)"/>
</clipPath>
</defs>
</svg>
