<svg width="60" height="28" viewBox="0 0 60 28" fill="none" xmlns="http://www.w3.org/2000/svg">
<g clip-path="url(#clip0_238_1879)">
<path d="M58.4454 7.15234H57.8177V18.7839H58.4454V7.15234Z" fill="#C9C9C9"/>
<path d="M59.9895 20.526C60.0837 21.2907 59.5836 21.9148 58.8806 21.9148H57.3825C56.6794 21.9148 56.1794 21.2886 56.2735 20.526L56.7004 17.0436C56.7945 16.279 57.4369 15.6549 58.1315 15.6549C58.8262 15.6549 59.4685 16.2811 59.5627 17.0436L59.9895 20.526Z" fill="#C9C9C9"/>
<path d="M28.2069 18.3983L13.5019 13.2311L12.7968 26.9372C12.7675 27.5229 13.2131 28 13.7885 28H44.7636C45.339 28 45.7846 27.5208 45.7553 26.9372L45.0502 13.2311L30.3452 18.3983C29.7573 18.6986 28.7948 18.6986 28.2048 18.3983H28.2069Z" fill="white"/>
<path d="M58.1147 6.69674L30.3472 0.223897C29.7593 -0.0764226 28.7968 -0.0764226 28.2068 0.223897L0.441404 6.69674C-0.146545 6.99706 -0.146545 7.48694 0.441404 7.78726L28.2089 17.5466C28.7968 17.8469 29.7593 17.8469 30.3493 17.5466L58.1168 7.78726C58.7048 7.48694 58.7048 6.99706 58.1168 6.69674H58.1147Z" fill="white"/>
</g>
<defs>
<clipPath id="clip0_238_1879">
<rect width="60" height="28" fill="white"/>
</clipPath>
</defs>
</svg>
