<svg width="16" height="17" viewBox="0 0 16 17" fill="none" xmlns="http://www.w3.org/2000/svg">
<g clip-path="url(#clip0_191_679)">
<path d="M8.22002 12.2887C6.04392 12.2887 4.27393 10.5187 4.27393 8.34258C4.27393 6.16648 6.04392 4.39648 8.22002 4.39648C10.3961 4.39648 12.1661 6.16648 12.1661 8.34258C12.1661 10.5187 10.3961 12.2887 8.22002 12.2887ZM8.22002 5.71011C6.76864 5.71011 5.58755 6.8912 5.58755 8.34258C5.58755 9.79397 6.76864 10.9751 8.22002 10.9751C9.67141 10.9751 10.8525 9.79397 10.8525 8.34258C10.8525 6.8912 9.67141 5.71011 8.22002 5.71011Z" fill="white"/>
<path d="M11.89 16.0231H4.54947C2.33876 16.0231 0.540039 14.2244 0.540039 12.0137V4.67251C0.540039 2.46181 2.33876 0.663086 4.54947 0.663086H11.89C14.1007 0.663086 15.8994 2.46181 15.8994 4.67251V12.013C15.8994 14.2237 14.1007 16.0231 11.89 16.0231ZM4.54947 1.97671C3.06282 1.97671 1.85366 3.18587 1.85366 4.67251V12.013C1.85366 13.4997 3.06282 14.7088 4.54947 14.7088H11.89C13.3766 14.7088 14.5858 13.4997 14.5858 12.013V4.67251C14.5858 3.18587 13.3766 1.97671 11.89 1.97671H4.54947Z" fill="white"/>
<path d="M13.177 4.33005C13.2383 3.8326 12.8847 3.37968 12.3872 3.31842C11.8897 3.25717 11.4368 3.61077 11.3756 4.10823C11.3143 4.60568 11.6679 5.05861 12.1654 5.11986C12.6628 5.18112 13.1157 4.82751 13.177 4.33005Z" fill="white"/>
</g>
<defs>
<clipPath id="clip0_191_679">
<rect width="16" height="17" fill="white"/>
</clipPath>
</defs>
</svg>
