<svg width="166" height="19" viewBox="0 0 166 19" fill="none" xmlns="http://www.w3.org/2000/svg">
<g clip-path="url(#clip0_282_1630)">
<path d="M99.4481 12.4287C97.7809 12.4287 96.4819 13.7273 96.4819 15.3673C96.4819 17.0074 97.7809 18.306 99.4481 18.306C101.115 18.306 102.357 17.0074 102.357 15.3673C102.357 13.7273 101.058 12.4287 99.4481 12.4287Z" fill="#FFB400"/>
<path d="M4.63336 14.7712C3.64574 14.7143 1.80777 14.2625 0.646066 13.3287L-0.00341797 16.833C1.46629 17.8504 3.38796 18.3023 5.30963 18.3023C8.87174 18.3023 11.0177 16.4949 11.1617 13.7839C11.3023 11.3808 10.0301 10.0252 7.40204 8.33167C5.36654 7.00292 4.54632 6.35361 4.57645 5.27923C4.60658 4.40232 5.4268 4.09106 6.4412 4.09106C7.28821 4.09106 8.73113 4.3722 10.0569 5.08176L11.0478 2.05945C9.21322 1.09552 7.43217 0.787598 5.99259 0.787598C2.45725 0.787598 0.508804 2.56484 0.535587 5.38968C0.535587 7.0297 1.41272 8.44212 3.53192 9.93821C5.65111 11.4343 7.26143 12.2275 7.12082 13.4994C7.00699 14.4031 6.35751 14.885 4.63336 14.7712Z" fill="#00D778"/>
<path d="M82.7724 11.4645L79.4948 1.18262H74.0947V18.0781H77.8544L77.687 5.3931L81.5303 16.6088H83.9307L87.8042 5.3931L87.6602 18.0781H91.363V1.18262H85.9963L82.7724 11.4645Z" fill="black"/>
<path d="M51.1516 18.3024C55.4201 18.3024 57.7938 15.6181 57.7938 11.8595V1.06885H53.8098V12.0034C53.8098 13.7271 52.9327 14.8851 51.155 14.8851C49.3773 14.8851 48.5269 13.7271 48.5269 12.0034V1.06885H44.543V11.8628C44.543 15.7353 46.9166 18.3057 51.155 18.3057L51.1516 18.3024Z" fill="black"/>
<path d="M69.0128 14.4601H63.8704V1.06885H59.8296V17.9911H69.0128V14.4601Z" fill="black"/>
<path d="M142.036 5.67443C142.036 6.69191 142.686 7.73616 144.015 7.73616C145.344 7.73616 146.05 6.68856 146.05 5.67443V3.10396C146.05 2.1166 145.401 1.09912 144.015 1.09912C142.629 1.09912 142.036 2.1166 142.036 3.10396V5.67443Z" fill="#0082FF"/>
<path d="M151.42 1.0957C150.091 1.0957 149.441 2.11318 149.441 3.10054V5.67101C149.441 6.68849 150.091 7.73274 151.42 7.73274C152.749 7.73274 153.455 6.68514 153.455 5.67101V3.10054C153.455 2.11318 152.806 1.0957 151.42 1.0957Z" fill="#0082FF"/>
<path d="M116.375 8.41565C114.339 7.0869 113.519 6.43759 113.549 5.36321C113.579 4.48631 114.396 4.17839 115.414 4.17839C116.261 4.17839 117.704 4.45953 119.03 5.16574L120.017 2.14343C118.179 1.18285 116.401 0.871582 114.959 0.871582C111.427 0.871582 109.475 2.65217 109.505 5.47701C109.505 7.11703 110.379 8.52945 112.501 10.0255C114.62 11.5216 116.234 12.3149 116.09 13.5867C115.976 14.4904 115.327 14.9724 113.603 14.8586C112.615 14.8017 110.777 14.3498 109.619 13.416L108.969 16.9203C110.439 17.9378 112.361 18.3896 114.282 18.3896C117.844 18.3896 119.99 16.5823 120.131 13.8679C120.275 11.4647 119.003 10.1092 116.375 8.41565Z" fill="black"/>
<path d="M105.24 1.15283H93.6528C93.3147 1.15283 92.9765 1.20973 92.7757 1.54777C92.5781 1.88582 92.692 2.22721 92.8627 2.50835L98.6277 11.1536C98.7683 11.3778 99.1366 11.5786 99.4479 11.5786C99.7593 11.5786 100.124 11.3812 100.268 11.1536L106.033 2.50835C106.204 2.22721 106.314 1.88582 106.117 1.54777C105.919 1.20973 105.581 1.15283 105.24 1.15283Z" fill="#FFB400"/>
<path d="M153.764 10.2496C152.773 10.1927 151.926 10.6747 151.671 11.7758C151.219 13.697 149.666 14.7144 147.687 14.7144C145.709 14.7144 144.155 13.697 143.703 11.7758C143.449 10.6747 142.602 10.1659 141.611 10.2496C140.68 10.2764 139.86 11.0395 139.887 12.0569C139.944 15.2198 142.796 18.4999 147.687 18.4999C152.579 18.4999 155.431 15.2232 155.488 12.0569C155.515 11.0395 154.698 10.3031 153.764 10.2496Z" fill="#0082FF"/>
<path d="M160.914 14.5471V1.18262H156.874V18.0781H166V14.5471H160.914Z" fill="black"/>
<path d="M129.913 0.928223C124.912 0.928223 121.038 4.45928 121.038 9.66046C121.038 14.8617 124.912 18.4195 129.913 18.4195C134.915 18.4195 138.842 14.8617 138.842 9.66046C138.842 4.45928 134.999 0.928223 129.913 0.928223ZM129.94 14.8014C126.773 14.8014 125.022 12.2577 125.022 9.66046C125.022 7.06322 126.773 4.51952 129.94 4.51952C133.107 4.51952 134.858 7.06322 134.858 9.66046C134.858 12.2577 133.107 14.8014 129.94 14.8014Z" fill="black"/>
<path d="M29.786 16.5521C30.8874 17.3721 32.5848 18.2457 33.6862 18.2457C34.7877 18.2457 36.3712 17.4558 37.5865 16.5521C38.3799 15.9864 39.7626 14.7146 40.3284 13.9816C42.0826 11.7793 43.097 9.26239 43.097 6.38064C43.097 3.18764 41.2591 0.871533 38.0953 0.533489C36.2875 0.336018 34.5633 1.069 33.6862 2.25718C32.8091 1.07235 31.0883 0.336018 29.2771 0.533489C26.11 0.871533 24.2754 3.18764 24.2754 6.38064C24.2754 9.26239 25.2931 11.776 27.0441 13.9816C27.6099 14.7179 28.9959 15.9864 29.786 16.5521ZM30.181 4.06454C31.2825 3.89385 32.4408 4.45948 33.2041 5.81501C33.4016 6.12628 33.9674 6.12628 34.165 5.81501C34.9283 4.45948 36.0866 3.89385 37.1881 4.06454C38.4301 4.23524 39.1934 5.27949 39.2503 6.69191C39.3073 8.18801 38.7147 10.1092 37.2718 11.863C36.4515 12.8537 35.4907 13.6436 34.7006 14.1222C34.473 14.2628 33.9942 14.4904 33.6829 14.4904C33.3715 14.4904 32.8928 14.2628 32.6651 14.1222C31.8717 13.6436 30.9142 12.8503 30.094 11.863C28.6544 10.1125 28.0585 8.19136 28.1154 6.69191C28.1723 5.27949 28.9356 4.23524 30.1777 4.06454H30.181Z" fill="#FF0A73"/>
<path d="M12.8589 17.9911H22.8623V14.6575H16.8428V11.0428H22.6648V7.73601H16.8428V4.43255H22.8623V1.06885H12.8589V17.9911Z" fill="black"/>
</g>
<defs>
<clipPath id="clip0_282_1630">
<rect width="166" height="18" fill="white" transform="translate(0 0.5)"/>
</clipPath>
</defs>
</svg>
