<svg width="147" height="21" viewBox="0 0 147 21" fill="none" xmlns="http://www.w3.org/2000/svg">
<g clip-path="url(#clip0_282_1605)">
<path d="M8.00179 16.1953C8.59391 16.3664 8.78594 16.6071 8.78594 16.9386C8.78594 17.2274 8.57257 17.4841 8.04446 17.4894L0.0588709 17.5696L0.0855429 20.5001L7.70306 20.4253C10.3276 20.3985 11.7945 19.067 11.7732 16.9493C11.7519 14.9333 10.6103 14.0937 8.54056 13.4734L4.08101 12.1472C3.43021 11.9547 3.13682 11.7087 3.16349 11.3504C3.20083 10.9119 3.54223 10.7622 4.17703 10.7568L11.6185 10.6819L11.5918 7.75146L4.24104 7.82098C1.58984 7.84237 0.0802085 9.0135 0.000192556 11.1472C-0.0638202 12.821 1.0404 14.1525 3.15282 14.7729L7.99645 16.1953H8.00179Z" fill="#00A4E0"/>
<path d="M15.9181 0.5L16.0514 14.1096C16.0674 16.0294 17.3797 17.5428 19.5508 17.5214C21.7219 17.5 23.0128 15.9599 22.9915 14.0401C22.9755 12.1203 21.6792 10.5749 19.4815 10.5963L17.5077 10.6176L17.4811 7.68717L19.4548 7.66577C23.2849 7.62834 25.9094 10.4733 25.9467 14.0134C25.9787 17.5535 23.3862 20.4465 19.5828 20.484C15.7314 20.5214 13.1282 17.6765 13.0908 14.1364L12.9521 0.526738L15.9127 0.5H15.9181Z" fill="#00A4E0"/>
<path d="M33.3614 7.37694C29.6166 7.41437 26.9761 10.3288 27.0081 13.8903C27.0401 17.4518 29.7927 20.3128 33.4841 20.2753C34.1829 20.27 34.839 20.163 35.4525 19.9705L35.4258 16.9545C34.9617 17.1309 34.2735 17.2967 33.4627 17.3021C31.345 17.3235 29.9794 15.7299 29.958 13.8582C29.942 11.9384 31.2756 10.3662 33.3934 10.3449C35.5698 10.3235 36.8767 11.8689 36.8981 13.7887L36.9621 20.1363L39.9067 20.1096L39.8427 13.762C39.8107 10.2005 37.4102 7.33416 33.3667 7.37694H33.3614Z" fill="#00A4E0"/>
<path d="M102.559 4.78906H100.751V20.142H102.559V4.78906Z" fill="#54565A"/>
<path d="M51.8664 10.6392C51.4023 9.55901 51.1943 8.76222 51.1943 6.90125V4.98682H49.1672V6.90125C49.1672 8.76222 48.9591 9.55901 48.4951 10.6392C48.0096 11.7622 47.1028 12.8959 46.0039 13.7408L45.8599 13.8531L46.3026 14.313C46.548 14.5644 46.8467 14.8799 46.9001 14.928L46.9908 15.0242L47.1028 14.9547C47.6629 14.5911 48.351 13.9761 48.9378 13.3077C49.3379 12.8531 49.882 12.067 50.1807 11.4414C50.4795 12.0617 51.0236 12.8531 51.4236 13.3077C52.0104 13.9761 52.6932 14.5911 53.2587 14.9547L53.3707 15.0296L53.4614 14.9333C53.5414 14.8478 54.2722 14.0938 54.3736 13.9868L54.5016 13.8585L54.3576 13.7462C53.2587 12.8959 52.3465 11.7676 51.8664 10.6446V10.6392Z" fill="#54565A"/>
<path d="M94.9096 10.8265C94.4935 9.77841 94.3068 9.00301 94.3068 7.19552V6.74098H96.5472V5.24365H90.1193V6.74098H92.3597V7.19552C92.3597 9.00836 92.173 9.77841 91.7569 10.8265C91.2875 12.0084 90.5194 13.0725 89.6072 13.8372L89.4312 13.9816L90.0286 14.6447C90.21 14.8426 90.3807 15.0351 90.4127 15.0779L90.53 15.2062L90.6687 15.11C91.1968 14.741 91.7409 14.11 92.2477 13.4896C92.5784 13.0832 93.0425 12.3773 93.3306 11.7624C93.6187 12.3773 94.0881 13.0832 94.4135 13.4896C94.9203 14.11 95.459 14.7356 95.9925 15.11L96.1312 15.2062L96.2485 15.0779C96.3232 14.9977 96.9847 14.2597 97.0753 14.1527L97.23 13.9816L97.054 13.8372C96.1365 13.0779 95.3737 12.0084 94.9042 10.8265H94.9096Z" fill="#54565A"/>
<path d="M56.2193 8.48425H53.2534V9.98158V10.0083H56.2193V20.142H58.1184V4.78906H56.2193V8.48425Z" fill="#54565A"/>
<path d="M97.9021 8.48425H95.811V9.98158H97.9021V20.142H99.7158V4.78906H97.9021V8.48425Z" fill="#54565A"/>
<path d="M60.188 12.9548H66.4399V13.9174H62.1937V15.3987H70.1206C70.366 15.3987 70.4354 15.4361 70.4354 15.6982V16.2864H62.1724V18.8425C62.1724 19.6928 62.6525 20.142 63.554 20.142H72.6065V18.6447H64.4342C64.1674 18.6447 64.1034 18.6179 64.1034 18.3613V17.6286H72.3664V15.1313C72.3664 14.3345 71.6569 13.9174 70.9635 13.9174H68.3389V12.9548H74.6175V11.4575H60.188V12.9548Z" fill="#54565A"/>
<path d="M64.0713 9.96031C64.8448 10.5646 65.965 10.8694 67.3999 10.8694C68.8349 10.8694 69.9551 10.5646 70.7286 9.96031C71.4381 9.39347 71.7955 8.62341 71.7955 7.67689C71.7955 6.73036 71.4381 5.96031 70.7286 5.39347C69.9551 4.78919 68.8349 4.48438 67.3999 4.48438C65.965 4.48438 64.8448 4.78919 64.0713 5.39347C63.3671 5.96031 63.0044 6.73036 63.0044 7.67689C63.0044 8.62341 63.3618 9.39347 64.0713 9.96031ZM65.5969 6.45229C65.9917 6.17421 66.6158 6.02983 67.3999 6.02983C68.1841 6.02983 68.8082 6.17421 69.203 6.45229C69.5817 6.71967 69.8004 7.16352 69.8004 7.67689C69.8004 8.19026 69.5817 8.63411 69.203 8.90149C68.8082 9.17956 68.1841 9.32395 67.3999 9.32395C66.6158 9.32395 65.9917 9.17956 65.5969 8.89614C65.2182 8.62876 64.9995 8.18491 64.9995 7.67154C64.9995 7.15817 65.2182 6.71432 65.5969 6.44694V6.45229Z" fill="#54565A"/>
<path d="M108.902 18.4147V14.5537H106.987V18.8746C106.987 19.5056 107.398 20.1419 108.32 20.1419H116.802V18.6232H109.121C108.945 18.6232 108.902 18.6018 108.902 18.4147Z" fill="#54565A"/>
<path d="M138.945 18.6232C138.769 18.6232 138.727 18.6018 138.727 18.4147V15.4414H136.817V18.8746C136.817 19.5056 137.228 20.1419 138.15 20.1419H147V18.6232H138.945Z" fill="#54565A"/>
<path d="M108.902 10.1795C109.184 10.7945 109.696 11.479 110.251 11.9763C110.955 12.6073 111.691 13.0137 112.182 13.249L112.3 13.3025L112.684 12.8052C112.881 12.5485 113.11 12.249 113.164 12.1795L113.286 12.0191L113.105 11.9335C110.998 10.9549 109.931 9.29714 109.931 7.01372V6.52174H112.566V5.02441H105.247V6.52174H107.883V7.01372C107.883 9.29714 106.816 10.9495 104.709 11.9335L104.527 12.0191L105.509 13.3025L105.626 13.249C106.122 13.0137 106.858 12.6073 107.563 11.9763C108.117 11.479 108.624 10.7945 108.907 10.1795H108.902Z" fill="#54565A"/>
<path d="M116.519 4.78906H114.609V15.0564H116.519V4.78906Z" fill="#54565A"/>
<path d="M137.937 15.067H139.82V12.8638H141.207C142.764 12.805 143.335 12.7462 144.258 12.5429L144.397 12.5109L144.253 11.0938L144.082 11.1205C143.095 11.2916 142.284 11.3772 140.599 11.3772H133.915V12.8745H137.937V15.067Z" fill="#54565A"/>
<path d="M141.746 15.0885H144.68V16.2703H146.589V4.78906H144.68V13.6019H141.746V15.0885Z" fill="#54565A"/>
<path d="M129.071 15.233C128.271 14.6555 127.108 14.3667 125.62 14.3667C124.132 14.3667 122.963 14.6608 122.163 15.2384C121.427 15.7838 121.054 16.5218 121.054 17.4362C121.054 18.3507 121.427 19.0886 122.169 19.6341C122.969 20.2116 124.132 20.5004 125.625 20.5004C127.119 20.5004 128.276 20.2063 129.082 19.6287C129.818 19.0833 130.192 18.3453 130.192 17.4309C130.192 16.5164 129.818 15.7785 129.077 15.233H129.071ZM127.546 18.5913C127.124 18.8587 126.457 19.0031 125.62 19.0031C124.782 19.0031 124.116 18.8587 123.694 18.5913C123.294 18.34 123.065 17.9175 123.065 17.4309C123.065 17.1474 123.145 16.618 123.694 16.2704C124.116 16.0031 124.782 15.8587 125.62 15.8587C126.457 15.8587 127.124 16.0031 127.546 16.2704C128.09 16.618 128.175 17.1474 128.175 17.4309C128.175 17.9175 127.946 18.34 127.546 18.5913Z" fill="#54565A"/>
<path d="M132.832 12.1206H118.408V13.6179H132.832V12.1206Z" fill="#54565A"/>
<path d="M121.475 8.41463C121.475 9.30768 121.811 10.0296 122.483 10.5697C123.209 11.1366 124.265 11.4253 125.62 11.4253C126.975 11.4253 128.031 11.1366 128.756 10.5644C129.423 10.0296 129.759 9.30768 129.759 8.41463C129.759 7.81036 129.599 7.2756 129.284 6.8264H131.274V5.35581H126.596V4.21143H124.633V5.35581H119.955V6.8264H121.944C121.63 7.2756 121.47 7.81036 121.47 8.41463H121.475ZM123.929 7.2756C124.302 7.01356 124.868 6.87987 125.62 6.87987C126.372 6.87987 126.937 7.01356 127.311 7.2756C127.812 7.62319 127.866 8.19004 127.866 8.41463C127.866 8.63923 127.812 9.20608 127.311 9.55902C126.943 9.82105 126.356 9.95474 125.62 9.95474C124.884 9.95474 124.297 9.8157 123.929 9.55902C123.427 9.20608 123.374 8.64458 123.374 8.41463C123.374 8.18469 123.427 7.62319 123.929 7.2756Z" fill="#54565A"/>
<path d="M135.83 9.65506C136.523 10.2273 137.531 10.516 138.822 10.516C140.113 10.516 141.122 10.2273 141.82 9.65506C142.455 9.1203 142.775 8.39837 142.775 7.50532C142.775 6.61228 142.455 5.89035 141.815 5.35559C141.122 4.7834 140.113 4.49463 138.822 4.49463C137.531 4.49463 136.523 4.7834 135.83 5.35559C135.195 5.89035 134.87 6.61228 134.87 7.50532C134.87 8.39837 135.19 9.1203 135.83 9.65506ZM137.291 6.37698C137.628 6.1203 138.156 5.98661 138.822 5.98661C139.489 5.98661 140.023 6.1203 140.353 6.37698C140.812 6.71923 140.86 7.28073 140.86 7.50532C140.86 7.98126 140.673 8.39302 140.353 8.63901C140.023 8.8957 139.489 9.02939 138.822 9.02939C138.156 9.02939 137.628 8.8957 137.291 8.63901C136.971 8.39302 136.785 7.98126 136.785 7.50532C136.785 7.28073 136.833 6.71923 137.291 6.37163V6.37698Z" fill="#54565A"/>
<path d="M86.3693 14.7783C85.5958 14.1473 84.6303 13.7729 83.1953 13.7729C81.7604 13.7729 80.7949 14.1473 80.0214 14.7783C79.3119 15.3665 78.8691 16.1847 78.8691 17.1366C78.8691 18.0885 79.3172 18.9013 80.0214 19.4949C80.7949 20.1259 81.7604 20.5002 83.1953 20.5002C84.6303 20.5002 85.5958 20.1259 86.3693 19.4949C87.0788 18.9066 87.5215 18.0885 87.5215 17.1366C87.5215 16.1847 87.0734 15.3719 86.3693 14.7783ZM84.9984 18.4147C84.6356 18.7355 83.9795 18.9548 83.1953 18.9548C82.4112 18.9548 81.755 18.7355 81.3923 18.4147C81.0456 18.1098 80.8642 17.65 80.8642 17.1366C80.8642 16.6232 81.0456 16.1633 81.3923 15.8585C81.755 15.5377 82.4112 15.3184 83.1953 15.3184C83.9795 15.3184 84.6356 15.5377 84.9984 15.8585C85.3451 16.1633 85.5265 16.6232 85.5265 17.1366C85.5265 17.65 85.3451 18.1098 84.9984 18.4147Z" fill="#54565A"/>
<path d="M82.5391 8.36125H85.6544V9.74628H82.3577V11.3131H85.6544V13.896H87.5161V4.78906H85.6544V6.82115H82.8058V6.72489C82.8111 6.16874 82.8911 5.22756 81.7923 5.23826C80.4267 5.2543 76.1645 5.23826 76.1645 5.23826V6.74093H80.8107V7.20083C80.608 9.16339 78.805 11.9067 75.7271 13.1367L76.4739 14.6126C78.1969 13.9441 81.5309 11.8265 82.5391 8.35591V8.36125Z" fill="#54565A"/>
</g>
<defs>
<clipPath id="clip0_282_1605">
<rect width="147" height="20" fill="white" transform="translate(0 0.5)"/>
</clipPath>
</defs>
</svg>
