<svg width="115" height="46" viewBox="0 0 115 46" fill="none" xmlns="http://www.w3.org/2000/svg">
<g clip-path="url(#clip0_203_135)">
<path d="M26.2091 13.5733L0 18.0162V9.39182L26.2091 0.5V13.5733Z" fill="white"/>
<path d="M34.9495 17.9615H0V26.671H34.9495V17.9615Z" fill="white"/>
<path d="M34.9191 35.3015L8.73433 45.5V32.6029L34.9191 26.671V35.3015Z" fill="white"/>
<path d="M45.3626 11.6163H47.1751V14.5215C47.1751 16.7581 48.1179 18.5085 50.2346 19.6086C49.9365 20.028 49.6202 20.4473 49.3344 20.8667C47.8503 20.1191 46.7129 18.7455 46.2445 17.6394C45.8674 18.7759 44.7604 20.1921 43.2459 21.0369C42.9296 20.6418 42.6194 20.2285 42.2849 19.8335C44.365 18.5389 45.3565 16.8128 45.3565 14.5093V11.6224L45.3626 11.6163ZM52.8865 11.1605V23.1276H51.0861V16.3023H48.641V14.9955H51.0861V11.1665H52.8865V11.1605Z" fill="white"/>
<path d="M66.1096 15.816V17.0559H61.4201V17.9068H64.954V21.0186H57.8072V21.8027H65.3007V23.0729H56.0129V19.8699H63.1779V19.1224H56.0129V17.9068H59.6562V17.0559H54.9484V15.816H66.1096ZM60.8849 11.2091C63.8044 11.2091 65.1121 11.9566 65.1121 13.2512C65.1121 14.5458 63.7922 15.3055 60.8849 15.3055H60.1793C57.2415 15.3055 55.952 14.5215 55.952 13.2512C55.952 11.981 57.2537 11.2091 60.1793 11.2091H60.8849ZM60.1915 12.4125C58.5006 12.4125 57.7768 12.6617 57.7768 13.2512C57.7768 13.8408 58.5127 14.1143 60.1915 14.1143H60.8484C62.5271 14.1143 63.2631 13.8651 63.2631 13.2512C63.2631 12.6374 62.5271 12.4125 60.8484 12.4125H60.1915Z" fill="white"/>
<path d="M77.6601 11.1605V17.998H75.8597V16.5575H73.4754C72.8733 17.2261 71.9305 17.6272 70.7627 17.6272C68.7555 17.6272 67.393 16.3691 67.393 14.7889V14.3574C67.393 12.7224 68.7555 11.4704 70.7627 11.4704C71.9001 11.4704 72.8307 11.8655 73.4146 12.4915H75.8597V11.1544H77.6601V11.1605ZM72.9706 18.2046H73.7491C76.5531 18.2046 77.8426 19.2135 77.8426 20.7269C77.8426 22.2403 76.5531 23.2492 73.7491 23.2492H72.9706C70.1544 23.2492 68.8771 22.2281 68.8771 20.7269C68.8771 19.2257 70.1666 18.2046 72.9706 18.2046ZM69.1387 14.3635V14.7707C69.1387 15.658 69.7226 16.3387 70.7749 16.3387C71.8818 16.3387 72.411 15.658 72.411 14.7707V14.3635C72.411 13.4761 71.8879 12.7954 70.7749 12.7954C69.6618 12.7954 69.1387 13.4761 69.1387 14.3635ZM72.9888 21.9485H73.737C75.3549 21.9485 76.0726 21.5717 76.0726 20.733C76.0726 19.8942 75.3549 19.5296 73.737 19.5296H72.9888C71.3527 19.5296 70.6532 19.9064 70.6532 20.733C70.6532 21.5596 71.3709 21.9485 72.9888 21.9485ZM74.108 15.263H75.8597V13.7861H74.0898C74.1323 13.9684 74.1506 14.1629 74.1506 14.3635V14.795C74.1506 14.9652 74.1384 15.1232 74.108 15.263Z" fill="white"/>
<path d="M83.037 14.953H83.6087C85.3909 14.953 86.4553 15.8829 86.4553 17.0985C86.4553 18.1985 85.6342 19.019 84.2352 19.2014V20.2224C85.3422 20.1677 86.2424 20.0766 87.0696 19.9368L87.2217 21.128C85.4395 21.5049 82.2037 21.6386 79.5518 21.6386V20.2893C80.6466 20.3015 81.6076 20.2893 82.4591 20.2771V19.2196C81.048 19.0373 80.2269 18.1985 80.2269 17.0985C80.2269 15.8829 81.2731 14.953 83.0431 14.953H83.037ZM86.8263 13.2147V14.4546H79.6369V13.2147H86.8263ZM85.3179 11.2516V12.5219H81.4495V11.2516H85.3179ZM83.0795 18.0648H83.5722C84.2899 18.0648 84.74 17.6698 84.74 17.0985C84.74 16.5271 84.2899 16.1199 83.5722 16.1199H83.0795C82.3922 16.1199 81.9239 16.5393 81.9239 17.0985C81.9239 17.6576 82.3862 18.0648 83.0795 18.0648ZM89.5695 11.1605V15.9984H91.2908V17.3051H89.5695V23.1216H87.7873V11.1544H89.5695V11.1605Z" fill="white"/>
<path d="M94.0948 11.6163H95.8465V13.1053C95.8465 15.1293 96.4 16.284 98.0483 17.1349L97.1968 18.314C96.175 17.8278 95.3112 16.8614 94.995 16.0105C94.6969 16.91 93.7663 17.8947 92.5985 18.5207L91.747 17.3173C93.4865 16.3995 94.1009 15.3055 94.1009 13.1053V11.6163H94.0948ZM95.366 18.94V21.7237H103.024V22.9939H93.5839V18.94H95.366ZM99.9947 11.3002V19.876H98.3464V14.9591H96.8623V13.6523H98.3464V11.3002H99.9947ZM102.756 11.1605V20.0887H101.035V11.1605H102.756Z" fill="white"/>
<path d="M111.545 20.4534C110.152 20.7816 107.847 20.8849 105.986 20.8849H104.891V11.8108H110.931V13.1175H106.673V15.4453H110.195V16.752H106.673V19.5478C108.145 19.5478 110 19.481 111.351 19.2075C111.424 19.6147 111.472 20.034 111.545 20.4473V20.4534ZM114.811 11.1605V23.1276H113.011V16.7459H111.016V15.4392H113.011V11.1605H114.811Z" fill="white"/>
<path d="M44.6874 31.7885C45.3626 31.7885 45.7518 31.5211 45.7518 31.0166C45.7518 30.5122 45.4842 30.3541 44.7847 30.2751L44.213 30.2022C43.2641 30.0806 42.7593 29.5458 42.7593 28.6524C42.7593 27.5097 43.7325 26.9931 44.8638 26.9931C45.4842 26.9931 46.1533 27.1086 46.573 27.3882V28.3789C46.0864 28.0567 45.4964 27.8683 44.9185 27.8683C44.213 27.8683 43.842 28.0993 43.842 28.6098C43.842 29.09 44.0792 29.248 44.7178 29.327L45.247 29.3938C46.2749 29.5154 46.8345 30.0442 46.8345 30.9558C46.8345 32.141 45.8187 32.6515 44.6083 32.6515C43.9697 32.6515 43.3858 32.5361 42.8323 32.2443V31.2536C43.3858 31.5879 44.0244 31.7824 44.6874 31.7824V31.7885Z" fill="white"/>
<path d="M51.299 27.9534H48.6836V29.3574H51.0435V30.2204H48.6836V31.6973H51.3781V32.5725H47.6009V27.0782H51.2929V27.9534H51.299Z" fill="white"/>
<path d="M54.2429 26.981C55.6479 26.981 56.615 27.8379 56.615 29.4911V30.2204C56.615 31.8736 55.6479 32.688 54.2429 32.688C52.8378 32.688 51.889 31.8736 51.889 30.2204V29.4911C51.889 27.8379 52.8378 26.981 54.2429 26.981ZM54.2429 31.8128C55.1613 31.8128 55.5263 31.2354 55.5263 30.269V29.4425C55.5263 28.4518 55.137 27.8562 54.2429 27.8562C53.3913 27.8562 52.9716 28.4518 52.9716 29.4425V30.269C52.9716 31.2354 53.3305 31.8128 54.2429 31.8128Z" fill="white"/>
<path d="M62.0162 27.0843V30.2873C62.0162 31.9404 61.0977 32.688 59.6927 32.688C58.2877 32.688 57.4057 31.9404 57.4057 30.2873V27.0843H58.4945V30.2387C58.4945 31.3083 58.8412 31.7824 59.7049 31.7824C60.4956 31.7824 60.9457 31.3874 60.9457 30.2387V27.0843H62.0223H62.0162Z" fill="white"/>
<path d="M64.1268 31.7034H66.4442V32.5786H63.0502V27.0843H64.1268V31.7034Z" fill="white"/>
<path d="M72.04 27.9534H69.4245V29.4546H71.7845V30.3177H69.4245V32.5725H68.348V27.0782H72.04V27.9534Z" fill="white"/>
<path d="M73.8404 32.5725H72.7638V27.0782H73.8404V32.5725Z" fill="white"/>
<path d="M76.0118 31.7034H78.3292V32.5786H74.9352V27.0843H76.0118V31.7034Z" fill="white"/>
<path d="M78.8766 27.0843H79.8802L81.4981 30.0867L83.116 27.0843H84.1196V32.5786H83.116V30.5365L83.1404 28.8225L81.8935 31.1989H81.0723L79.8559 28.8833L79.8802 30.4635V32.5786H78.8766V27.0843Z" fill="white"/>
<path d="M89.1194 27.8926C88.2253 27.8926 87.6535 28.4032 87.6535 29.4729V30.2447C87.6535 31.3752 88.2618 31.7824 89.1376 31.7824C89.5634 31.7824 90.1473 31.7216 90.567 31.4846V32.4024C90.1777 32.5968 89.5938 32.6941 89.0464 32.6941C87.5805 32.6941 86.5708 31.8493 86.5708 30.2022V29.5336C86.5708 27.8805 87.5744 26.9931 89.0525 26.9931C89.7276 26.9931 90.2811 27.1451 90.5791 27.3274V28.3242C90.2507 28.0628 89.6911 27.9048 89.1194 27.9048V27.8926Z" fill="white"/>
<path d="M95.0071 27.9534H92.3917V29.3574H94.7517V30.2204H92.3917V31.6973H95.0862V32.5725H91.309V27.0782H95.001V27.9534H95.0071Z" fill="white"/>
<path d="M95.9195 27.0843H96.9231L99.429 30.8829L99.4108 29.4425V27.0843H100.414V32.5786H99.4108L96.9049 28.7435L96.9231 30.032V32.5786H95.9195V27.0843Z" fill="white"/>
<path d="M105.536 27.9716H103.808V32.5786H102.732V27.9716H100.962V27.0843H105.536V27.9716Z" fill="white"/>
<path d="M109.781 27.9534H107.166V29.3574H109.526V30.2204H107.166V31.6973H109.86V32.5725H106.083V27.0782H109.775V27.9534H109.781Z" fill="white"/>
<path d="M113.887 30.3663L114.994 32.5786H113.777L112.853 30.5729H111.764V32.5786H110.688V27.0843H112.883C114.191 27.0843 114.811 27.8562 114.811 28.7861C114.811 29.4789 114.501 30.0685 113.887 30.3663ZM112.664 29.716C113.449 29.716 113.723 29.3756 113.723 28.8286C113.723 28.1722 113.352 27.9473 112.585 27.9473H111.77V29.716H112.664Z" fill="white"/>
</g>
<defs>
<clipPath id="clip0_203_135">
<rect width="115" height="45" fill="white" transform="translate(0 0.5)"/>
</clipPath>
</defs>
</svg>
