<svg width="298" height="46" viewBox="0 0 298 46" fill="none" xmlns="http://www.w3.org/2000/svg">
<g clip-path="url(#clip0_132_11367)">
<path d="M51.1758 7.68474C51.2391 5.74555 50.6491 4.21005 50.7123 2.40062C50.7193 2.15551 49.167 0.353288 48.5208 0.331661C48.2961 0.324452 46.3013 0.620017 46.0484 0.612808C45.4514 0.59839 42.7612 0.324452 41.223 0.324452C40.5136 0.324452 38.7085 0.180274 37.6198 0.0793495C37.4301 0.0577228 34.5925 0.418168 34.3537 0.40375C32.696 0.346079 30.4062 0.0721406 29.76 5.15995e-05C29.149 -0.0720374 24.8433 0.511884 23.874 0.562346C22.7643 0.627226 21.8933 0.418168 20.8397 0.252363C19.6808 0.0721406 11.4137 0.814657 11.196 0.814657C10.9431 0.814657 10.2828 1.12464 10.2969 1.39858C10.318 1.78786 9.74903 3.69822 9.9457 4.15959C10.4444 5.32743 10.4163 7.67753 10.3812 8.91746C10.339 10.4818 10.5779 11.9236 10.8096 13.6681C10.929 14.5116 10.9361 16.6887 11.0625 17.7628C11.1327 18.3683 11.0695 19.3848 11.0625 19.9831C11.0485 22.3404 11.2873 24.2075 11.5261 26.5937C11.6525 27.9201 12.1582 32.6203 12.1863 33.9756C12.1863 34.2207 12.2285 34.3937 12.2847 34.5235L12.4883 35.6264C12.4883 35.6264 12.1442 36.0518 12.7623 36.9601C12.7623 36.9601 12.973 37.8035 14.0617 38.0126L14.6728 37.8035L15.8177 37.89L16.3164 38.0126L16.6535 37.9333C18.1145 38.0414 20.4604 38.3442 20.8889 38.3442C21.3946 38.3442 23.4737 38.1207 24.0075 38.1207C24.5413 38.1207 28.1516 38.2505 28.6924 38.2505C29.1981 38.2577 31.2491 38.1496 31.7619 38.1568C32.2886 38.1568 39.5654 38.3947 40.0711 38.4019C40.5979 38.4091 44.7701 38.373 45.2196 38.3802C45.634 38.3875 46.807 37.8107 47.5726 37.7963C47.5726 37.6666 48.6613 35.9725 48.6753 35.7995C48.9001 34.0044 48.584 34.4658 48.8228 33.0889C49.1951 30.9118 48.5068 28.2085 48.9984 26.3702C49.1249 25.9016 50.045 18.2169 50.0942 17.7628C50.354 15.2685 50.7685 14.7855 50.7474 12.2984C50.7474 12.0317 50.6772 10.2727 50.6842 9.97717C50.6982 9.66719 51.1548 7.98751 51.1688 7.67753L51.1758 7.68474Z" fill="#005DA4"/>
<path d="M46.3717 3.81348C46.2594 4.42623 46.161 5.03178 46.0557 5.64454C46.6106 5.79592 47.1584 5.9401 47.7063 6.0987C47.7976 5.48594 47.8959 4.88039 47.9943 4.27485C47.4464 4.11625 46.9126 3.96486 46.3647 3.81348H46.3717Z" fill="white"/>
<path d="M45.2834 10.3449C45.3326 10.7774 45.3888 11.2171 45.4379 11.6425C45.8453 11.6425 46.2457 11.628 46.646 11.628C46.5828 11.1955 46.5266 10.763 46.4704 10.3376C46.0701 10.3376 45.6697 10.3376 45.2764 10.3376L45.2834 10.3449Z" fill="white"/>
<path d="M22.2026 5.30583C21.725 5.20491 21.2403 5.09677 20.7627 4.99585C20.7767 5.55814 20.7908 6.12044 20.7978 6.68273C21.2544 6.70436 21.7039 6.73319 22.1534 6.77645C22.1745 6.28624 22.1885 5.80325 22.2026 5.30583Z" fill="white"/>
<path d="M13.3947 3.70542C13.5071 4.39026 13.6265 5.07511 13.7319 5.75995C14.3078 5.7167 14.8768 5.67345 15.4457 5.64461C15.3263 4.96697 15.2069 4.28213 15.0875 3.60449C14.5185 3.64054 13.9566 3.66937 13.3877 3.70542H13.3947Z" fill="white"/>
<path d="M17.2998 9.6311C17.363 10.1429 17.4262 10.6476 17.4824 11.1522C17.953 11.145 18.4306 11.1378 18.9012 11.1378C18.831 10.6331 18.7608 10.1285 18.6976 9.6311C18.241 9.6311 17.7704 9.6311 17.2998 9.6311Z" fill="white"/>
<path d="M40.3525 6.04835C40.4087 6.48089 40.4579 6.91342 40.5141 7.34596C40.9215 7.33875 41.3218 7.33154 41.7222 7.33154C41.666 6.899 41.6028 6.46647 41.5536 6.03394C41.1533 6.03394 40.7529 6.03394 40.3525 6.04114V6.04835Z" fill="white"/>
<path d="M16.4082 17.2222C16.4505 17.2726 16.4998 17.3159 16.5492 17.3591L16.4082 17.2222Z" fill="#BBAB7D"/>
<path d="M26.1357 11.9379C26.0444 11.5703 25.2296 11.9524 24.7028 12.0389C24.3797 12.0893 23.9443 12.284 23.6422 12.32C23.2629 12.3633 22.6519 12.5435 22.4622 12.9328C22.3428 13.1635 22.687 13.2572 22.8345 13.3365C23.1014 13.4806 23.3894 13.6464 23.5018 13.9636C23.6071 14.2592 23.6141 14.6196 23.6703 14.9296C23.7406 15.2973 23.7827 15.6721 23.86 16.0398C23.9302 16.3858 23.8319 16.7535 23.9091 17.0779C23.9934 17.4239 24.2112 17.9934 24.2954 18.2601C24.45 18.7287 24.4219 18.7431 24.5624 18.7936C25.04 18.9594 25.5527 18.8296 26.1568 18.8945C26.4729 18.9234 26.7749 19.1036 27.1963 19.1468C27.5405 19.1829 28.8048 19.2333 29.177 19.2766C29.5282 19.3126 29.8935 19.3199 30.2657 19.3559C30.6169 19.3919 30.9892 19.2766 31.3544 19.3199C31.7267 19.3559 32.106 19.3919 32.4853 19.4352C32.8505 19.4784 33.2228 19.4784 33.581 19.5217C33.9392 19.5577 34.2693 19.7668 34.6135 19.7956C34.9788 19.8317 35.351 19.7163 35.7022 19.7524C35.8848 19.774 36.0604 19.7884 36.2431 19.8101C36.6715 19.8533 37.1 19.9254 37.5284 19.9182C37.7321 19.9182 37.8937 20.0191 38.0903 20.0912C38.3291 20.1849 38.575 20.2426 38.8208 20.2786C39.0386 20.3147 39.158 20.4372 39.3406 20.5454C39.5302 20.6607 39.6777 20.603 39.8252 20.4444C39.9025 20.3579 39.9306 20.2642 39.9938 20.1705C40.057 20.0768 40.1413 19.9975 40.1905 19.8966C40.2396 19.7956 40.2326 19.6731 40.2467 19.565C40.2958 19.2189 40.338 18.8801 40.359 18.5269C40.3731 18.3394 40.338 18.1808 40.3871 17.9934C40.4433 17.806 40.5206 17.6258 40.5346 17.4311C40.5557 17.0923 40.5557 16.7463 40.5768 16.4147C40.6049 16.0326 40.5768 15.6866 40.5979 15.3766C40.64 14.8071 40.8999 14.1799 40.6189 14.1583C40.5487 14.1583 40.3239 14.1367 39.8393 13.9492C39.5513 13.8411 39.2282 13.8699 38.9332 13.8123C38.7787 13.7834 38.6593 13.6969 38.5188 13.6464C38.3502 13.5888 38.1606 13.6753 37.985 13.6825C37.8164 13.6825 37.69 13.805 37.5354 13.8699C37.4231 13.9132 37.2756 13.9132 37.2334 14.0646C37.1913 14.2232 37.3809 14.2952 37.4512 14.4034C37.5355 14.5259 37.5425 14.7278 37.5776 14.872C37.6478 15.2108 37.7251 15.5496 37.7953 15.8884C37.8164 15.9965 37.8445 16.1119 37.8445 16.22C37.8586 16.5444 37.8305 16.703 37.8234 16.9625C37.8024 17.3879 37.3528 17.1283 37.2896 17.2725C37.2475 17.3879 37.2685 17.5609 36.6926 17.5609C35.625 17.5753 34.6065 17.4744 34.1921 17.4239C33.6864 17.3662 33.0823 17.3879 33.1455 17.1644C33.2228 16.9193 32.2535 17.2869 31.8883 17.2509C31.523 17.2221 31.1859 17.2509 30.8347 17.2149C30.4413 17.1788 30.2587 17.1716 29.9145 17.1139C29.5001 17.0418 28.6713 17.1716 28.2499 16.9553C28.0743 16.8688 27.4632 16.8112 27.4211 16.8039C26.9505 16.7174 27.1471 16.0758 26.8381 15.2757C26.6414 14.7638 26.8802 14.5187 26.6836 14.0141C26.4869 13.4951 26.5009 13.5239 26.3253 12.9904C26.1778 12.5363 26.234 12.3056 26.1357 11.9307V11.9379Z" fill="white"/>
<path d="M25.6658 25.8006C25.5113 25.5411 25.3498 25.2744 25.1952 25.0076C25.0548 24.7698 24.9845 24.467 24.7246 24.3877C24.4788 24.3156 24.226 24.2075 24.0363 24.02C23.9099 23.8975 23.8326 23.6956 23.7624 23.5298C23.6851 23.3424 23.8607 23.1622 23.938 22.9964C24.0082 22.8594 24.1136 22.7513 24.247 22.672C24.4226 22.5638 24.6825 22.499 24.8792 22.4629C25.2444 22.398 25.6237 22.4413 25.9889 22.362C26.1435 22.3331 26.3682 22.2322 26.5228 22.3115L26.6703 22.3692C26.874 22.4845 26.8669 22.7224 26.9161 22.9387C26.9723 23.191 27.183 23.4866 27.2111 23.7389C27.2322 23.8903 27.2392 24.1426 27.3797 24.2435C27.478 24.3156 27.6396 24.2795 27.759 24.2795C28.2296 24.2795 28.6791 24.2075 29.1427 24.1858C29.6062 24.1642 30.0628 24.0777 30.5193 24.0417C30.6598 24.0272 30.8003 24.0849 30.9267 24.0128C31.1093 23.9119 31.2569 23.7245 31.4114 23.5803C31.5238 23.4794 31.5729 23.4794 31.5519 23.6452C31.5238 23.8326 32.1348 23.847 32.2191 23.8398C32.5703 23.7966 32.9215 23.7245 33.2727 23.674C33.5677 23.6307 33.8768 23.6307 34.1647 23.5442C34.3333 23.4938 34.5019 23.3856 34.5791 23.2126C34.6845 22.9675 34.523 22.7296 34.5019 22.4845C34.4808 22.1313 34.8812 22.0376 35.1411 21.9727C35.2886 21.9439 35.4431 21.8429 35.5976 21.8574C35.8083 21.8718 36.0331 22.016 36.2227 22.1025C36.4545 22.2034 36.6793 22.3115 36.9111 22.4269C37.2131 22.571 37.7891 22.6503 38.0349 22.7945C38.3931 23.0036 38.5757 23.1622 38.5336 23.328C38.4774 23.5298 38.3791 24.0705 38.2948 24.4381C38.2245 24.7337 38.2105 25.0653 38.1192 25.332C37.9787 25.7574 38.0911 25.7718 37.7469 26.0025C37.3044 26.298 37.0867 26.1467 36.4194 26.2043C36.1103 26.226 35.4361 26.298 35.0287 26.3341C34.6845 26.3629 34.3614 26.4494 33.9751 26.4783C33.6169 26.5071 33.2516 26.4783 32.8794 26.5071C32.5211 26.5359 32.0997 26.435 31.7345 26.4566C31.3692 26.4855 31.011 26.4855 30.6598 26.5071C30.3086 26.5287 29.9645 26.5504 29.6273 26.572C29.2691 26.5936 28.9109 26.7306 28.5878 26.7522C28.1804 26.7738 27.8222 26.7955 27.5201 26.8027C27.0144 26.8171 26.305 26.6873 26.2067 26.6585C26.0241 26.5936 25.9257 26.2548 25.6518 25.8006H25.6658Z" fill="white"/>
<path d="M33.876 13.25C33.7988 13.1058 33.6793 12.9761 33.6021 12.8463C33.4757 12.6517 33.3282 12.5003 33.1104 12.421C32.9278 12.3489 32.7171 12.4066 32.5274 12.421C32.2886 12.4426 31.9374 12.5435 31.6986 12.4787C31.6003 12.4787 31.2491 12.3922 31.1367 12.3922C30.926 12.457 31.0454 12.558 30.9541 12.94C30.8347 13.4591 30.926 14.7062 30.8066 15.218C30.6942 15.6938 30.5397 15.975 30.4343 16.4508C30.3219 16.9266 30.5046 17.6186 30.4273 18.08C30.329 18.5918 30.3149 18.5774 30.2517 19.0964C30.1815 19.6083 29.8584 19.5578 29.7881 20.0696C29.7249 20.5887 29.8584 20.6247 29.7951 21.1438C29.7319 21.6556 29.6828 21.6484 29.6195 22.1602C29.5563 22.6648 29.451 23.6885 29.3807 24.2148C29.3105 24.7338 29.1209 24.6905 29.0506 25.2024C28.9874 25.7142 29.3105 25.7575 29.2473 26.2765C29.1841 26.7883 28.7626 27.7543 28.6994 28.2445C28.6292 28.8068 28.58 29.3114 28.6362 29.8665C28.7275 30.8397 28.2007 31.3444 28.0954 32.159C28.0392 32.6492 28.4044 32.6924 28.3412 33.1754C28.285 33.6512 27.8144 33.7305 28.2007 34.0549C28.6573 34.4514 28.7556 34.3072 29.3667 34.3072C29.9005 34.3144 30.7153 34.4874 31.1156 34.163C31.523 33.8386 31.1929 33.471 31.2702 32.9736C31.3474 32.4617 31.3123 32.4978 31.3825 31.9859C31.4598 31.4813 31.3263 31.4597 31.4036 30.9623C31.4739 30.4649 31.7408 29.4772 31.818 28.9582C31.8953 28.4536 31.9796 28.4608 32.0568 27.9562C32.1341 27.4443 32.0287 27.3578 32.106 26.846C32.1833 26.3342 31.7689 26.5721 31.8461 26.0602C31.9234 25.57 31.9164 25.57 31.9936 25.0726C32.0639 24.568 31.9304 24.5392 32.0006 24.0345C32.0709 23.5443 32.4572 21.7781 32.5345 21.2951C32.5977 20.8554 32.6047 20.6031 32.682 20.1561C32.7662 19.6371 32.696 19.7164 32.7943 19.1901C32.8927 18.6639 32.8997 18.7864 32.998 18.2602C33.0964 17.7556 33.1736 17.6835 33.272 17.1789C33.3703 16.6598 33.272 16.6022 33.3773 16.0831C33.4757 15.5713 33.5459 15.6866 33.6442 15.1748C33.6864 14.9441 33.7285 14.7206 33.7777 14.4972C33.8058 14.3169 33.8479 14.1367 33.8901 13.9637C33.9322 13.7763 34.0095 13.596 33.9533 13.4014C33.9392 13.3437 33.9111 13.2933 33.883 13.2356L33.876 13.25Z" fill="white"/>
<path d="M16.8009 30.6451C16.9203 30.6018 17.0748 30.6162 17.2012 30.609C17.419 30.6018 17.6016 30.6451 17.8123 30.6667C18.1003 30.7028 18.4023 30.6451 18.6833 30.6162C19.8492 30.5225 21.0222 30.5009 22.1882 30.5081C22.8625 30.5081 23.5438 30.5297 24.2251 30.5442C24.5623 30.5514 25.4473 30.5874 25.7985 30.5946C26.1286 30.5946 26.4868 30.5658 26.824 30.5802C27.1611 30.5874 27.5263 30.6667 27.8775 30.6811C28.2077 30.6955 28.5378 30.7821 28.8819 30.7965C29.2191 30.8109 29.5 30.7028 29.8372 30.7172C30.1884 30.7244 30.5958 30.8614 30.947 30.8758C31.2771 30.8902 31.6142 30.746 31.9444 30.7604C32.2885 30.7748 32.6257 30.8541 32.9628 30.8686C33.307 30.883 33.7495 30.7172 34.0937 30.7316C34.4238 30.746 34.6485 30.7748 34.9646 30.7893C35.3018 30.8037 35.6319 30.7316 35.955 30.746C36.2851 30.7676 36.6223 30.7316 36.9524 30.746C37.2966 30.7676 38.2307 30.9551 38.5538 30.9695C38.905 30.9839 38.6311 31.0344 38.9612 31.0488C39.2843 31.0704 39.6004 31.2218 39.9024 31.2362C40.2325 31.2506 40.5486 31.0488 40.8506 31.0632C41.1175 31.0776 41.3634 31.2146 41.6303 31.2074C41.827 31.2074 42.0166 31.1281 42.2203 31.1281C42.6839 31.1281 43.1685 31.1713 43.6321 31.1425C43.9552 31.1209 44.201 31.0488 44.5101 31.2506C44.9947 31.575 44.8402 32.2238 44.8402 32.714C44.8402 33.0096 44.7629 33.3268 44.7278 33.6224C44.6646 34.0837 44.7138 34.2928 44.3907 34.5451C43.9833 34.8623 44.0114 34.8479 43.3652 34.8407C43.0702 34.8407 42.9718 34.4658 42.5785 34.4586C40.7593 34.4298 39.7338 33.9756 37.8233 34.1919C37.2193 34.2567 35.8918 34.473 35.3299 34.4658C34.9787 34.4658 34.6345 34.5739 34.3114 34.5739C33.9462 34.5739 33.602 34.4658 33.2859 34.4658C32.9137 34.4658 32.5835 34.4009 32.3026 34.4009C31.7898 34.4081 31.4035 34.1558 31.3192 34.1774C29.8653 34.5163 28.4043 34.0765 26.9082 34.0837C25.082 34.0837 23.7686 34.3793 21.9353 34.3937C21.5841 34.3937 21.1627 34.7542 20.8396 34.7542C20.5095 34.7542 19.786 34.5884 19.4981 34.5884C19.1469 34.5884 18.8659 34.5811 18.606 34.5811C18.0301 34.5811 18.1916 34.7397 17.8615 34.4153C17.4471 34.0044 17.6297 34.0621 17.4471 33.4493C17.3417 33.1105 17.0959 32.7861 16.9203 32.4834C16.8009 32.2815 16.6815 32.0724 16.5691 31.8634C16.5059 31.748 16.4637 31.6471 16.4216 31.5318C16.4075 31.4957 16.2741 31.229 16.2881 31.2146C16.3865 31.0344 16.5621 30.8037 16.7377 30.6883C16.7587 30.6739 16.7868 30.6595 16.8149 30.6523L16.8009 30.6451Z" fill="white"/>
<path d="M44.0185 20.5815C43.8429 20.3869 43.6813 20.1706 43.4144 20.1129C43.2599 20.0769 43.1124 20.1201 42.9649 20.1129C42.4943 20.0769 42.5013 20.1778 42.3749 20.5887C42.2976 20.8338 42.1993 21.0645 42.1501 21.3096C42.0728 21.6845 41.9534 22.0233 41.8411 22.3837C41.7006 22.8091 41.7357 23.2993 41.539 23.703C41.3424 24.0994 41.0965 24.4743 40.9139 24.8852C40.3309 26.1684 40.345 27.4804 39.8814 28.7348C39.7058 29.2106 39.6075 29.1745 39.4319 29.6503C39.2563 30.1333 39.3546 30.1693 39.172 30.6523C38.9542 31.2507 37.6057 32.7718 38.5469 32.9231C38.877 32.9736 40.4855 32.8511 40.8156 32.8871C41.23 32.9303 41.6303 32.3608 41.8762 32.0581C42.0939 31.7986 42.1642 31.4093 42.2695 31.0993C42.3819 30.7965 42.5364 30.5009 42.6488 30.1838C42.7612 29.881 42.9298 29.5926 43.0351 29.2826C43.1545 28.9655 43.3161 28.6627 43.4355 28.3383C43.5479 28.0211 43.6392 27.7039 43.7445 27.4083C43.8569 27.0839 43.8077 26.7091 43.9131 26.3919C44.0255 26.0819 44.3416 25.8584 44.4399 25.5701C44.5523 25.2529 44.475 24.8924 44.5663 24.6185C44.6857 24.2725 45.0369 23.6957 45.1212 23.4362C45.2336 23.0758 45.4584 22.7442 45.655 22.4198C45.7042 22.3405 45.8517 22.1603 45.8376 22.0665C45.8095 21.8935 45.4162 21.7205 45.3038 21.598C45.1844 21.4754 45.1212 21.3456 44.9807 21.2303C44.6857 21.0068 44.2924 20.8554 44.0395 20.5815H44.0185Z" fill="white"/>
<path d="M44.5171 21.6051C44.3135 21.3096 43.5549 20.9996 43.3442 20.7329C43.014 20.3075 42.5294 20.0768 42.424 20.2643C42.1782 20.7184 42.2344 20.6968 42.0588 21.1798C42.0588 21.1798 42.0518 21.187 42.0518 21.1942C41.5671 22.5062 40.8507 23.7173 40.2747 24.9861C39.6988 26.2549 39.7128 27.5525 39.2492 28.7924C39.0736 29.261 38.9753 29.2321 38.8067 29.6935C38.6311 30.1765 38.7225 30.2053 38.5469 30.6883C38.3291 31.2795 37.0016 32.7861 37.9288 32.9375C38.2519 32.988 39.8463 32.8654 40.1694 32.9015C40.5768 32.9447 40.9701 32.3824 41.2159 32.0797C41.4266 31.8201 41.4969 31.4381 41.6022 31.1353C41.7076 30.8397 41.8621 30.537 41.9745 30.227C42.0799 29.9314 42.2484 29.6431 42.3538 29.3403C42.4732 29.0231 42.6347 28.7203 42.7471 28.4103C42.8595 28.1004 42.9438 27.7832 43.0562 27.4876C43.1756 27.1632 43.1194 26.7955 43.2248 26.4856C43.3371 26.1756 43.6462 25.9521 43.7445 25.671C43.8499 25.3538 43.7796 25.0005 43.871 24.7266C43.9904 24.3806 44.3416 23.8111 44.4188 23.5515C44.5663 23.083 45.1352 22.2756 45.1352 22.1891C45.1352 21.9872 44.77 21.9872 44.5101 21.5979L44.5171 21.6051Z" fill="#D1BE6B"/>
<path d="M21.8722 30.5657C21.7879 30.2557 21.6966 29.9457 21.6123 29.6069C21.528 29.2969 21.5491 28.9653 21.4648 28.6481C21.3805 28.3453 21.2401 28.057 21.1558 27.747C21.0645 27.4298 21.0855 27.0838 20.9872 26.7666C20.4604 24.8634 19.8634 22.7945 19.2945 20.8697C19.1118 20.2714 19.1961 19.947 18.7255 19.7163C18.4024 19.5505 18.0793 19.7451 17.7422 19.6442C17.4121 19.5433 17.1241 19.5144 16.7729 19.4928C16.4849 19.4712 16.1829 19.5072 15.8949 19.4568C15.621 19.4063 15.3822 19.2621 15.1012 19.3198C14.8975 19.363 14.8202 19.5721 14.6306 19.6442C14.4691 19.7091 14.2021 19.7884 14.2654 20.0263C14.3426 20.2786 15.3189 20.8192 15.4243 21.1509C15.5086 21.4176 15.628 21.7059 15.7404 22.0231C15.8457 22.3259 16.2531 23.6235 16.3655 23.9551C16.4709 24.2723 16.8572 24.8923 16.9696 25.2023C17.0749 25.5122 17.384 26.4206 17.4893 26.7305C17.6087 27.0549 17.9599 27.4586 18.0723 27.7758C18.1917 28.0858 18.3462 29.2537 18.4586 29.5636C18.6623 30.1259 18.9784 31.7912 19.7721 31.8561C20.1022 31.8849 21.3033 31.7768 21.6404 31.8344C21.9986 31.8993 21.9776 31.027 21.8652 30.5585L21.8722 30.5657Z" fill="white"/>
<path d="M21.0995 31.0056C21.0223 30.6956 20.9239 30.3784 20.8396 30.054C20.7624 29.7441 20.7764 29.4124 20.6921 29.0953C20.6149 28.7925 20.4674 28.4969 20.3831 28.1941C20.2988 27.8769 20.3129 27.5309 20.2215 27.2209C19.6947 25.325 19.0977 23.2488 18.5288 21.3241C18.3462 20.7257 18.4305 20.4013 17.9599 20.1706C17.4541 19.9111 17.4822 20.2283 16.9273 20.1057C16.3022 19.9616 16.3444 20.1202 15.7263 19.976C15.1292 19.839 14.5111 19.8174 14.2302 19.9183C14.2512 20.0985 14.1318 20.3581 14.2442 20.7618C14.3145 21.0213 14.5603 21.288 14.6657 21.6196C14.757 21.8863 14.8764 22.1747 14.9817 22.4919C15.0801 22.7947 15.4945 24.0923 15.6069 24.4239C15.7192 24.7339 16.0985 25.361 16.2109 25.671C16.3163 25.981 16.6253 26.8965 16.7377 27.1993C16.8501 27.5165 17.2083 27.9274 17.3207 28.2446C17.4331 28.5546 17.5946 29.7224 17.707 30.0324C17.9107 30.5947 18.2268 32.26 19.0205 32.3248C19.3576 32.3465 20.5517 32.2455 20.8958 32.3032C21.254 32.3681 21.233 31.4958 21.1136 31.0272L21.0995 31.0056Z" fill="#D1BE6B"/>
<path d="M16.2389 31.2724C16.3021 31.1714 16.555 31.3661 17.159 31.3084C19.5261 31.0777 21.3031 31.0921 23.6631 31.1498C24.0003 31.157 24.8853 31.1931 25.2295 31.2075C25.5596 31.2147 25.9108 31.1787 26.255 31.1931C26.5991 31.2003 26.9573 31.2868 27.3085 31.294C27.6387 31.3084 27.9688 31.3949 28.3059 31.4093C28.6431 31.4166 28.9311 31.3156 29.2682 31.33C29.6124 31.3373 30.0268 31.4742 30.378 31.4886C30.7081 31.5031 31.0452 31.3589 31.3754 31.3733C31.7125 31.3877 32.0497 31.467 32.3938 31.4814C32.731 31.4886 33.1805 31.3228 33.5176 31.3373C33.8478 31.3517 34.0725 31.3805 34.3886 31.3877C34.7187 31.4021 35.0488 31.33 35.3719 31.3445C35.7021 31.3589 36.0392 31.3228 36.3693 31.3445C36.7135 31.3589 37.6477 31.5535 37.9778 31.5679C38.322 31.5824 38.0551 31.6256 38.3852 31.6472C38.7153 31.6617 39.0244 31.8202 39.3264 31.8347C39.6565 31.8491 39.9796 31.6472 40.2746 31.6617C40.6047 31.6761 40.9138 31.9068 41.2088 31.9212C41.6443 31.95 42.1008 31.9212 42.5433 31.9356C42.8243 31.9356 43.0982 31.9356 43.3792 31.9212C43.5829 31.9068 43.8146 31.8491 43.9832 31.9933C44.51 32.433 44.222 33.6513 44.1448 34.2208C44.0886 34.6822 44.2501 34.6101 43.927 34.8696C43.5196 35.1868 43.6812 35.0931 43.035 35.0859C42.74 35.0859 42.3888 35.0715 41.9955 35.0643C40.1693 35.0426 39.1508 34.5885 37.2403 34.8047C36.6362 34.8696 35.3087 35.0859 34.7538 35.0787C34.4027 35.0787 34.0585 35.1868 33.7284 35.1868C33.3701 35.1868 33.0189 35.0787 32.7029 35.0787C32.3306 35.0787 32.0005 35.0138 31.7195 35.0138C31.2068 35.021 30.8205 34.7687 30.7362 34.7903C29.2822 35.1291 27.8213 34.6894 26.3252 34.6966C25.2365 34.6966 24.1618 34.8264 23.0872 34.9201C22.5955 34.9633 22.1039 34.9633 21.6262 35.0643C21.1135 35.1724 20.5726 35.0498 20.0459 35.1652C19.8773 35.2012 19.7298 35.2805 19.5472 35.2805C19.3364 35.2805 19.1257 35.2084 18.915 35.2084C18.5708 35.2084 18.2829 35.194 18.023 35.194C17.447 35.194 17.6086 35.3526 17.2785 35.021C16.864 34.6173 17.0467 34.6678 16.864 34.055C16.7517 33.7018 16.7517 33.2837 16.6533 32.9304C16.5269 32.4763 16.0844 31.4958 16.2319 31.2868L16.2389 31.2724Z" fill="#D1BE6B"/>
<path d="M33.876 4.2677C33.876 4.2677 33.9111 4.29653 33.9252 4.31816C34.0867 4.49117 34.1991 4.71465 34.3536 4.89487C34.5503 5.11114 34.7399 5.33461 34.9296 5.5653C35.0911 5.75994 35.344 5.91854 35.5406 6.06992C35.8076 6.27898 35.9551 6.58175 36.1658 6.83407C36.2852 6.97104 36.3976 7.08638 36.4889 7.23777C36.5802 7.41078 36.6785 7.59821 36.8049 7.75681C36.9244 7.90819 37.0297 8.04516 37.0438 8.24701C37.0578 8.4777 36.9524 8.73001 36.819 8.90302C36.6715 9.09766 36.5872 9.32835 36.4538 9.5374C36.3765 9.65275 36.2922 9.79693 36.1939 9.88343C36.1236 9.94831 36.0393 9.95552 35.948 9.99157C35.5828 10.1141 35.2456 10.3088 34.9928 10.5034C34.5011 10.8855 34.4449 10.8855 34.178 10.9359C33.7917 10.9936 33.0823 11.0945 32.5344 11.1378C32.113 11.1666 31.8882 11.1378 31.4317 10.9576C30.9681 10.7773 30.5467 10.6187 30.1955 10.4601C30.0269 10.3808 29.8654 10.1574 29.7249 9.80413C29.5774 9.45811 29.1981 8.49932 29.2894 8.32631C29.4439 8.03074 30.2236 6.8629 30.3149 6.68989C30.4835 6.36549 30.9681 6.1348 31.2772 5.95458C31.4106 5.87528 31.5651 5.81761 31.6916 5.7311C31.8391 5.62297 31.8882 5.42833 31.9515 5.26253C32.0428 4.98859 32.106 4.71465 32.1973 4.4335C32.2113 4.38304 32.2605 4.33258 32.2886 4.29653C32.3237 4.23886 32.3588 4.18119 32.401 4.13073C32.415 4.1091 32.415 4.09468 32.422 4.07306C32.4361 4.03701 32.4501 4.00818 32.4642 3.97213C32.4923 3.92167 32.5134 3.864 32.5555 3.82075C32.5836 3.7847 32.6187 3.76307 32.6468 3.73424C32.696 3.68378 32.7381 3.6189 32.8154 3.6189C32.8505 3.6189 32.8786 3.6189 32.9137 3.6189C32.9488 3.6189 32.991 3.6189 33.0261 3.6189C33.0472 3.6189 33.0753 3.6189 33.0963 3.63331C33.1104 3.64052 33.1174 3.66215 33.1315 3.66936C33.1806 3.7054 33.2228 3.73424 33.2719 3.75587C33.3492 3.79912 33.4054 3.85679 33.4616 3.92167C33.5178 3.98655 33.574 4.05864 33.6372 4.11631C33.7004 4.18119 33.7917 4.22444 33.8619 4.28212L33.876 4.2677Z" fill="white"/>
<path d="M34.579 7.65597C34.5229 7.25948 34.263 6.88462 33.9329 6.68998C33.5887 6.48813 33.104 6.66114 32.7318 6.68998C32.4087 6.7116 32.0364 6.75486 31.7625 6.96391C31.6571 7.05042 31.5377 7.16576 31.4183 7.33157C31.1795 7.64876 31.0531 7.92991 31.039 8.14617C31.025 8.45616 31.1725 8.67242 31.327 8.92473C31.4534 9.12658 31.5166 9.35006 31.7555 9.45098C32.0785 9.58795 32.4016 9.50145 32.7247 9.4654C33.097 9.42215 33.4131 9.37169 33.7432 9.16984C34.1155 8.93915 34.3894 8.54987 34.5369 8.11734C34.5861 7.97316 34.5931 7.81456 34.572 7.65597H34.579Z" fill="#005DA4"/>
<path d="M35.9625 7.0721L35.4848 6.53864L35.1547 6.21424C35.1547 6.21424 33.9747 4.83734 33.5743 4.37597L33.1178 3.75601C33.0265 3.59741 32.9352 3.45323 32.7947 3.43882C32.6472 3.43161 32.5489 3.53974 32.3943 3.73438L32.0361 4.13808C31.8675 4.3183 30.5962 5.21221 30.1678 5.48614C29.6691 5.79613 29.3951 5.99077 29.3038 6.18541L28.9175 6.79095L28.2713 7.82183C28.2292 7.90113 28.1449 8.06693 28.6998 9.42941C28.8683 9.8259 29.0439 10.071 29.2476 10.1647L30.3082 10.5973L30.4838 10.6621C30.9474 10.8496 31.2073 10.8856 31.6498 10.8496L33.3004 10.6477C33.6024 10.5973 33.6867 10.5756 34.1784 10.1936C34.4383 9.99171 34.7684 9.81869 35.0915 9.71056C35.822 9.45104 35.9554 8.99688 36.1381 8.3697L36.1732 8.26157C36.2013 8.15344 36.2223 8.03089 36.2223 7.90833C36.2223 7.62719 36.131 7.32441 35.9554 7.05768M33.8272 8.05251C33.6867 8.3697 33.5392 8.51388 33.188 8.74457C32.7877 8.98967 32.3733 9.09059 31.9588 9.02571C31.8043 9.02571 31.6077 8.98246 31.3829 8.89595C31.109 8.81666 30.9474 8.73015 30.8912 8.63643C30.5962 8.31924 30.4628 8.00926 30.4909 7.7209C30.5049 7.49743 30.6313 7.22349 30.8631 6.9063C30.9825 6.74049 31.1019 6.62515 31.2073 6.53864C31.5023 6.31517 31.9869 6.23587 32.4365 6.29354C33.0967 6.38005 34.3821 7.24512 33.8272 8.05972V8.05251Z" fill="#D1BE6B"/>
<path d="M23.7902 23.2921C23.8956 23.1263 24.1063 23.047 24.2889 23.0326C24.4294 23.0326 24.5628 23.0614 24.7103 23.0398C24.8578 23.0254 24.9983 22.9966 25.1458 22.9677C25.4408 22.9173 25.7218 22.7659 26.0027 22.9173C26.1502 22.9966 26.2205 23.1624 26.2556 23.321C26.3118 23.5733 26.5225 23.8688 26.5506 24.1211C26.5857 24.3735 26.7473 24.7844 26.979 24.7916C27.541 24.7916 28.145 24.7627 28.6999 24.6762C29.037 24.6258 29.325 24.5032 29.6762 24.4744C30.2381 24.4311 30.7719 24.3446 31.3339 24.3662C31.9379 24.3879 32.563 24.1716 33.1671 24.1428C33.2865 24.1428 33.9467 24.2004 33.9889 24.0346C34.0872 23.6598 34.333 23.357 34.3963 22.9677C34.4314 22.7659 34.3822 22.4775 34.5297 22.3117C34.7685 22.0378 35.0635 22.2685 35.3234 22.3766C35.6114 22.4991 35.9275 22.6505 36.2435 22.8019C36.5456 22.9461 37.1285 23.0254 37.3674 23.1768C37.7326 23.3858 37.9082 23.5444 37.8661 23.703C37.8099 23.9121 37.7115 24.4455 37.6272 24.8204C37.557 25.1088 37.543 25.4476 37.4516 25.7143C37.3112 26.1468 37.4235 26.1541 37.0794 26.3847C36.6369 26.6803 36.4191 26.5289 35.7519 26.5866C35.4428 26.6154 34.8177 26.7452 34.4173 26.7812C34.0732 26.8101 33.7009 26.8317 33.3146 26.8605C32.9564 26.8894 32.5911 26.8605 32.2189 26.8894C31.8606 26.9182 31.4392 26.8173 31.074 26.8461C30.7158 26.8749 30.3505 26.8749 29.9993 26.8966C29.6481 26.9254 29.304 26.9398 28.9668 26.9615C28.6016 26.9831 28.2433 27.12 27.9273 27.1417C27.5199 27.1633 27.1617 27.1777 26.8596 27.1849C26.4523 27.1993 25.8693 27.43 25.5111 27.1128C25.2442 26.8749 25.1669 26.4785 24.9913 26.1829C24.6963 25.6927 24.4013 25.2025 24.1414 24.6834C24.0009 24.4023 23.9096 24.0995 23.7902 23.8112C23.72 23.6165 23.6919 23.4363 23.7902 23.2849V23.2921Z" fill="#D1BE6B"/>
<path d="M25.4824 12.4499C25.3911 12.0823 24.5763 12.4571 24.0495 12.5508C23.7335 12.6013 23.2909 12.7959 22.9889 12.832C22.3006 12.9113 22.3919 13.1492 22.5324 13.5673C22.5886 13.7331 22.7782 14.0791 22.8695 14.5477C22.9257 14.8505 23.1364 16.2202 23.2067 16.5662C23.2769 16.9122 23.1786 17.2871 23.2558 17.6043C23.3401 17.9431 23.5579 18.5198 23.6421 18.7865C23.7967 19.2551 23.7615 19.2695 23.909 19.32C24.3867 19.4858 24.8994 19.356 25.5105 19.4209C25.8266 19.4497 26.1286 19.63 26.55 19.6732C26.8942 19.7093 28.1655 19.7669 28.5308 19.803C28.8819 19.839 29.2472 19.8462 29.6195 19.8895C29.9706 19.9255 30.3429 19.8102 30.7082 19.8534C31.0804 19.8895 31.4597 19.9327 31.832 19.9688C32.1972 20.012 32.5695 20.012 32.9347 20.0553C33.2929 20.0913 33.6231 20.2932 33.9672 20.3292C34.3395 20.3725 34.7118 20.2499 35.0559 20.286C35.4282 20.3292 36.8821 20.4734 37.2123 20.5095C37.6056 20.5527 37.9427 20.6536 38.2307 20.6825C38.7435 20.7329 39.0666 20.6608 39.1579 20.6681C39.783 20.6681 39.8111 20.5599 39.8041 19.976C39.8041 19.8246 39.6285 19.4642 39.6566 18.9595C39.6776 18.6496 39.8673 18.3324 39.8954 17.9719C39.9165 17.6331 39.9165 17.2943 39.9375 16.9555C39.9726 16.5734 39.9375 16.2274 39.9586 15.9174C40.0007 15.3479 40.2606 14.7207 39.9797 14.6991C39.9094 14.6991 39.6847 14.6775 39.2 14.49C38.9472 14.3819 38.4836 14.3603 38.2097 14.2738C37.9006 14.1873 37.6267 13.971 37.3949 13.9638C37.1561 13.9638 37.2123 14.454 37.1842 14.937C37.1631 15.2181 37.1982 16.4653 37.2123 16.7608C37.2263 17.078 37.1912 17.2438 37.1842 17.5033C37.1631 17.9215 37.0226 17.8638 36.8611 17.907C36.7487 17.9431 36.3132 17.9936 35.7373 17.9719C35.4142 17.9575 33.89 17.907 33.4966 17.8782C33.1384 17.8566 32.7662 17.7412 32.3939 17.7124C32.0216 17.6836 31.6213 17.8205 31.249 17.7917C30.8767 17.7629 30.5466 17.7773 30.1954 17.7557C29.8091 17.7196 29.4368 17.6403 29.0927 17.5899C28.6783 17.5178 28.0391 17.6187 27.6177 17.4024C27.435 17.3087 26.824 17.2582 26.7888 17.251C26.3112 17.1645 26.5149 16.6311 26.1988 15.8237C26.0092 15.3118 26.248 15.0667 26.0513 14.5549C25.8476 14.0359 25.8687 14.0647 25.6931 13.5385C25.5386 13.0843 25.5948 12.8536 25.5035 12.4787L25.4824 12.4499Z" fill="#D1BE6B"/>
<path d="M33.3563 12.8248C33.3563 12.8248 33.3703 12.7599 33.3844 12.7239C33.4686 12.3851 33.0613 12.4283 32.8295 12.3923C32.6117 12.3562 32.408 12.313 32.1833 12.313C31.9445 12.313 31.7618 12.1904 31.523 12.1688C31.2421 12.1472 30.9541 12.1688 30.6661 12.1688C30.5467 12.1688 30.4273 12.1472 30.3571 12.2553C30.3009 12.349 30.3149 12.5437 30.2939 12.6446C30.1745 13.1636 30.2658 14.4108 30.1464 14.9226C30.034 15.3984 29.8794 15.6795 29.7741 16.1553C29.6617 16.6311 29.8514 17.3232 29.7741 17.7845C29.6828 18.3036 29.6617 18.2891 29.5985 18.8082C29.5283 19.3128 29.1981 19.2696 29.1349 19.7814C29.0717 20.3004 29.2122 20.3365 29.1349 20.8555C29.0717 21.3673 29.0225 21.3601 28.9593 21.872C28.8961 22.3766 28.7907 23.4003 28.7275 23.9265C28.6573 24.4383 28.4676 24.4023 28.3974 24.9213C28.3342 25.4332 28.6503 25.4764 28.5871 25.9883C28.5238 26.5001 28.1094 27.4661 28.0462 27.9563C27.976 28.5186 27.9268 29.0232 27.983 29.5783C28.0743 30.5515 27.5475 31.0489 27.4422 31.8707C27.3789 32.3537 27.7512 32.4114 27.688 32.8872C27.6248 33.3702 27.1682 33.4423 27.5475 33.7667C28.0041 34.1632 28.1024 34.0118 28.7135 34.019C29.2543 34.019 30.0621 34.1992 30.4624 33.882C30.8628 33.5576 30.5397 33.1899 30.617 32.6925C30.6942 32.1807 30.6521 32.2167 30.7293 31.7049C30.8066 31.2003 30.6731 31.1787 30.7504 30.674C30.8206 30.1766 31.0876 29.189 31.1648 28.67C31.2421 28.1653 31.1367 28.1726 31.207 27.6607C31.2842 27.1561 31.221 27.1201 31.2983 26.6082C31.3755 26.0964 31.1156 26.2838 31.1929 25.772C31.2632 25.2818 31.2561 25.2818 31.3334 24.7844C31.4036 24.2797 31.2702 24.2509 31.3404 23.7463C31.4177 23.2561 31.804 21.4899 31.8742 20.9997C31.9374 20.56 31.9445 20.3076 32.0288 19.8679C32.113 19.3489 32.0428 19.4282 32.1411 18.9091C32.2465 18.3829 32.2465 18.5054 32.3448 17.9792C32.4432 17.4745 32.5204 17.4025 32.6188 16.8978C32.7171 16.3788 32.6188 16.3211 32.7241 15.8021C32.8225 15.2902 32.8927 15.4128 32.991 14.8938C33.0823 14.4108 33.1596 13.9133 33.2509 13.4303C33.2931 13.2285 33.3211 13.0267 33.3703 12.832L33.3563 12.8248Z" fill="#D1BE6B"/>
<path d="M10.1143 32.3679C9.81933 29.7511 9.69993 28.3598 9.2785 25.4114C9.22933 25.1086 9.06076 21.2302 8.96242 20.394C8.77278 18.9017 8.36539 17.2725 8.16873 16.0037L8.18277 15.9172C8.33027 15.218 8.30218 11.0008 8.30218 11.0008V9.94826L7.97206 7.28097L7.81753 6.79076V6.30056L7.55062 2.09056C7.55062 1.60035 7.35396 1.35525 7.12217 1.23991C7.12217 1.21828 7.12217 1.19666 7.12217 1.17503C7.03086 1.16782 6.93252 1.16061 6.83419 1.1534C6.77097 1.14619 6.70074 1.13899 6.64455 1.13899C5.71037 1.08131 4.79024 0.670407 3.88416 0.569482C3.54702 0.533438 1.78402 0.749705 1.75593 0.749705C0.997351 0.742496 0.400322 1.29037 0.337107 1.54989C0.259844 1.86708 -0.0351585 3.0926 -3.91621e-05 3.40979C0.049128 3.85674 0.990327 7.10795 1.0114 7.70629C1.06759 9.22737 1.17997 9.77525 1.17295 11.0729C1.17295 11.1738 1.60843 14.3745 1.61545 14.4755C1.67164 16.5877 2.44427 20.1344 3.07642 24.6544C3.18178 25.3969 3.21689 26.9613 3.44868 29.2897C3.4838 29.643 3.69452 33.233 3.73666 33.5574C3.92631 34.9487 4.11595 35.4678 4.2775 37.3133C4.43905 37.7458 5.63311 37.9476 6.30038 37.8611C6.86229 37.789 8.02122 38.1206 8.6323 38.0918C9.06076 38.0774 9.30659 37.2844 9.77017 37.3133C9.73505 35.4678 10.311 34.1485 10.1143 32.3607V32.3679Z" fill="#C5BAAC"/>
<path d="M48.0219 41.9414C48.0571 41.3215 48.0571 41.1412 48.0641 40.9466C48.0711 40.7664 48.2467 39.9446 47.2493 40.0167C46.856 40.0455 42.9647 40.3266 42.466 40.3122C42.0165 40.2978 37.4861 40.0022 36.9664 39.995C36.4747 39.9806 34.6344 40.2401 34.1357 40.2329C33.6581 40.2185 29.6405 40.0743 29.1277 40.0599C28.629 40.0527 28.1163 40.2545 27.6246 40.2473C27.0978 40.2329 26.5781 39.995 26.0442 39.995C25.5315 39.995 23.6702 40.2978 23.1574 40.2906C22.6587 40.2906 20.5375 40.132 20.0178 40.132C19.505 40.1248 16.1125 39.9301 15.0168 39.9157C14.0545 39.9085 12.9939 40.0167 12.0246 40.0455C11.7366 40.0599 9.28527 39.6418 8.66717 39.7643C8.29491 39.8364 7.92264 39.8725 7.56443 39.9013L6.82692 39.8436L5.93489 39.6995C5.93489 39.6995 5.80846 39.7932 5.65393 39.9301C5.41512 39.9446 5.25357 39.9806 5.19036 40.0527C5.11309 40.1392 5.11309 40.2978 5.13416 40.5141C5.13416 40.5213 5.12012 40.5357 5.12012 40.5429L5.32381 43.2102L5.34488 43.2679C5.41512 43.895 5.61179 44.9403 5.8506 44.9403C6.0262 44.9403 6.19477 44.9692 6.35632 44.998C6.67239 45.2431 7.15002 45.517 7.78919 45.6612C7.97181 45.7621 8.14741 45.8414 8.28788 45.8342C8.71634 45.827 11.6734 46.0073 12.1721 45.9928C12.6497 45.9784 14.7639 45.5603 15.2907 45.5459C18.037 45.4666 19.2311 45.7621 19.786 45.6684C21.2329 45.4305 28.1444 46.0145 28.4534 45.9496C28.8608 45.8703 31.846 45.7694 32.3938 45.7549C32.8785 45.7477 34.4588 45.4738 34.9856 45.4666C35.8215 45.4522 36.6433 45.6252 37.8162 45.7477C39.9304 45.9856 41.0964 45.8198 43.8146 45.7982C44.4117 45.791 46.2238 45.9352 46.5891 45.7838C47.2353 45.5243 48.3872 43.0372 48.4996 42.3956C48.5698 41.9847 47.9868 42.3379 48.0079 41.9342L48.0219 41.9414Z" fill="#C5BAAC"/>
<path d="M85.9813 22.6402C85.4115 22.6402 84.9453 22.4807 84.5902 22.1541C84.235 21.8276 84.0574 21.3871 84.0574 20.8175V19.2682H79.2329C78.6631 19.2682 78.2117 19.1087 77.8862 18.7822C77.5606 18.4556 77.3978 18.0151 77.3978 17.4456C77.3978 17.0582 77.4644 16.7393 77.605 16.4735C77.4644 16.6557 77.2424 16.9064 76.9242 17.2329C75.7181 18.448 74.3196 19.5037 72.7213 20.3922C71.123 21.2808 69.5247 21.9491 67.9264 22.3972C67.6082 22.4807 67.3566 22.5187 67.1568 22.5187C66.4243 22.5187 65.9137 22.1617 65.6177 21.4554C65.5215 21.2124 65.4697 20.9466 65.4697 20.6656C65.4697 20.2631 65.5807 19.8986 65.8101 19.5872C66.0395 19.2758 66.3577 19.048 66.772 18.9037C68.5849 18.2734 70.2054 17.4987 71.6261 16.5646C72.9655 15.676 74.0236 14.7799 74.7932 13.8762C75.5627 12.9724 75.9475 12.213 75.9475 11.5826C75.9475 11.3776 75.8365 11.2561 75.6219 11.2181H67.8968C67.327 11.2181 66.8756 11.0586 66.5501 10.732C66.2245 10.4055 66.0617 9.96501 66.0617 9.39542C66.0617 8.82584 66.2245 8.38536 66.5501 8.05879C66.8756 7.73223 67.327 7.57275 67.8968 7.57275H77.457C78.049 7.57275 78.5447 7.73223 78.9517 8.05879C79.3587 8.38536 79.6251 8.82584 79.7657 9.39542H84.0574V8.33219C84.0574 7.76261 84.235 7.32213 84.5902 6.99557C84.9453 6.66901 85.4115 6.50952 85.9813 6.50952H86.1293C86.699 6.50952 87.1652 6.66901 87.5204 6.99557C87.8756 7.32213 88.0531 7.76261 88.0531 8.33219V20.8175C88.0531 21.3871 87.8756 21.8276 87.5204 22.1541C87.1652 22.4807 86.699 22.6402 86.1293 22.6402H85.9813ZM73.1061 25.5565C73.7572 24.4856 74.6526 23.6502 75.7847 23.0503C76.9168 22.4503 78.1895 22.1541 79.5881 22.1541C80.9866 22.1541 82.3407 22.4655 83.4654 23.0807C84.5902 23.6958 85.4707 24.5464 86.0997 25.6172C86.7286 26.688 87.0468 27.8955 87.0468 29.2322C87.0468 30.5688 86.7286 31.8067 86.0997 32.8775C85.4707 33.9483 84.5902 34.7913 83.4654 35.3989C82.3407 36.0064 81.0458 36.3102 79.5881 36.3102C78.1304 36.3102 76.8872 36.014 75.7551 35.4293C74.623 34.8445 73.735 34.0091 73.0913 32.9383C72.4475 31.8675 72.1293 30.6296 72.1293 29.2322C72.1293 27.8348 72.4549 26.6273 73.1061 25.5565ZM76.9834 31.708C77.6568 32.3459 78.5225 32.6649 79.5881 32.6649C80.6536 32.6649 81.5193 32.3459 82.1927 31.708C82.8661 31.07 83.199 30.2422 83.199 29.2322C83.199 28.2221 82.8661 27.4171 82.1927 26.7716C81.5193 26.126 80.6536 25.7995 79.5881 25.7995C78.5225 25.7995 77.6568 26.126 76.9834 26.7716C76.3101 27.4171 75.9771 28.2373 75.9771 29.2322C75.9771 30.2271 76.3101 31.07 76.9834 31.708ZM79.2329 15.6229H84.0574V13.0408H79.4993C79.2255 14.0129 78.7223 15.0077 77.9898 16.0178C78.3079 15.752 78.7223 15.6229 79.2329 15.6229Z" fill="#1C1D1D"/>
<path d="M104.776 35.8542C104.184 35.8542 103.71 35.6796 103.355 35.3378C103 34.9961 102.823 34.5176 102.823 33.9101V27.6826H93.8838C93.2919 27.6826 92.8257 27.5155 92.4779 27.1814C92.1302 26.8472 91.96 26.4067 91.96 25.8599C91.96 25.3131 92.1302 24.8726 92.4779 24.5385C92.8257 24.2043 93.2919 24.0373 93.8838 24.0373H115.787C116.378 24.0373 116.845 24.2043 117.192 24.5385C117.54 24.8726 117.71 25.3131 117.71 25.8599C117.71 26.4067 117.54 26.8472 117.192 27.1814C116.845 27.5155 116.378 27.6826 115.787 27.6826H106.818V33.9101C106.818 34.5176 106.648 34.9961 106.3 35.3378C105.953 35.6796 105.486 35.8542 104.894 35.8542H104.776ZM95.4525 18.9034C95.6079 18.6376 95.8299 18.4401 96.1037 18.2958L96.7549 17.9921C97.998 17.3845 99.0339 16.8377 99.8627 16.3516C100.751 15.8276 101.468 15.1897 102.009 14.453C102.549 13.7164 102.823 12.9114 102.823 12.038V11.0963H97.7612C97.1915 11.0963 96.7401 10.9368 96.4145 10.6102C96.0889 10.2837 95.9261 9.84319 95.9261 9.2736C95.9261 8.70402 96.0889 8.26354 96.4145 7.93697C96.7401 7.61041 97.1915 7.45093 97.7612 7.45093H111.968C112.538 7.45093 112.989 7.61041 113.315 7.93697C113.641 8.26354 113.803 8.70402 113.803 9.2736C113.803 9.84319 113.641 10.2837 113.315 10.6102C112.989 10.9368 112.538 11.0963 111.968 11.0963H106.818V12.3418C106.818 12.7063 106.766 13.1696 106.67 13.7391C109.726 15.1593 112.065 16.5871 113.685 18.0224C113.922 18.2275 114.107 18.4629 114.233 18.7363C114.358 19.0097 114.425 19.2907 114.425 19.5717C114.425 20.0198 114.277 20.4223 113.981 20.7868C113.803 21.0298 113.581 21.2197 113.315 21.364C113.049 21.5083 112.775 21.5766 112.501 21.5766C112.109 21.5766 111.739 21.4323 111.406 21.1514C109.808 19.8147 107.647 18.5009 104.924 17.2022C103.444 18.9034 101.195 20.3084 98.1756 21.4248C97.8426 21.569 97.4578 21.6374 97.0213 21.6374C96.3479 21.6374 95.8595 21.3868 95.5414 20.878C95.3268 20.5362 95.2158 20.1717 95.2158 19.7843C95.2158 19.4578 95.2972 19.1692 95.4525 18.9034Z" fill="#1C1D1D"/>
<path d="M121.025 28.7765C120.789 28.5942 120.604 28.3664 120.463 28.093C120.322 27.8196 120.256 27.531 120.256 27.2272C120.256 26.7792 120.433 26.3767 120.789 26.0121C124.696 22.1465 126.649 17.7417 126.649 12.7977V9.63844C126.649 9.05367 126.834 8.58281 127.211 8.22587C127.589 7.86893 128.07 7.69426 128.662 7.69426C129.254 7.69426 129.735 7.86893 130.097 8.21068C130.46 8.55243 130.645 9.03089 130.645 9.63844V12.7977C130.645 13.9901 130.534 15.2584 130.319 16.595C131.622 17.9924 132.857 19.5189 134.019 21.1669C135.181 22.8149 136.083 24.311 136.712 25.6476C136.853 25.9134 136.92 26.2248 136.92 26.5893C136.92 26.9311 136.838 27.2576 136.683 27.5614C136.527 27.8652 136.298 28.1082 136.002 28.2905C135.61 28.5107 135.225 28.6246 134.848 28.6246C134.174 28.6246 133.642 28.2905 133.249 27.6222C131.807 25.0097 130.386 22.8604 128.987 21.182C127.803 23.9996 126.079 26.4678 123.808 28.5942C123.371 29.0423 122.868 29.2626 122.298 29.2626C121.825 29.2626 121.403 29.1031 121.025 28.7765ZM139.14 8.3322C139.14 7.76261 139.317 7.32213 139.672 6.99557C140.027 6.66901 140.494 6.50952 141.063 6.50952H141.211C141.781 6.50952 142.247 6.66901 142.602 6.99557C142.958 7.32213 143.135 7.76261 143.135 8.3322V33.7889C143.135 34.3584 142.958 34.7989 142.602 35.1255C142.247 35.4521 141.781 35.6115 141.211 35.6115H141.063C140.494 35.6115 140.027 35.4521 139.672 35.1255C139.317 34.7989 139.14 34.3584 139.14 33.7889V8.3322Z" fill="#1C1D1D"/>
<path d="M175.664 35.6115C175.094 35.6115 174.628 35.4521 174.273 35.1255C173.918 34.7989 173.74 34.3584 173.74 33.7889V19.7239H170.366C170.129 21.1593 169.648 22.4048 168.915 23.4604C168.183 24.516 167.273 25.321 166.178 25.8754C165.082 26.4298 163.891 26.7108 162.611 26.7108C161.19 26.7108 159.881 26.3691 158.674 25.678C157.431 24.9869 156.455 23.9692 155.744 22.625C155.034 21.2808 154.679 19.6859 154.679 17.8405C154.679 15.995 155.041 14.3242 155.774 13.0104C156.484 11.6965 157.439 10.6941 158.645 10.003C159.851 9.31188 161.168 8.97013 162.611 8.97013C163.876 8.97013 165.045 9.24353 166.133 9.79033C167.28 10.3599 168.22 11.1801 168.96 12.2509C169.7 13.3218 170.181 14.5976 170.395 16.0786H173.74V8.3322C173.74 7.76261 173.918 7.32213 174.273 6.99557C174.628 6.66901 175.094 6.50952 175.664 6.50952H175.812C176.382 6.50952 176.848 6.66901 177.203 6.99557C177.558 7.32213 177.736 7.76261 177.736 8.3322V33.7889C177.736 34.3584 177.558 34.7989 177.203 35.1255C176.848 35.4521 176.382 35.6115 175.812 35.6115H175.664ZM159.074 20.6049C159.437 21.3947 159.932 22.0022 160.554 22.4275C161.176 22.8528 161.864 23.0655 162.611 23.0655C163.358 23.0655 164.017 22.8528 164.638 22.4275C165.26 22.0022 165.756 21.3947 166.118 20.6049C166.481 19.815 166.666 18.8961 166.666 17.8405C166.666 16.7848 166.481 15.8887 166.118 15.0913C165.756 14.2939 165.26 13.6787 164.638 13.2534C164.017 12.8281 163.344 12.6155 162.611 12.6155C161.878 12.6155 161.176 12.8357 160.554 13.2686C159.932 13.7015 159.437 14.3166 159.074 15.1065C158.711 15.8963 158.526 16.8076 158.526 17.8405C158.526 18.8733 158.711 19.815 159.074 20.6049Z" fill="#1C1D1D"/>
<path d="M189.604 23.1259C189.012 23.1032 188.472 23.0424 187.976 22.9437C186.378 22.6779 185.157 22.1539 184.321 21.364C183.485 20.5742 183.063 19.4198 183.063 17.9009V15.9264C183.063 15.1745 183.292 14.567 183.744 14.1037C184.195 13.6405 184.78 13.405 185.49 13.405H193.126C193.223 13.405 193.311 13.367 193.393 13.2987C193.474 13.2303 193.511 13.1544 193.511 13.0709V11.552C193.511 11.4532 193.474 11.3621 193.393 11.2938C193.311 11.2254 193.223 11.1874 193.126 11.1874H184.75C184.18 11.1874 183.729 11.028 183.403 10.7014C183.078 10.3748 182.915 9.93435 182.915 9.36476C182.915 8.79518 183.078 8.3547 183.403 8.02813C183.729 7.70157 184.18 7.54209 184.75 7.54209H194.932C195.642 7.54209 196.227 7.77752 196.678 8.25597C197.13 8.73442 197.359 9.34198 197.359 10.0938V14.3467C197.359 15.0986 197.13 15.6986 196.678 16.1542C196.227 16.6099 195.642 16.8377 194.932 16.8377H189.723L187.296 16.8681C187.199 16.8681 187.111 16.9061 187.029 16.9896C186.948 17.0732 186.911 17.1643 186.911 17.263V17.9617C186.911 18.7515 187.421 19.2072 188.45 19.3287C189.397 19.4502 190.352 19.511 191.321 19.511C193.038 19.511 194.791 19.2604 196.589 18.7515C196.767 18.6908 196.945 18.6604 197.122 18.6604C197.596 18.6604 197.981 18.8427 198.276 19.2072C198.572 19.5717 198.72 20.0274 198.72 20.5742C198.72 21.4855 198.217 22.0855 197.211 22.3665C195.317 22.8905 193.363 23.1563 191.351 23.1563C190.781 23.1563 190.196 23.1487 189.604 23.1259ZM187.148 26.7713C187.148 26.2017 187.325 25.7612 187.68 25.4347C188.036 25.1081 188.502 24.9486 189.071 24.9486H189.219C189.789 24.9486 190.255 25.1081 190.611 25.4347C190.966 25.7612 191.143 26.2017 191.143 26.7713V27.8649C191.143 29.2623 191.58 30.2951 192.46 30.9634C193.341 31.6318 194.725 31.9659 196.619 31.9659C198.728 31.9659 200.8 31.5786 202.835 30.8116C203.131 30.7128 203.397 30.6597 203.634 30.6597C204.13 30.6597 204.529 30.8267 204.833 31.1609C205.136 31.4951 205.291 31.9431 205.291 32.5127C205.291 33.3633 204.759 33.9784 203.693 34.3658C201.384 35.1936 199.024 35.6113 196.619 35.6113C193.541 35.6113 191.195 34.9505 189.575 33.6367C187.954 32.3229 187.148 30.4394 187.148 27.9864V26.7713ZM201.414 8.18002C201.414 7.57247 201.577 7.09402 201.902 6.75226C202.228 6.41051 202.679 6.23584 203.249 6.23584H203.367C203.937 6.23584 204.389 6.41051 204.714 6.75226C205.04 7.09402 205.202 7.57247 205.202 8.18002V25.1916C205.202 25.7992 205.04 26.2701 204.714 26.6042C204.389 26.9384 203.937 27.1054 203.367 27.1054H203.249C202.679 27.1054 202.228 26.9384 201.902 26.6042C201.577 26.2701 201.414 25.7992 201.414 25.1916V8.18002Z" fill="#1C1D1D"/>
<path d="M213.727 25.678C212.484 24.9869 211.507 23.9692 210.797 22.625C210.087 21.2808 209.731 19.6859 209.731 17.8405C209.731 15.995 210.094 14.3242 210.827 13.0104C211.537 11.6965 212.491 10.6941 213.698 10.003C214.904 9.31188 216.221 8.97013 217.664 8.97013C219.107 8.97013 220.365 9.30429 221.571 9.9726C222.814 10.6789 223.791 11.7117 224.501 13.056C225.211 14.4002 225.566 15.995 225.566 17.8405C225.566 19.6859 225.204 21.3567 224.471 22.6706C223.761 23.9844 222.806 24.9869 221.615 25.678C220.424 26.3691 219.107 26.7108 217.664 26.7108C216.221 26.7108 214.933 26.3691 213.727 25.678ZM214.127 20.6049C214.489 21.3947 214.985 22.0022 215.607 22.4275C216.228 22.8528 216.916 23.0655 217.664 23.0655C218.411 23.0655 219.07 22.8528 219.691 22.4275C220.313 22.0022 220.809 21.3947 221.171 20.6049C221.534 19.815 221.719 18.8961 221.719 17.8405C221.719 16.7848 221.534 15.8887 221.171 15.0913C220.809 14.2939 220.313 13.6787 219.691 13.2534C219.07 12.8281 218.396 12.6155 217.664 12.6155C216.931 12.6155 216.228 12.8357 215.607 13.2686C214.985 13.7015 214.489 14.3166 214.127 15.1065C213.764 15.8963 213.579 16.8076 213.579 17.8405C213.579 18.8733 213.764 19.815 214.127 20.6049ZM228.822 8.3322C228.822 7.76261 229 7.32213 229.355 6.99557C229.71 6.66901 230.176 6.50952 230.746 6.50952H230.894C231.464 6.50952 231.93 6.66901 232.285 6.99557C232.64 7.32213 232.818 7.76261 232.818 8.3322V33.7889C232.818 34.3584 232.64 34.7989 232.285 35.1255C231.93 35.4521 231.464 35.6115 230.894 35.6115H230.746C230.176 35.6115 229.71 35.4521 229.355 35.1255C229 34.7989 228.822 34.3584 228.822 33.7889V8.3322Z" fill="#1C1D1D"/>
<path d="M238.234 28.7765C237.998 28.5942 237.813 28.3664 237.672 28.093C237.531 27.8196 237.465 27.531 237.465 27.2272C237.465 26.7792 237.642 26.3767 237.998 26.0121C241.905 22.1465 243.858 17.7417 243.858 12.7977V9.63844C243.858 9.05367 244.043 8.58281 244.42 8.22587C244.798 7.86893 245.279 7.69426 245.871 7.69426C246.463 7.69426 246.944 7.86893 247.306 8.21068C247.669 8.55243 247.854 9.03089 247.854 9.63844V12.7977C247.854 13.9901 247.743 15.2584 247.528 16.595C248.831 17.9924 250.066 19.5189 251.228 21.1669C252.39 22.8149 253.292 24.311 253.921 25.6476C254.062 25.9134 254.129 26.2248 254.129 26.5893C254.129 26.9311 254.047 27.2576 253.892 27.5614C253.736 27.8652 253.507 28.1082 253.211 28.2905C252.819 28.5107 252.434 28.6246 252.057 28.6246C251.383 28.6246 250.851 28.2905 250.458 27.6222C249.016 25.0097 247.595 22.8604 246.196 21.182C245.012 23.9996 243.288 26.4678 241.017 28.5942C240.58 29.0423 240.077 29.2626 239.507 29.2626C239.034 29.2626 238.612 29.1031 238.234 28.7765ZM256.348 8.3322C256.348 7.76261 256.526 7.32213 256.881 6.99557C257.236 6.66901 257.703 6.50952 258.272 6.50952H258.42C258.99 6.50952 259.456 6.66901 259.811 6.99557C260.167 7.32213 260.344 7.76261 260.344 8.3322V33.7889C260.344 34.3584 260.167 34.7989 259.811 35.1255C259.456 35.4521 258.99 35.6115 258.42 35.6115H258.272C257.703 35.6115 257.236 35.4521 256.881 35.1255C256.526 34.7989 256.348 34.3584 256.348 33.7889V8.3322Z" fill="#1C1D1D"/>
<path d="M265.716 19.496C265.901 19.2226 266.167 19.0251 266.5 18.9036C268.372 18.2353 269.675 17.5594 270.407 16.8683C271.14 16.1772 271.502 15.4709 271.502 14.7419H267.862C266.641 14.7419 266.027 14.1647 266.027 13.0103C266.027 12.4255 266.182 11.9775 266.5 11.6737C266.818 11.3699 267.27 11.218 267.862 11.218H278.813C279.405 11.218 279.856 11.3699 280.174 11.6737C280.493 11.9775 280.648 12.4255 280.648 13.0103C280.648 14.1647 280.034 14.7419 278.813 14.7419H275.35V15.3494L275.291 15.9873C277.207 16.5949 278.909 17.3771 280.411 18.3264C281.003 18.7138 281.299 19.215 281.299 19.8453C281.299 20.1871 281.188 20.5364 280.974 20.8782C280.655 21.3642 280.234 21.6073 279.701 21.6073C279.309 21.6073 278.88 21.463 278.428 21.182C277.089 20.3542 275.491 19.6023 273.633 18.934C272.353 20.2327 270.496 21.2731 268.069 22.0629C267.736 22.1617 267.44 22.2148 267.181 22.2148C266.53 22.2148 266.034 21.9414 265.701 21.3946C265.523 21.1136 265.435 20.7946 265.435 20.4529C265.435 20.0884 265.531 19.7694 265.716 19.496ZM267.773 6.38794C268.128 5.96265 268.579 5.75 269.134 5.75C269.467 5.75 269.793 5.84113 270.111 6.0234L270.377 6.17529C270.651 6.33477 270.947 6.4411 271.265 6.47907C271.584 6.51704 272.116 6.53982 272.864 6.53982H277.155C277.71 6.53982 278.154 6.69931 278.487 7.01068C278.82 7.32206 278.991 7.74735 278.991 8.27136C278.991 8.79538 278.82 9.21308 278.487 9.51686C278.154 9.82064 277.696 9.97253 277.126 9.97253H272.242C271.273 9.97253 270.503 9.91936 269.919 9.80545C269.334 9.69153 268.816 9.4637 268.365 9.12195L268.069 8.9093C267.595 8.56755 267.358 8.11188 267.358 7.5423C267.358 7.11701 267.499 6.72969 267.773 6.38794ZM275.454 35.414C274.321 34.814 273.448 33.9938 272.849 32.9382C272.25 31.8826 271.946 30.6978 271.946 29.384C271.946 28.0701 272.257 26.855 272.879 25.7994C273.5 24.7438 274.381 23.9236 275.513 23.3388C276.645 22.754 277.947 22.4578 279.405 22.4578C280.863 22.4578 282.165 22.754 283.297 23.3388C284.429 23.9236 285.31 24.7438 285.931 25.7994C286.553 26.855 286.864 28.0474 286.864 29.384C286.864 30.7206 286.56 31.9433 285.946 32.999C285.332 34.0546 284.459 34.8672 283.327 35.4444C282.195 36.0216 280.885 36.3102 279.405 36.3102C277.925 36.3102 276.586 36.014 275.454 35.414ZM276.8 31.7838C277.474 32.3686 278.339 32.6648 279.405 32.6648C280.47 32.6648 281.336 32.3686 282.01 31.7838C282.683 31.1991 283.016 30.3941 283.016 29.384C283.016 28.3739 282.683 27.5689 282.01 26.9841C281.336 26.3994 280.47 26.1032 279.405 26.1032C278.339 26.1032 277.474 26.3994 276.8 26.9841C276.127 27.5689 275.794 28.3739 275.794 29.384C275.794 30.3941 276.127 31.1991 276.8 31.7838ZM280.426 14.8634C280.752 14.5368 281.203 14.3773 281.773 14.3773H283.845V8.33212C283.845 7.76254 284.022 7.32206 284.377 6.99549C284.733 6.66893 285.199 6.50945 285.769 6.50945H285.917C286.486 6.50945 286.952 6.66893 287.308 6.99549C287.663 7.32206 287.84 7.76254 287.84 8.33212V21.1212C287.84 21.6908 287.663 22.1313 287.308 22.4578C286.952 22.7844 286.486 22.9439 285.917 22.9439H285.769C285.199 22.9439 284.733 22.7844 284.377 22.4578C284.022 22.1313 283.845 21.6908 283.845 21.1212V18.0227H281.773C281.203 18.0227 280.752 17.8632 280.426 17.5366C280.1 17.2101 279.938 16.7696 279.938 16.2C279.938 15.6304 280.1 15.1899 280.426 14.8634Z" fill="#1C1D1D"/>
</g>
<defs>
<clipPath id="clip0_132_11367">
<rect width="298" height="46" fill="white"/>
</clipPath>
</defs>
</svg>
