<svg xmlns="http://www.w3.org/2000/svg" width="39" height="39" viewBox="0 0 39 39">
  <g id="그룹_8" data-name="그룹 8" transform="translate(-32 -4966)">
    <rect id="사각형_96" data-name="사각형 96" width="39" height="39" transform="translate(32 4966)" fill="none"/>
    <path id="패스_7" data-name="패스 7" d="M.073,27.75s.04.1.121.271c.6,1.279,3.43,6.61,8.486,5.729,5.738-1,1.912-8,1.912-8S-1.84,5.75,19.2.75c0,0,11.476-3,15.3,3,0,0-9.563-4-11.476,0-1.311,3.428.525,5.446,2.425,7.665a13.876,13.876,0,0,1,3.345,7.955c.3,4,0,9.364-7.682,13.38,0,0,5.179-4.652-2.67-15.826a6.655,6.655,0,0,0,.239,4.863,13.089,13.089,0,0,1,.9,2.65c.708,3.438.721,6.875-4.21,10.313-7.651,5-16.257-1-15.3-7" transform="translate(33.764 4967.312)" fill="#317039"/>
  </g>
</svg>
