<svg width="151" height="50" viewBox="0 0 151 50" fill="none" xmlns="http://www.w3.org/2000/svg">
<g clip-path="url(#clip0_56_1614)">
<path d="M44.1717 38.0177C43.1399 37.6497 42.9444 37.4043 42.9444 36.9822C42.9444 36.5601 43.2412 36.2246 43.9472 36.2246C44.4649 36.2246 44.8088 36.3942 45.1853 36.7044L45.5546 36.2535C45.1202 35.9071 44.6785 35.7051 43.9834 35.7051C43.0204 35.7051 42.3687 36.1957 42.3687 37.0183C42.3687 37.7615 42.7452 38.1223 43.8603 38.5191C44.8052 38.8583 45.0912 39.1288 45.0912 39.6051C45.0912 40.1498 44.664 40.489 43.9798 40.489C43.4476 40.489 42.9987 40.2436 42.6077 39.872L42.2275 40.2978C42.633 40.709 43.2593 41.0121 43.9617 41.0121C45.0369 41.0121 45.6705 40.3843 45.6705 39.5798C45.6705 38.7753 45.3193 38.4325 44.1753 38.0213L44.1717 38.0177Z" fill="white"/>
<path d="M48.0091 36.9935C47.5059 36.9935 47.0497 37.1162 46.7094 37.3002L46.9194 37.7476C47.2344 37.5636 47.5674 37.4517 47.9729 37.4517C48.5377 37.4517 48.8128 37.7295 48.8128 38.3068V38.7614C48.5847 38.6351 48.2336 38.5377 47.8462 38.5377C47.0823 38.5377 46.3655 38.9057 46.3655 39.7715C46.3655 40.7023 46.999 41.0054 47.6 41.0054C48.1575 41.0054 48.5377 40.7456 48.8128 40.4534V40.926H49.3631V38.2346C49.3631 37.3399 48.8418 36.9863 48.0091 36.9863V36.9935ZM48.8092 39.9844C48.5739 40.3055 48.1974 40.5616 47.6978 40.5616C47.2235 40.5616 46.9049 40.3127 46.9049 39.7391C46.9049 39.2556 47.2452 38.9814 47.8136 38.9814C48.2842 38.9814 48.5558 39.068 48.8092 39.2051V39.988V39.9844Z" fill="white"/>
<path d="M54.9168 38.6698V40.9283H55.4671V38.5796C55.4671 37.454 54.9747 36.9922 54.1855 36.9922C53.5555 36.9922 53.2406 37.2844 53.0125 37.6524C52.8278 37.2844 52.4984 36.9922 51.9517 36.9922C51.4956 36.9922 51.1697 37.2123 50.9706 37.5442V37.0752H50.4131V40.9319H50.9706V38.6734C50.9706 37.8184 51.3001 37.4684 51.8323 37.4684C52.3644 37.4684 52.6649 37.7895 52.6649 38.6734V40.9319H53.2188V38.6734C53.2188 37.8184 53.5555 37.4684 54.0805 37.4684C54.638 37.4684 54.9131 37.7895 54.9131 38.6734L54.9168 38.6698Z" fill="white"/>
<path d="M57.6864 38.6859C57.0311 38.39 56.8357 38.2638 56.8357 37.9355C56.8357 37.6541 57.0673 37.4592 57.4764 37.4592C57.8855 37.4592 58.139 37.5675 58.4395 37.8056L58.7472 37.3979C58.4539 37.1562 58.0412 36.9902 57.5127 36.9902C56.8067 36.9902 56.3035 37.3871 56.3035 37.9715C56.3035 38.5885 56.6257 38.823 57.404 39.1549C58.0883 39.4471 58.3164 39.6239 58.3164 39.9414C58.3164 40.3166 58.0666 40.5367 57.5344 40.5367C57.1506 40.5367 56.7886 40.3815 56.4809 40.111L56.155 40.5114C56.5243 40.8072 56.9877 41.0057 57.5199 41.0057C58.1897 41.0057 58.8449 40.6774 58.8449 39.9161C58.8449 39.227 58.4177 39.0142 57.6828 38.6823L57.6864 38.6859Z" fill="white"/>
<path d="M62.0741 39.3271C62.0741 40.1713 61.6505 40.5285 61.1183 40.5285C60.4956 40.5285 60.2024 40.1569 60.2024 39.3271V37.0723H59.6521V39.4209C59.6521 40.5285 60.1915 41.0083 61.0061 41.0083C61.4948 41.0083 61.8533 40.781 62.0741 40.4563V40.929H62.628V37.0723H62.0741V39.3271Z" fill="white"/>
<path d="M66.5381 40.9283V38.5796C66.5381 37.4684 65.9987 36.9922 65.1805 36.9922C64.6954 36.9922 64.3333 37.2195 64.1161 37.5442V37.0752H63.5586V40.9319H64.1161V38.6734C64.1161 37.8292 64.5325 37.4684 65.0683 37.4684C65.6873 37.4684 65.9842 37.8436 65.9842 38.6734V40.9319H66.5381V40.9283Z" fill="white"/>
<path d="M68.2793 41.9257L68.4567 42.3442C69.894 42.3009 70.4153 41.7417 70.4153 40.58V37.0696H69.8614V37.5025C69.5899 37.1923 69.2568 36.9902 68.7717 36.9902C67.9607 36.9902 67.3091 37.6937 67.3091 39.0611C67.3091 40.4284 67.9245 41.0057 68.6957 41.0057C69.2206 41.0057 69.5899 40.7459 69.8614 40.4537V40.6521C69.8614 41.5504 69.5682 41.8896 68.2757 41.922L68.2793 41.9257ZM68.8405 40.5294C68.2286 40.5294 67.8594 40.0244 67.8594 39.0539C67.8594 38.0184 68.1743 37.4665 68.8188 37.4665C69.2785 37.4665 69.6514 37.7226 69.865 38.0437V39.9739C69.5935 40.313 69.2532 40.5294 68.8405 40.5294Z" fill="white"/>
<path d="M76.5193 38.3214C76.5193 36.5572 75.5201 35.7852 74.1661 35.7852H72.8013V40.9298H74.0648C75.4441 40.9298 76.5193 40.1866 76.5193 38.3214ZM73.3769 36.3047H74.1227C75.3102 36.3047 75.9437 37.0262 75.9437 38.3395C75.9437 39.8186 75.2486 40.4067 74.1372 40.4067H73.3769V36.3047Z" fill="white"/>
<path d="M77.9926 37.5481V37.0719H77.4387V40.9286H77.9926V38.6629C77.9926 37.9269 78.2967 37.4976 78.8362 37.4976C79.0932 37.4976 79.2597 37.5553 79.4154 37.6455L79.553 37.0899C79.4227 37.0322 79.238 36.9961 78.9484 36.9961C78.5321 36.9961 78.1664 37.245 77.9926 37.5517V37.5481Z" fill="white"/>
<path d="M82.8621 40.5606L82.6014 40.1637C82.2466 40.3982 81.9823 40.5317 81.5298 40.5317C80.8998 40.5317 80.5052 40.0086 80.4545 39.1896H83.0322C83.0503 39.0994 83.0576 39.02 83.0576 38.8902C83.0576 37.7898 82.5073 36.9961 81.4972 36.9961C80.5776 36.9961 79.9006 37.7573 79.9006 38.9804C79.9006 40.4992 80.7623 41.0115 81.4719 41.0115C82.0547 41.0115 82.395 40.8564 82.8621 40.5642V40.5606ZM81.4972 37.4687C82.1742 37.4687 82.5 37.9918 82.5435 38.7386H80.4545C80.5197 37.8764 80.9216 37.4687 81.4972 37.4687Z" fill="white"/>
<path d="M84.9038 41.0093C85.4577 41.0093 85.8379 40.7495 86.1094 40.4573V40.9299H86.6633V38.2385C86.6633 37.3438 86.142 36.9902 85.3093 36.9902C84.8061 36.9902 84.3499 37.1129 84.0096 37.2969L84.216 37.7443C84.5346 37.5603 84.864 37.4484 85.2695 37.4484C85.8379 37.4484 86.1094 37.7262 86.1094 38.3035V38.758C85.8813 38.6318 85.5338 38.5344 85.1464 38.5344C84.3789 38.5344 83.6584 38.9024 83.6584 39.7682C83.6584 40.699 84.2956 41.0021 84.9002 41.0021L84.9038 41.0093ZM85.1174 38.9781C85.5881 38.9781 85.8632 39.0647 86.113 39.2018V39.9847C85.8777 40.3058 85.5012 40.5619 85.0016 40.5619C84.5309 40.5619 84.2087 40.313 84.2087 39.7394C84.2087 39.2559 84.5527 38.9817 85.1174 38.9817V38.9781Z" fill="white"/>
<path d="M92.217 38.6698V40.9283H92.7709V38.5796C92.7709 37.454 92.2785 36.9922 91.4893 36.9922C90.863 36.9922 90.5444 37.2844 90.3199 37.6524C90.1353 37.2844 89.8058 36.9922 89.2592 36.9922C88.7994 36.9922 88.4772 37.2123 88.2781 37.5442V37.0752H87.7278V40.9319H88.2781V38.6734C88.2781 37.8184 88.6111 37.4684 89.1433 37.4684C89.6755 37.4684 89.9796 37.7895 89.9796 38.6734V40.9319H90.5299V38.6734C90.5299 37.8184 90.8666 37.4684 91.3952 37.4684C91.9527 37.4684 92.2278 37.7895 92.2278 38.6734L92.217 38.6698Z" fill="white"/>
<path d="M44.1717 45.6683C43.1362 45.3003 42.948 45.0586 42.948 44.6329C42.948 44.2072 43.2449 43.8789 43.9508 43.8789C44.4685 43.8789 44.8161 44.0448 45.189 44.3551L45.5582 43.9078C45.1238 43.565 44.6785 43.3594 43.987 43.3594C43.0204 43.3594 42.3724 43.8428 42.3724 44.6726C42.3724 45.4158 42.7489 45.773 43.8639 46.1698C44.8088 46.5126 45.0948 46.7795 45.0948 47.2594C45.0948 47.8005 44.6676 48.1397 43.9798 48.1397C43.4476 48.1397 42.9987 47.8943 42.6077 47.5227L42.2275 47.9485C42.633 48.3597 43.2593 48.6592 43.9617 48.6592C45.0369 48.6592 45.6668 48.035 45.6668 47.2269C45.6668 46.4188 45.3157 46.0796 44.1753 45.6683H44.1717Z" fill="white"/>
<path d="M48.0166 45.1205C48.4076 45.1205 48.6646 45.2576 48.9434 45.5101L49.2764 45.0988C48.9723 44.8318 48.5705 44.6406 48.0528 44.6406C47.2418 44.6406 46.3838 45.2431 46.3838 46.6682C46.3838 48.0139 47.1622 48.6561 48.0129 48.6561C48.556 48.6561 48.9325 48.4504 49.2583 48.1185L48.9253 47.7686C48.661 48.0247 48.4112 48.1762 48.0347 48.1762C47.3504 48.1762 46.9413 47.5665 46.9413 46.6177C46.9413 45.6688 47.4083 45.1132 48.0129 45.1132L48.0166 45.1205Z" fill="white"/>
<path d="M51.6405 44.6439C51.1553 44.6439 50.7897 44.8712 50.5688 45.1959V43.3848H50.0186V48.5872H50.5688V46.3287C50.5688 45.4845 50.9924 45.1237 51.5282 45.1237C52.1509 45.1237 52.4442 45.4953 52.4442 46.3287V48.5872H52.9981V46.2313C52.9981 45.1237 52.4587 44.6439 51.6405 44.6439Z" fill="white"/>
<path d="M55.4671 44.6445C54.5258 44.6445 53.7764 45.348 53.7764 46.6577C53.7764 47.9673 54.4968 48.6636 55.4381 48.6636C56.3794 48.6636 57.136 47.9384 57.136 46.6288C57.136 45.3192 56.4083 44.6445 55.4671 44.6445ZM55.4562 48.1837C54.7828 48.1837 54.3303 47.657 54.3303 46.6432C54.3303 45.6294 54.7828 45.1244 55.4562 45.1244C56.1296 45.1244 56.5821 45.6294 56.5821 46.6432C56.5821 47.657 56.126 48.1837 55.4562 48.1837Z" fill="white"/>
<path d="M58.5227 43.3809H57.9688V48.5833H58.5227V43.3809Z" fill="white"/>
<path d="M61.0531 44.6445C60.5499 44.6445 60.0937 44.7708 59.757 44.9548L59.9634 45.4058C60.282 45.2218 60.615 45.1099 61.0205 45.1099C61.5853 45.1099 61.8604 45.3913 61.8604 45.9614V46.4196C61.6323 46.2933 61.2848 46.1959 60.8974 46.1959C60.1299 46.1959 59.4131 46.5639 59.4131 47.4333C59.4131 48.3641 60.0466 48.6636 60.6512 48.6636C61.2051 48.6636 61.5853 48.4074 61.8604 48.1152V48.5878H62.4143V45.9C62.4143 44.9981 61.8894 44.6481 61.0567 44.6481L61.0531 44.6445ZM61.8568 47.6354C61.6251 47.9528 61.2413 48.2126 60.7454 48.2126C60.2747 48.2126 59.9561 47.9637 59.9561 47.39C59.9561 46.903 60.2964 46.636 60.8648 46.636C61.3355 46.636 61.607 46.7154 61.8568 46.8561V47.6354Z" fill="white"/>
<path d="M64.0183 45.2031V44.7197H63.4644V48.58H64.0183V46.3143C64.0183 45.582 64.3151 45.1454 64.8582 45.1454C65.1188 45.1454 65.2854 45.2031 65.441 45.2933L65.5822 44.7341C65.4483 44.6764 65.2673 44.6367 64.9776 44.6367C64.5649 44.6367 64.192 44.8857 64.0219 45.1995L64.0183 45.2031Z" fill="white"/>
<path d="M67.7037 46.3402C67.0484 46.0443 66.8493 45.9109 66.8493 45.5898C66.8493 45.312 67.0846 45.1135 67.4901 45.1135C67.8956 45.1135 68.1563 45.2254 68.4567 45.4599L68.7645 45.0558C68.4676 44.8141 68.0585 44.6445 67.5263 44.6445C66.824 44.6445 66.3135 45.0414 66.3135 45.6295C66.3135 46.2175 66.6393 46.4809 67.4141 46.8092C68.0983 47.1014 68.3264 47.2818 68.3264 47.5957C68.3264 47.9745 68.0766 48.191 67.548 48.191C67.1607 48.191 66.8023 48.0358 66.4909 47.7652L66.1687 48.1693C66.538 48.4652 67.0014 48.66 67.5336 48.66C68.2033 48.66 68.8586 48.3281 68.8586 47.574C68.8586 46.8813 68.4314 46.6721 67.7001 46.3402H67.7037Z" fill="white"/>
<path d="M71.3855 44.6439C70.8932 44.6439 70.5348 44.8712 70.3139 45.1959V43.3848H69.76V48.5872H70.3139V46.3287C70.3139 45.4845 70.7339 45.1237 71.2733 45.1237C71.8924 45.1237 72.1856 45.4953 72.1856 46.3287V48.5872H72.7395V46.2313C72.7395 45.1237 72.2037 44.6439 71.3855 44.6439Z" fill="white"/>
<path d="M74.3833 44.7207H73.833V48.581H74.3833V44.7207Z" fill="white"/>
<path d="M74.1189 43.248C73.8944 43.248 73.717 43.4248 73.717 43.6485C73.717 43.8722 73.8944 44.0381 74.1189 44.0381C74.3253 44.0381 74.5027 43.8578 74.5027 43.6485C74.5027 43.4248 74.3253 43.248 74.1189 43.248Z" fill="white"/>
<path d="M77.2179 44.6445C76.6966 44.6445 76.3273 44.9043 76.0522 45.1965V44.7239H75.4983V50.0021H76.0522V48.1513C76.3237 48.4579 76.6568 48.6636 77.1455 48.6636C77.9529 48.6636 78.6045 47.9565 78.6045 46.5927C78.6045 45.229 77.9891 44.6445 77.2179 44.6445ZM77.0985 48.1837C76.6423 48.1837 76.2658 47.9276 76.0522 47.6029V45.6764C76.3237 45.3408 76.664 45.1208 77.0768 45.1208C77.6922 45.1208 78.0615 45.6258 78.0615 46.5963C78.0615 47.6318 77.7429 48.1801 77.1021 48.1801L77.0985 48.1837Z" fill="white"/>
<path d="M81.5334 43.959H83.988V43.4395H80.9578V48.5841H81.5334V46.185H82.9489V45.6654H81.5334V43.959Z" fill="white"/>
<path d="M85.6677 44.6445C84.7264 44.6445 83.9734 45.348 83.9734 46.6577C83.9734 47.9673 84.6975 48.6636 85.6387 48.6636C86.58 48.6636 87.3367 47.9384 87.3367 46.6288C87.3367 45.3192 86.6162 44.6445 85.6677 44.6445ZM85.6568 48.1837C84.9835 48.1837 84.5382 47.657 84.5382 46.6432C84.5382 45.6294 84.9871 45.1244 85.6568 45.1244C86.3266 45.1244 86.7864 45.6294 86.7864 46.6432C86.7864 47.657 86.3302 48.1837 85.6568 48.1837Z" fill="white"/>
<path d="M90.3888 46.9792C90.3888 47.8234 89.9725 48.1842 89.433 48.1842C88.814 48.1842 88.5171 47.8126 88.5171 46.9792V44.7207H87.9668V47.073C87.9668 48.1805 88.5062 48.6604 89.3244 48.6604C89.8059 48.6604 90.168 48.4367 90.3888 48.112V48.5846H90.9463V44.7243H90.3888V46.9828V46.9792Z" fill="white"/>
<path d="M93.4949 44.6442C93.0098 44.6442 92.6478 44.8715 92.427 45.1962V44.7236H91.873V48.5839H92.427V46.3255C92.427 45.4812 92.8469 45.1205 93.3863 45.1205C94.0054 45.1205 94.2987 45.4921 94.2987 46.3255V48.5839H94.8526V46.228C94.8526 45.1205 94.3131 44.6406 93.4949 44.6406V44.6442Z" fill="white"/>
<path d="M98.1795 45.1595C97.9044 44.8492 97.5749 44.64 97.0862 44.64C96.2752 44.64 95.6272 45.3435 95.6272 46.7144C95.6272 48.0854 96.239 48.659 97.0138 48.659C97.5387 48.659 97.9044 48.4029 98.1759 48.1106V48.5833H98.7298V43.3809H98.1759V45.1595H98.1795ZM98.1795 47.6272C97.9044 47.9627 97.5677 48.1828 97.155 48.1828C96.5431 48.1828 96.1739 47.6777 96.1739 46.7072C96.1739 45.6682 96.4888 45.1198 97.1332 45.1198C97.5894 45.1198 97.9623 45.376 98.1795 45.7007V47.6236V47.6272Z" fill="white"/>
<path d="M101.076 44.6445C100.576 44.6445 100.12 44.7708 99.7799 44.9548L99.9826 45.4058C100.301 45.2218 100.634 45.1099 101.04 45.1099C101.605 45.1099 101.876 45.3913 101.876 45.9614V46.4196C101.648 46.2933 101.3 46.1959 100.909 46.1959C100.146 46.1959 99.4287 46.5639 99.4287 47.4333C99.4287 48.3641 100.066 48.6636 100.67 48.6636C101.224 48.6636 101.605 48.4074 101.876 48.1152V48.5878H102.43V45.9C102.43 44.9981 101.909 44.6481 101.072 44.6481L101.076 44.6445ZM101.88 47.6354C101.644 47.9528 101.271 48.2126 100.765 48.2126C100.298 48.2126 99.9826 47.9637 99.9826 47.39C99.9826 46.903 100.319 46.636 100.888 46.636C101.358 46.636 101.633 46.7154 101.88 46.8561V47.6354Z" fill="white"/>
<path d="M104.197 43.3809H103.639V44.7193H103.161V45.1847H103.639V47.7859C103.639 48.4245 103.9 48.6554 104.381 48.6554C104.671 48.6554 104.877 48.6121 105.091 48.5255L105.131 48.0493C104.953 48.1215 104.808 48.1575 104.584 48.1575C104.291 48.1575 104.197 48.0385 104.197 47.6957V45.1847H105.156V44.7193H104.197V43.3809Z" fill="white"/>
<path d="M106.412 43.248C106.184 43.248 106.003 43.4248 106.003 43.6485C106.003 43.8722 106.184 44.0381 106.412 44.0381C106.619 44.0381 106.792 43.8578 106.792 43.6485C106.792 43.4248 106.615 43.248 106.412 43.248Z" fill="white"/>
<path d="M106.676 44.7207H106.123V48.581H106.676V44.7207Z" fill="white"/>
<path d="M109.204 44.6445C108.262 44.6445 107.509 45.348 107.509 46.6577C107.509 47.9673 108.23 48.6636 109.175 48.6636C110.12 48.6636 110.869 47.9384 110.869 46.6288C110.869 45.3192 110.145 44.6445 109.204 44.6445ZM109.189 48.1837C108.519 48.1837 108.067 47.657 108.067 46.6432C108.067 45.6294 108.519 45.1244 109.189 45.1244C109.859 45.1244 110.319 45.6294 110.319 46.6432C110.319 47.657 109.862 48.1837 109.189 48.1837Z" fill="white"/>
<path d="M113.291 44.6442C112.806 44.6442 112.444 44.8715 112.219 45.1962V44.7236H111.665V48.5839H112.219V46.3255C112.219 45.4812 112.639 45.1205 113.179 45.1205C113.798 45.1205 114.095 45.4921 114.095 46.3255V48.5839H114.645V46.228C114.645 45.1205 114.105 44.6406 113.291 44.6406V44.6442Z" fill="white"/>
<path d="M63.5257 25.6582C61.3028 25.6618 59.4709 27.3935 59.4709 29.5654C59.4709 31.7373 61.3028 33.451 63.5257 33.4582C65.7703 33.451 67.5841 31.7156 67.5841 29.5654C67.5841 27.4152 65.7703 25.6618 63.5257 25.6582ZM63.4714 31.676C62.3093 31.676 61.4332 30.7307 61.4332 29.5654C61.4332 28.4001 62.3708 27.4368 63.5293 27.4368C64.6878 27.4368 65.5929 28.3821 65.5929 29.5654C65.5929 30.7488 64.6444 31.676 63.475 31.676H63.4714Z" fill="white"/>
<path d="M44.9209 22.9704C45.5399 23.5801 46.2495 24.114 46.9482 24.4568L47.0207 24.4964L48.219 23.0858L48.1031 23.0209C46.9664 22.4076 46.0758 21.6319 45.4929 20.6542C44.9136 19.6909 44.6168 18.5725 44.6168 17.234V15.9785H42.4735V17.1005C42.4735 18.5509 42.1441 19.6909 41.525 20.6903C40.8335 21.7978 39.809 22.689 38.4984 23.5151L38.3826 23.5873L39.6823 24.9294L39.7547 24.8897C40.5294 24.4712 41.3512 23.8254 42.0644 23.1038C42.6835 22.4725 43.2193 21.7978 43.5451 21.1593C43.8601 21.787 44.3416 22.4256 44.9209 22.974V22.9704Z" fill="white"/>
<path d="M42.6003 32.5357H51.5715V26.4277H42.6003V32.5357ZM44.6169 28.1522H49.555V30.8112H44.6169V28.1522Z" fill="white"/>
<path d="M72.5112 32.5357H82.6554V26.4277H72.5112V32.5357ZM74.506 28.1522H80.6642V30.8112H74.506V28.1522Z" fill="white"/>
<path d="M51.6076 15.6191H49.6128V25.7281H51.6076V21.2545H53.9427V19.4578H51.6076V15.6191Z" fill="white"/>
<path d="M92.9661 23.488C93.6214 24.0544 94.3708 24.5307 95.0767 24.8373L95.1491 24.8698L96.228 23.4159L96.1121 23.3581C95.084 22.835 94.168 22.1856 93.5091 21.3919C92.8394 20.5838 92.4411 19.6097 92.4411 18.4371V18.0944H95.4098V16.3555H87.351V18.0944H90.316V18.5129C90.316 19.5808 89.9612 20.5766 89.3711 21.4388C88.6796 22.4742 87.6695 23.3076 86.6884 23.8488L86.5581 23.9173L87.8831 25.2847L87.9555 25.2486C88.6688 24.8445 89.458 24.2348 90.1314 23.5493C90.6708 22.9865 91.1559 22.3913 91.4528 21.796C91.8112 22.3732 92.3615 22.9505 92.9697 23.488H92.9661Z" fill="white"/>
<path d="M107.393 28.1913H114.645V32.5314H116.657V26.4668H107.393V28.1913Z" fill="white"/>
<path d="M112.396 21.2396C112.396 20.2835 111.966 19.4032 111.328 18.7322H113.32V17.0113H109.518V15.1172H107.357V17.0113H103.465V18.7322H105.5C104.877 19.4032 104.446 20.2763 104.446 21.2396C104.446 23.3718 106.209 25.1035 108.414 25.1107C110.619 25.1035 112.393 23.3718 112.396 21.2396ZM106.369 21.1602C106.369 19.9805 107.368 18.9811 108.414 18.9811C109.46 18.9811 110.456 19.9841 110.46 21.1602C110.46 22.3219 109.46 23.3249 108.414 23.3285C107.364 23.3249 106.372 22.3219 106.369 21.1602Z" fill="white"/>
<path d="M116.657 15.6191H114.666V25.7642H116.657V21.893H119V20.0964H116.657V15.6191Z" fill="white"/>
<path d="M99.7614 15.6191H97.7703V25.7642H99.7614V21.2545H102.1V19.4578H99.7614V15.6191Z" fill="white"/>
<path d="M65.9621 18.628H62.8269V20.4066H65.9621V26.0853H67.9569V15.6191H65.9621V18.628Z" fill="white"/>
<path d="M60.8974 23.2337C61.5201 23.8398 62.2478 24.3738 62.9429 24.7346L63.0189 24.7779L64.2173 23.3672L64.1014 23.3023C62.9646 22.707 62.0921 21.9349 61.5057 20.9717C60.9119 20.0156 60.615 18.8539 60.615 17.5154V15.9785H58.4682V17.3855C58.4682 18.8359 58.1424 19.9723 57.5378 20.9536C56.8499 22.0792 55.8036 22.9776 54.4931 23.7965L54.3809 23.8687L55.6878 25.2144L55.753 25.1711C56.5241 24.749 57.3278 24.1393 58.041 23.443C58.6854 22.8044 59.2212 22.1081 59.5471 21.4407C59.8548 22.0504 60.3254 22.6709 60.8974 23.2373V23.2337Z" fill="white"/>
<path d="M95.4859 25.6582C93.263 25.6618 91.4311 27.3935 91.4275 29.5654C91.4311 31.7156 93.2594 33.451 95.4859 33.4582C97.7269 33.451 99.5443 31.7156 99.5443 29.5654C99.5443 27.4152 97.7269 25.6618 95.4859 25.6582ZM95.4279 31.676C94.2694 31.676 93.3861 30.7307 93.3861 29.5654C93.3861 28.4001 94.3201 27.4368 95.4859 27.4368C96.6516 27.4368 97.5458 28.3821 97.5495 29.5654C97.5495 30.7271 96.5973 31.676 95.4279 31.676Z" fill="white"/>
<path d="M74.9406 21.4166H76.9354V16.2539H71.552V17.9712H74.9406V21.4166Z" fill="white"/>
<path d="M80.9287 21.4166H82.9271V16.2539H77.5437V17.9712H80.9287V21.4166Z" fill="white"/>
<path d="M131.776 20.1902H130.1V15.9005H128.214V32.0994H130.1V22.1384H131.776V32.5323H133.731V15.6191H131.776V20.1902Z" fill="white"/>
<path d="M125.448 22.4301C124.999 21.4524 124.814 20.3592 124.814 19.0171V18.3786H127.077V16.5566H120.502V18.3786H122.838V19.0532C122.838 20.3231 122.671 21.3622 122.269 22.3255C121.802 23.433 121.017 24.4288 119.764 25.4967L119.677 25.5761L120.915 26.7991L120.991 26.7414C121.614 26.2832 122.266 25.6193 122.809 24.9339C123.268 24.3566 123.656 23.7577 123.898 23.231C124.148 23.7433 124.539 24.3314 124.995 24.8798C125.524 25.5219 126.121 26.1316 126.693 26.496L126.769 26.5465L127.812 25.3055L127.729 25.2297C126.606 24.2556 125.911 23.3861 125.455 22.4265L125.448 22.4301Z" fill="white"/>
<path d="M69.8831 23.8199H76.5046V25.7465H78.666V23.8199H85.3925V22.0918H69.8831V23.8199Z" fill="white"/>
<path d="M145.088 23.2679H138.347V18.1557H143.48V16.3555H136.327V25.0141H145.088V23.2679Z" fill="white"/>
<path d="M141.276 27.1426H139.259V32.5326H148.69V30.7576H141.276V27.1426Z" fill="white"/>
<path d="M148.643 20.3017V15.6152H146.652V28.0945H148.643V22.0984H151V20.3017H148.643Z" fill="white"/>
<path d="M42.289 10.3976L37.1228 8.26539L42.289 6.1332L41.3694 3.92886L36.2069 6.06104L38.3465 0.912764L36.1308 0L33.9948 5.14828L31.8552 0L29.6396 0.912764L31.7792 6.06104L26.6166 3.92886L25.7007 6.1332L30.8633 8.26539L25.7007 10.3976L26.6166 12.6019L31.7792 10.4697L29.6396 15.618L31.8552 16.5308L33.9948 11.3861L36.1308 16.5308L38.3465 15.6144L36.2069 10.4697L41.3694 12.6019L42.289 10.3976Z" fill="white"/>
<path d="M8.86255 24.7593H12.2982V15.6172H0.550293V18.6982H8.86255V24.7593Z" fill="white"/>
<path d="M22.2649 24.7593H25.7006V15.6172H13.9526V18.6982H22.2649V24.7593Z" fill="white"/>
<path d="M0 29.4892H22.265V34.1974H25.7007V26.4082H0V29.4892Z" fill="white"/>
<path d="M8.31226 48.5852H25.7007V35.7812H8.31226V48.5852ZM11.7443 38.8659H22.265V45.5078H11.7443V38.8659Z" fill="white"/>
</g>
<defs>
<clipPath id="clip0_56_1614">
<rect width="151" height="50" fill="white"/>
</clipPath>
</defs>
</svg>
