<svg width="50" height="50" viewBox="0 0 50 50" fill="none" xmlns="http://www.w3.org/2000/svg">
<rect width="50" height="50" rx="10" fill="#2C2C32"/>
<g clip-path="url(#clip0_60_17)">
<path fill-rule="evenodd" clip-rule="evenodd" d="M24.4508 9C15.3539 9 8 16.3333 8 25.4057C8 32.6577 12.7119 38.7963 19.2486 40.969C20.0659 41.1323 20.3652 40.616 20.3652 40.1817C20.3652 39.8013 20.3383 38.4977 20.3383 37.1393C15.7621 38.1173 14.8091 35.1837 14.8091 35.1837C14.0737 33.2823 12.984 32.7937 12.984 32.7937C11.4862 31.7887 13.0931 31.7887 13.0931 31.7887C14.7546 31.8973 15.6264 33.4727 15.6264 33.4727C17.0969 35.9713 19.4665 35.2653 20.4198 34.8307C20.5558 33.7713 20.9919 33.038 21.4549 32.6307C17.805 32.2503 13.9649 30.838 13.9649 24.5363C13.9649 22.7437 14.6182 21.277 15.6533 20.1363C15.49 19.729 14.9179 18.0447 15.817 15.7903C15.817 15.7903 17.206 15.3557 20.338 17.4743C21.6789 17.1152 23.0617 16.9325 24.4508 16.931C25.8399 16.931 27.2558 17.1213 28.5634 17.4743C31.6957 15.3557 33.0847 15.7903 33.0847 15.7903C33.9838 18.0447 33.4113 19.729 33.248 20.1363C34.3104 21.277 34.9368 22.7437 34.9368 24.5363C34.9368 30.838 31.0966 32.223 27.4195 32.6307C28.0189 33.1467 28.5361 34.1243 28.5361 35.6727C28.5361 37.8727 28.5092 39.6383 28.5092 40.1813C28.5092 40.616 28.8089 41.1323 29.6258 40.9693C36.1625 38.796 40.8744 32.6577 40.8744 25.4057C40.9013 16.3333 33.5205 9 24.4508 9Z" fill="white"/>
</g>
<defs>
<clipPath id="clip0_60_17">
<rect width="33" height="32" fill="white" transform="translate(8 9)"/>
</clipPath>
</defs>
</svg>
