<svg width="808" height="755" viewBox="0 0 808 755" fill="none" xmlns="http://www.w3.org/2000/svg">
<path d="M790.411 335.901C784.615 327.491 763.028 318.67 757.032 311.079C747.638 298.976 733.846 292.412 730.848 297.745C723.853 310.669 725.452 310.054 720.455 323.798C720.455 323.798 720.255 324.003 720.255 324.208C706.464 361.544 686.076 396.007 669.687 432.112C653.297 468.217 653.697 505.142 640.505 540.426C635.508 553.76 632.71 552.939 627.913 566.068C622.916 579.813 625.514 580.633 620.517 594.378C614.321 611.199 576.545 654.073 602.928 658.381C612.123 659.817 657.494 656.33 666.688 657.356C678.281 658.586 689.474 642.586 696.47 633.97C702.466 626.585 704.465 615.712 707.463 607.096C710.461 598.686 714.858 590.07 718.056 581.249C721.054 572.838 725.851 564.632 728.85 556.017C732.247 546.99 736.845 538.374 740.043 529.553C743.241 520.732 745.639 511.706 748.837 503.296C752.235 494.064 750.636 483.602 753.634 474.781C756.832 465.96 765.626 459.601 768.425 451.6C771.423 442.574 769.424 432.522 772.022 424.727C775.42 414.88 785.414 398.674 787.613 391.289C791.81 377.955 808 354.979 808 352.518C808 346.774 797.606 346.774 790.211 335.696L790.411 335.901Z" fill="#E1FBFA"/>
<path d="M97.4696 597.867C95.271 589.046 92.4727 580.02 90.0742 570.788C87.8756 561.967 88.2753 552.531 85.8768 543.505C83.6782 534.889 79.4809 526.478 77.0824 517.862C74.6839 508.836 75.0836 498.989 72.4852 490.168C57.4946 436.217 40.5053 377.136 24.3154 322.364C19.1187 305.337 21.5172 296.106 8.12557 289.541C-6.26542 282.156 -5.4659 291.183 -21.256 287.695C-39.0449 283.592 -37.8456 288.105 -55.4346 284.003C-72.424 280.105 -90.0129 279.49 -98.0079 282.362C-97.4083 287.49 -100.806 294.875 -97.6082 306.363C-95.6094 313.748 -88.6138 321.338 -85.6157 330.775C-83.0173 338.365 -79.6194 346.57 -76.6213 355.597C-73.8231 364.212 -62.0305 401.138 -58.8325 410.574C-55.6345 419.395 -44.8412 437.242 -41.6432 446.063C-38.6451 454.884 -29.8506 480.937 -26.6526 489.553C-23.4546 498.579 -13.261 510.272 -10.063 519.298C-6.86504 528.119 -2.26793 561.352 0.930062 570.173C6.72643 586.174 15.7208 633.561 38.3067 635.407C47.9006 636.023 81.8793 633.151 91.6732 634.792C101.867 636.638 101.267 611.816 97.8693 598.482L97.4696 597.867Z" fill="#E1FBFA"/>
<path d="M-32.5006 640.053C-30.7017 637.181 -23.5062 642.72 -6.31699 641.079C61.0408 634.514 111.609 634.925 178.767 636.566C188.361 636.771 213.545 637.797 223.339 638.207C232.733 638.412 242.727 637.386 252.521 637.797C262.315 638.002 272.508 640.463 282.502 640.668C291.896 641.079 301.29 643.54 310.884 643.951C320.478 644.156 328.673 641.284 338.267 641.694C348.061 641.899 359.853 645.797 369.847 646.207C379.241 646.618 388.835 642.515 398.229 642.925C407.823 643.335 417.417 645.592 427.211 646.002C436.805 646.207 449.597 641.489 459.191 641.899C468.585 642.31 474.981 643.13 483.976 643.335C493.37 643.746 502.764 641.694 511.958 642.104C521.352 642.515 530.946 641.489 540.34 642.104C550.134 642.515 576.718 648.054 586.112 648.464C595.906 648.874 588.31 650.105 597.704 650.72C607.099 651.131 615.893 655.644 624.488 656.054C633.882 656.464 643.076 650.72 651.471 651.131C660.865 651.541 669.659 658.105 678.054 658.516C690.446 659.336 703.438 658.516 716.03 658.926C724.025 658.926 731.82 658.926 739.815 658.516C745.612 658.105 752.208 656.464 757.005 660.567C771.995 673.081 763.8 707.749 761.602 723.955C760.003 737.084 764.6 735.033 755.406 742.418C743.813 751.444 748.41 748.777 730.021 748.572C721.627 748.572 711.633 748.162 700.44 747.957C648.473 747.341 619.491 734.417 565.125 740.572C547.936 742.418 510.159 748.572 494.369 748.367C484.375 748.367 474.582 751.444 465.187 751.444C454.994 751.444 445 748.367 436.006 748.367C425.412 748.367 416.018 746.521 408.023 746.521C393.432 746.726 382.439 739.546 380.041 740.161C338.667 749.803 297.093 737.289 254.52 737.495C223.539 737.495 192.958 741.187 162.377 743.854C148.386 745.085 134.395 745.085 120.803 747.957C106.212 751.034 90.8221 747.546 75.8315 750.829C71.0345 751.854 66.8372 754.111 61.6404 754.111C55.6442 754.111 49.6479 752.06 43.6517 752.06C33.8578 752.06 25.663 751.649 18.2676 751.649C1.87787 751.649 6.47499 756.162 -2.91912 746.726C-14.7117 735.238 -9.51499 736.674 -14.7117 719.237C-17.9097 709.185 -17.9097 697.287 -20.708 687.235C-24.3057 674.311 -36.8978 646.412 -32.7004 640.463L-32.5006 640.053Z" fill="#E1FBFA"/>
<path d="M528.768 -48.5998L515.177 -63.7802L505.783 -73.0115C505.783 -73.0115 472.204 -112.193 460.811 -125.322L447.819 -142.964C445.221 -147.477 442.622 -151.58 438.625 -151.99C434.427 -152.195 431.629 -149.118 427.232 -143.58L417.038 -132.092C412.241 -126.963 376.064 -101.526 363.872 -93.7306C349.681 -84.9096 341.885 -79.3708 339.287 -73.832L328.294 -56.6003L309.905 -27.2653C308.706 -25.0087 306.308 -20.2905 322.098 18.4809C326.895 29.7636 331.892 36.7384 337.688 39.4052L367.869 51.7136L372.866 53.5599C386.058 58.8935 393.453 59.9192 406.045 58.8935L453.016 53.1496C461.61 51.7136 464.009 51.0982 478 40.2258C485.395 34.4819 494.79 29.5585 503.984 26.4814C524.771 19.0964 528.568 6.17255 533.765 -11.6746L534.764 -14.7517C535.564 -17.8288 536.164 -21.3162 536.164 -24.8036C536.164 -32.804 533.565 -41.4199 528.568 -49.0101M468.006 -20.7008C464.009 -11.6746 459.811 -7.57182 449.818 -1.00734C438.425 5.96742 426.632 8.83938 414.84 6.99312C410.442 6.99312 404.846 5.76228 398.45 3.3006C390.655 1.04406 386.058 -1.41763 384.459 -4.08445C376.064 -13.1106 372.266 -21.9316 373.066 -30.1372C373.466 -36.4966 377.063 -44.2919 383.659 -53.318C387.057 -58.0363 390.455 -61.3185 393.453 -63.7802C401.848 -70.1395 415.639 -72.3961 428.431 -70.7549C447.219 -68.2933 483.796 -43.6764 468.006 -20.4956V-20.7008Z" fill="#E1FBFA"/>
<path d="M182.386 412.962C185.385 408.244 191.381 405.987 196.578 405.577C200.575 405.577 204.373 406.398 208.57 405.782C212.767 405.372 216.765 404.551 220.962 403.731C229.357 402.295 237.352 397.987 245.347 402.295C249.544 404.551 251.543 409.27 252.542 413.783C254.141 420.963 260.138 429.373 260.937 436.553C261.937 443.733 266.534 455.426 273.13 455.631C289.12 455.631 306.309 454.811 322.099 452.349C331.693 450.913 339.888 447.426 349.881 446.605C365.871 445.374 381.062 442.913 397.052 443.528C414.241 444.143 432.03 437.989 449.219 437.169C452.617 437.169 471.405 438.81 472.604 434.092C475.403 423.424 482.398 414.808 484.197 403.731C485.197 397.987 483.797 389.781 487.995 385.063C494.791 377.268 503.185 383.832 510.581 386.909C518.776 390.397 527.77 394.705 536.764 399.013C545.359 403.115 561.949 405.372 568.744 409.68C579.138 415.629 584.135 420.142 582.935 424.655C581.336 430.604 578.538 445.785 576.14 456.452C574.141 464.657 573.741 474.299 571.143 481.889C567.145 494.198 570.343 494.403 560.549 500.967C547.957 509.378 541.761 505.07 522.773 506.711C513.979 507.532 496.19 511.224 484.797 512.25C475.003 513.071 464.41 513.686 453.417 514.506C443.223 515.327 432.829 514.506 422.236 515.327C412.042 516.148 400.05 513.276 389.657 514.096C379.463 514.917 369.069 514.917 359.076 515.532C349.082 516.353 339.288 516.763 329.694 517.378C319.301 517.994 309.107 521.892 300.113 522.507C288.52 523.122 278.326 523.533 269.732 523.738C258.139 524.148 241.549 530.713 231.356 521.686C223.76 514.917 221.562 503.634 216.565 495.223C208.17 481.274 199.775 467.324 192.38 452.554C188.383 444.554 185.784 435.938 182.386 427.732C180.388 422.193 179.588 417.065 182.386 412.757V412.962Z" fill="#E1FBFA"/>
<path d="M230.542 104.431C227.943 93.9692 204.758 104.636 189.767 107.303C180.773 108.739 168.181 114.278 159.586 115.304C139.999 117.56 142.597 124.33 146.594 136.228C148.193 140.946 153.59 150.793 156.188 164.127C157.787 172.743 163.784 211.719 165.782 221.566C167.781 231.413 164.983 242.08 167.182 251.106C169.58 260.748 175.776 277.159 178.175 284.749C182.572 298.083 181.573 298.494 185.77 299.93C199.361 304.648 213.952 300.955 231.341 302.802C240.336 303.622 248.93 308.751 260.923 309.982C270.717 311.007 306.894 312.648 317.287 313.674C327.281 314.7 337.675 314.905 348.268 316.136C358.262 317.161 368.855 313.879 379.249 315.11C389.842 316.136 400.635 317.367 411.229 318.392C421.622 319.623 432.215 319.623 442.609 320.854C452.802 321.88 462.197 327.624 471.991 328.649C482.584 329.88 493.177 326.393 502.971 327.418C513.564 328.649 554.938 332.752 564.333 333.778C575.526 335.009 585.12 337.881 593.314 338.701C607.905 340.137 617.1 338.086 619.698 338.291C637.487 338.291 638.286 335.214 638.086 318.597C638.086 314.289 633.089 304.032 633.889 289.673C634.489 280.852 639.885 271.826 640.685 261.569C641.284 251.927 641.284 242.285 641.884 232.644C642.883 221.771 641.884 211.925 642.484 203.104C643.683 186.898 651.078 169.05 643.083 168.435C641.084 168.435 634.689 167.82 620.897 162.486C613.702 159.409 600.51 158.793 592.715 156.332C583.92 153.87 576.125 147.716 569.529 147.511C562.734 147.511 564.333 161.46 563.533 175.205C562.933 183.205 563.933 218.694 564.333 227.105C564.732 236.131 563.733 240.849 563.533 248.234C562.933 260.133 558.936 258.491 554.339 259.722C551.141 260.748 538.749 262.184 522.359 261.569C513.165 261.158 469.792 259.722 458.599 258.902C448.405 258.286 437.812 255.004 427.219 254.183C416.625 253.363 405.232 257.261 394.639 256.44C384.046 255.619 374.652 256.03 364.658 255.414C353.665 254.389 343.071 252.132 333.277 250.696C321.485 248.645 303.296 251.517 291.304 245.362C286.107 242.696 268.718 241.26 267.719 241.055C254.127 238.593 259.923 223.412 250.929 200.437C245.532 185.872 252.328 178.897 246.732 164.332C240.935 149.562 241.535 150.383 236.538 135.407C232.141 122.484 233.74 115.919 231.141 105.252L230.542 104.431Z" fill="#E1FBFA"/>
<path d="M454.605 115.099C454.605 115.099 455.004 113.253 455.404 112.227C457.803 102.586 446.21 103.816 439.614 102.791C433.418 101.765 427.622 100.534 421.226 100.534C414.43 100.534 409.233 97.0468 402.437 96.4314C394.442 95.8159 386.248 96.4314 378.053 96.4314C374.655 96.4314 371.257 95.816 369.258 98.8931C367.659 101.56 368.059 107.099 367.459 109.971C364.061 124.741 366.66 160.23 363.262 174.795C360.064 188.334 355.667 196.335 352.669 209.874C349.471 223.413 354.867 243.106 352.669 256.235C350.07 271.005 349.471 270.595 347.672 285.365C345.673 299.725 336.279 298.494 334.48 313.059C332.681 327.829 336.679 328.855 334.48 343.625C332.681 358.19 331.282 357.985 329.483 372.55C327.684 386.91 324.686 416.039 322.887 431.015C320.889 445.58 315.492 444.554 313.493 459.324C311.694 473.889 320.689 475.12 318.89 489.685C317.091 504.25 305.298 531.738 303.499 545.688C301.501 561.689 300.102 576.049 301.701 591.844C304.299 619.538 289.308 633.693 286.31 657.079C284.511 670.823 295.105 672.464 293.306 686.004C291.507 699.748 278.515 701.799 289.308 711.031C302.3 722.313 305.098 718.005 322.488 718.211C337.878 718.211 360.863 723.339 372.256 714.313C383.649 705.082 374.455 694.619 376.654 680.465C378.852 665.9 377.653 666.926 379.852 652.361C382.05 638.001 378.253 637.385 380.451 623.026C382.45 608.871 390.045 580.767 392.244 565.997C394.442 551.637 391.444 551.842 393.443 537.277C395.642 522.917 393.843 521.892 396.041 507.327C398.24 492.762 390.845 498.095 393.043 483.531C395.042 469.581 394.842 469.581 397.041 455.426C399.04 441.067 395.242 440.246 397.241 425.886C399.439 411.937 410.432 361.677 412.431 347.728C414.23 335.214 414.43 328.034 416.828 315.521C419.227 300.751 417.228 303.007 420.026 288.237C423.024 273.262 423.025 276.749 425.823 261.774C428.621 247.414 430.82 245.363 433.618 231.003C436.416 216.233 433.618 214.592 436.616 199.822C439.414 185.257 441.413 188.744 444.211 173.974C446.81 160.23 449.008 146.075 451.607 132.331C452.806 126.587 453.605 120.843 455.004 115.304L454.605 115.099Z" fill="#E1FBFA"/>
</svg>
