<svg width="1107" height="992" viewBox="0 0 1107 992" fill="none" xmlns="http://www.w3.org/2000/svg">
<path d="M548.684 -28.5155C322.448 -28.5155 138.375 151.423 138.375 372.577C138.375 593.731 322.448 773.669 548.684 773.669C774.92 773.669 958.993 593.731 958.993 372.577C958.993 151.423 774.92 -28.5155 548.684 -28.5155ZM806.723 231.735L653.731 280.253C640.48 265.886 624.578 254.345 606.267 246.337V89.0095C692.521 105.731 765.042 158.959 806.723 231.5V231.735ZM491.342 89.245V246.573C473.031 254.581 457.13 266.121 443.878 280.488L290.886 231.971C332.567 159.43 405.329 105.967 491.342 89.4805V89.245ZM253.059 372.577C253.059 361.036 254.023 349.496 255.228 338.426L408.22 386.944C410.388 406.727 416.653 425.098 426.531 441.584L332.085 568.53C283.176 516.951 253.059 448.179 253.059 372.577ZM424.844 634.712L519.29 507.53C528.687 509.414 538.565 510.592 548.684 510.592C558.803 510.592 568.682 509.414 578.078 507.53L672.524 634.712C634.697 651.905 593.016 661.561 548.684 661.561C504.352 661.561 462.671 651.669 424.844 634.712ZM765.283 568.766L670.837 441.82C680.474 425.333 686.98 406.963 689.148 387.179L842.141 338.662C843.586 349.967 844.309 361.272 844.309 372.812C844.309 448.415 814.192 517.187 765.283 568.766Z" fill="#06773F" fill-opacity="0.1"/>
<path d="M244.621 736.454C243.176 732.686 240.285 729.389 236.189 726.562C233.298 724.678 230.406 723.265 227.515 722.559C224.624 721.852 221.974 721.852 219.805 722.559C217.637 723.265 215.709 724.678 214.264 726.562C212.818 728.918 212.336 731.508 213.3 734.57C214.264 737.632 216.432 740.929 220.287 744.933L233.057 758.122C240.044 765.423 244.381 772.489 245.826 779.084C247.272 785.678 246.067 792.037 242.212 798.161C238.598 803.578 234.02 807.346 228.238 809.466C222.456 811.586 216.191 811.821 208.963 810.408C201.735 808.995 194.507 805.698 187.038 800.516C179.81 795.57 174.028 790.153 170.173 784.501C166.318 778.848 163.909 772.96 163.427 766.837C162.945 760.713 164.15 754.825 167.041 748.701L187.761 762.833C186.075 766.837 185.834 770.84 187.52 774.609C189.207 778.377 192.339 781.91 197.158 784.972C200.29 787.327 203.422 788.74 206.554 789.682C209.686 790.624 212.336 790.624 214.505 789.918C216.914 789.211 218.601 787.798 220.046 785.678C221.733 783.087 221.974 780.497 221.01 777.435C220.046 774.373 217.637 770.84 214.023 767.072L201.976 754.589C194.989 747.524 190.893 740.458 189.448 733.393C188.002 726.327 189.448 719.968 193.303 713.609C196.917 708.192 201.253 704.659 206.795 702.539C212.336 700.42 218.36 700.184 225.347 701.597C232.093 703.01 238.839 706.072 246.067 711.018C252.813 715.728 258.114 720.674 261.728 726.327C265.342 731.979 267.51 737.632 267.751 743.52C268.233 749.408 266.787 755.06 263.896 760.713L244.621 747.524C246.067 743.756 246.067 739.987 244.621 736.219V736.454Z" fill="#06773F" fill-opacity="0.1"/>
<path d="M247.032 838.666C245.828 836.311 245.346 833.72 245.587 831.129C245.828 828.538 246.55 825.948 247.996 823.828C249.442 821.708 251.369 819.824 253.537 818.882C255.947 817.704 258.356 817.233 261.006 817.469C263.657 817.469 266.066 818.646 268.475 820.06C270.644 821.473 272.33 823.592 273.535 825.948C274.74 828.303 275.221 830.893 275.221 833.484C275.221 836.075 274.258 838.666 272.812 840.785C271.366 843.141 269.439 844.789 267.03 845.967C264.62 847.145 262.211 847.615 259.561 847.38C256.91 847.38 254.501 846.438 252.333 844.789C249.923 843.141 248.237 841.256 247.032 838.901V838.666Z" fill="#06773F" fill-opacity="0.1"/>
<path d="M475.2 809.462H498.57L515.917 886.713H516.881L534.469 809.462H557.599L575.187 886.478H576.151L593.257 809.462H616.627L588.92 919.215H565.068L546.516 844.791H545.311L527 919.215H503.148L475.441 809.462H475.2Z" fill="#06773F" fill-opacity="0.1"/>
<path d="M624.826 918.742C622.658 917.329 620.971 915.444 619.766 913.089C618.562 910.734 617.839 908.143 618.08 905.317C618.08 902.491 618.562 899.9 619.766 897.545C620.971 895.19 622.658 893.306 624.826 891.892C626.994 890.479 629.404 889.773 631.813 889.773C634.222 889.773 636.632 890.479 638.8 891.892C640.969 893.306 642.655 895.19 643.86 897.545C645.064 899.9 645.787 902.491 645.787 905.317C645.787 908.143 645.064 910.734 643.86 913.089C642.655 915.444 640.969 917.329 638.8 918.742C636.632 920.155 634.463 920.861 631.813 920.861C629.163 920.861 626.994 920.155 624.826 918.742Z" fill="#06773F" fill-opacity="0.1"/>
<path d="M852.498 736.219C848.402 736.219 844.065 737.632 839.488 740.694C836.356 742.814 833.946 745.169 832.26 747.76C830.573 750.351 829.368 752.941 829.128 755.532C828.887 758.123 829.368 760.478 830.814 762.598C832.501 764.953 834.91 766.366 838.283 766.601C841.656 766.837 845.752 765.895 851.052 763.775L869.122 756.239C879.001 751.999 887.674 750.586 894.661 751.528C901.648 752.706 907.672 756.239 912.009 762.598C915.863 768.25 917.791 774.374 917.55 780.968C917.55 787.563 915.141 794.157 910.804 800.517C906.467 807.111 900.444 812.999 892.734 818.416C885.024 823.833 877.555 827.366 870.327 829.25C863.099 830.899 856.594 830.899 850.33 829.25C844.065 827.601 838.765 823.833 833.946 818.652L855.871 803.343C859.244 806.64 863.099 808.289 867.436 808.053C871.773 807.818 876.35 805.933 881.41 802.401C885.024 800.045 887.674 797.455 889.602 794.864C891.529 792.273 892.734 789.447 892.975 786.856C893.216 784.266 892.493 781.91 891.047 779.555C889.12 776.964 886.711 775.551 883.337 775.316C879.964 775.316 875.628 776.022 870.327 778.378L853.462 785.679C843.824 789.918 835.151 791.331 827.923 790.154C820.454 788.976 814.672 785.208 810.094 778.613C806.239 773.196 804.311 767.073 804.552 760.713C804.552 754.354 806.721 748.231 810.817 741.872C814.912 735.748 820.695 730.096 828.164 724.914C835.392 719.968 842.379 716.671 849.366 715.022C856.353 713.374 862.617 713.609 868.641 715.493C874.664 717.378 879.724 720.91 883.819 725.856L863.34 739.988C860.208 737.161 856.594 735.513 852.498 735.513V736.219Z" fill="#06773F" fill-opacity="0.1"/>
<path d="M953.924 773.198C951.033 773.433 948.383 772.962 945.733 771.785C943.082 770.607 941.155 768.723 939.468 766.368C937.782 764.012 936.818 761.657 936.818 758.831C936.818 756.005 937.059 753.414 938.505 750.823C939.709 748.232 941.637 746.113 944.046 744.464C946.455 742.816 948.865 741.873 951.756 741.638C954.647 741.402 957.297 741.638 959.707 743.051C962.357 744.229 964.284 745.877 965.971 748.232C967.658 750.588 968.621 753.178 968.621 756.005C968.621 758.831 968.38 761.422 967.176 764.012C965.971 766.603 964.285 768.723 961.875 770.136C959.466 771.785 956.816 772.727 953.924 772.962V773.198Z" fill="#06773F" fill-opacity="0.1"/>
</svg>
