<svg width="40" height="40" viewBox="0 0 40 40" fill="none" xmlns="http://www.w3.org/2000/svg">
<circle cx="20" cy="20" r="20" fill="#F9E000"/>
<g clip-path="url(#clip0_131_864)">
<path d="M19.9987 9.00085C15.0252 8.99748 11.0074 12.943 11 17.8249C10.9966 20.0383 11.9183 21.929 13.3075 23.5415C15.8409 26.4819 18.0576 29.5783 19.2677 33.2946C19.377 33.6301 19.5398 34.0111 20.0074 33.9996C20.5161 33.987 20.6529 33.56 20.7736 33.1985C21.9093 29.798 23.8067 26.8602 26.2043 24.1923C27.6295 22.6064 28.7725 20.7791 28.9643 18.6325C29.4319 13.4015 25.2408 8.92929 19.9987 9.00085ZM23.0576 17.9086C23.0456 19.5236 21.6046 20.9365 19.9843 20.9219C18.3501 20.9073 16.9306 19.4899 16.9369 17.8794C16.9432 16.2707 18.3844 14.8596 20.0138 14.8672C21.6402 14.8744 23.0694 16.3029 23.0575 17.9087L23.0576 17.9086Z" fill="#007DFD"/>
</g>
<defs>
<clipPath id="clip0_131_864">
<rect width="18" height="25" fill="white" transform="translate(11 9)"/>
</clipPath>
</defs>
</svg>
