<svg width="181" height="28" viewBox="0 0 181 28" fill="none" xmlns="http://www.w3.org/2000/svg">
<g clip-path="url(#clip0_21_1124)">
<path d="M180.848 14.1986L175.545 14.1324V17.6572C175.545 22.1915 174.734 25.5177 174.346 26.5106C174.093 26.792 173.502 26.9575 173.147 26.8582C172.927 26.0638 172.471 23.5981 172.471 19.4941V3.64066C172.471 2.97872 170.563 1.6052 169.854 1.39007C169.668 1.32388 170.276 0.628841 170.462 0.628841C171.914 0.628841 175.731 1.48936 175.646 2.1513C175.579 2.59811 175.545 3.12766 175.545 3.70686V12.7754L179.565 11.2199C179.919 11.0875 181.507 14.1986 180.865 14.1986M169.837 15.9196C170.394 16.6809 168.891 19.9078 168.35 19.1466C167.574 18.0709 165.445 14.8936 163.537 12.7754C160.987 16.2671 157.812 19.0804 154.957 20.5697C154.603 20.5366 154.18 20.0236 154.18 19.7092C157.71 16.6312 161.696 11.2364 163.368 6.32151C163.469 6.04019 162.27 5.17967 161.747 4.86525C161.578 4.76596 162.304 4.23641 162.49 4.23641C163.453 4.23641 166.121 5.31206 166.763 5.75887C167.117 6.00709 167.151 6.17258 166.982 6.58629C166.273 8.39007 165.327 10.1111 164.263 11.6998C166.661 13.3215 169.313 15.1915 169.837 15.9196ZM152.694 14.4965L147.357 14.3972V17.6572C147.357 22.1915 146.614 25.5177 146.192 26.5106C145.939 26.792 145.348 26.9575 145.027 26.8582C144.773 26.0638 144.351 23.5981 144.351 19.4941V3.64066C144.351 2.97872 142.443 1.67139 141.733 1.39007C141.564 1.32388 142.155 0.628841 142.341 0.628841C143.794 0.628841 147.526 1.48936 147.459 2.1513C147.425 2.59811 147.357 3.12766 147.357 3.70686V13.0567L151.394 11.5343C151.782 11.3688 153.37 14.4799 152.694 14.4799M135.349 16.052C136.835 16.052 137.933 15.0426 137.933 13.487C137.933 11.9314 136.903 10.8889 135.349 10.8889C133.795 10.8889 132.765 11.9314 132.765 13.487C132.765 15.0426 133.795 16.052 135.349 16.052ZM130.299 2.82979C130.266 2.6974 130.434 2.26714 130.62 2.28369C131.684 2.48227 132.765 2.6643 134.116 2.82979L137.41 3.1773C137.697 3.2104 138.963 4.91489 138.119 4.91489H133.137C132.292 4.91489 130.35 3.11111 130.282 2.82979M126.989 6.68558C126.955 6.58629 127.158 6.23877 127.242 6.27187C127.8 6.47045 129.776 6.52009 131.65 6.487L138.389 6.4208C140.331 6.38771 140.906 5.44444 141.21 5.44444C141.531 5.44444 142.763 7.11584 142.763 7.89362C142.763 8.02601 142.628 8.10875 142.409 8.10875C142.088 8.10875 140.213 8.00946 138.727 8.00946L131.482 8.04255C130.316 8.04255 129.539 8.29078 129.185 8.6052C128.273 8.35697 127.141 7.01655 127.023 6.66903M143.084 19.6596C140.179 20.9669 134.606 21.7281 130.789 22.1915C129.759 22.3239 129.134 22.5059 128.526 22.8534C127.546 22.6052 126.128 21.1986 125.993 20.669C126.026 20.5035 126.162 20.3546 126.246 20.2553C127.31 20.2553 128.864 20.2884 130.738 20.1891C131.904 20.1229 133.002 20.0567 133.998 19.974L133.812 17.2435C131.346 16.8298 129.826 15.4066 129.826 13.4374C129.826 11.2861 131.735 9.82979 134.741 9.6643C134.775 9.53192 134.809 9.44917 134.809 9.31679C134.809 9.06856 134.741 8.77069 134.387 8.52246C134.387 7.92671 136.329 8.52246 136.329 8.83688C136.329 8.96927 136.16 9.34988 136.075 9.6643C139.014 9.86289 140.872 11.3191 140.872 13.4374C140.872 15.4066 139.284 16.8298 136.852 17.2435L136.717 19.7092C139.791 19.3617 141.868 18.8818 143.253 18.435C143.54 18.3357 143.422 19.4775 143.067 19.643M106.283 4.21986L106.249 9.51537H113.782L113.968 4.21986H106.266H106.283ZM101.402 3.04492C101.368 2.87943 101.824 2.34988 102.044 2.34988C102.601 2.34988 104.527 2.41608 105.793 2.63121H112.971C113.883 2.63121 114.356 2.49882 114.711 2.1844C115.099 2.05201 117.616 2.43262 117.565 2.84634L116.501 9.21749C116.957 9.63121 117.565 10.4586 117.565 10.9054C117.565 11.0378 117.43 11.1206 117.21 11.1206C116.889 11.1206 115.69 11.0875 113.883 11.0875H105.928C105.726 11.435 105.472 11.7494 105.185 12.0804C104.898 12.3617 104.375 12.4941 103.986 12.3948C103.665 11.6336 103.395 10.1773 103.176 7.5461L102.888 4.25295C102.855 3.93853 101.943 3.2435 101.402 3.04492ZM119.321 25.5508C119.321 25.6832 119.22 25.766 118.967 25.766H115.64L105.743 25.7991C102.99 25.7991 102.449 24.8723 102.449 23.0686V20.3712C102.449 19.8913 101.419 19.0638 100.828 18.9811C100.642 18.948 101.284 18.1537 101.537 18.1537C102.669 18.1537 104.358 18.4019 105.202 18.7163C105.371 18.7825 105.624 18.8818 105.557 19.2293C105.489 19.643 105.489 20.2388 105.489 20.7518V23.1017C105.489 24.078 105.844 24.2104 106.722 24.2104L115.032 24.1773C116.788 24.1773 117.362 23.2175 117.582 23.2175C118.038 23.2175 119.321 24.8062 119.321 25.5343M122.463 15.2908C122.463 15.4563 122.328 15.539 122.108 15.539H111.857V17.3759C111.857 19.2459 111.147 20.8676 110.657 21.5957C110.404 21.8771 109.847 22.0095 109.492 21.9102C109.205 21.0496 108.783 19.9078 108.783 17.8227V15.539H101.892C100.727 15.539 99.9497 15.8534 99.595 16.1679C98.683 15.9196 96.8421 14.513 96.8421 14.1986C96.8421 14.0662 97.011 13.7187 97.0955 13.7518C97.6528 13.9504 99.6288 13.9669 101.504 13.9669L117.362 13.9338C119.372 13.9338 120.048 12.8251 120.301 12.8251C120.656 12.8251 122.463 14.513 122.463 15.2742M77.2846 7.26478C77.2846 9.30024 78.6357 10.6572 80.6793 10.6572C82.7229 10.6572 84.2767 9.30024 84.2767 7.26478C84.2767 5.22931 82.8242 3.87234 80.7131 3.87234C78.602 3.87234 77.2846 5.24586 77.2846 7.26478ZM74.2108 7.36407C74.2108 4.51773 76.5415 2.61466 80.1389 2.41608C80.1726 2.31678 80.2064 2.23404 80.2064 2.13475C80.2064 1.85343 80.1389 1.53901 79.7166 1.24113C79.7166 0.612293 81.8784 1.24113 81.8784 1.58865C81.8784 1.72104 81.7095 2.10165 81.6251 2.41608C85.0536 2.6643 87.3167 4.56738 87.3167 7.36407C87.3167 10.3097 84.6989 12.2459 80.7806 12.2459C76.8624 12.2459 74.2108 10.3097 74.2108 7.36407ZM93.5657 16.0189C93.5657 16.1513 93.4305 16.234 93.211 16.234H86.1851V17.7565C86.1851 22.0426 85.4082 25.3688 84.986 26.3452C84.7327 26.6265 84.1416 26.7589 83.8207 26.6927C83.5673 25.8983 83.1113 23.4326 83.1113 19.5934V16.234L78.1628 16.2671V17.227C78.1628 21.4799 77.3859 24.8062 76.9975 25.7825C76.7442 26.0638 76.153 26.1962 75.7984 26.13C75.5788 25.3357 75.1228 22.87 75.1228 19.0638V16.2671H72.9948C71.8294 16.2671 71.0525 16.5816 70.6979 16.896C69.7859 16.6478 67.945 15.2411 67.945 14.8936C67.945 14.7943 68.1138 14.4468 68.1983 14.4799C68.7556 14.6619 70.7317 14.695 72.6063 14.695L88.4652 14.6288C90.475 14.6288 91.1505 13.5201 91.4039 13.5201C91.7585 13.5201 93.5657 15.2246 93.5657 15.9858M48.6408 5.99054C48.6408 7.72813 49.975 8.96927 51.9679 8.96927C53.9608 8.96927 55.2951 7.72813 55.2951 5.99054C55.2951 4.25295 53.9608 3.07801 51.9679 3.07801C49.975 3.07801 48.6408 4.28605 48.6408 5.99054ZM45.567 6.12293C45.567 3.62411 47.7963 1.80378 51.2586 1.58865C51.2924 1.42317 51.3599 1.30733 51.3599 1.14184C51.3599 0.86052 51.2586 0.562647 50.8701 0.281323C50.8701 -0.380616 53.0319 0.281323 53.0319 0.595744C53.0319 0.794326 52.8124 1.22459 52.6773 1.5721C56.1057 1.78723 58.4026 3.60756 58.4026 6.10638C58.4026 8.73759 55.7848 10.6076 51.9679 10.6076C48.151 10.6076 45.567 8.73759 45.567 6.10638M60.9022 26.0638C60.9022 26.2293 60.7671 26.279 60.5475 26.279H47.9652C45.8034 26.279 45.0434 25.5508 44.9927 23.896L44.9252 21.7778C44.9252 21.4634 44.0807 21.0496 43.5403 20.818C43.5065 20.6525 43.9963 20.1229 44.2496 20.1229C44.8576 20.1229 47.1714 20.2553 47.999 20.5366H56.1902L56.224 17.9716H48.0328C47.0363 17.9716 46.3776 18.2199 46.023 18.5508C44.8576 18.3853 43.9118 16.896 43.8949 16.6809C43.8612 16.5154 44.0301 16.2009 44.1821 16.234C45.2123 16.4161 46.5127 16.4161 48.3874 16.4161H55.0924C56.0044 16.4161 56.4773 16.3168 56.832 15.9693C57.2204 15.9362 59.8044 16.2175 59.72 16.6312L58.9093 20.3712C59.5173 20.818 59.9058 21.5792 59.9058 21.7612C59.9058 21.9267 59.8044 22.0426 59.6524 22.0426C59.3653 22.0426 57.5244 22.0095 56.0213 22.0095H47.999V23.3995C47.999 24.4752 48.3199 24.6903 49.7723 24.6903H56.8657C58.8755 24.6903 59.1626 23.8629 59.3822 23.8629C59.8382 23.8629 60.9022 25.3523 60.9022 26.0142M64.6009 13.8014C64.6009 13.9338 64.4658 14.0166 64.2463 14.0166H59.6862L44.0469 14.0496C42.9154 14.0496 42.1385 14.3641 41.7838 14.6454C40.838 14.3972 39.166 13.0236 39.0309 12.6761C38.9971 12.5768 39.1998 12.2293 39.2842 12.2624C39.8416 12.461 41.8007 12.4941 43.6923 12.4941L59.5173 12.4279C61.4933 12.4279 62.1689 11.3192 62.456 11.3192C62.8107 11.3192 64.584 13.0236 64.584 13.7849M28.8637 13.7352C28.8637 14.0166 28.6441 14.0166 27.8672 14.2482C27.5463 14.3475 27.3774 14.844 27.1241 15.6383C26.5668 17.3097 24.7934 20.0071 21.1116 20.0071C17.4298 20.0071 15.4876 16.9291 15.3524 16.7636C15.1667 16.5154 14.8627 16.2837 14.6093 16.2837C14.4404 16.2837 14.3222 16.3499 14.2209 16.4161C12.8866 17.3097 11.4342 18.3192 11.4342 20.6359C11.4342 22.1584 12.7346 23.896 14.9302 23.896C16.8049 23.896 18.0378 22.1584 18.4262 20.9504C18.5614 20.5366 18.5276 20.3712 18.7471 20.3712C19.0343 20.3712 19.1356 21 19.524 21C19.8449 21 19.7436 20.8345 20.1658 20.8345C20.5543 20.8345 20.6556 21.3475 20.9765 21.3475C21.4325 21.3475 22.0405 20.9669 22.3445 20.9669C22.4458 20.9669 22.5978 20.9669 22.5978 21.0662C22.5978 21.2317 22.3107 21.3806 22.0405 21.6123C21.4832 22.0922 21.0778 22.3735 20.6556 23.0686C19.1694 25.5343 17.4467 25.9811 16.5685 26.2459C16.2476 26.3452 15.9267 26.4941 15.7916 26.792C15.3018 27.8676 15.0147 28 14.8795 28C14.7107 28 14.66 27.818 14.6262 27.4043C14.5924 26.9575 14.3391 26.4444 13.4609 26.2955C11.2315 25.8818 8.47859 23.6643 8.47859 20.1726C8.47859 17.0284 10.9106 15.8038 12.1435 14.5957C12.3124 14.4303 12.4306 14.2482 12.4306 13.9669V13.8676C12.4306 13.7187 12.3969 13.5201 12.1942 13.2719C10.9613 11.7494 10.0324 10.74 8.34348 10.74C6.50257 10.74 4.88122 12.2293 4.88122 14.3806C4.88122 16.6974 6.04657 17.4917 7.21191 17.7731C7.60036 17.8723 7.73548 17.9054 7.73548 18.0213C7.73548 18.2695 7.48214 18.2199 7.48214 18.6005C7.48214 18.8818 7.7017 18.8487 7.7017 19.2955C7.7017 19.6099 7.41458 19.7092 7.41458 20.1891C7.41458 20.5697 7.60036 20.7021 7.60036 20.9173C7.60036 21.1986 7.76925 21.1655 7.76925 21.7778C7.76925 21.9433 7.83681 22.0591 7.7017 22.0591C7.56659 22.0591 7.41458 21.844 7.21191 21.5461C6.75591 20.8842 6.26613 20.4705 5.91146 20.2057C3.09098 18.2033 2.98965 17.3262 2.28031 15.9527C2.11142 15.6383 2.06075 15.0922 1.72297 14.9433C0.692739 14.4303 -0.0166016 14.2813 -0.0166016 13.4539C-0.0166016 13.0733 0.439403 13.4539 1.14874 13.4539C1.53719 13.4539 1.9932 13.5201 2.21275 12.7258C2.70254 11.0378 4.72922 8.34043 8.29281 8.34043C12.076 8.34043 13.9506 11.4184 14.0858 11.5839C14.3391 11.9314 14.5755 12.0638 14.8289 12.0638C14.9978 12.0638 15.116 12.0638 15.4031 11.8156C17.8014 9.7305 17.9871 8.80378 17.9871 7.59575C17.9871 6.07329 16.7542 4.3026 14.5587 4.3026C12.3631 4.3026 11.316 6.00709 11.0288 7.28132C10.9275 7.69504 10.86 7.91017 10.6742 7.91017C10.3871 7.91017 10.3871 7.52955 10.0662 7.52955C9.5426 7.52955 9.49194 7.74468 9.22171 7.74468C8.86704 7.74468 8.86704 7.11584 8.34348 7.11584C8.20837 7.11584 7.92126 7.28132 7.73548 7.28132C7.24569 7.28132 7.21191 7.38062 6.99236 7.38062C6.73902 7.38062 6.4688 7.24823 6.4688 7.06619C6.4688 6.88416 6.63769 6.75177 7.14436 6.50355C7.81992 6.15603 8.44482 5.9078 8.76571 5.19622C9.76216 3.01182 11.9746 2.31678 12.8191 2.00236C13.14 1.86998 13.3089 1.75414 13.4609 1.45626C14.1364 0.248226 14.4404 0.115839 14.6262 0.115839C14.812 0.115839 14.7951 0.430259 14.8795 0.810874C14.9809 1.25768 14.9809 1.6052 15.724 1.78723C17.8351 2.33333 20.9258 4.23641 20.9258 7.71158C20.9258 11.1868 17.4298 13.3877 17.2609 13.5201C16.8725 13.8014 16.7373 14.0331 16.7373 14.2482C16.7373 14.4137 16.8387 14.5957 16.94 14.7943C17.7845 16.4492 19.2369 17.5248 20.9258 17.5248C22.9356 17.5248 24.4894 15.6879 24.4894 13.7849C24.4894 11.8818 23.189 10.74 22.0574 10.3924C21.6352 10.26 21.4494 10.26 21.4494 10.0449C21.4494 9.79669 21.7365 9.87943 21.7365 9.49882C21.7365 9.21749 21.6014 9.28369 21.6014 8.83688C21.6014 8.52246 21.9898 8.42317 21.9898 7.94326C21.9898 7.56265 21.8041 7.43026 21.8041 7.21513C21.8041 6.93381 21.7027 6.9669 21.7027 6.35461C21.7027 6.18913 21.6352 6.07329 21.7703 6.07329C21.9392 6.07329 22.0912 6.28842 22.2938 6.58629C22.7498 7.24823 23.1045 7.76123 23.4592 7.97636C26.0094 9.56501 26.5668 10.5745 27.1579 11.9976C27.293 12.3121 27.4112 12.8582 27.7997 13.0733C28.1206 13.2719 28.8299 13.487 28.8299 13.7352" fill="white"/>
</g>
<defs>
<clipPath id="clip0_21_1124">
<rect width="181" height="28" fill="white"/>
</clipPath>
</defs>
</svg>
