<svg width="133" height="44" viewBox="0 0 133 44" fill="none" xmlns="http://www.w3.org/2000/svg">
<path d="M105.886 10.7618C105.886 11.1361 105.941 11.5241 106.091 11.8917C106.752 13.5254 108.435 14.5328 110.576 13.6819C111.087 13.4777 125.244 7.78032 125.244 7.78032C125.244 7.78032 119.668 21.8979 119.457 22.422C118.646 24.4437 119.62 26.2748 121.277 26.8874C121.645 27.0235 122.026 27.0916 122.401 27.0848C123.758 27.078 124.951 26.2816 125.537 24.6887C125.625 24.4505 132.598 5.32983 132.748 4.87376C132.837 4.60148 133 3.96163 133 3.51918C133 2.57302 132.653 1.68131 131.978 1.00743C131.317 0.340347 130.431 0 129.497 0C129.04 0 128.672 0.0816832 128.113 0.258663C127.779 0.367574 109.805 7.04517 108.272 7.61695C106.738 8.18874 105.886 9.41399 105.893 10.7618" fill="white"/>
<path d="M72.2082 21.5439V21.1355H61.3094V23.9195H67.6415C65.992 29.1336 60.0962 32.1968 60.0962 32.1968L61.6707 34.3954C61.6707 34.3954 72.2082 30.0526 72.2082 21.5371V21.5439Z" fill="white"/>
<path d="M68.7665 40.0314V34.6199H64.9019V40.7189C64.9019 42.6248 66.4218 43.9998 68.5075 43.9998H80.4832V41.2226H70.1161C69.1755 41.2226 68.7801 40.8482 68.7597 40.0314H68.7665Z" fill="white"/>
<path d="M71.772 26.2679V29.0519H76.3728V35.7636H80.2374V20.8428H76.3728V26.2679H71.772Z" fill="white"/>
<path d="M105.075 32.0266H108.94V20.7271H105.075V24.2462H101.047V26.9962H105.075V32.0266Z" fill="white"/>
<path d="M18.3895 34.4089H3.68066V40.719C3.68066 42.6249 5.20063 43.9999 7.28632 43.9999H19.2484V35.2666C19.2484 34.7901 18.8598 34.4089 18.3895 34.4089ZM15.3837 41.2227H8.89489C7.95428 41.2227 7.55214 40.8551 7.53851 40.0315V37.1998H15.3837V41.2227Z" fill="white"/>
<path d="M19.5073 21.1762V21.0469H3.46933V23.8309H15.4654C15.4654 24.0147 15.4654 24.2461 15.4654 24.4708C15.4654 27.0574 15.3359 28.7591 15.2678 29.4534H0V32.2375H23.5219V29.4534H18.7099C18.9416 28.5821 19.5141 25.8866 19.5141 21.1762H19.5073Z" fill="white"/>
<path d="M43.5268 35.8112C46.7372 35.1101 49.1091 32.7072 49.1091 29.8619C49.1091 28.3304 48.4207 26.9281 47.2892 25.8458H51.3925V23.0618H43.5268V20.4343H39.669V23.0618H31.8034V25.8458H35.9066C34.7751 26.9281 34.0867 28.3236 34.0867 29.8619C34.0867 32.714 36.4587 35.1101 39.6758 35.8112V38.6293H29.8472V41.4133H53.3623V38.6293H43.5336V35.8112H43.5268ZM38.0536 29.7734C38.0536 27.8743 39.6417 26.3223 41.5911 26.3223C43.5405 26.3223 45.1286 27.8675 45.1286 29.7734C45.1286 31.6794 43.5405 33.2245 41.5911 33.2245C39.6417 33.2245 38.0536 31.6794 38.0536 29.7734Z" fill="white"/>
<path d="M97.6866 31.7882H101.429C101.272 30.8829 99.9018 23.5722 96.337 21.04H92.0225L88.7031 31.8767H92.5814L94.7898 24.0759C96.6506 26.2541 97.5571 31.0735 97.6798 31.7882H97.6866Z" fill="white"/>
<path d="M98.4567 41.3179C97.4752 41.3179 97.298 41.0661 97.298 40.2356V39.8885H108.946V34.0345C108.946 33.5308 108.578 33.136 108.054 33.136H93.5015V35.8179H105.245V37.2542H93.6037V40.7189C93.6037 42.727 95.0487 43.9998 97.2094 43.9998H109.199V41.3179H98.4567Z" fill="white"/>
</svg>
