<svg width="32" height="39" viewBox="0 0 32 39" fill="none" xmlns="http://www.w3.org/2000/svg">
<mask id="mask0_60_15" style="mask-type:alpha" maskUnits="userSpaceOnUse" x="0" y="0" width="32" height="39">
<rect y="0.333008" width="32" height="38.6667" fill="#D9D9D9"/>
</mask>
<g mask="url(#mask0_60_15)">
<path d="M15.7968 30.4733C16.071 30.4733 16.2933 30.2511 16.2933 29.9769C16.2933 29.7027 16.071 29.4805 15.7968 29.4805C15.5226 29.4805 15.3003 29.7027 15.3003 29.9769C15.3003 30.2511 15.5226 30.4733 15.7968 30.4733Z" fill="#FF6647"/>
<path d="M31.5839 22.7875C31.5839 14.0805 24.4988 7 15.7936 7C7.08832 7 0 14.0838 0 22.7875C0 31.4912 7.08505 38.5749 15.7903 38.5749C19.7722 38.5749 23.4143 37.0889 26.1941 34.6493C24.9855 35.3907 23.9206 35.8904 22.3625 36.2104C22.0783 36.2659 22.0097 36.2823 21.8497 36.2953C21.8595 36.2627 21.8595 36.2529 21.866 36.2169C22.0163 35.6062 22.1469 34.646 22.0228 33.2907C21.8529 31.403 21.1931 28.7608 19.4227 25.2467C19.4227 25.2467 17.9789 22.5491 21.4936 20.9814C25.0084 19.4138 24.992 16.6769 25.2272 16.6312C25.4624 16.5855 25.9557 15.2661 25.4853 14.8186C25.0149 14.3712 24.0742 14.5116 23.3915 14.701C22.7088 14.8905 20.4973 14.2079 19.8146 13.571C19.1319 12.9374 15.8034 10.4096 11.6516 12.441C7.4509 14.4953 6.51015 17.8102 6.51015 18.3066C6.51015 18.9402 6.83027 19.4497 7.22878 19.8514C7.64689 20.2694 9.70153 22.2486 11.2433 22.3139C11.2433 22.3139 12.8243 22.4935 12.8243 20.6973C12.8243 20.6973 12.7622 19.6881 12.3899 18.5418C12.2527 18.1172 11.8672 17.2942 11.7137 17.046C11.1486 16.138 12.1873 16.5594 12.2788 16.8272C12.3376 16.8827 13.1314 18.1695 13.3665 19.3909C13.5821 20.5079 14.3171 22.7352 11.8052 23.1826C11.2629 23.2806 10.7076 23.199 10.2274 22.9312C10.1229 22.8724 10.0184 22.794 9.88772 22.7221C8.96983 22.2355 8.75097 24.084 8.71178 24.2147C8.65951 24.3943 7.54237 30.2795 4.34445 32.1313L4.29872 32.1639C2.20489 29.6067 0.947287 26.3408 0.947287 22.7875C0.947287 14.6063 7.60443 7.95038 15.787 7.95038C22.4507 7.95038 28.1018 12.3626 29.9702 18.4209C31.2376 21.3995 31.3748 24.182 31.3617 25.3839C31.5022 24.538 31.5773 23.6725 31.5773 22.7907L31.5839 22.7875ZM17.9985 14.9623C18.4394 14.9623 18.7987 15.3216 18.7987 15.7625C18.7987 16.2034 18.4394 16.5626 17.9985 16.5626C17.5575 16.5626 17.1982 16.2034 17.1982 15.7625C17.1982 15.3216 17.5575 14.9623 17.9985 14.9623ZM9.77339 31.4748C10.6521 27.9607 12.1253 26.0175 13.6017 25.1389C13.6017 25.1389 14.8561 24.6066 15.0749 25.4851C15.0749 25.4851 15.2644 25.7986 15.137 26.5825C15.137 26.5825 14.9181 26.8339 15.8589 27.3336C16.7996 27.8366 17.5215 28.9339 17.8025 29.7798C18.0834 30.6257 18.9 30.2174 19.0568 30.6583C19.2136 31.096 18.9 31.4095 18.4917 31.661C18.103 31.8994 18.5603 32.902 16.5285 33.1633C16.424 33.1764 16.3195 33.1894 16.2019 33.1992C16.2019 33.1992 15.6694 33.1045 15.7642 33.7936C15.8262 34.2411 15.9765 35.3743 15.7642 36.4619C15.6858 36.8636 15.5584 37.262 15.3559 37.6148C12.269 37.5266 9.41734 36.4913 7.08179 34.7897C7.94088 34.5023 9.21482 33.6989 9.77339 31.4716V31.4748Z" fill="#FF6647"/>
</g>
</svg>
