<svg width="164" height="47" viewBox="0 0 164 47" fill="none" xmlns="http://www.w3.org/2000/svg">
<path d="M72.0935 24.586H55.7242C54.9904 24.586 53.5281 24.9714 53.2872 24.9714C52.7998 24.9714 51.0692 24.2929 50.2148 23.8097C50.2148 23.446 50.3627 22.8652 50.6037 22.8652C51.0911 22.8652 53.6541 23.1095 55.7242 23.1095H60.4559V21.2746C60.4559 20.9869 60.434 20.8403 60.2369 20.6938L59.5797 20.3083C59.5797 20.0423 59.7988 19.4886 60.0452 19.4886C60.6312 19.4886 61.9456 19.6352 62.3399 19.7546C62.6082 19.8524 62.7068 19.9989 62.7068 20.2595C62.7068 20.5038 62.6575 21.0358 62.6356 21.5406L62.5863 23.1095H67.2961C68.3202 23.1095 69.3224 22.648 69.8098 22.648C70.5437 22.648 72.0059 22.914 72.1757 23.18C72.3947 23.5437 72.2962 24.3146 72.1045 24.5806L72.0935 24.586ZM51.7264 20.2812C54.1634 19.6786 57.9477 17.3064 60.3628 14.3316C60.6093 13.995 60.6312 13.8484 60.4833 13.6801C60.3628 13.5119 59.9685 13.0287 59.7768 12.8333C59.8754 12.6379 60.1164 12.2524 60.2916 12.2524C60.7079 12.2524 62.7287 13.121 63.0463 13.2676C63.3147 13.4141 63.4352 13.5607 63.4352 13.7019C63.4352 13.8973 63.364 14.0873 63.0682 14.4781C62.7506 14.9124 62.4111 15.325 62.066 15.7104L65.215 16.9915C65.9215 17.2847 67.1428 17.5018 67.7288 17.8112C68.3859 18.1749 69.4867 19.0218 69.8755 19.4072C70.2151 19.7438 69.536 20.5418 69.0979 20.7861C67.099 19.6026 63.8021 17.9795 61.0255 16.7744C58.0517 19.6298 54.5851 21.1009 52.3178 21.1769C52.17 21.0792 51.5347 20.3301 51.7318 20.2812H51.7264ZM67.9478 34.6667H57.5315C57.4329 34.9327 57.285 35.1987 57.066 35.4159H56.2883C55.9981 34.9544 55.7297 34.3736 55.653 33.2662L55.3135 28.842C55.2916 28.576 54.607 28.31 54.3387 28.1145C54.388 27.778 54.6289 27.17 54.7549 27.17C55.3409 27.17 56.951 27.2188 57.5862 27.2188H64.514C64.9303 27.2188 65.6093 27.0017 65.8339 27.0017C66.2008 27.0017 66.9566 27.1211 67.2249 27.17C67.5426 27.2405 67.7616 27.5554 67.7397 27.9191L67.3016 32.6582L67.1318 33.1902L68.0573 33.5268C68.1559 33.6462 68.0354 34.3953 67.9588 34.6613L67.9478 34.6667ZM65.2917 28.6465H57.6301V33.2173H65.2643L65.2862 28.6465H65.2917Z" fill="#2A3C22"/>
<path d="M93.0252 13.148C93.0252 13.3922 92.954 14.0925 92.954 14.4779L92.9047 31.2357C92.9047 32.9023 92.4173 34.7914 92.0504 35.2963H91.1468C90.9003 34.8348 90.6813 33.3366 90.6813 32.0066V25.7909C87.6801 26.7572 81.1905 27.9406 78.7534 27.9406C78.1674 27.9406 76.9461 26.5401 76.9461 26.0081L76.8749 17.3008C76.8749 17.1813 76.8038 17.1053 76.6066 16.9859L75.5332 16.1879C75.5332 15.9219 75.8235 15.2922 76.1192 15.2922C76.5354 15.2922 78.0962 15.5094 78.6055 15.6776C78.9725 15.7971 79.1422 15.8948 79.1422 16.2802C79.1422 16.5679 79.1203 16.9588 79.1203 17.2953V25.9755C81.7819 25.9755 87.8992 25.1287 90.6813 24.3795V14.4399C90.6813 14.1251 90.5115 13.9568 90.3417 13.8102L89 12.7462C89.0712 12.3337 89.3395 11.8777 89.5586 11.8777C90.1665 11.8777 92.0449 12.3608 92.6802 12.6268C92.9485 12.7462 93.0197 12.8711 93.0197 13.1317L93.0252 13.148Z" fill="#2A3C22"/>
<path d="M109.46 27.2186H111.826C112.242 27.2186 112.921 27.0014 113.146 27.0014C113.512 27.0014 114.268 27.1208 114.537 27.1697C114.854 27.2403 115.073 27.5551 115.051 27.9188L114.613 32.6579L114.444 33.1899L115.369 33.5265C115.468 33.6459 115.347 34.395 115.27 34.661H104.854C104.756 34.927 104.608 35.193 104.389 35.4102H103.611C103.321 34.9488 103.052 34.3679 102.976 33.2605L102.636 28.8363C102.614 28.5703 101.93 28.3043 101.661 28.1088C101.711 27.7723 101.952 27.1643 102.078 27.1643C102.664 27.1643 104.274 27.2131 104.909 27.2131H107.713C107.614 26.8494 107.543 26.4369 107.543 26.0297V24.6292H103.052C102.318 24.6292 100.856 25.0146 100.615 25.0146C100.128 25.0146 98.3973 24.3632 97.543 23.88C97.543 23.5435 97.6908 22.9355 97.9318 22.9355C98.4192 22.9355 100.982 23.1798 103.052 23.1798H114.613C115.637 23.1798 116.64 22.7183 117.127 22.7183C117.861 22.7183 119.323 22.9843 119.493 23.2503C119.712 23.614 119.613 24.3632 119.422 24.6292H109.788L109.767 25.8397C109.745 26.35 109.646 26.8331 109.476 27.2186H109.46ZM102.899 17.2573C102.899 14.695 105.144 12.8547 108.556 12.8547C111.968 12.8547 114.213 14.6896 114.213 17.2573C114.213 19.8249 111.968 21.6815 108.556 21.6815C105.144 21.6815 102.899 19.8467 102.899 17.2573ZM104.947 28.6463V33.2171H112.581L112.603 28.6463H104.942H104.947ZM105.024 17.2573C105.024 18.9727 106.514 20.0638 108.562 20.0638C110.61 20.0638 112.121 18.9781 112.121 17.2573C112.121 15.5364 110.61 14.4507 108.562 14.4507C106.514 14.4507 105.024 15.5636 105.024 17.2573Z" fill="#2A3C22"/>
<path d="M124.263 31.7407C123.775 31.7407 122.045 31.0893 121.19 30.579C121.19 30.2153 121.338 29.5856 121.579 29.5856C122.067 29.5856 124.63 29.8299 126.7 29.8299H138.261C139.285 29.8299 140.287 29.3956 140.774 29.3956C141.508 29.3956 142.971 29.6616 143.14 29.9059C143.359 30.2696 143.261 31.0893 143.069 31.3553H126.7C125.966 31.3553 124.504 31.7407 124.263 31.7407ZM125.583 23.6631L125.533 16.5572C125.533 16.3889 125.462 16.1935 125.287 16.0252C125.216 15.9546 124.728 15.6615 124.361 15.4715C124.339 15.1566 124.58 14.5541 124.799 14.5541C125.166 14.5541 127.017 14.6518 127.773 14.7224H135.041C135.796 14.7224 136.53 14.3586 137.116 14.3586C137.702 14.3586 138.704 14.4564 138.967 14.6246C139.285 14.8201 139.214 15.9818 138.819 16.2206H127.844V19.5103H135.09C135.747 19.5103 136.382 19.2172 136.799 19.2172C137.357 19.2172 138.091 19.2172 138.48 19.3637C138.896 19.5103 138.869 20.5471 138.409 20.8891H127.844V23.4785C127.844 24.0811 128.233 24.2494 128.721 24.2494H135.26C136.087 24.2494 136.799 23.8857 137.335 23.8857C137.872 23.8857 138.918 23.9562 139.214 24.1517C139.553 24.3471 139.433 25.4816 139.142 25.7205C138.316 25.7205 137.018 25.7422 135.851 25.7422L128.02 25.7639C126.53 25.7639 125.583 24.9659 125.583 23.6577V23.6631Z" fill="#2A3C22"/>
<path d="M164 13.1481C164 13.3924 163.929 14.0926 163.929 14.4781L163.88 31.2359C163.88 32.9024 163.393 34.7915 163.026 35.2964H162.122C161.876 34.835 161.656 33.3367 161.656 32.0067V26.9528C158.047 28.1145 151.092 29.325 149.827 29.325C148.874 29.325 147.609 27.8485 147.609 27.4631L147.587 22.6263C147.587 22.116 147.001 21.8066 146.76 21.6817C146.76 21.5351 146.93 20.786 147.149 20.786C147.538 20.786 149.367 20.9054 149.855 20.9054H154.805C154.827 20.0369 154.855 17.6917 154.855 16.7689H150.61C149.975 16.7689 149.389 16.9643 149.099 16.9643C148.661 16.9643 147.319 16.4323 146.755 16.0469C146.804 15.6343 147.001 15.1023 147.171 15.1023C147.489 15.1023 149.34 15.2489 150.61 15.2489H153.831C154.367 15.2489 155.024 15.0318 155.271 15.0318C155.786 15.0318 156.613 15.1783 156.881 15.2272C157.171 15.2761 157.297 15.4715 157.27 15.8298C157.221 16.4812 156.804 20.4223 156.635 21.052C156.952 21.1226 157.122 21.4157 157.122 21.6546C157.122 21.9694 156.952 22.306 156.536 22.306H149.855V27.3599C151.487 27.4576 158.321 26.6596 161.662 25.5956V14.4509C161.662 14.1361 161.492 13.9678 161.322 13.8212L159.981 12.7572C160.052 12.3447 160.32 11.8887 160.539 11.8887C161.147 11.8887 163.026 12.3718 163.661 12.6378C163.929 12.7572 164 12.8821 164 13.1427V13.1481Z" fill="#2A3C22"/>
<path d="M20.1536 0C9.0253 0 0 8.94618 0 19.9769C0 27.1914 3.8719 33.4939 9.64963 37.0007V27.3271L20.3617 18.3538L30.6521 27.3271V37.0007C36.4353 33.4884 40.3017 27.186 40.3017 19.9769C40.3017 8.94618 31.2764 0 20.1481 0H20.1536Z" fill="#677333"/>
<path d="M14.2012 46.9999V44.7254H19.0096V38.4175L15.6251 37.0169L16.5123 34.9161L19.4148 36.1212L19.8365 36.1429H19.9679L23.0512 32.6252L24.7818 34.1181L21.3042 38.0863V44.7254H26.1126V46.9999H14.2012Z" fill="#677333"/>
</svg>
