<svg width="244" height="45" viewBox="0 0 244 45" fill="none" xmlns="http://www.w3.org/2000/svg">
<path d="M19.4483 0C8.72489 0 0 8.5289 0 19.0114C0 29.4939 8.72489 38.0228 19.4483 38.0228C30.1717 38.0228 38.8966 29.4939 38.8966 19.0114C38.8966 8.5289 30.1717 0 19.4483 0ZM31.6791 12.3356L24.4274 14.6353C23.7993 13.9544 23.0456 13.4073 22.1777 13.0278V5.57058C26.266 6.36318 29.7035 8.88613 31.6791 12.3245V12.3356ZM16.7303 5.58174V13.0389C15.8624 13.4185 15.1087 13.9655 14.4806 14.6465L7.22887 12.3468C9.20453 8.90846 12.6534 6.37435 16.7303 5.59291V5.58174ZM5.43593 19.0114C5.43593 18.4644 5.48161 17.9174 5.53871 17.3927L12.7904 19.6924C12.8932 20.6301 13.1901 21.5009 13.6583 22.2823L9.18169 28.2994C6.86343 25.8546 5.43593 22.5949 5.43593 19.0114ZM13.5784 31.4364L18.055 25.4081C18.5004 25.4974 18.9686 25.5532 19.4483 25.5532C19.9279 25.5532 20.3961 25.4974 20.8415 25.4081L25.3182 31.4364C23.5252 32.2513 21.5496 32.709 19.4483 32.709C17.347 32.709 15.3713 32.2401 13.5784 31.4364ZM29.7149 28.3106L25.2382 22.2935C25.695 21.512 26.0034 20.6413 26.1061 19.7035L33.3579 17.4039C33.4264 17.9397 33.4606 18.4756 33.4606 19.0226C33.4606 22.6061 32.0331 25.8658 29.7149 28.3106Z" fill="#008240"/>
<path d="M5.03606 36.2589C4.96754 36.0803 4.8305 35.924 4.63636 35.79C4.49932 35.7007 4.36228 35.6337 4.22523 35.6002C4.08819 35.5667 3.96257 35.5667 3.85979 35.6002C3.75701 35.6337 3.66565 35.7007 3.59713 35.79C3.52861 35.9016 3.50577 36.0244 3.55145 36.1696C3.59713 36.3147 3.69991 36.471 3.88263 36.6608L4.4879 37.2859C4.81908 37.632 5.02464 37.9669 5.09316 38.2795C5.16168 38.592 5.10458 38.8934 4.92186 39.1837C4.75056 39.4405 4.53358 39.6191 4.2595 39.7195C3.98541 39.82 3.68849 39.8312 3.34589 39.7642C3.00329 39.6972 2.66069 39.5409 2.30667 39.2953C1.96407 39.0609 1.68999 38.8041 1.50727 38.5362C1.32455 38.2683 1.21035 37.9892 1.18751 37.699C1.16467 37.4087 1.22177 37.1296 1.35881 36.8394L2.34093 37.5092C2.26099 37.699 2.24957 37.8887 2.32951 38.0673C2.40945 38.246 2.55791 38.4134 2.78631 38.5585C2.93477 38.6702 3.08323 38.7372 3.23169 38.7818C3.38015 38.8265 3.50577 38.8265 3.60855 38.793C3.72275 38.7595 3.80269 38.6925 3.87121 38.592C3.95115 38.4692 3.96257 38.3464 3.91689 38.2013C3.87121 38.0562 3.75701 37.8887 3.58571 37.7101L3.01471 37.1185C2.68353 36.7836 2.48939 36.4486 2.42087 36.1137C2.35235 35.7788 2.42087 35.4774 2.60359 35.176C2.77489 34.9192 2.98045 34.7518 3.24311 34.6513C3.50577 34.5509 3.79127 34.5397 4.12245 34.6067C4.44222 34.6737 4.76198 34.8188 5.10458 35.0532C5.42434 35.2765 5.67558 35.5109 5.84688 35.7788C6.01818 36.0468 6.12096 36.3147 6.13238 36.5938C6.15522 36.8729 6.0867 37.1408 5.94966 37.4087L5.03606 36.7836C5.10458 36.6049 5.10458 36.4263 5.03606 36.2477V36.2589Z" fill="#008240"/>
<path d="M5.15048 41.1037C5.09338 40.9921 5.07054 40.8693 5.08196 40.7465C5.09338 40.6237 5.12764 40.5009 5.19616 40.4004C5.26468 40.2999 5.35604 40.2106 5.45882 40.166C5.57302 40.1101 5.68722 40.0878 5.81284 40.099C5.93846 40.099 6.05266 40.1548 6.16686 40.2218C6.26964 40.2888 6.34958 40.3892 6.40668 40.5009C6.46378 40.6125 6.48662 40.7353 6.48662 40.8581C6.48662 40.9809 6.44094 41.1037 6.37242 41.2042C6.3039 41.3158 6.21254 41.3939 6.09834 41.4498C5.98414 41.5056 5.86994 41.5279 5.74432 41.5167C5.6187 41.5167 5.5045 41.4721 5.40172 41.394C5.28752 41.3158 5.20758 41.2265 5.15048 41.1149V41.1037Z" fill="#008240"/>
<path d="M15.9653 39.7197H17.0731L17.8953 43.3813H17.941L18.7747 39.7197H19.871L20.7046 43.3702H20.7503L21.5611 39.7197H22.6689L21.3556 44.9219H20.225L19.3457 41.3942H19.2886L18.4206 44.9219H17.2901L15.9768 39.7197H15.9653Z" fill="#008240"/>
<path d="M23.0573 44.8995C22.9545 44.8325 22.8746 44.7432 22.8175 44.6315C22.7604 44.5199 22.7261 44.3971 22.7375 44.2632C22.7375 44.1292 22.7604 44.0064 22.8175 43.8948C22.8746 43.7831 22.9545 43.6938 23.0573 43.6268C23.1601 43.5599 23.2743 43.5264 23.3885 43.5264C23.5027 43.5264 23.6169 43.5599 23.7197 43.6268C23.8224 43.6938 23.9024 43.7831 23.9595 43.8948C24.0166 44.0064 24.0508 44.1292 24.0508 44.2632C24.0508 44.3971 24.0166 44.5199 23.9595 44.6315C23.9024 44.7432 23.8224 44.8325 23.7197 44.8995C23.6169 44.9665 23.5141 44.9999 23.3885 44.9999C23.2629 44.9999 23.1601 44.9665 23.0573 44.8995Z" fill="#008240"/>
<path d="M33.8487 36.2479C33.6546 36.2479 33.449 36.3149 33.2321 36.46C33.0836 36.5605 32.9694 36.6721 32.8895 36.7949C32.8095 36.9177 32.7524 37.0405 32.741 37.1633C32.7296 37.2861 32.7524 37.3977 32.8209 37.4982C32.9009 37.6098 33.0151 37.6768 33.175 37.688C33.3348 37.6991 33.529 37.6545 33.7802 37.554L34.6367 37.1968C35.1049 36.9958 35.5161 36.9289 35.8472 36.9735C36.1784 37.0293 36.4639 37.1968 36.6695 37.4982C36.8522 37.7661 36.9436 38.0564 36.9321 38.3689C36.9321 38.6815 36.8179 38.9941 36.6124 39.2955C36.4068 39.6081 36.1213 39.8872 35.7559 40.1439C35.3904 40.4007 35.0364 40.5682 34.6938 40.6575C34.3512 40.7356 34.0429 40.7356 33.746 40.6575C33.449 40.5793 33.1978 40.4007 32.9694 40.1551L34.0086 39.4295C34.1685 39.5858 34.3512 39.6639 34.5568 39.6528C34.7623 39.6416 34.9793 39.5523 35.2191 39.3848C35.3904 39.2732 35.5161 39.1504 35.6074 39.0276C35.6988 38.9048 35.7559 38.7708 35.7673 38.648C35.7787 38.5252 35.7445 38.4136 35.6759 38.302C35.5846 38.1792 35.4704 38.1122 35.3105 38.101C35.1506 38.101 34.9451 38.1345 34.6938 38.2462L33.8944 38.5922C33.4376 38.7932 33.0265 38.8601 32.6839 38.8043C32.3299 38.7485 32.0558 38.5699 31.8388 38.2573C31.6561 38.0006 31.5647 37.7103 31.5761 37.4089C31.5761 37.1075 31.6789 36.8172 31.8731 36.5158C32.0672 36.2256 32.3413 35.9576 32.6953 35.712C33.0379 35.4776 33.3691 35.3213 33.7003 35.2432C34.0315 35.165 34.3284 35.1762 34.6139 35.2655C34.8994 35.3548 35.1392 35.5223 35.3333 35.7567L34.3626 36.4265C34.2142 36.2925 34.0429 36.2144 33.8487 36.2144V36.2479Z" fill="#008240"/>
<path d="M38.6565 38.0007C38.5195 38.0118 38.3939 37.9895 38.2682 37.9337C38.1426 37.8779 38.0513 37.7885 37.9713 37.6769C37.8914 37.5653 37.8457 37.4536 37.8457 37.3197C37.8457 37.1857 37.8571 37.0629 37.9256 36.9401C37.9827 36.8173 38.0741 36.7169 38.1883 36.6387C38.3025 36.5606 38.4167 36.5159 38.5537 36.5047C38.6908 36.4936 38.8164 36.5047 38.9306 36.5717C39.0562 36.6275 39.1476 36.7057 39.2275 36.8173C39.3075 36.929 39.3531 37.0518 39.3531 37.1857C39.3531 37.3197 39.3417 37.4425 39.2846 37.5653C39.2275 37.6881 39.1476 37.7885 39.0334 37.8555C38.9192 37.9337 38.7936 37.9783 38.6565 37.9895V38.0007Z" fill="#008240"/>
<path d="M54.5571 11.1414C55.425 11.1414 56.3729 11.1861 57.4007 11.2754C58.4285 11.3647 59.422 11.5433 60.4041 11.8L60.1529 14.3007C59.3992 14.2672 58.5198 14.2448 57.5149 14.2225C56.5099 14.2114 55.5164 14.2002 54.5456 14.2002C54.066 14.2002 53.6663 14.2114 53.3237 14.2448C52.9925 14.2783 52.7184 14.3453 52.5129 14.4458C52.3073 14.5463 52.1589 14.7026 52.0789 14.9258C51.9876 15.1491 51.9533 15.4505 51.9533 15.8189C51.9533 16.3882 52.0903 16.8124 52.3758 17.0692C52.6613 17.326 53.141 17.5716 53.8262 17.7837L57.2294 18.8442C58.6454 19.3019 59.6276 19.9271 60.1757 20.7085C60.7239 21.4899 60.998 22.5282 60.998 23.8008C60.998 24.772 60.8838 25.5646 60.6439 26.2121C60.4041 26.8484 60.0273 27.3508 59.5134 27.708C58.9995 28.0652 58.3257 28.322 57.492 28.4783C56.6583 28.6346 55.6305 28.7127 54.42 28.7127C53.8376 28.7127 53.0154 28.6792 51.9305 28.6011C50.857 28.5229 49.635 28.3443 48.2646 28.0429L48.493 25.386C49.5208 25.3972 50.4002 25.4195 51.1311 25.453C51.8619 25.4753 52.5015 25.4976 53.0268 25.4976C53.5521 25.4976 54.0203 25.5088 54.4086 25.5088C55.1052 25.5088 55.6534 25.4641 56.0417 25.386C56.4299 25.3079 56.6926 25.1404 56.8525 24.8948C57.001 24.6492 57.0809 24.292 57.0809 23.8343C57.0809 23.4212 57.0238 23.1087 56.9096 22.8742C56.7954 22.6398 56.6127 22.4612 56.3614 22.3049C56.1102 22.1598 55.7676 22.0258 55.3565 21.9142L51.7706 20.742C50.4002 20.2843 49.4409 19.6703 48.8927 18.9C48.3332 18.1297 48.0591 17.1027 48.0591 15.8301C48.0591 14.8588 48.1847 14.0662 48.4359 13.4522C48.6872 12.8271 49.064 12.3471 49.5779 12.0122C50.0918 11.6772 50.7656 11.4428 51.5879 11.3089C52.4215 11.1749 53.4151 11.1079 54.5685 11.1079L54.5571 11.1414Z" fill="black"/>
<path d="M72.1898 11.4653C72.5095 11.4653 72.795 11.5546 73.0463 11.7221C73.2975 11.8895 73.4574 12.1351 73.5487 12.4477L78.6763 28.4115H74.6793L71.0706 15.9307C71.0021 15.674 70.9336 15.3949 70.865 15.1046C70.7965 14.8144 70.7394 14.5465 70.6823 14.2785H69.9857C69.94 14.5353 69.8829 14.8144 69.8144 15.1046C69.7573 15.3949 69.6774 15.6628 69.5974 15.9307L65.9887 28.4115H61.9917L67.1193 12.4477C67.1992 12.1351 67.3705 11.8895 67.6218 11.7221C67.873 11.5546 68.1585 11.4653 68.4783 11.4653H72.1898ZM74.9077 21.1106V23.9126H65.7375V21.1106H74.9077Z" fill="black"/>
<path d="M98.5927 11.4653C99.5177 11.4653 99.9973 11.923 100.032 12.8384L100.694 28.4115H97.0852L96.4914 14.3343H96.0346L93.191 24.9173C93.0425 25.7099 92.5286 26.1007 91.6493 26.1007H89.194C88.3261 26.1007 87.8007 25.7099 87.6294 24.9173L84.763 14.3343H84.3291L83.7923 28.4115H80.1836L80.8231 12.8384C80.8688 11.923 81.3599 11.4653 82.2849 11.4653H85.9507C86.7844 11.4653 87.2983 11.8561 87.4924 12.6487L89.7764 21.1999C89.8792 21.5906 89.9591 21.9925 90.0276 22.3944C90.0962 22.7963 90.1761 23.1982 90.256 23.6112H90.5872C90.6672 23.1982 90.7585 22.7963 90.827 22.3944C90.8956 21.9925 90.9869 21.5906 91.0669 21.1776L93.3166 12.6598C93.4879 11.8784 94.0132 11.4765 94.8811 11.4765H98.5927V11.4653Z" fill="black"/>
<path d="M126.446 11.4653L123.545 27.3845C123.499 27.6747 123.34 27.9203 123.088 28.1212C122.837 28.3222 122.529 28.4115 122.163 28.4115H118.52C118.166 28.4115 117.847 28.311 117.584 28.1212C117.321 27.9203 117.173 27.6747 117.139 27.3621L115.14 16.3103C115.094 15.9531 115.037 15.5847 114.992 15.2163C114.946 14.8479 114.889 14.4795 114.843 14.1222H114.352C114.318 14.4795 114.272 14.8479 114.226 15.2274C114.181 15.607 114.124 15.9754 114.078 16.3326L112.102 27.3621C112.057 27.6747 111.897 27.9315 111.623 28.1212C111.36 28.3222 111.052 28.4115 110.709 28.4115H107.043C106.689 28.4115 106.381 28.311 106.118 28.1212C105.867 27.9203 105.707 27.6747 105.661 27.3845L102.761 11.4653H106.678L108.528 23.254C108.574 23.6112 108.619 24.0019 108.653 24.415C108.688 24.828 108.722 25.2522 108.756 25.7211H109.247C109.316 25.3304 109.384 24.9173 109.464 24.482C109.544 24.0466 109.601 23.6447 109.658 23.2651L111.634 12.604C111.668 12.2579 111.817 11.99 112.068 11.7779C112.319 11.577 112.628 11.4653 112.993 11.4653H116.225C116.579 11.4653 116.887 11.5658 117.139 11.7779C117.39 11.9789 117.538 12.2579 117.584 12.604L119.56 23.2875C119.628 23.6782 119.697 24.0912 119.765 24.5043C119.834 24.9285 119.891 25.3304 119.948 25.7211H120.462C120.496 25.3304 120.53 24.9173 120.576 24.4931C120.622 24.0689 120.656 23.6782 120.69 23.3098L122.54 11.4765H126.457L126.446 11.4653Z" fill="black"/>
<path d="M135.879 11.1191C137.284 11.1191 138.471 11.2643 139.442 11.5434C140.413 11.8336 141.201 12.3025 141.783 12.9723C142.377 13.6309 142.799 14.5352 143.073 15.6738C143.348 16.8125 143.485 18.2303 143.485 19.9383C143.485 21.6463 143.348 23.0417 143.073 24.1804C142.799 25.3191 142.365 26.2233 141.783 26.8931C141.189 27.563 140.413 28.043 139.442 28.3221C138.471 28.6012 137.284 28.7351 135.879 28.7351C134.474 28.7351 133.287 28.6012 132.316 28.3221C131.345 28.043 130.557 27.5741 129.952 26.8931C129.358 26.2233 128.924 25.3191 128.661 24.1804C128.399 23.0417 128.262 21.624 128.262 19.9383C128.262 18.2526 128.399 16.8125 128.661 15.6738C128.924 14.5352 129.358 13.6309 129.952 12.9723C130.546 12.3136 131.334 11.8336 132.316 11.5434C133.287 11.2531 134.474 11.1191 135.879 11.1191ZM135.879 14.0663C134.977 14.0663 134.269 14.2338 133.766 14.5798C133.264 14.9259 132.898 15.5176 132.693 16.3771C132.476 17.2256 132.373 18.4201 132.373 19.9383C132.373 21.4565 132.476 22.6175 132.693 23.4771C132.91 24.3255 133.264 24.9284 133.766 25.2744C134.269 25.6205 134.977 25.788 135.879 25.788C136.781 25.788 137.466 25.6205 137.98 25.2744C138.494 24.9284 138.848 24.3367 139.054 23.4771C139.259 22.6287 139.362 21.4454 139.362 19.9383C139.362 18.4312 139.259 17.2256 139.054 16.3771C138.848 15.5287 138.494 14.9259 137.98 14.5798C137.466 14.2338 136.77 14.0663 135.879 14.0663Z" fill="black"/>
<path d="M161.425 11.4653V27.0607C161.425 27.965 160.957 28.4115 160.021 28.4115H157.874C157.451 28.4115 157.131 28.3222 156.914 28.1324C156.697 27.9426 156.492 27.6635 156.286 27.284L151.387 18.3644C151.182 17.9848 150.976 17.5718 150.782 17.1252C150.588 16.6787 150.416 16.2321 150.279 15.8079H149.994C150.04 16.2321 150.085 16.6787 150.12 17.1364C150.154 17.5941 150.165 18.0406 150.165 18.4648V28.4115H146.477V12.8161C146.477 11.9119 146.945 11.4653 147.881 11.4653H150.005C150.416 11.4653 150.725 11.5546 150.942 11.7444C151.159 11.9342 151.364 12.2021 151.57 12.5705L156.309 21.2111C156.526 21.5906 156.755 22.0037 156.972 22.4614C157.189 22.9191 157.394 23.3991 157.588 23.8903H157.897C157.862 23.3991 157.828 22.9191 157.794 22.4502C157.76 21.9813 157.748 21.5236 157.748 21.0659V11.4653H161.414H161.425Z" fill="black"/>
<path d="M170.813 11.1414C171.681 11.1414 172.628 11.1861 173.656 11.2754C174.684 11.3647 175.678 11.5433 176.648 11.8L176.397 14.3007C175.643 14.2672 174.764 14.2448 173.759 14.2225C172.754 14.2002 171.76 14.2002 170.79 14.2002C170.31 14.2002 169.91 14.2114 169.568 14.2448C169.237 14.2783 168.963 14.3453 168.757 14.4458C168.551 14.5463 168.403 14.7026 168.323 14.9258C168.232 15.1491 168.197 15.4505 168.197 15.8189C168.197 16.3882 168.334 16.8124 168.62 17.0692C168.905 17.326 169.385 17.5716 170.07 17.7837L173.485 18.8442C174.901 19.3019 175.883 19.9271 176.431 20.7085C176.979 21.4899 177.254 22.5282 177.254 23.8008C177.254 24.772 177.139 25.5646 176.899 26.2121C176.66 26.8484 176.283 27.3508 175.769 27.708C175.255 28.0652 174.581 28.322 173.748 28.4783C172.914 28.6346 171.886 28.7127 170.676 28.7127C170.093 28.7127 169.271 28.6792 168.186 28.6011C167.113 28.5229 165.891 28.3443 164.52 28.0429L164.749 25.386C165.776 25.3972 166.656 25.4195 167.387 25.453C168.118 25.4753 168.757 25.4976 169.282 25.4976C169.808 25.4976 170.276 25.5088 170.664 25.5088C171.361 25.5088 171.909 25.4641 172.286 25.386C172.674 25.3079 172.937 25.1404 173.097 24.8948C173.245 24.6492 173.325 24.292 173.325 23.8343C173.325 23.4212 173.268 23.1087 173.154 22.8742C173.04 22.6398 172.857 22.4612 172.606 22.3049C172.354 22.1486 172.012 22.0258 171.601 21.9142L168.015 20.742C166.644 20.2843 165.685 19.6703 165.137 18.9C164.577 18.1297 164.303 17.1027 164.303 15.8301C164.303 14.8588 164.429 14.0662 164.68 13.4522C164.931 12.8271 165.308 12.3471 165.822 12.0122C166.336 11.6772 167.01 11.4428 167.832 11.3089C168.666 11.1749 169.659 11.1079 170.813 11.1079V11.1414Z" fill="black"/>
<path d="M193.207 11.4653V14.4125H178.647V11.4653H193.207ZM187.874 11.4653V28.4115H183.98V11.4653H187.874Z" fill="black"/>
<path d="M199.077 11.387C200.014 11.387 200.973 11.387 201.944 11.3982C202.914 11.3982 203.873 11.4317 204.81 11.454C205.746 11.4875 206.626 11.5433 207.448 11.6214L207.265 14.3453H200.47C200.036 14.3453 199.728 14.4458 199.511 14.6467C199.294 14.8477 199.191 15.1714 199.191 15.5956V24.2362C199.191 24.6492 199.294 24.9618 199.511 25.1739C199.728 25.386 200.048 25.4976 200.47 25.4976H207.265L207.448 28.2215C206.626 28.2885 205.746 28.3332 204.81 28.3667C203.873 28.4002 202.914 28.4225 201.944 28.4336C200.973 28.4336 200.014 28.4336 199.077 28.4336C197.946 28.4336 197.044 28.1211 196.348 27.4959C195.651 26.8708 195.297 26.0558 195.286 25.0399V14.7695C195.308 13.7425 195.662 12.9164 196.348 12.2912C197.044 11.6661 197.946 11.3535 199.077 11.3535V11.387ZM195.742 18.2637H206.329V20.9206H195.742V18.2637Z" fill="black"/>
<path d="M213.889 11.387C214.826 11.387 215.785 11.387 216.756 11.3982C217.726 11.3982 218.686 11.4317 219.622 11.454C220.558 11.4875 221.438 11.5433 222.26 11.6214L222.077 14.3453H215.282C214.848 14.3453 214.54 14.4458 214.323 14.6467C214.106 14.8477 214.003 15.1714 214.003 15.5956V24.2362C214.003 24.6492 214.106 24.9618 214.323 25.1739C214.54 25.386 214.86 25.4976 215.282 25.4976H222.077L222.26 28.2215C221.438 28.2885 220.558 28.3332 219.622 28.3667C218.686 28.4002 217.726 28.4225 216.756 28.4336C215.785 28.4336 214.826 28.4336 213.889 28.4336C212.759 28.4336 211.856 28.1211 211.16 27.4959C210.463 26.8708 210.109 26.0558 210.098 25.0399V14.7695C210.12 13.7425 210.475 12.9164 211.16 12.2912C211.856 11.6661 212.759 11.3535 213.889 11.3535V11.387ZM210.554 18.2637H221.141V20.9206H210.554V18.2637Z" fill="black"/>
<path d="M228.906 11.4653V24.1359C228.906 24.5489 229.02 24.8503 229.26 25.0736C229.5 25.2857 229.843 25.3974 230.288 25.3974H236.466L236.649 28.2217C235.438 28.3334 234.171 28.4003 232.846 28.4338C231.521 28.4673 230.208 28.4673 228.918 28.4673C227.627 28.4673 226.645 28.1436 225.994 27.4849C225.343 26.8263 225.023 25.989 225.023 24.9508V11.4653H228.918H228.906Z" fill="black"/>
</svg>
