<svg width="237" height="45" viewBox="0 0 237 45" fill="none" xmlns="http://www.w3.org/2000/svg">
<path d="M19.4483 0C8.72489 0 0 8.5289 0 19.0114C0 29.4939 8.72489 38.0228 19.4483 38.0228C30.1717 38.0228 38.8966 29.4939 38.8966 19.0114C38.8966 8.5289 30.1717 0 19.4483 0ZM31.6791 12.3356L24.4274 14.6353C23.7993 13.9544 23.0456 13.4073 22.1777 13.0278V5.57058C26.266 6.36318 29.7035 8.88613 31.6791 12.3245V12.3356ZM16.7303 5.58174V13.0389C15.8624 13.4185 15.1087 13.9655 14.4806 14.6465L7.22887 12.3468C9.20453 8.90846 12.6534 6.37435 16.7303 5.59291V5.58174ZM5.43593 19.0114C5.43593 18.4644 5.48161 17.9174 5.53871 17.3927L12.7904 19.6924C12.8932 20.6301 13.1901 21.5009 13.6583 22.2823L9.18169 28.2994C6.86343 25.8546 5.43593 22.5949 5.43593 19.0114ZM13.5784 31.4364L18.055 25.4081C18.5004 25.4974 18.9686 25.5532 19.4483 25.5532C19.9279 25.5532 20.3961 25.4974 20.8415 25.4081L25.3182 31.4364C23.5252 32.2513 21.5496 32.709 19.4483 32.709C17.347 32.709 15.3713 32.2401 13.5784 31.4364ZM29.7149 28.3106L25.2382 22.2935C25.695 21.512 26.0034 20.6413 26.1061 19.7035L33.3579 17.4039C33.4264 17.9397 33.4606 18.4756 33.4606 19.0226C33.4606 22.6061 32.0331 25.8658 29.7149 28.3106Z" fill="white"/>
<path d="M5.03606 36.2589C4.96754 36.0803 4.8305 35.924 4.63636 35.79C4.49932 35.7007 4.36228 35.6337 4.22523 35.6002C4.08819 35.5667 3.96257 35.5667 3.85979 35.6002C3.75701 35.6337 3.66565 35.7007 3.59713 35.79C3.52861 35.9016 3.50577 36.0244 3.55145 36.1696C3.59713 36.3147 3.69991 36.471 3.88263 36.6608L4.4879 37.2859C4.81908 37.632 5.02464 37.9669 5.09316 38.2795C5.16168 38.592 5.10458 38.8934 4.92186 39.1837C4.75056 39.4405 4.53358 39.6191 4.2595 39.7195C3.98541 39.82 3.68849 39.8312 3.34589 39.7642C3.00329 39.6972 2.66069 39.5409 2.30667 39.2953C1.96407 39.0609 1.68999 38.8041 1.50727 38.5362C1.32455 38.2683 1.21035 37.9892 1.18751 37.699C1.16467 37.4087 1.22177 37.1296 1.35881 36.8394L2.34093 37.5092C2.26099 37.699 2.24957 37.8887 2.32951 38.0673C2.40945 38.246 2.55791 38.4134 2.78631 38.5585C2.93477 38.6702 3.08323 38.7372 3.23169 38.7818C3.38015 38.8265 3.50577 38.8265 3.60855 38.793C3.72275 38.7595 3.80269 38.6925 3.87121 38.592C3.95115 38.4692 3.96257 38.3464 3.91689 38.2013C3.87121 38.0562 3.75701 37.8887 3.58571 37.7101L3.01471 37.1185C2.68353 36.7836 2.48939 36.4486 2.42087 36.1137C2.35235 35.7788 2.42087 35.4774 2.60359 35.176C2.77489 34.9192 2.98045 34.7518 3.24311 34.6513C3.50577 34.5509 3.79127 34.5397 4.12245 34.6067C4.44222 34.6737 4.76198 34.8188 5.10458 35.0532C5.42434 35.2765 5.67558 35.5109 5.84688 35.7788C6.01818 36.0468 6.12096 36.3147 6.13238 36.5938C6.15522 36.8729 6.0867 37.1408 5.94966 37.4087L5.03606 36.7836C5.10458 36.6049 5.10458 36.4263 5.03606 36.2477V36.2589Z" fill="white"/>
<path d="M5.15048 41.1037C5.09338 40.9921 5.07054 40.8693 5.08196 40.7465C5.09338 40.6237 5.12764 40.5009 5.19616 40.4004C5.26468 40.2999 5.35604 40.2106 5.45882 40.166C5.57302 40.1101 5.68722 40.0878 5.81284 40.099C5.93846 40.099 6.05266 40.1548 6.16686 40.2218C6.26964 40.2888 6.34958 40.3892 6.40668 40.5009C6.46378 40.6125 6.48662 40.7353 6.48662 40.8581C6.48662 40.9809 6.44094 41.1037 6.37242 41.2042C6.3039 41.3158 6.21254 41.3939 6.09834 41.4498C5.98414 41.5056 5.86994 41.5279 5.74432 41.5167C5.6187 41.5167 5.5045 41.4721 5.40172 41.394C5.28752 41.3158 5.20758 41.2265 5.15048 41.1149V41.1037Z" fill="white"/>
<path d="M15.9648 39.7197H17.0726L17.8948 43.3813H17.9405L18.7742 39.7197H19.8705L20.7041 43.3702H20.7498L21.5606 39.7197H22.6684L21.3551 44.9219H20.2245L19.3452 41.3942H19.2881L18.4201 44.9219H17.2896L15.9763 39.7197H15.9648Z" fill="white"/>
<path d="M23.0563 44.8995C22.9535 44.8325 22.8736 44.7432 22.8165 44.6315C22.7594 44.5199 22.7251 44.3971 22.7366 44.2632C22.7366 44.1292 22.7594 44.0064 22.8165 43.8948C22.8736 43.7831 22.9535 43.6938 23.0563 43.6268C23.1591 43.5599 23.2733 43.5264 23.3875 43.5264C23.5017 43.5264 23.6159 43.5599 23.7187 43.6268C23.8215 43.6938 23.9014 43.7831 23.9585 43.8948C24.0156 44.0064 24.0499 44.1292 24.0499 44.2632C24.0499 44.3971 24.0156 44.5199 23.9585 44.6315C23.9014 44.7432 23.8215 44.8325 23.7187 44.8995C23.6159 44.9665 23.5131 44.9999 23.3875 44.9999C23.2619 44.9999 23.1591 44.9665 23.0563 44.8995Z" fill="white"/>
<path d="M33.8487 36.2479C33.6546 36.2479 33.449 36.3149 33.2321 36.46C33.0836 36.5605 32.9694 36.6721 32.8895 36.7949C32.8095 36.9177 32.7524 37.0405 32.741 37.1633C32.7296 37.2861 32.7524 37.3977 32.8209 37.4982C32.9009 37.6098 33.0151 37.6768 33.175 37.688C33.3348 37.6991 33.529 37.6545 33.7802 37.554L34.6367 37.1968C35.1049 36.9958 35.5161 36.9289 35.8472 36.9735C36.1784 37.0293 36.4639 37.1968 36.6695 37.4982C36.8522 37.7661 36.9436 38.0564 36.9321 38.3689C36.9321 38.6815 36.8179 38.9941 36.6124 39.2955C36.4068 39.6081 36.1213 39.8872 35.7559 40.1439C35.3904 40.4007 35.0364 40.5682 34.6938 40.6575C34.3512 40.7356 34.0429 40.7356 33.746 40.6575C33.449 40.5793 33.1978 40.4007 32.9694 40.1551L34.0086 39.4295C34.1685 39.5858 34.3512 39.6639 34.5568 39.6528C34.7623 39.6416 34.9793 39.5523 35.2191 39.3848C35.3904 39.2732 35.5161 39.1504 35.6074 39.0276C35.6988 38.9048 35.7559 38.7708 35.7673 38.648C35.7787 38.5252 35.7445 38.4136 35.6759 38.302C35.5846 38.1792 35.4704 38.1122 35.3105 38.101C35.1506 38.101 34.9451 38.1345 34.6938 38.2462L33.8944 38.5922C33.4376 38.7932 33.0265 38.8601 32.6839 38.8043C32.3299 38.7485 32.0558 38.5699 31.8388 38.2573C31.6561 38.0006 31.5647 37.7103 31.5761 37.4089C31.5761 37.1075 31.6789 36.8172 31.8731 36.5158C32.0672 36.2256 32.3413 35.9576 32.6953 35.712C33.0379 35.4776 33.3691 35.3213 33.7003 35.2432C34.0315 35.165 34.3284 35.1762 34.6139 35.2655C34.8994 35.3548 35.1392 35.5223 35.3333 35.7567L34.3626 36.4265C34.2142 36.2925 34.0429 36.2144 33.8487 36.2144V36.2479Z" fill="white"/>
<path d="M38.6565 38.0007C38.5195 38.0118 38.3939 37.9895 38.2682 37.9337C38.1426 37.8779 38.0513 37.7885 37.9713 37.6769C37.8914 37.5653 37.8457 37.4536 37.8457 37.3197C37.8457 37.1857 37.8571 37.0629 37.9256 36.9401C37.9827 36.8173 38.0741 36.7169 38.1883 36.6387C38.3025 36.5606 38.4167 36.5159 38.5537 36.5047C38.6908 36.4936 38.8164 36.5047 38.9306 36.5717C39.0562 36.6275 39.1476 36.7057 39.2275 36.8173C39.3075 36.929 39.3531 37.0518 39.3531 37.1857C39.3531 37.3197 39.3417 37.4425 39.2846 37.5653C39.2275 37.6881 39.1476 37.7885 39.0334 37.8555C38.9192 37.9337 38.7936 37.9783 38.6565 37.9895V38.0007Z" fill="white"/>
<path d="M54.3115 11.1414C55.1794 11.1414 56.1272 11.1861 57.155 11.2754C58.1828 11.3647 59.1764 11.5433 60.1585 11.8L59.9073 14.3007C59.1535 14.2672 58.2742 14.2448 57.2692 14.2225C56.2643 14.2114 55.2707 14.2002 54.3 14.2002C53.8204 14.2002 53.4207 14.2114 53.0781 14.2448C52.7469 14.2783 52.4728 14.3453 52.2673 14.4458C52.0617 14.5463 51.9133 14.7026 51.8333 14.9258C51.742 15.1491 51.7077 15.4505 51.7077 15.8189C51.7077 16.3882 51.8447 16.8124 52.1302 17.0692C52.4157 17.326 52.8954 17.5716 53.5806 17.7837L56.9837 18.8442C58.3998 19.3019 59.382 19.9271 59.9301 20.7085C60.4783 21.4899 60.7523 22.5282 60.7523 23.8008C60.7523 24.772 60.6382 25.5646 60.3983 26.2121C60.1585 26.8484 59.7816 27.3508 59.2677 27.708C58.7538 28.0652 58.0801 28.322 57.2464 28.4783C56.4127 28.6346 55.3849 28.7127 54.1744 28.7127C53.592 28.7127 52.7698 28.6792 51.6849 28.6011C50.6114 28.5229 49.3894 28.3443 48.019 28.0429L48.2474 25.386C49.2752 25.3972 50.1546 25.4195 50.8855 25.453C51.6163 25.4753 52.2559 25.4976 52.7812 25.4976C53.3065 25.4976 53.7747 25.5088 54.163 25.5088C54.8596 25.5088 55.4078 25.4641 55.7961 25.386C56.1843 25.3079 56.447 25.1404 56.6069 24.8948C56.7553 24.6492 56.8353 24.292 56.8353 23.8343C56.8353 23.4212 56.7782 23.1087 56.664 22.8742C56.5498 22.6398 56.3671 22.4612 56.1158 22.3049C55.8646 22.1598 55.522 22.0258 55.1109 21.9142L51.525 20.742C50.1546 20.2843 49.1953 19.6703 48.6471 18.9C48.0876 18.1297 47.8135 17.1027 47.8135 15.8301C47.8135 14.8588 47.9391 14.0662 48.1903 13.4522C48.4416 12.8271 48.8184 12.3471 49.3323 12.0122C49.8462 11.6772 50.52 11.4428 51.3423 11.3089C52.1759 11.1749 53.1695 11.1079 54.3229 11.1079L54.3115 11.1414Z" fill="white"/>
<path d="M71.9442 11.4653C72.2639 11.4653 72.5494 11.5546 72.8007 11.7221C73.0519 11.8895 73.2118 12.1351 73.3031 12.4477L78.4307 28.4115H74.4337L70.825 15.9307C70.7565 15.674 70.688 15.3949 70.6194 15.1046C70.5509 14.8144 70.4938 14.5465 70.4367 14.2785H69.7401C69.6944 14.5353 69.6373 14.8144 69.5688 15.1046C69.5117 15.3949 69.4318 15.6628 69.3518 15.9307L65.7431 28.4115H61.7461L66.8737 12.4477C66.9536 12.1351 67.1249 11.8895 67.3762 11.7221C67.6274 11.5546 67.9129 11.4653 68.2327 11.4653H71.9442ZM74.6621 21.1106V23.9126H65.4919V21.1106H74.6621Z" fill="white"/>
<path d="M98.3466 11.4653C99.2716 11.4653 99.7512 11.923 99.7855 12.8384L100.448 28.4115H96.8391L96.2453 14.3343H95.7885L92.9449 24.9173C92.7964 25.7099 92.2825 26.1007 91.4032 26.1007H88.9479C88.08 26.1007 87.5546 25.7099 87.3833 24.9173L84.5169 14.3343H84.083L83.5462 28.4115H79.9375L80.577 12.8384C80.6227 11.923 81.1138 11.4653 82.0388 11.4653H85.7046C86.5383 11.4653 87.0522 11.8561 87.2463 12.6487L89.5303 21.1999C89.6331 21.5906 89.713 21.9925 89.7815 22.3944C89.8501 22.7963 89.93 23.1982 90.01 23.6112H90.3411C90.4211 23.1982 90.5124 22.7963 90.581 22.3944C90.6495 21.9925 90.7408 21.5906 90.8208 21.1776L93.0705 12.6598C93.2418 11.8784 93.7671 11.4765 94.6351 11.4765H98.3466V11.4653Z" fill="white"/>
<path d="M126.201 11.4653L123.3 27.3845C123.254 27.6747 123.094 27.9203 122.843 28.1212C122.592 28.3222 122.284 28.4115 121.918 28.4115H118.275C117.921 28.4115 117.601 28.311 117.339 28.1212C117.076 27.9203 116.928 27.6747 116.893 27.3621L114.895 16.3103C114.849 15.9531 114.792 15.5847 114.746 15.2163C114.701 14.8479 114.644 14.4795 114.598 14.1222H114.107C114.073 14.4795 114.027 14.8479 113.981 15.2274C113.936 15.607 113.879 15.9754 113.833 16.3326L111.857 27.3621C111.812 27.6747 111.652 27.9315 111.378 28.1212C111.115 28.3222 110.807 28.4115 110.464 28.4115H106.798C106.444 28.4115 106.136 28.311 105.873 28.1212C105.622 27.9203 105.462 27.6747 105.416 27.3845L102.516 11.4653H106.433L108.283 23.254C108.328 23.6112 108.374 24.0019 108.408 24.415C108.443 24.828 108.477 25.2522 108.511 25.7211H109.002C109.071 25.3304 109.139 24.9173 109.219 24.482C109.299 24.0466 109.356 23.6447 109.413 23.2651L111.389 12.604C111.423 12.2579 111.572 11.99 111.823 11.7779C112.074 11.577 112.383 11.4653 112.748 11.4653H115.98C116.334 11.4653 116.642 11.5658 116.893 11.7779C117.145 11.9789 117.293 12.2579 117.339 12.604L119.314 23.2875C119.383 23.6782 119.452 24.0912 119.52 24.5043C119.589 24.9285 119.646 25.3304 119.703 25.7211H120.217C120.251 25.3304 120.285 24.9173 120.331 24.4931C120.377 24.0689 120.411 23.6782 120.445 23.3098L122.295 11.4765H126.212L126.201 11.4653Z" fill="white"/>
<path d="M135.634 11.1191C137.038 11.1191 138.226 11.2643 139.197 11.5434C140.167 11.8336 140.955 12.3025 141.538 12.9723C142.132 13.6309 142.554 14.5352 142.828 15.6738C143.102 16.8125 143.239 18.2303 143.239 19.9383C143.239 21.6463 143.102 23.0417 142.828 24.1804C142.554 25.3191 142.12 26.2233 141.538 26.8931C140.944 27.563 140.167 28.043 139.197 28.3221C138.226 28.6012 137.038 28.7351 135.634 28.7351C134.229 28.7351 133.041 28.6012 132.071 28.3221C131.1 28.043 130.312 27.5741 129.707 26.8931C129.113 26.2233 128.679 25.3191 128.416 24.1804C128.154 23.0417 128.017 21.624 128.017 19.9383C128.017 18.2526 128.154 16.8125 128.416 15.6738C128.679 14.5352 129.113 13.6309 129.707 12.9723C130.301 12.3136 131.089 11.8336 132.071 11.5434C133.041 11.2531 134.229 11.1191 135.634 11.1191ZM135.634 14.0663C134.732 14.0663 134.024 14.2338 133.521 14.5798C133.019 14.9259 132.653 15.5176 132.448 16.3771C132.231 17.2256 132.128 18.4201 132.128 19.9383C132.128 21.4565 132.231 22.6175 132.448 23.4771C132.665 24.3255 133.019 24.9284 133.521 25.2744C134.024 25.6205 134.732 25.788 135.634 25.788C136.536 25.788 137.221 25.6205 137.735 25.2744C138.249 24.9284 138.603 24.3367 138.809 23.4771C139.014 22.6287 139.117 21.4454 139.117 19.9383C139.117 18.4312 139.014 17.2256 138.809 16.3771C138.603 15.5287 138.249 14.9259 137.735 14.5798C137.221 14.2338 136.525 14.0663 135.634 14.0663Z" fill="white"/>
<path d="M161.18 11.4653V27.0607C161.18 27.965 160.712 28.4115 159.776 28.4115H157.629C157.206 28.4115 156.886 28.3222 156.669 28.1324C156.452 27.9426 156.247 27.6635 156.041 27.284L151.142 18.3644C150.936 17.9848 150.731 17.5718 150.537 17.1252C150.343 16.6787 150.171 16.2321 150.034 15.8079H149.749C149.794 16.2321 149.84 16.6787 149.874 17.1364C149.909 17.5941 149.92 18.0406 149.92 18.4648V28.4115H146.231V12.8161C146.231 11.9119 146.7 11.4653 147.636 11.4653H149.76C150.171 11.4653 150.48 11.5546 150.697 11.7444C150.914 11.9342 151.119 12.2021 151.325 12.5705L156.064 21.2111C156.281 21.5906 156.509 22.0037 156.726 22.4614C156.943 22.9191 157.149 23.3991 157.343 23.8903H157.651C157.617 23.3991 157.583 22.9191 157.549 22.4502C157.514 21.9813 157.503 21.5236 157.503 21.0659V11.4653H161.169H161.18Z" fill="white"/>
<path d="M170.567 11.1414C171.435 11.1414 172.383 11.1861 173.411 11.2754C174.438 11.3647 175.432 11.5433 176.403 11.8L176.151 14.3007C175.398 14.2672 174.518 14.2448 173.513 14.2225C172.508 14.2002 171.515 14.2002 170.544 14.2002C170.065 14.2002 169.665 14.2114 169.322 14.2448C168.991 14.2783 168.717 14.3453 168.511 14.4458C168.306 14.5463 168.157 14.7026 168.077 14.9258C167.986 15.1491 167.952 15.4505 167.952 15.8189C167.952 16.3882 168.089 16.8124 168.374 17.0692C168.66 17.326 169.14 17.5716 169.825 17.7837L173.239 18.8442C174.655 19.3019 175.638 19.9271 176.186 20.7085C176.734 21.4899 177.008 22.5282 177.008 23.8008C177.008 24.772 176.894 25.5646 176.654 26.2121C176.414 26.8484 176.037 27.3508 175.523 27.708C175.009 28.0652 174.336 28.322 173.502 28.4783C172.668 28.6346 171.641 28.7127 170.43 28.7127C169.848 28.7127 169.025 28.6792 167.94 28.6011C166.867 28.5229 165.645 28.3443 164.275 28.0429L164.503 25.386C165.531 25.3972 166.41 25.4195 167.141 25.453C167.872 25.4753 168.511 25.4976 169.037 25.4976C169.562 25.4976 170.03 25.5088 170.419 25.5088C171.115 25.5088 171.663 25.4641 172.04 25.386C172.428 25.3079 172.691 25.1404 172.851 24.8948C172.999 24.6492 173.079 24.292 173.079 23.8343C173.079 23.4212 173.022 23.1087 172.908 22.8742C172.794 22.6398 172.611 22.4612 172.36 22.3049C172.109 22.1486 171.766 22.0258 171.355 21.9142L167.769 20.742C166.399 20.2843 165.439 19.6703 164.891 18.9C164.332 18.1297 164.058 17.1027 164.058 15.8301C164.058 14.8588 164.183 14.0662 164.434 13.4522C164.686 12.8271 165.063 12.3471 165.576 12.0122C166.09 11.6772 166.764 11.4428 167.586 11.3089C168.42 11.1749 169.414 11.1079 170.567 11.1079V11.1414Z" fill="white"/>
<path d="M192.962 11.4653V14.4125H178.401V11.4653H192.962ZM187.629 11.4653V28.4115H183.735V11.4653H187.629Z" fill="white"/>
<path d="M198.831 11.387C199.768 11.387 200.727 11.387 201.698 11.3982C202.669 11.3982 203.628 11.4317 204.564 11.454C205.501 11.4875 206.38 11.5433 207.202 11.6214L207.02 14.3453H200.225C199.791 14.3453 199.482 14.4458 199.265 14.6467C199.048 14.8477 198.946 15.1714 198.946 15.5956V24.2362C198.946 24.6492 199.048 24.9618 199.265 25.1739C199.482 25.386 199.802 25.4976 200.225 25.4976H207.02L207.202 28.2215C206.38 28.2885 205.501 28.3332 204.564 28.3667C203.628 28.4002 202.669 28.4225 201.698 28.4336C200.727 28.4336 199.768 28.4336 198.831 28.4336C197.701 28.4336 196.799 28.1211 196.102 27.4959C195.405 26.8708 195.051 26.0558 195.04 25.0399V14.7695C195.063 13.7425 195.417 12.9164 196.102 12.2912C196.799 11.6661 197.701 11.3535 198.831 11.3535V11.387ZM195.497 18.2637H206.083V20.9206H195.497V18.2637Z" fill="white"/>
<path d="M213.643 11.387C214.579 11.387 215.539 11.387 216.509 11.3982C217.48 11.3982 218.439 11.4317 219.376 11.454C220.312 11.4875 221.192 11.5433 222.014 11.6214L221.831 14.3453H215.036C214.602 14.3453 214.294 14.4458 214.077 14.6467C213.86 14.8477 213.757 15.1714 213.757 15.5956V24.2362C213.757 24.6492 213.86 24.9618 214.077 25.1739C214.294 25.386 214.614 25.4976 215.036 25.4976H221.831L222.014 28.2215C221.192 28.2885 220.312 28.3332 219.376 28.3667C218.439 28.4002 217.48 28.4225 216.509 28.4336C215.539 28.4336 214.579 28.4336 213.643 28.4336C212.512 28.4336 211.61 28.1211 210.914 27.4959C210.217 26.8708 209.863 26.0558 209.852 25.0399V14.7695C209.874 13.7425 210.228 12.9164 210.914 12.2912C211.61 11.6661 212.512 11.3535 213.643 11.3535V11.387ZM210.308 18.2637H220.895V20.9206H210.308V18.2637Z" fill="white"/>
<path d="M228.661 11.4653V24.1359C228.661 24.5489 228.775 24.8503 229.015 25.0736C229.255 25.2857 229.598 25.3974 230.043 25.3974H236.221L236.404 28.2217C235.193 28.3334 233.926 28.4003 232.601 28.4338C231.276 28.4673 229.963 28.4673 228.673 28.4673C227.382 28.4673 226.4 28.1436 225.749 27.4849C225.098 26.8263 224.778 25.989 224.778 24.9508V11.4653H228.673H228.661Z" fill="white"/>
</svg>
