<svg width="164" height="47" viewBox="0 0 164 47" fill="none" xmlns="http://www.w3.org/2000/svg">
<path d="M72.0936 24.5855H55.7242C54.9904 24.5855 53.5281 24.9709 53.2872 24.9709C52.7998 24.9709 51.0692 24.2924 50.2148 23.8092C50.2148 23.4455 50.3627 22.8647 50.6037 22.8647C51.0911 22.8647 53.6541 23.109 55.7242 23.109H60.4559V21.2741C60.4559 20.9864 60.434 20.8398 60.2369 20.6933L59.5797 20.3079C59.5797 20.0419 59.7988 19.4881 60.0452 19.4881C60.6312 19.4881 61.9456 19.6347 62.3399 19.7541C62.6082 19.8519 62.7068 19.9984 62.7068 20.259C62.7068 20.5033 62.6575 21.0353 62.6356 21.5401L62.5863 23.109H67.2961C68.3202 23.109 69.3224 22.6475 69.8099 22.6475C70.5437 22.6475 72.0059 22.9135 72.1757 23.1795C72.3948 23.5432 72.2962 24.3141 72.1045 24.5801L72.0936 24.5855ZM51.7264 20.2807C54.1634 19.6781 57.9477 17.3059 60.3628 14.3311C60.6093 13.9945 60.6312 13.8479 60.4833 13.6796C60.3628 13.5114 59.9685 13.0282 59.7769 12.8328C59.8754 12.6374 60.1164 12.252 60.2916 12.252C60.7079 12.252 62.7287 13.1205 63.0463 13.2671C63.3147 13.4137 63.4352 13.5602 63.4352 13.7014C63.4352 13.8968 63.364 14.0868 63.0683 14.4776C62.7506 14.9119 62.4111 15.3245 62.066 15.7099L65.215 16.991C65.9215 17.2842 67.1428 17.5013 67.7288 17.8107C68.386 18.1745 69.4867 19.0213 69.8756 19.4067C70.2151 19.7433 69.536 20.5413 69.0979 20.7856C67.099 19.6021 63.8021 17.979 61.0255 16.7739C58.0517 19.6293 54.5851 21.1004 52.3178 21.1764C52.17 21.0787 51.5347 20.3296 51.7318 20.2807H51.7264ZM67.9478 34.6662H57.5315C57.4329 34.9322 57.285 35.1982 57.066 35.4154H56.2883C55.9981 34.9539 55.7297 34.3731 55.653 33.2657L55.3135 28.8415C55.2916 28.5755 54.607 28.3095 54.3387 28.114C54.388 27.7775 54.6289 27.1695 54.7549 27.1695C55.3409 27.1695 56.951 27.2183 57.5862 27.2183H64.5141C64.9303 27.2183 65.6094 27.0012 65.8339 27.0012C66.2008 27.0012 66.9566 27.1206 67.2249 27.1695C67.5426 27.2401 67.7616 27.5549 67.7397 27.9186L67.3016 32.6577L67.1318 33.1897L68.0574 33.5263C68.1559 33.6457 68.0355 34.3948 67.9588 34.6608L67.9478 34.6662ZM65.2917 28.646H57.6301V33.2168H65.2643L65.2862 28.646H65.2917Z" fill="white"/>
<path d="M93.0252 13.1477C93.0252 13.392 92.954 14.0923 92.954 14.4777L92.9047 31.2355C92.9047 32.902 92.4173 34.7912 92.0504 35.296H91.1468C90.9003 34.8346 90.6813 33.3363 90.6813 32.0063V25.7907C87.6801 26.757 81.1905 27.9404 78.7534 27.9404C78.1674 27.9404 76.9461 26.5398 76.9461 26.0078L76.8749 17.3005C76.8749 17.1811 76.8038 17.1051 76.6066 16.9857L75.5332 16.1877C75.5332 15.9217 75.8235 15.292 76.1192 15.292C76.5354 15.292 78.0962 15.5091 78.6055 15.6774C78.9725 15.7968 79.1422 15.8945 79.1422 16.28C79.1422 16.5677 79.1203 16.9585 79.1203 17.2951V25.9753C81.7819 25.9753 87.8992 25.1284 90.6813 24.3793V14.4397C90.6813 14.1248 90.5115 13.9566 90.3417 13.81L89 12.746C89.0712 12.3334 89.3395 11.8774 89.5586 11.8774C90.1665 11.8774 92.0449 12.3606 92.6802 12.6266C92.9485 12.746 93.0197 12.8709 93.0197 13.1314L93.0252 13.1477Z" fill="white"/>
<path d="M109.46 27.2183H111.826C112.242 27.2183 112.921 27.0012 113.146 27.0012C113.513 27.0012 114.268 27.1206 114.537 27.1695C114.854 27.24 115.073 27.5549 115.051 27.9186L114.613 32.6577L114.444 33.1897L115.369 33.5262C115.468 33.6457 115.347 34.3948 115.27 34.6608H104.854C104.756 34.9268 104.608 35.1928 104.389 35.4099H103.611C103.321 34.9485 103.052 34.3676 102.976 33.2602L102.636 28.836C102.614 28.57 101.93 28.304 101.661 28.1086C101.711 27.772 101.952 27.164 102.078 27.164C102.664 27.164 104.274 27.2129 104.909 27.2129H107.713C107.614 26.8492 107.543 26.4366 107.543 26.0295V24.6289H103.052C102.318 24.6289 100.856 25.0143 100.615 25.0143C100.128 25.0143 98.3973 24.3629 97.543 23.8798C97.543 23.5432 97.6908 22.9352 97.9318 22.9352C98.4192 22.9352 100.982 23.1795 103.052 23.1795H114.613C115.637 23.1795 116.64 22.7181 117.127 22.7181C117.861 22.7181 119.323 22.9841 119.493 23.2501C119.712 23.6138 119.613 24.3629 119.422 24.6289H109.788L109.767 25.8395C109.745 26.3497 109.646 26.8329 109.476 27.2183H109.46ZM102.899 17.257C102.899 14.6948 105.144 12.8545 108.556 12.8545C111.968 12.8545 114.214 14.6893 114.214 17.257C114.214 19.8247 111.968 21.6812 108.556 21.6812C105.144 21.6812 102.899 19.8464 102.899 17.257ZM104.947 28.646V33.2168H112.581L112.603 28.646H104.942H104.947ZM105.024 17.257C105.024 18.9724 106.514 20.0635 108.562 20.0635C110.61 20.0635 112.121 18.9778 112.121 17.257C112.121 15.5362 110.61 14.4505 108.562 14.4505C106.514 14.4505 105.024 15.5633 105.024 17.257Z" fill="white"/>
<path d="M124.263 31.7402C123.775 31.7402 122.045 31.0888 121.19 30.5785C121.19 30.2148 121.338 29.5851 121.579 29.5851C122.067 29.5851 124.63 29.8294 126.7 29.8294H138.261C139.285 29.8294 140.287 29.3951 140.774 29.3951C141.508 29.3951 142.971 29.6611 143.14 29.9054C143.359 30.2691 143.261 31.0888 143.069 31.3548H126.7C125.966 31.3548 124.504 31.7402 124.263 31.7402ZM125.583 23.6626L125.533 16.5567C125.533 16.3884 125.462 16.193 125.287 16.0247C125.216 15.9541 124.728 15.661 124.361 15.471C124.339 15.1561 124.58 14.5536 124.799 14.5536C125.166 14.5536 127.017 14.6513 127.773 14.7219H135.041C135.796 14.7219 136.53 14.3582 137.116 14.3582C137.702 14.3582 138.704 14.4559 138.967 14.6242C139.285 14.8196 139.214 15.9813 138.819 16.2201H127.844V19.5098H135.09C135.747 19.5098 136.382 19.2167 136.799 19.2167C137.357 19.2167 138.091 19.2167 138.48 19.3632C138.896 19.5098 138.869 20.5466 138.409 20.8886H127.844V23.478C127.844 24.0806 128.233 24.2489 128.721 24.2489H135.26C136.087 24.2489 136.799 23.8852 137.335 23.8852C137.872 23.8852 138.918 23.9557 139.214 24.1512C139.553 24.3466 139.433 25.4812 139.142 25.72C138.316 25.72 137.018 25.7417 135.851 25.7417L128.02 25.7634C126.53 25.7634 125.583 24.9654 125.583 23.6572V23.6626Z" fill="white"/>
<path d="M164 13.1478C164 13.3921 163.929 14.0924 163.929 14.4778L163.88 31.2356C163.88 32.9022 163.393 34.7913 163.026 35.2961H162.122C161.876 34.8347 161.657 33.3364 161.657 32.0065V26.9525C158.047 28.1142 151.092 29.3248 149.827 29.3248C148.874 29.3248 147.609 27.8482 147.609 27.4628L147.587 22.626C147.587 22.1157 147.001 21.8063 146.76 21.6814C146.76 21.5349 146.93 20.7857 147.149 20.7857C147.538 20.7857 149.367 20.9052 149.855 20.9052H154.805C154.827 20.0366 154.855 17.6915 154.855 16.7687H150.61C149.975 16.7687 149.389 16.9641 149.099 16.9641C148.661 16.9641 147.319 16.4321 146.755 16.0467C146.804 15.6341 147.001 15.1021 147.171 15.1021C147.489 15.1021 149.34 15.2487 150.61 15.2487H153.831C154.367 15.2487 155.024 15.0315 155.271 15.0315C155.786 15.0315 156.613 15.1781 156.881 15.227C157.171 15.2758 157.297 15.4712 157.27 15.8295C157.221 16.4809 156.804 20.422 156.635 21.0517C156.952 21.1223 157.122 21.4155 157.122 21.6543C157.122 21.9692 156.952 22.3057 156.536 22.3057H149.855V27.3597C151.487 27.4574 158.321 26.6594 161.662 25.5954V14.4507C161.662 14.1358 161.492 13.9675 161.322 13.821L159.981 12.757C160.052 12.3444 160.32 11.8884 160.539 11.8884C161.147 11.8884 163.026 12.3716 163.661 12.6376C163.929 12.757 164 12.8818 164 13.1424V13.1478Z" fill="white"/>
<path d="M20.1536 0C9.02531 0 0 8.94617 0 19.9769C0 27.1914 3.8719 33.4939 9.64964 37.0007V27.3271L20.3617 18.3538L30.6521 27.3271V37.0007C36.4353 33.4884 40.3017 27.1859 40.3017 19.9769C40.3017 8.94617 31.2764 0 20.1481 0H20.1536Z" fill="white"/>
<path d="M14.2012 46.9999V44.7254H19.0096V38.4175L15.6251 37.0169L16.5123 34.9161L19.4148 36.1212L19.8365 36.1429H19.968L23.0512 32.6252L24.7818 34.1181L21.3042 38.0863V44.7254H26.1126V46.9999H14.2012Z" fill="white"/>
</svg>
