<svg xmlns="http://www.w3.org/2000/svg" xmlns:xlink="http://www.w3.org/1999/xlink" width="135.119" height="37.376" viewBox="0 0 135.119 37.376">
  <defs>
    <clipPath id="clip-path">
      <rect id="사각형_16" data-name="사각형 16" width="135.119" height="37.376" transform="translate(0 0)" fill="none"/>
    </clipPath>
  </defs>
  <g id="로고" transform="translate(0 0)">
    <g id="그룹_1" data-name="그룹 1" clip-path="url(#clip-path)">
      <path id="패스_1" data-name="패스 1" d="M.073,27.75s.04.1.121.271c.6,1.279,3.43,6.61,8.486,5.729,5.738-1,1.912-8,1.912-8S-1.84,5.75,19.2.75c0,0,11.476-3,15.3,3,0,0-9.563-4-11.476,0-1.311,3.428.525,5.446,2.425,7.665a13.876,13.876,0,0,1,3.345,7.955c.3,4,0,9.364-7.682,13.38,0,0,5.179-4.652-2.67-15.826a6.655,6.655,0,0,0,.239,4.863,13.089,13.089,0,0,1,.9,2.65c.708,3.438.721,6.875-4.21,10.313-7.651,5-16.257-1-15.3-7" fill="#317039"/>
      <path id="패스_2" data-name="패스 2" d="M39.568,33.536A1.656,1.656,0,0,1,40.816,34a1.577,1.577,0,0,1,.448,1.136,1.56,1.56,0,0,1-.448,1.152,1.687,1.687,0,0,1-1.248.448H33.392a1.642,1.642,0,0,1-1.216-.448,1.556,1.556,0,0,1-.448-1.152A1.573,1.573,0,0,1,32.176,34a1.613,1.613,0,0,1,1.216-.464H34.7V17.216H33.52a1.642,1.642,0,0,1-1.216-.448,1.556,1.556,0,0,1-.448-1.152A1.573,1.573,0,0,1,32.3,14.48a1.613,1.613,0,0,1,1.216-.464h5.92a1.656,1.656,0,0,1,1.248.464,1.577,1.577,0,0,1,.448,1.136,1.56,1.56,0,0,1-.448,1.152,1.687,1.687,0,0,1-1.248.448H38.288v16.32Z" fill="#362f2d"/>
      <path id="패스_3" data-name="패스 3" d="M60.112,35.392a1.653,1.653,0,0,1-.448,1.2,2.087,2.087,0,0,1-2.624,0,1.653,1.653,0,0,1-.448-1.2V20.96a4.673,4.673,0,0,0-1.056-3.152,4.21,4.21,0,0,0-5.952,0,4.673,4.673,0,0,0-1.056,3.152V35.392a1.594,1.594,0,0,1-.48,1.2,2.178,2.178,0,0,1-2.688,0,1.594,1.594,0,0,1-.48-1.2V20.64a7.564,7.564,0,0,1,.544-2.9,6.931,6.931,0,0,1,1.52-2.3A6.843,6.843,0,0,1,49.3,13.92a8.123,8.123,0,0,1,3.008-.544,7.785,7.785,0,0,1,3.584.832,6.026,6.026,0,0,1,2.464,2.176,6.019,6.019,0,0,1,2.464-2.176,7.782,7.782,0,0,1,3.584-.832,8.127,8.127,0,0,1,3.008.544,6.853,6.853,0,0,1,2.352,1.52,6.962,6.962,0,0,1,1.52,2.3,7.583,7.583,0,0,1,.544,2.9V35.392a1.594,1.594,0,0,1-.48,1.2,2.178,2.178,0,0,1-2.688,0,1.594,1.594,0,0,1-.48-1.2V20.96a4.673,4.673,0,0,0-1.056-3.152,4.21,4.21,0,0,0-5.952,0,4.673,4.673,0,0,0-1.056,3.152Z" fill="#362f2d"/>
      <path id="패스_4" data-name="패스 4" d="M75.983,17.313a3.427,3.427,0,0,1,.8-2.464,3.37,3.37,0,0,1,2.528-.832h4.9a8,8,0,0,1,2.9.512A6.184,6.184,0,0,1,89.359,16a6.936,6.936,0,0,1,1.456,2.288,7.947,7.947,0,0,1,.528,2.96,7.947,7.947,0,0,1-.528,2.96,6.754,6.754,0,0,1-1.456,2.272A6.293,6.293,0,0,1,87.1,27.937a8,8,0,0,1-2.9.512H79.695V35.3a1.728,1.728,0,0,1-.5,1.248,2.062,2.062,0,0,1-2.72,0,1.724,1.724,0,0,1-.5-1.248Zm3.712,7.936h4.128a3.562,3.562,0,0,0,2.784-1.136,4.114,4.114,0,0,0,1.024-2.864,4.139,4.139,0,0,0-1.04-2.88,3.547,3.547,0,0,0-2.768-1.152H79.695Z" fill="#362f2d"/>
      <path id="패스_5" data-name="패스 5" d="M105.423,13.376a12.184,12.184,0,0,1,4.88.96,11.9,11.9,0,0,1,3.824,2.592,11.745,11.745,0,0,1,2.5,3.824,12.421,12.421,0,0,1,0,9.264,11.69,11.69,0,0,1-6.32,6.4,12.924,12.924,0,0,1-9.776,0,12.015,12.015,0,0,1-3.856-2.592,11.647,11.647,0,0,1-2.512-3.808,12.421,12.421,0,0,1,0-9.264,11.612,11.612,0,0,1,2.512-3.824,12.015,12.015,0,0,1,3.856-2.592,12.3,12.3,0,0,1,4.9-.96m0,20.8a8.488,8.488,0,0,0,3.408-.672,7.843,7.843,0,0,0,2.656-1.856,8.406,8.406,0,0,0,1.712-2.784,10.263,10.263,0,0,0,0-6.96,8.388,8.388,0,0,0-1.712-2.8,7.857,7.857,0,0,0-2.656-1.856,8.978,8.978,0,0,0-6.816,0A8.022,8.022,0,0,0,99.343,19.1,8.462,8.462,0,0,0,97.6,21.9a10.016,10.016,0,0,0,0,6.96,8.482,8.482,0,0,0,1.744,2.784,8.008,8.008,0,0,0,2.672,1.856,8.482,8.482,0,0,0,3.408.672" fill="#362f2d"/>
      <path id="패스_6" data-name="패스 6" d="M121.039,15.457a1.724,1.724,0,0,1,.5-1.248,2.062,2.062,0,0,1,2.72,0,1.728,1.728,0,0,1,.5,1.248V31.745a1.937,1.937,0,0,0,.416,1.312,1.443,1.443,0,0,0,1.152.48h7.2a1.592,1.592,0,0,1,1.152.432,1.545,1.545,0,0,1,.448,1.168,1.43,1.43,0,0,1-.528,1.168,1.688,1.688,0,0,1-1.072.432h-7.936a4.488,4.488,0,0,1-3.3-1.232,4.749,4.749,0,0,1-1.248-3.536Z" fill="#362f2d"/>
    </g>
  </g>
</svg>
