<svg width="78" height="78" viewBox="0 0 78 78" fill="none" xmlns="http://www.w3.org/2000/svg">
<path d="M71.9937 19.4168C72.0787 16.8095 71.2854 14.7451 71.3704 12.3123C71.3798 11.9827 69.2928 9.55962 68.424 9.53054C68.1218 9.52085 65.4398 9.91824 65.0998 9.90855C64.2971 9.88916 60.6802 9.52085 58.6121 9.52085C57.6583 9.52085 55.2312 9.327 53.7675 9.19131C53.5125 9.16223 49.6973 9.64685 49.3762 9.62747C47.1475 9.54993 44.0689 9.18162 43.2001 9.08469C42.3785 8.98777 36.5895 9.77285 35.2863 9.8407C33.7942 9.92793 32.6232 9.64685 31.2066 9.42393C29.6484 9.18162 18.5333 10.1799 18.2405 10.1799C17.9006 10.1799 17.0129 10.5967 17.0318 10.965C17.0601 11.4884 16.2952 14.0569 16.5596 14.6772C17.2301 16.2474 17.1923 19.4071 17.1451 21.0742C17.0884 23.1774 17.4095 25.1159 17.7211 27.4615C17.8817 28.5955 17.8911 31.5226 18.0611 32.9668C18.1556 33.7809 18.0706 35.1476 18.0611 35.952C18.0422 39.1214 18.3633 41.6318 18.6844 44.84C18.8544 46.6234 19.5343 52.9428 19.5721 54.765C19.5721 55.0945 19.6288 55.3271 19.7043 55.5016L19.9782 56.9845C19.9782 56.9845 19.5154 57.5564 20.3465 58.7776C20.3465 58.7776 20.6298 59.9116 22.0935 60.1927L22.9151 59.9116L24.4545 60.028L25.1249 60.1927L25.5782 60.0861C27.5425 60.2315 30.6967 60.6386 31.2728 60.6386C31.9527 60.6386 34.748 60.3381 35.4657 60.3381C36.1834 60.3381 41.0375 60.5126 41.7646 60.5126C42.4446 60.5223 45.2021 60.3769 45.8915 60.3866C46.5998 60.3866 56.3834 60.7064 57.0633 60.7161C57.7716 60.7258 63.3811 60.6773 63.9855 60.687C64.5427 60.6967 66.1198 59.9213 67.1491 59.9019C67.1491 59.7275 68.6129 57.4498 68.6318 57.2172C68.934 54.8037 68.509 55.4241 68.8301 53.5728C69.3306 50.6457 68.4051 47.0111 69.0662 44.5395C69.2361 43.9095 70.4733 33.5774 70.5394 32.9668C70.8888 29.6132 71.446 28.9638 71.4176 25.6199C71.4176 25.2613 71.3232 22.8964 71.3326 22.499C71.3515 22.0822 71.9654 19.8239 71.9842 19.4071L71.9937 19.4168Z" fill="#005DA4"/>
<path d="M65.5343 14.2119C65.3832 15.0358 65.251 15.8499 65.1094 16.6738C65.8554 16.8773 66.592 17.0712 67.3286 17.2844C67.4514 16.4606 67.5836 15.6464 67.7158 14.8322C66.9792 14.619 66.2615 14.4155 65.5249 14.2119H65.5343Z" fill="white"/>
<path d="M64.071 22.9933C64.1371 23.5749 64.2126 24.1661 64.2787 24.738C64.8265 24.738 65.3647 24.7186 65.903 24.7186C65.818 24.137 65.7425 23.5555 65.6669 22.9836C65.1287 22.9836 64.5904 22.9836 64.0615 22.9836L64.071 22.9933Z" fill="white"/>
<path d="M33.0385 16.2183C32.3963 16.0826 31.7447 15.9372 31.1025 15.8015C31.1214 16.5575 31.1403 17.3135 31.1498 18.0695C31.7636 18.0986 32.368 18.1374 32.9724 18.1955C33.0007 17.5365 33.0196 16.8871 33.0385 16.2183Z" fill="white"/>
<path d="M21.1969 14.0666C21.348 14.9874 21.5086 15.9082 21.6502 16.8289C22.4246 16.7708 23.1895 16.7126 23.9545 16.6739C23.7939 15.7628 23.6334 14.842 23.4729 13.9309C22.7079 13.9794 21.9524 14.0181 21.1875 14.0666H21.1969Z" fill="white"/>
<path d="M26.4473 22.0337C26.5323 22.7219 26.6173 23.4003 26.6928 24.0788C27.3255 24.0691 27.9677 24.0594 28.6004 24.0594C28.506 23.3809 28.4115 22.7025 28.3265 22.0337C27.7127 22.0337 27.08 22.0337 26.4473 22.0337Z" fill="white"/>
<path d="M57.4414 17.2167C57.517 17.7982 57.5831 18.3797 57.6586 18.9613C58.2063 18.9516 58.7446 18.9419 59.2829 18.9419C59.2074 18.3604 59.1224 17.7788 59.0563 17.1973C58.518 17.1973 57.9797 17.1973 57.4414 17.207V17.2167Z" fill="white"/>
<path d="M25.248 32.24C25.3049 32.3078 25.3712 32.366 25.4376 32.4241Z" fill="#BBAB7D"/>
<path d="M38.3267 25.1353C38.204 24.641 37.1085 25.1547 36.4002 25.271C35.9658 25.3389 35.3803 25.6005 34.9743 25.649C34.4643 25.7072 33.6427 25.9495 33.3877 26.4729C33.2272 26.783 33.6899 26.909 33.8882 27.0156C34.2471 27.2095 34.6343 27.4324 34.7854 27.8589C34.927 28.2563 34.9365 28.7409 35.012 29.1577C35.1065 29.652 35.1631 30.156 35.267 30.6503C35.3614 31.1155 35.2292 31.6098 35.3331 32.046C35.4464 32.5112 35.7392 33.2769 35.8525 33.6355C36.0603 34.2656 36.0225 34.2849 36.2114 34.3528C36.8535 34.5757 37.5429 34.4012 38.3551 34.4885C38.78 34.5272 39.1861 34.7696 39.7527 34.8277C40.2155 34.8762 41.9153 34.944 42.4158 35.0022C42.888 35.0506 43.3791 35.0603 43.8796 35.1088C44.3518 35.1573 44.8523 35.0022 45.3434 35.0603C45.8439 35.1088 46.3538 35.1573 46.8638 35.2154C47.3549 35.2736 47.8554 35.2736 48.337 35.3317C48.8186 35.3802 49.2625 35.6613 49.7252 35.7C50.2163 35.7485 50.7168 35.5934 51.189 35.6419C51.4345 35.671 51.6706 35.6903 51.9161 35.7194C52.4922 35.7776 53.0683 35.8745 53.6443 35.8648C53.9182 35.8648 54.1354 36.0005 54.3998 36.0974C54.7209 36.2234 55.0514 36.301 55.3819 36.3494C55.6747 36.3979 55.8352 36.5627 56.0808 36.708C56.3357 36.8631 56.5341 36.7856 56.7324 36.5723C56.8363 36.456 56.874 36.33 56.959 36.204C57.044 36.078 57.1573 35.9714 57.2234 35.8357C57.2896 35.7 57.2801 35.5353 57.299 35.3899C57.3651 34.9246 57.4218 34.4691 57.4501 33.9942C57.469 33.7422 57.4218 33.5289 57.4879 33.2769C57.5634 33.0249 57.6673 32.7826 57.6862 32.5209C57.7145 32.0654 57.7145 31.6001 57.7428 31.1543C57.7806 30.6406 57.7428 30.1754 57.7712 29.7586C57.8278 28.9929 58.1773 28.1496 57.7995 28.1206C57.7051 28.1206 57.4029 28.0915 56.7513 27.8395C56.3641 27.6941 55.9297 27.7329 55.533 27.6553C55.3253 27.6166 55.1647 27.5003 54.9759 27.4324C54.7492 27.3549 54.4942 27.4712 54.2581 27.4809C54.0315 27.4809 53.8615 27.6456 53.6538 27.7329C53.5027 27.791 53.3043 27.791 53.2477 27.9946C53.191 28.2078 53.446 28.3047 53.5404 28.4501C53.6538 28.6149 53.6632 28.8863 53.7104 29.0801C53.8049 29.5357 53.9087 29.9912 54.0032 30.4467C54.0315 30.5921 54.0693 30.7472 54.0693 30.8926C54.0882 31.3288 54.0504 31.542 54.0409 31.8909C54.0126 32.4628 53.4082 32.1138 53.3232 32.3077C53.2666 32.4628 53.2949 32.6954 52.5205 32.6954C51.0851 32.7148 49.7158 32.5791 49.1586 32.5112C48.4786 32.4337 47.6665 32.4628 47.7515 32.1623C47.8554 31.8328 46.5521 32.3271 46.0611 32.2786C45.57 32.2398 45.1167 32.2786 44.6445 32.2301C44.1157 32.1817 43.8702 32.172 43.4074 32.0945C42.8502 31.9975 41.7359 32.172 41.1693 31.8812C40.9332 31.7649 40.1116 31.6874 40.0549 31.6777C39.4222 31.5614 39.6866 30.6987 39.2711 29.6229C39.0067 28.9347 39.3278 28.6052 39.0633 27.9267C38.7989 27.2289 38.8178 27.2676 38.5817 26.5504C38.3834 25.9398 38.459 25.6296 38.3267 25.1256V25.1353Z" fill="white"/>
<path d="M37.6954 43.7736C37.4876 43.4247 37.2704 43.0661 37.0627 42.7074C36.8738 42.3876 36.7794 41.9805 36.43 41.8739C36.0994 41.777 35.7595 41.6316 35.5045 41.3796C35.3345 41.2148 35.2306 40.9434 35.1362 40.7205C35.0323 40.4685 35.2684 40.2262 35.3723 40.0033C35.4667 39.8191 35.6084 39.6737 35.7878 39.5671C36.0239 39.4217 36.3733 39.3345 36.6377 39.286C37.1288 39.1988 37.6387 39.2569 38.1298 39.1503C38.3376 39.1116 38.6398 38.9759 38.8475 39.0825L39.0458 39.16C39.3197 39.3151 39.3103 39.6349 39.3764 39.9257C39.4519 40.2649 39.7352 40.6623 39.773 41.0016C39.8013 41.2051 39.8108 41.5443 39.9997 41.68C40.1319 41.777 40.3491 41.7285 40.5096 41.7285C41.1423 41.7285 41.7467 41.6316 42.37 41.6025C42.9933 41.5734 43.6071 41.4571 44.221 41.4087C44.4098 41.3893 44.5987 41.4668 44.7687 41.3699C45.0142 41.2342 45.2125 40.9822 45.4203 40.7883C45.5714 40.6526 45.6375 40.6526 45.6092 40.8756C45.5714 41.1276 46.393 41.147 46.5063 41.1373C46.9785 41.0791 47.4507 40.9822 47.9229 40.9143C48.3195 40.8562 48.735 40.8562 49.1222 40.7399C49.3488 40.672 49.5755 40.5266 49.6794 40.294C49.821 39.9645 49.6038 39.6446 49.5755 39.3151C49.5472 38.8402 50.0854 38.7142 50.4349 38.6269C50.6332 38.5882 50.8409 38.4525 51.0487 38.4719C51.332 38.4912 51.6342 38.6851 51.8892 38.8014C52.2008 38.9371 52.503 39.0825 52.8147 39.2376C53.2207 39.4314 53.9951 39.538 54.3256 39.7319C54.8073 40.0129 55.0528 40.2262 54.9961 40.4491C54.9206 40.7205 54.7884 41.4474 54.6751 41.9417C54.5806 42.3391 54.5617 42.785 54.439 43.1436C54.2501 43.7154 54.4012 43.7348 53.9385 44.045C53.3435 44.4424 53.0507 44.2388 52.1536 44.3164C51.7381 44.3454 50.8315 44.4424 50.2838 44.4908C49.821 44.5296 49.3866 44.6459 48.8672 44.6847C48.3856 44.7235 47.8945 44.6847 47.394 44.7235C46.9124 44.7622 46.3458 44.6265 45.8547 44.6556C45.3636 44.6944 44.882 44.6944 44.4098 44.7235C43.9376 44.7525 43.4749 44.7816 43.0216 44.8107C42.54 44.8398 42.0584 45.0239 41.624 45.053C41.0762 45.0821 40.5946 45.1112 40.1885 45.1208C39.5086 45.1402 38.5548 44.9658 38.4226 44.927C38.177 44.8398 38.0448 44.3842 37.6765 43.7736H37.6954Z" fill="white"/>
<path d="M48.7338 26.8994C48.6299 26.7056 48.4693 26.5311 48.3655 26.3566C48.1955 26.0949 47.9972 25.8914 47.7044 25.7848C47.4589 25.6879 47.1756 25.7654 46.9206 25.7848C46.5995 25.8139 46.1273 25.9495 45.8062 25.8623C45.674 25.8623 45.2018 25.746 45.0507 25.746C44.7674 25.8332 44.928 25.9689 44.8052 26.4826C44.6447 27.1805 44.7674 28.8573 44.6069 29.5454C44.4558 30.1851 44.248 30.5631 44.1064 31.2028C43.9553 31.8425 44.2008 32.773 44.0969 33.3933C43.9647 34.0815 43.9458 34.0621 43.8608 34.7599C43.7664 35.4481 43.332 35.3803 43.2376 36.0684C43.1526 36.7663 43.332 36.8147 43.247 37.5126C43.162 38.2007 43.0959 38.1911 43.0109 38.8792C42.9259 39.5577 42.7843 40.934 42.6898 41.6415C42.5954 42.3394 42.3404 42.2812 42.246 42.9694C42.161 43.6576 42.5954 43.7157 42.5104 44.4136C42.4254 45.1017 41.8588 46.4005 41.7738 47.0596C41.6794 47.8156 41.6133 48.4941 41.6888 49.2404C41.8116 50.5489 41.1033 51.2273 40.9616 52.3226C40.8861 52.9817 41.3772 53.0398 41.2922 53.6892C41.2166 54.3289 40.5839 54.4355 41.1033 54.8717C41.7171 55.4048 41.8494 55.2109 42.6709 55.2109C43.3887 55.2206 44.4841 55.4532 45.0224 55.0171C45.5701 54.5809 45.1263 54.0866 45.2302 53.4178C45.3341 52.7297 45.2868 52.7781 45.3813 52.09C45.4851 51.4115 45.3057 51.3824 45.4096 50.7136C45.504 50.0449 45.8629 48.717 45.9668 48.0191C46.0707 47.3407 46.184 47.3504 46.2879 46.6719C46.3917 45.9837 46.2501 45.8674 46.354 45.1793C46.4578 44.4911 45.9007 44.811 46.0045 44.1228C46.1084 43.4637 46.099 43.4637 46.2029 42.7949C46.2973 42.1165 46.1179 42.0777 46.2123 41.3992C46.3067 40.7402 46.8261 38.3655 46.93 37.7161C47.015 37.1249 47.0245 36.7857 47.1283 36.1847C47.2417 35.4869 47.1472 35.5935 47.2794 34.8859C47.4116 34.1784 47.4211 34.3432 47.5533 33.6356C47.6855 32.9572 47.7894 32.8602 47.9216 32.1818C48.0538 31.4839 47.9216 31.4064 48.0633 30.7085C48.1955 30.0204 48.2899 30.1754 48.4221 29.4873C48.4788 29.1771 48.5354 28.8767 48.6015 28.5762C48.6393 28.3339 48.696 28.0916 48.7526 27.859C48.8093 27.607 48.9132 27.3646 48.8376 27.1029C48.8188 27.0254 48.781 26.9576 48.7432 26.88L48.7338 26.8994Z" fill="white"/>
<path d="M25.7767 50.2872C25.9373 50.229 26.145 50.2484 26.315 50.2387C26.6078 50.229 26.8533 50.2872 27.1366 50.3163C27.5238 50.3647 27.9299 50.2872 28.3076 50.2484C29.8752 50.1224 31.4523 50.0933 33.02 50.103C33.9266 50.103 34.8426 50.1321 35.7586 50.1515C36.2119 50.1612 37.4018 50.2097 37.874 50.2193C38.3179 50.2193 38.7995 50.1806 39.2528 50.2C39.7061 50.2097 40.1971 50.3163 40.6693 50.3357C41.1132 50.355 41.557 50.4713 42.0198 50.4907C42.4731 50.5101 42.8508 50.3647 43.3041 50.3841C43.7763 50.3938 44.324 50.578 44.7962 50.5974C45.24 50.6167 45.6933 50.4229 46.1372 50.4423C46.5999 50.4617 47.0532 50.5683 47.5065 50.5877C47.9692 50.607 48.5642 50.3841 49.0269 50.4035C49.4708 50.4229 49.773 50.4617 50.1979 50.481C50.6512 50.5004 51.0951 50.4035 51.5295 50.4229C51.9733 50.452 52.4266 50.4035 52.8705 50.4229C53.3332 50.452 54.5892 50.704 55.0236 50.7233C55.4958 50.7427 55.1275 50.8106 55.5714 50.83C56.0058 50.859 56.4307 51.0626 56.8368 51.082C57.2807 51.1014 57.7056 50.83 58.1117 50.8494C58.4706 50.8687 58.8011 51.0529 59.1599 51.0432C59.4244 51.0432 59.6793 50.9366 59.9532 50.9366C60.5765 50.9366 61.2281 50.9947 61.8514 50.956C62.2858 50.9269 62.6163 50.83 63.0318 51.1014C63.6834 51.5375 63.4757 52.4098 63.4757 53.0689C63.4757 53.4663 63.3718 53.8928 63.3246 54.2902C63.2396 54.9105 63.3057 55.1915 62.8713 55.5308C62.3236 55.9572 62.3613 55.9379 61.4925 55.9282C61.0959 55.9282 60.9637 55.4242 60.4348 55.4145C57.9889 55.3757 56.6102 54.7651 54.0415 55.0559C53.2293 55.1431 51.4445 55.4339 50.689 55.4242C50.2168 55.4242 49.7541 55.5695 49.3197 55.5695C48.8286 55.5695 48.3659 55.4242 47.9409 55.4242C47.4404 55.4242 46.9966 55.3369 46.6188 55.3369C45.9294 55.3466 45.41 55.0074 45.2967 55.0365C43.3419 55.492 41.3776 54.9008 39.3661 54.9105C36.9108 54.9105 35.1448 55.3079 32.68 55.3272C32.2078 55.3272 31.6412 55.8119 31.2068 55.8119C30.7629 55.8119 29.7903 55.5889 29.4031 55.5889C28.9309 55.5889 28.5531 55.5792 28.2037 55.5792C27.4293 55.5792 27.6466 55.7925 27.2027 55.3563C26.6455 54.8039 26.8911 54.8814 26.6455 54.0575C26.5039 53.602 26.1733 53.1658 25.9373 52.7588C25.7767 52.4874 25.6162 52.2063 25.4651 51.9252C25.3801 51.7701 25.3234 51.6344 25.2668 51.4794C25.2479 51.4309 25.0684 51.0723 25.0873 51.0529C25.2195 50.8106 25.4556 50.5004 25.6917 50.3453C25.7201 50.326 25.7578 50.3066 25.7956 50.2969L25.7767 50.2872Z" fill="white"/>
<path d="M62.3707 36.7565C62.1346 36.4948 61.9174 36.204 61.5585 36.1265C61.3508 36.078 61.1524 36.1362 60.9541 36.1265C60.3214 36.078 60.3309 36.2137 60.1609 36.7662C60.057 37.0957 59.9248 37.4059 59.8587 37.7354C59.7548 38.2394 59.5942 38.695 59.4431 39.1796C59.2543 39.7514 59.3015 40.4105 59.0371 40.9533C58.7727 41.4864 58.4421 41.9904 58.1966 42.5428C57.4128 44.2681 57.4317 46.0321 56.8084 47.7186C56.5723 48.3583 56.4401 48.3098 56.204 48.9495C55.9679 49.5989 56.1001 49.6474 55.8546 50.2968C55.5618 51.1012 53.7486 53.1463 55.0141 53.3499C55.4579 53.4177 57.6205 53.2529 58.0644 53.3014C58.6216 53.3596 59.1598 52.5939 59.4904 52.1868C59.7831 51.8379 59.8776 51.3145 60.0192 50.8977C60.1703 50.4906 60.3781 50.0932 60.5292 49.6668C60.6803 49.2597 60.9069 48.872 61.0486 48.4552C61.2091 48.0287 61.4263 47.6217 61.5869 47.1855C61.738 46.759 61.8607 46.3326 62.0024 45.9352C62.1535 45.499 62.0874 44.995 62.229 44.5686C62.3801 44.1518 62.8051 43.8513 62.9373 43.4636C63.0884 43.0372 62.9845 42.5525 63.1073 42.1842C63.2678 41.719 63.74 40.9436 63.8533 40.5947C64.0044 40.1101 64.3066 39.6642 64.571 39.228C64.6371 39.1214 64.8355 38.8791 64.8166 38.7531C64.7788 38.5205 64.25 38.2879 64.0989 38.1231C63.9383 37.9583 63.8533 37.7839 63.6645 37.6288C63.2678 37.3283 62.739 37.1248 62.399 36.7565H62.3707Z" fill="white"/>
<path d="M63.0405 38.1329C62.7667 37.7356 61.7467 37.3188 61.4634 36.9602C61.0196 36.3883 60.368 36.0782 60.2263 36.3302C59.8958 36.9408 59.9713 36.9117 59.7353 37.5611C59.7353 37.5611 59.7258 37.5708 59.7258 37.5805C59.0742 39.3445 58.111 40.9728 57.3366 42.6787C56.5622 44.3845 56.5811 46.1292 55.9578 47.7963C55.7217 48.4263 55.5895 48.3875 55.3629 49.0078C55.1268 49.6572 55.2495 49.696 55.0134 50.3454C54.7207 51.1401 52.9358 53.1659 54.1824 53.3694C54.6168 53.4372 56.7605 53.2725 57.1949 53.3209C57.7426 53.3791 58.2715 52.6231 58.602 52.216C58.8853 51.8671 58.9798 51.3534 59.1214 50.9463C59.2631 50.5489 59.4708 50.1418 59.6219 49.7251C59.7636 49.3277 59.9902 48.94 60.1319 48.5329C60.2924 48.1064 60.5096 47.6993 60.6607 47.2826C60.8118 46.8658 60.9252 46.4393 61.0762 46.0419C61.2368 45.6058 61.1612 45.1115 61.3029 44.6947C61.454 44.2779 61.8695 43.9775 62.0017 43.5995C62.1434 43.173 62.0489 42.6981 62.1717 42.3297C62.3323 41.8645 62.8044 41.0988 62.9083 40.7499C63.1066 40.1199 63.8716 39.0343 63.8716 38.918C63.8716 38.6466 63.3805 38.6466 63.0311 38.1232L63.0405 38.1329Z" fill="#D1BE6B"/>
<path d="M32.5947 50.1804C32.4814 49.7636 32.3586 49.3468 32.2453 48.8913C32.132 48.4745 32.1603 48.0287 32.047 47.6022C31.9337 47.1951 31.7448 46.8074 31.6315 46.3907C31.5087 45.9642 31.537 45.499 31.4048 45.0725C30.6966 42.5137 29.8938 39.732 29.1289 37.1441C28.8834 36.3396 28.9967 35.9035 28.364 35.5933C27.9296 35.3704 27.4952 35.6321 27.0419 35.4964C26.598 35.3607 26.2108 35.3219 25.7386 35.2929C25.3515 35.2638 24.9454 35.3122 24.5582 35.2444C24.1899 35.1766 23.8688 34.9827 23.4911 35.0602C23.2172 35.1184 23.1133 35.3995 22.8583 35.4964C22.6411 35.5836 22.2823 35.6903 22.3673 36.0101C22.4711 36.3493 23.7838 37.0763 23.9255 37.5221C24.0388 37.8807 24.1993 38.2684 24.3504 38.6949C24.4921 39.102 25.0398 40.8466 25.1909 41.2925C25.3326 41.7189 25.852 42.5525 26.0031 42.9692C26.1447 43.386 26.5602 44.6073 26.7019 45.024C26.8624 45.4602 27.3346 46.003 27.4857 46.4294C27.6463 46.8462 27.854 48.4164 28.0051 48.8331C28.279 49.5891 28.7039 51.8281 29.7711 51.9153C30.2149 51.9541 31.8298 51.8087 32.2831 51.8862C32.7647 51.9735 32.7364 50.8007 32.5853 50.1707L32.5947 50.1804Z" fill="white"/>
<path d="M31.5562 50.7719C31.4523 50.3552 31.3201 49.9287 31.2068 49.4925C31.1029 49.0758 31.1218 48.6299 31.0084 48.2034C30.9046 47.7964 30.7063 47.399 30.5929 46.9919C30.4796 46.5654 30.4985 46.1002 30.3757 45.6834C29.6675 43.1343 28.8647 40.3429 28.0998 37.755C27.8543 36.9506 27.9676 36.5144 27.3349 36.2043C26.6549 35.8553 26.6927 36.2818 25.9467 36.117C25.1062 35.9232 25.1628 36.1364 24.3318 35.9426C23.5291 35.7584 22.6981 35.7293 22.3203 35.865C22.3486 36.1073 22.1881 36.4563 22.3392 36.999C22.4336 37.348 22.7642 37.7066 22.9058 38.1524C23.0286 38.511 23.1891 38.8987 23.3308 39.3252C23.463 39.7323 24.0202 41.4769 24.1713 41.9228C24.3224 42.3395 24.8323 43.1828 24.9834 43.5996C25.1251 44.0163 25.5406 45.2473 25.6917 45.6543C25.8428 46.0808 26.3244 46.6333 26.4755 47.0597C26.6266 47.4765 26.8438 49.0467 26.9949 49.4635C27.2688 50.2195 27.6937 52.4584 28.7609 52.5456C29.2142 52.5747 30.8196 52.439 31.2823 52.5166C31.7639 52.6038 31.7356 51.431 31.5751 50.801L31.5562 50.7719Z" fill="#D1BE6B"/>
<path d="M25.0211 51.1305C25.1061 50.9948 25.4461 51.2565 26.2582 51.1789C29.4407 50.8688 31.83 50.8882 35.003 50.9657C35.4563 50.9754 36.6462 51.0239 37.109 51.0432C37.5528 51.0529 38.025 51.0045 38.4877 51.0239C38.9505 51.0336 39.4321 51.1499 39.9043 51.1596C40.3481 51.1789 40.792 51.2952 41.2453 51.3146C41.6986 51.3243 42.0858 51.1886 42.539 51.208C43.0018 51.2177 43.559 51.4019 44.0311 51.4213C44.475 51.4406 44.9283 51.2468 45.3721 51.2662C45.8254 51.2856 46.2787 51.3922 46.7415 51.4116C47.1948 51.4212 47.7992 51.1983 48.2524 51.2177C48.6963 51.2371 48.9985 51.2759 49.4235 51.2856C49.8673 51.3049 50.3112 51.208 50.7456 51.2274C51.1894 51.2468 51.6427 51.1983 52.0866 51.2274C52.5493 51.2468 53.8053 51.5085 54.2491 51.5279C54.7119 51.5473 54.353 51.6054 54.7969 51.6345C55.2407 51.6539 55.6563 51.8671 56.0623 51.8865C56.5062 51.9059 56.9406 51.6345 57.3372 51.6539C57.7811 51.6733 58.1966 51.9834 58.5932 52.0028C59.1787 52.0416 59.7926 52.0028 60.3875 52.0222C60.7653 52.0222 61.1336 52.0222 61.5113 52.0028C61.7852 51.9834 62.0968 51.9059 62.3235 52.0997C63.0317 52.691 62.6445 54.329 62.5407 55.0947C62.4651 55.715 62.6823 55.6181 62.2479 55.967C61.7002 56.3935 61.9174 56.2674 61.0486 56.2578C60.6519 56.2578 60.1797 56.2384 59.6509 56.2287C57.1956 56.1996 55.8262 55.589 53.2576 55.8798C52.4454 55.967 50.6606 56.2578 49.9145 56.2481C49.4423 56.2481 48.9796 56.3935 48.5358 56.3935C48.0541 56.3935 47.5819 56.2481 47.157 56.2481C46.6565 56.2481 46.2126 56.1608 45.8349 56.1608C45.1455 56.1705 44.6261 55.8313 44.5128 55.8604C42.5579 56.3159 40.5937 55.7247 38.5822 55.7344C37.1184 55.7344 35.6735 55.9088 34.2287 56.0348C33.5676 56.093 32.9065 56.093 32.2644 56.2287C31.575 56.3741 30.8478 56.2093 30.1396 56.3644C29.9129 56.4128 29.7146 56.5195 29.4691 56.5195C29.1858 56.5195 28.9024 56.4225 28.6191 56.4225C28.1564 56.4225 27.7692 56.4031 27.4198 56.4031C26.6454 56.4031 26.8626 56.6164 26.4188 56.1705C25.8616 55.6278 26.1071 55.6956 25.8616 54.8717C25.7105 54.3968 25.7105 53.8347 25.5783 53.3597C25.4083 52.7491 24.8134 51.4309 25.0117 51.1499L25.0211 51.1305Z" fill="#D1BE6B"/>
<path d="M48.7344 14.8225C48.7344 14.8225 48.7816 14.8613 48.8005 14.8904C49.0177 15.123 49.1688 15.4234 49.3765 15.6658C49.6409 15.9565 49.8959 16.257 50.1509 16.5671C50.3681 16.8288 50.7081 17.0421 50.9725 17.2456C51.3314 17.5267 51.5297 17.9338 51.813 18.273C51.9735 18.4572 52.1246 18.6122 52.2474 18.8158C52.3702 19.0484 52.5024 19.3004 52.6724 19.5136C52.8329 19.7172 52.9745 19.9013 52.9934 20.1727C53.0123 20.4829 52.8707 20.8221 52.6912 21.0547C52.4929 21.3164 52.3796 21.6266 52.2002 21.9077C52.0963 22.0627 51.983 22.2566 51.8508 22.3729C51.7563 22.4601 51.643 22.4698 51.5202 22.5183C51.0292 22.683 50.5759 22.9447 50.2359 23.2064C49.5748 23.7201 49.4993 23.7201 49.1404 23.788C48.621 23.8655 47.6672 24.0012 46.9306 24.0594C46.364 24.0981 46.0618 24.0594 45.448 23.8171C44.8247 23.5747 44.2581 23.3615 43.7859 23.1483C43.5592 23.0417 43.342 22.7412 43.1532 22.2663C42.9549 21.801 42.4449 20.512 42.5677 20.2793C42.7754 19.8819 43.8237 18.3118 43.9464 18.0792C44.1731 17.643 44.8247 17.3328 45.2402 17.0905C45.4196 16.9839 45.6274 16.9064 45.7974 16.7901C45.9957 16.6447 46.0618 16.383 46.1468 16.1601C46.2696 15.7918 46.3546 15.4234 46.4773 15.0454C46.4962 14.9776 46.5623 14.9097 46.6001 14.8613C46.6473 14.7837 46.6945 14.7062 46.7512 14.6384C46.7701 14.6093 46.7701 14.5899 46.7795 14.5608C46.7984 14.5124 46.8173 14.4736 46.8362 14.4251C46.874 14.3573 46.9023 14.2797 46.959 14.2216C46.9967 14.1731 47.0439 14.144 47.0817 14.1053C47.1478 14.0374 47.2045 13.9502 47.3084 13.9502C47.3556 13.9502 47.3934 13.9502 47.4406 13.9502C47.4878 13.9502 47.5445 13.9502 47.5917 13.9502C47.62 13.9502 47.6578 13.9502 47.6861 13.9696C47.705 13.9793 47.7144 14.0083 47.7333 14.018C47.7994 14.0665 47.8561 14.1053 47.9222 14.1344C48.0261 14.1925 48.1016 14.27 48.1772 14.3573C48.2527 14.4445 48.3283 14.5414 48.4133 14.619C48.4983 14.7062 48.621 14.7644 48.7155 14.8419L48.7344 14.8225Z" fill="white"/>
<path d="M49.6788 19.3782C49.6033 18.8451 49.2538 18.3411 48.81 18.0794C48.3473 17.808 47.6956 18.0406 47.1951 18.0794C46.7607 18.1085 46.2602 18.1666 45.8919 18.4477C45.7503 18.564 45.5897 18.7191 45.4292 18.942C45.1081 19.3685 44.9381 19.7465 44.9192 20.0373C44.9003 20.454 45.0986 20.7448 45.3064 21.0841C45.4764 21.3554 45.5614 21.6559 45.8825 21.7916C46.3169 21.9758 46.7513 21.8594 47.1857 21.811C47.6862 21.7528 48.1112 21.685 48.555 21.4136C49.0555 21.1034 49.4238 20.5801 49.6221 19.9985C49.6883 19.8047 49.6977 19.5914 49.6694 19.3782H49.6788Z" fill="#005DA4"/>
<path d="M51.5388 18.5932L50.8966 17.876L50.4528 17.4398C50.4528 17.4398 48.8663 15.5885 48.328 14.9682L47.7141 14.1347C47.5914 13.9215 47.4686 13.7276 47.2797 13.7082C47.0814 13.6985 46.9492 13.8439 46.7414 14.1056L46.2598 14.6484C46.0332 14.8907 44.3239 16.0925 43.7478 16.4609C43.0773 16.8776 42.709 17.1393 42.5863 17.401L42.0668 18.2152L41.198 19.6012C41.1414 19.7078 41.0281 19.9307 41.7741 21.7626C42.0007 22.2957 42.2368 22.6252 42.5107 22.7512L43.9367 23.3328L44.1728 23.42C44.7961 23.672 45.1455 23.7205 45.7404 23.672L47.9597 23.4006C48.3658 23.3328 48.4791 23.3037 49.1401 22.79C49.4895 22.5186 49.9334 22.286 50.3678 22.1406C51.3499 21.7917 51.5294 21.1811 51.7749 20.3378L51.8221 20.1924C51.8599 20.047 51.8882 19.8823 51.8882 19.7175C51.8882 19.3395 51.7655 18.9324 51.5294 18.5738M48.6679 19.9114C48.4791 20.3378 48.2808 20.5317 47.8086 20.8418C47.2703 21.1714 46.7131 21.3071 46.1559 21.2198C45.9482 21.2198 45.6838 21.1617 45.3816 21.0454C45.0133 20.9388 44.7961 20.8224 44.7205 20.6964C44.3239 20.27 44.1445 19.8532 44.1822 19.4655C44.2011 19.165 44.3711 18.7967 44.6827 18.3703C44.8433 18.1473 45.0038 17.9923 45.1455 17.876C45.5421 17.5755 46.1937 17.4689 46.7981 17.5464C47.6858 17.6627 49.414 18.8258 48.6679 19.921V19.9114Z" fill="#D1BE6B"/>
<path d="M35.1735 40.4009C35.3151 40.178 35.5984 40.0714 35.844 40.052C36.0328 40.052 36.2123 40.0908 36.4106 40.0617C36.6089 40.0423 36.7978 40.0035 36.9961 39.9648C37.3927 39.8969 37.7705 39.6934 38.1482 39.8969C38.3465 40.0035 38.441 40.2264 38.4882 40.4397C38.5637 40.7789 38.847 41.1763 38.8848 41.5155C38.932 41.8548 39.1492 42.4072 39.4609 42.4169C40.2164 42.4169 41.0285 42.3782 41.7746 42.2619C42.2279 42.194 42.615 42.0292 43.0872 41.9905C43.8427 41.9323 44.5604 41.816 45.3159 41.8451C46.1281 41.8742 46.9686 41.5834 47.7807 41.5446C47.9413 41.5446 48.829 41.6222 48.8856 41.3992C49.0178 40.8952 49.3484 40.4881 49.4333 39.9648C49.4806 39.6934 49.4145 39.3057 49.6128 39.0827C49.9339 38.7144 50.3305 39.0246 50.6799 39.17C51.0671 39.3347 51.4921 39.5383 51.917 39.7418C52.3231 39.9357 53.1069 40.0423 53.428 40.2458C53.9191 40.5269 54.1552 40.7401 54.0985 40.9534C54.023 41.2345 53.8907 41.9517 53.7774 42.4557C53.683 42.8434 53.6641 43.2989 53.5413 43.6576C53.3525 44.2391 53.5036 44.2488 53.0408 44.5589C52.4459 44.9563 52.1531 44.7528 51.256 44.8303C50.8405 44.8691 50 45.0436 49.4617 45.092C48.9989 45.1308 48.4984 45.1599 47.979 45.1986C47.4974 45.2374 47.0063 45.1986 46.5058 45.2374C46.0242 45.2762 45.4576 45.1405 44.9665 45.1793C44.4849 45.218 43.9938 45.218 43.5216 45.2471C43.0495 45.2859 42.5867 45.3053 42.1334 45.3343C41.6424 45.3634 41.1607 45.5476 40.7358 45.5767C40.188 45.6057 39.7064 45.6251 39.3003 45.6348C38.7526 45.6542 37.9688 45.9643 37.4872 45.5379C37.1283 45.218 37.0244 44.685 36.7883 44.2876C36.3917 43.6285 35.9951 42.9694 35.6456 42.2715C35.4568 41.8935 35.334 41.4865 35.1735 41.0988C35.079 40.8371 35.0413 40.5948 35.1735 40.3912V40.4009Z" fill="#D1BE6B"/>
<path d="M37.4487 25.8236C37.326 25.3293 36.2305 25.8333 35.5222 25.9593C35.0973 26.0271 34.5023 26.2888 34.0962 26.3373C33.1708 26.4439 33.2935 26.7637 33.4824 27.3259C33.558 27.5488 33.8129 28.0141 33.9357 28.6441C34.0113 29.0511 34.2946 30.8927 34.389 31.3579C34.4834 31.8232 34.3512 32.3272 34.4551 32.7536C34.5684 33.2092 34.8612 33.9846 34.9745 34.3432C35.1823 34.9732 35.135 34.9926 35.3334 35.0604C35.9755 35.2834 36.6649 35.1089 37.4865 35.1961C37.9115 35.2349 38.3175 35.4772 38.8842 35.5354C39.3469 35.5838 41.0562 35.6614 41.5473 35.7098C42.0195 35.7583 42.5105 35.768 43.011 35.8261C43.4832 35.8746 43.9837 35.7195 44.4748 35.7777C44.9753 35.8261 45.4853 35.8843 45.9858 35.9327C46.4768 35.9909 46.9774 35.9909 47.4684 36.0491C47.9501 36.0975 48.3939 36.3689 48.8566 36.4174C49.3572 36.4755 49.8577 36.3107 50.3204 36.3592C50.8209 36.4174 52.7757 36.6112 53.2196 36.6597C53.7484 36.7178 54.2017 36.8535 54.5889 36.8923C55.2783 36.9601 55.7127 36.8632 55.8355 36.8729C56.676 36.8729 56.7137 36.7275 56.7043 35.9424C56.7043 35.7389 56.4682 35.2543 56.506 34.5758C56.5343 34.159 56.7893 33.7326 56.8271 33.2479C56.8554 32.7924 56.8554 32.3369 56.8837 31.8813C56.9309 31.3676 56.8837 30.9024 56.9121 30.4856C56.9687 29.7199 57.3181 28.8767 56.9404 28.8476C56.846 28.8476 56.5438 28.8185 55.8921 28.5665C55.5522 28.4211 54.9289 28.3921 54.5606 28.2757C54.1451 28.1594 53.7768 27.8687 53.4651 27.859C53.1441 27.859 53.2196 28.5181 53.1818 29.1674C53.1535 29.5455 53.2007 31.2222 53.2196 31.6196C53.2385 32.0461 53.1913 32.269 53.1818 32.6179C53.1535 33.1801 52.9646 33.1026 52.7474 33.1607C52.5963 33.2092 52.0108 33.277 51.2364 33.2479C50.802 33.2286 48.7528 33.1607 48.2239 33.1219C47.7423 33.0929 47.2418 32.9378 46.7413 32.899C46.2408 32.8603 45.7025 33.0444 45.202 33.0056C44.7014 32.9669 44.2576 32.9863 43.7854 32.9572C43.266 32.9087 42.7655 32.8021 42.3028 32.7342C41.7456 32.6373 40.8862 32.773 40.3196 32.4822C40.0741 32.3562 39.2525 32.2884 39.2053 32.2787C38.5631 32.1624 38.8369 31.4452 38.412 30.3596C38.157 29.6715 38.4781 29.3419 38.2137 28.6538C37.9398 27.9559 37.9681 27.9947 37.732 27.2871C37.5243 26.6765 37.5998 26.3663 37.4771 25.8623L37.4487 25.8236Z" fill="#D1BE6B"/>
<path d="M48.0347 26.3276C48.0347 26.3276 48.0536 26.2403 48.0725 26.1919C48.1858 25.7363 47.6381 25.7945 47.3265 25.746C47.0337 25.6975 46.7599 25.6394 46.4577 25.6394C46.1366 25.6394 45.891 25.4746 45.57 25.4455C45.1922 25.4165 44.805 25.4455 44.4178 25.4455C44.2573 25.4455 44.0967 25.4165 44.0023 25.5619C43.9268 25.6879 43.9456 25.9495 43.9173 26.0852C43.7568 26.7831 43.8795 28.4599 43.719 29.148C43.5679 29.7877 43.3601 30.1657 43.2185 30.8054C43.0674 31.4451 43.3224 32.3756 43.2185 32.9959C43.0957 33.6938 43.0674 33.6744 42.9824 34.3722C42.888 35.0507 42.4441 34.9926 42.3591 35.6807C42.2741 36.3786 42.463 36.427 42.3591 37.1249C42.2741 37.813 42.208 37.8034 42.123 38.4915C42.038 39.17 41.8964 40.5463 41.8114 41.2538C41.717 41.942 41.462 41.8935 41.3675 42.5914C41.2825 43.2796 41.7075 43.3377 41.6225 44.0259C41.5375 44.714 40.9803 46.0128 40.8954 46.6719C40.8009 47.4279 40.7348 48.1064 40.8104 48.8527C40.9331 50.1612 40.2249 50.8299 40.0832 51.9349C39.9982 52.5843 40.4987 52.6618 40.4137 53.3015C40.3287 53.9509 39.7149 54.0478 40.2249 54.484C40.8387 55.0171 40.9709 54.8135 41.7925 54.8232C42.5197 54.8232 43.6057 55.0655 44.144 54.6391C44.6823 54.2029 44.2478 53.7086 44.3517 53.0398C44.4556 52.3516 44.3989 52.4001 44.5028 51.7119C44.6067 51.0335 44.4273 51.0044 44.5312 50.3259C44.6256 49.6572 44.9844 48.3293 45.0883 47.6314C45.1922 46.953 45.0506 46.9627 45.145 46.2745C45.2489 45.596 45.1639 45.5476 45.2678 44.8594C45.3716 44.1713 45.0222 44.4233 45.1261 43.7351C45.2205 43.076 45.2111 43.076 45.315 42.4072C45.4094 41.7288 45.23 41.69 45.3244 41.0115C45.4283 40.3525 45.9477 37.9778 46.0421 37.3187C46.1271 36.7275 46.1366 36.3883 46.2499 35.797C46.3632 35.0992 46.2688 35.2058 46.401 34.5079C46.5426 33.8004 46.5426 33.9652 46.6749 33.2576C46.8071 32.5791 46.9109 32.4822 47.0432 31.8038C47.1754 31.1059 47.0432 31.0284 47.1848 30.3305C47.317 29.6424 47.4115 29.8071 47.5437 29.1093C47.6664 28.4599 47.7703 27.7911 47.8931 27.1417C47.9497 26.8703 47.9875 26.5989 48.0536 26.3372L48.0347 26.3276Z" fill="#D1BE6B"/>
<path d="M16.7863 52.6036C16.3897 49.0853 16.2291 47.2146 15.6625 43.2504C15.5964 42.8433 15.3698 37.6288 15.2376 36.5045C14.9826 34.4982 14.4348 32.3077 14.1704 30.6018L14.1893 30.4855C14.3876 29.5454 14.3498 23.8753 14.3498 23.8753V22.4602L13.906 18.874L13.6982 18.215V17.5559L13.3394 11.8955C13.3394 11.2364 13.075 10.9069 12.7633 10.7518C12.7633 10.7227 12.7633 10.6937 12.7633 10.6646C12.6406 10.6549 12.5083 10.6452 12.3761 10.6355C12.2911 10.6258 12.1967 10.6161 12.1212 10.6161C10.8652 10.5386 9.62804 9.98611 8.40981 9.85042C7.95651 9.80196 5.58616 10.0927 5.54839 10.0927C4.52848 10.083 3.72577 10.8197 3.64077 11.1686C3.53689 11.5951 3.14026 13.2428 3.18748 13.6692C3.25359 14.2702 4.51903 18.6414 4.54736 19.4459C4.62291 21.491 4.77401 22.2276 4.76457 23.9722C4.76457 24.1079 5.35007 28.4114 5.35951 28.5471C5.43506 31.3869 6.47386 36.1556 7.32379 42.2327C7.46544 43.231 7.51266 45.3343 7.8243 48.4649C7.87152 48.9399 8.15483 53.7667 8.21149 54.2028C8.46647 56.0735 8.72145 56.7713 8.93865 59.2526C9.15585 59.8341 10.7613 60.1055 11.6584 59.9892C12.4139 59.8923 13.9721 60.3381 14.7937 60.2994C15.3698 60.28 15.7003 59.2138 16.3236 59.2526C16.2764 56.7713 17.0507 54.9976 16.7863 52.5939V52.6036Z" fill="#C5BAAC"/>
<path d="M67.753 65.475C67.8002 64.6415 67.8002 64.3992 67.8096 64.1375C67.8191 63.8952 68.0552 62.7902 66.7142 62.8872C66.1853 62.9259 60.9536 63.3039 60.2831 63.2845C59.6787 63.2652 53.5875 62.8678 52.8887 62.8581C52.2277 62.8387 49.7534 63.1876 49.0829 63.1779C48.4408 63.1585 43.039 62.9647 42.3496 62.9453C41.6791 62.9356 40.9897 63.207 40.3287 63.1973C39.6204 63.1779 38.9216 62.8581 38.2039 62.8581C37.5145 62.8581 35.0119 63.2652 34.3225 63.2555C33.652 63.2555 30.8001 63.0422 30.1012 63.0422C29.4118 63.0325 24.8506 62.7708 23.3774 62.7515C22.0836 62.7418 20.6576 62.8872 19.3544 62.9259C18.9672 62.9453 15.6714 62.3832 14.8403 62.5479C14.3398 62.6448 13.8393 62.6933 13.3577 62.7321L12.3661 62.6545L11.1667 62.4607C11.1667 62.4607 10.9968 62.5867 10.789 62.7708C10.4679 62.7902 10.2507 62.8387 10.1657 62.9356C10.0618 63.0519 10.0618 63.2652 10.0902 63.5559C10.0902 63.5656 10.0713 63.585 10.0713 63.5947L10.3452 67.1809L10.3735 67.2584C10.4679 68.1017 10.7323 69.5071 11.0534 69.5071C11.2895 69.5071 11.5162 69.5458 11.7334 69.5846C12.1583 69.9141 12.8005 70.2825 13.6599 70.4763C13.9054 70.612 14.1415 70.7186 14.3304 70.7089C14.9064 70.6992 18.8822 70.9415 19.5527 70.9222C20.1949 70.9028 23.0374 70.3406 23.7457 70.3212C27.4381 70.2146 29.0435 70.612 29.7896 70.486C31.735 70.1662 41.0275 70.9512 41.443 70.864C41.9908 70.7574 46.0043 70.6217 46.7409 70.6023C47.3925 70.5926 49.5173 70.2243 50.2256 70.2146C51.3494 70.1952 52.4543 70.4278 54.0314 70.5926C56.8739 70.9125 58.4416 70.6895 62.0962 70.6605C62.899 70.6508 65.3354 70.8446 65.8265 70.6411C66.6953 70.2922 68.2441 66.9483 68.3951 66.0857C68.4896 65.5332 67.7058 66.0081 67.7341 65.4653L67.753 65.475Z" fill="#C5BAAC"/>
</svg>
