<svg width="121" height="121" viewBox="0 0 121 121" fill="none" xmlns="http://www.w3.org/2000/svg">
<g clip-path="url(#clip0_74_51)">
<path d="M113.951 39.1598C113.761 39.2281 113.639 39.3306 113.584 39.4537C113.53 39.5836 113.53 39.7271 113.591 39.898L115.005 43.7875C115.067 43.9515 115.06 44.1019 114.978 44.225C114.897 44.348 114.795 44.4369 114.665 44.4847C114.536 44.5326 114.4 44.5326 114.264 44.4847C114.128 44.4369 114.033 44.3343 113.972 44.1635L113.258 42.2085L112.258 42.5776L113.387 45.6741C113.455 45.8587 113.448 46.0091 113.387 46.1321C113.319 46.2552 113.217 46.344 113.074 46.3919C112.945 46.4397 112.809 46.4397 112.68 46.3919C112.544 46.344 112.449 46.2278 112.381 46.0433L111.809 44.4711C111.667 44.7923 111.469 45.0726 111.218 45.3118C110.966 45.5511 110.667 45.7357 110.32 45.8655C109.973 45.9954 109.62 46.0433 109.253 46.0091C108.885 45.9749 108.545 45.8792 108.219 45.7015C107.893 45.5306 107.6 45.2913 107.328 44.9837C107.056 44.6761 106.852 44.3138 106.696 43.8969C106.546 43.4799 106.471 43.0697 106.478 42.6664C106.485 42.2631 106.56 41.8872 106.696 41.5454C106.839 41.2036 107.036 40.9097 107.294 40.6499C107.553 40.3902 107.859 40.1988 108.205 40.0689C108.552 39.939 108.899 39.8912 109.246 39.9117C109.593 39.9322 109.919 40.021 110.239 40.1714L109.667 38.5992C109.606 38.4215 109.606 38.278 109.674 38.1481C109.742 38.0182 109.844 37.9362 109.973 37.8883C110.109 37.8405 110.245 37.8405 110.381 37.8883C110.517 37.9362 110.613 38.0524 110.674 38.2233L111.803 41.3267L112.802 40.9575L112.476 40.0621C112.306 39.5972 112.299 39.1734 112.455 38.7975C112.612 38.4215 112.952 38.1344 113.469 37.943L114.489 37.567C114.856 37.4303 115.169 37.4235 115.427 37.5329C115.685 37.6491 115.883 37.902 116.032 38.2985L117.644 42.728C117.705 42.892 117.698 43.0424 117.623 43.1723C117.549 43.3022 117.447 43.3842 117.317 43.432C117.188 43.4799 117.052 43.4799 116.916 43.432C116.78 43.3842 116.678 43.2748 116.617 43.1108L115.155 39.1051C115.073 38.8727 114.917 38.7975 114.693 38.8795L113.945 39.1529L113.951 39.1598ZM108.777 41.2515C108.545 41.3335 108.341 41.4565 108.171 41.6138C108.001 41.771 107.872 41.9487 107.784 42.1538C107.695 42.3588 107.641 42.5776 107.627 42.8168C107.614 43.0561 107.655 43.2953 107.743 43.5346C107.831 43.7738 107.954 43.9789 108.117 44.1566C108.28 44.3343 108.464 44.4642 108.661 44.5599C108.858 44.6556 109.076 44.7103 109.307 44.7171C109.538 44.724 109.769 44.6898 110.001 44.6009C110.225 44.5189 110.422 44.3959 110.592 44.2386C110.762 44.0814 110.891 43.9037 110.987 43.6986C111.082 43.4936 111.136 43.2748 111.15 43.0356C111.163 42.7963 111.123 42.5571 111.034 42.3178C110.946 42.0786 110.823 41.8735 110.66 41.6958C110.497 41.5181 110.313 41.3882 110.109 41.2925C109.905 41.1968 109.688 41.1489 109.457 41.1353C109.225 41.1284 109.001 41.1626 108.777 41.2446L108.777 41.2515Z" fill="#410102"/>
<path d="M110.667 55.1137C110.694 55.2709 110.667 55.4144 110.592 55.5306C110.511 55.6468 110.388 55.722 110.225 55.7562C110.055 55.7836 109.912 55.7562 109.804 55.6673C109.688 55.5785 109.62 55.4554 109.593 55.2982L108.777 50.5474C108.736 50.3287 108.743 50.1168 108.777 49.9186C108.818 49.7203 108.892 49.5494 108.994 49.3922C109.096 49.235 109.226 49.1051 109.389 49.0026C109.545 48.9 109.722 48.8317 109.912 48.7975C110.103 48.7633 110.286 48.7702 110.463 48.8112C110.64 48.8522 110.796 48.9342 110.946 49.0436C111.089 49.153 111.211 49.2965 111.313 49.4674C111.415 49.6383 111.483 49.8365 111.517 50.0553L112.116 53.5346C112.136 53.644 112.184 53.7192 112.258 53.7739C112.333 53.8286 112.422 53.8491 112.517 53.8286C112.612 53.8149 112.687 53.767 112.721 53.6918C112.762 53.6166 112.768 53.5278 112.748 53.4184L112.014 49.1735C111.986 49.0163 112.014 48.8727 112.075 48.7565C112.143 48.6403 112.265 48.5651 112.428 48.5378C112.598 48.5104 112.734 48.5378 112.85 48.6266C112.966 48.7155 113.034 48.8385 113.061 48.9957L113.401 50.9644L114.06 50.8482L113.503 47.5944C113.469 47.403 113.503 47.2526 113.584 47.1433C113.673 47.0339 113.788 46.9656 113.938 46.9382C114.094 46.9109 114.23 46.9382 114.353 47.0066C114.475 47.0818 114.557 47.2116 114.584 47.403L115.924 55.2025C115.958 55.3939 115.924 55.5443 115.835 55.6605C115.747 55.7767 115.624 55.8451 115.468 55.8724C115.325 55.8998 115.189 55.8724 115.067 55.7972C114.944 55.722 114.87 55.5853 114.836 55.3939L114.278 52.1538L113.618 52.27L113.802 53.3364C113.877 53.7807 113.829 54.1567 113.646 54.4779C113.469 54.7992 113.156 54.9906 112.714 55.0726C112.272 55.1478 111.912 55.0726 111.633 54.8334C111.354 54.5941 111.177 54.2524 111.096 53.8149L110.497 50.3355C110.477 50.2262 110.436 50.151 110.361 50.0963C110.293 50.0416 110.205 50.0211 110.11 50.0416C110.014 50.0553 109.94 50.1031 109.899 50.1783C109.851 50.2535 109.844 50.3424 109.858 50.4517L110.66 55.1137L110.667 55.1137ZM115.448 49.2692C115.38 48.859 115.42 48.5378 115.59 48.3122C115.754 48.0866 116.032 47.9431 116.42 47.8747L117.8 47.6354C118.188 47.5671 118.494 47.6149 118.725 47.7722C118.956 47.9294 119.106 48.2165 119.181 48.6266L119.861 52.564C119.929 52.9741 119.888 53.2954 119.718 53.521C119.555 53.7465 119.276 53.8901 118.888 53.9584L117.508 54.1977C117.12 54.266 116.814 54.2182 116.583 54.061C116.352 53.9037 116.202 53.6166 116.128 53.2065L115.448 49.2692ZM116.542 49.153L117.195 52.9536L118.752 52.6802L118.1 48.8795L116.542 49.153Z" fill="#410102"/>
<path d="M112.829 65.1957C112.829 65.3871 112.768 65.5306 112.653 65.6195C112.537 65.7084 112.408 65.7562 112.272 65.7494C112.122 65.7494 111.993 65.7015 111.884 65.6058C111.769 65.5101 111.714 65.3666 111.714 65.1752L111.843 57.239C111.843 57.0544 111.905 56.9177 112.02 56.822C112.136 56.7263 112.272 56.6853 112.415 56.6921C112.551 56.6921 112.68 56.74 112.795 56.8357C112.911 56.9314 112.965 57.0681 112.965 57.2595L112.911 60.568L114.448 60.5953L114.468 59.235C114.468 58.818 114.577 58.5104 114.781 58.319C114.985 58.1276 115.284 58.0388 115.679 58.0456L119.459 58.1071C119.677 58.1071 119.833 58.1823 119.942 58.3122C120.051 58.4489 120.099 58.5993 120.099 58.7633C120.099 58.9274 120.037 59.0778 119.929 59.2145C119.82 59.3512 119.657 59.4127 119.439 59.4127L118.235 59.3922L118.174 63.2612L119.378 63.2817C119.595 63.2817 119.752 63.3569 119.861 63.4868C119.969 63.6235 120.017 63.7739 120.017 63.9379C120.017 64.102 119.956 64.2524 119.847 64.3891C119.738 64.5258 119.575 64.5873 119.357 64.5873L115.577 64.5258C115.182 64.5258 114.89 64.4164 114.693 64.2182C114.495 64.02 114.4 63.7124 114.407 63.2885L114.427 61.9283L112.891 61.9009L112.836 65.2025L112.829 65.1957ZM115.502 63.2202L117.073 63.2475L117.134 59.3786L115.563 59.3512L115.502 63.2202Z" fill="#410102"/>
<path d="M116.25 68.5663C116.563 68.6278 116.835 68.7304 117.073 68.8944C117.311 69.0516 117.508 69.2499 117.671 69.4823L117.834 68.6005C117.868 68.4159 117.95 68.2929 118.072 68.2177C118.195 68.1493 118.331 68.122 118.467 68.1493C118.61 68.1767 118.725 68.245 118.82 68.3612C118.916 68.4774 118.95 68.621 118.916 68.8056L118.487 71.1228L119.16 71.2527C119.392 71.2937 119.548 71.3963 119.623 71.5603C119.704 71.7244 119.732 71.8816 119.698 72.0388C119.664 72.2165 119.582 72.3601 119.453 72.4695C119.324 72.5857 119.14 72.6199 118.909 72.572L118.229 72.4421L117.807 74.7252C117.773 74.9166 117.692 75.0465 117.562 75.1149C117.433 75.1832 117.297 75.2037 117.154 75.1832C117.018 75.1559 116.903 75.0875 116.814 74.9782C116.726 74.8688 116.692 74.7184 116.733 74.527L116.889 73.6862C116.658 73.8503 116.4 73.9596 116.121 74.028C115.842 74.0964 115.55 74.0964 115.237 74.0348C114.944 73.9801 114.679 73.8776 114.441 73.7272C114.21 73.5768 114.013 73.3854 113.85 73.1667C113.693 72.9411 113.571 72.695 113.482 72.4148C113.394 72.1345 113.353 71.8406 113.346 71.533L111.769 71.239L111.17 74.4723C111.136 74.6637 111.055 74.7936 110.919 74.8619C110.79 74.9303 110.654 74.9576 110.518 74.9303C110.375 74.903 110.252 74.8346 110.157 74.7184C110.062 74.6022 110.028 74.4518 110.062 74.2604L111.51 66.4609C111.544 66.2764 111.626 66.1533 111.755 66.085C111.884 66.0166 112.02 65.9961 112.17 66.0234C112.306 66.0508 112.422 66.1191 112.517 66.2285C112.612 66.3447 112.646 66.4883 112.612 66.6728L112.014 69.9198L113.591 70.2137C113.707 69.9266 113.856 69.6737 114.033 69.4481C114.21 69.2225 114.414 69.0311 114.645 68.8807C114.876 68.7304 115.121 68.6278 115.393 68.5731C115.665 68.5185 115.951 68.5185 116.243 68.5731L116.25 68.5663ZM116.128 69.8241C115.91 69.783 115.706 69.7899 115.516 69.8377C115.325 69.8856 115.155 69.9744 115.006 70.0838C114.856 70.2 114.734 70.3367 114.632 70.5076C114.536 70.6717 114.468 70.8562 114.428 71.0545C114.394 71.2459 114.394 71.4373 114.428 71.6287C114.462 71.8201 114.523 71.991 114.625 72.1482C114.727 72.3054 114.856 72.4421 115.012 72.5515C115.169 72.6609 115.359 72.7429 115.584 72.7839C115.808 72.8249 116.019 72.8249 116.216 72.7839C116.406 72.7361 116.576 72.6609 116.726 72.5447C116.869 72.4353 116.991 72.2986 117.093 72.1277C117.195 71.9568 117.256 71.7791 117.29 71.5945C117.324 71.3963 117.331 71.2049 117.297 71.0135C117.263 70.8221 117.202 70.6443 117.107 70.4871C117.012 70.3299 116.882 70.1864 116.719 70.0701C116.556 69.9539 116.359 69.8719 116.134 69.8309L116.128 69.8241Z" fill="#410102"/>
<path d="M112.442 76.8515C112.428 76.7763 112.422 76.7148 112.428 76.6533C112.435 76.5918 112.449 76.5371 112.469 76.4892C112.53 76.332 112.646 76.2227 112.802 76.168C112.966 76.1133 113.115 76.1133 113.265 76.168C113.448 76.2432 113.564 76.4004 113.605 76.6396C113.673 77.0429 113.782 77.3916 113.931 77.6923C114.081 77.9931 114.251 78.2528 114.441 78.4647C114.632 78.6835 114.842 78.8612 115.067 79.0048C115.291 79.1483 115.522 79.2645 115.76 79.3602L116.862 79.7909C117.073 79.8729 117.202 79.9959 117.256 80.16C117.311 80.3241 117.311 80.4881 117.25 80.6453C117.188 80.7957 117.086 80.9188 116.93 81.0076C116.774 81.0965 116.597 81.1033 116.386 81.0213L115.332 80.6043C115.101 80.5154 114.856 80.4403 114.604 80.3856C114.346 80.3309 114.081 80.3172 113.809 80.3377C113.537 80.3582 113.258 80.4266 112.966 80.536C112.68 80.6453 112.381 80.8299 112.082 81.076C111.986 81.1512 111.884 81.199 111.782 81.2127C111.68 81.2264 111.585 81.2127 111.504 81.1853C111.361 81.1307 111.245 81.0281 111.164 80.8709C111.082 80.7205 111.075 80.5633 111.136 80.4061C111.177 80.3035 111.252 80.2147 111.354 80.1327C111.68 79.8866 112.027 79.6815 112.394 79.5243C112.762 79.3671 113.142 79.2508 113.537 79.1962C113.258 78.8544 113.027 78.4853 112.85 78.0888C112.673 77.6923 112.53 77.2822 112.435 76.8515L112.442 76.8515ZM110.674 77.7812C110.885 77.8632 111.014 77.9863 111.068 78.1571C111.123 78.3212 111.123 78.4921 111.055 78.6561C110.994 78.8065 110.892 78.9296 110.735 79.0253C110.579 79.121 110.395 79.121 110.191 79.0389L108.661 78.4374C108.45 78.3554 108.28 78.3485 108.151 78.4032C108.022 78.4648 107.927 78.5741 107.866 78.7313L106.24 82.9216C106.172 83.0925 106.07 83.2019 105.928 83.2497C105.785 83.2907 105.656 83.2907 105.526 83.2429C105.397 83.195 105.295 83.1062 105.227 82.9763C105.152 82.8464 105.152 82.696 105.22 82.5251L106.941 78.082C107.118 77.6171 107.396 77.3027 107.777 77.125C108.158 76.9472 108.6 76.9609 109.117 77.166L110.681 77.7743L110.674 77.7812ZM109.402 82.3474C109.198 82.2654 109.069 82.1492 109.015 81.9988C108.96 81.8416 108.96 81.6912 109.015 81.5408C109.076 81.3904 109.178 81.2742 109.328 81.1853C109.477 81.1033 109.647 81.1033 109.851 81.1853L113.02 82.4226L113.394 81.4451C113.462 81.2742 113.564 81.1648 113.707 81.117C113.85 81.076 113.979 81.076 114.108 81.1238C114.237 81.1717 114.339 81.2605 114.407 81.3904C114.475 81.5203 114.482 81.6707 114.414 81.8416L114.04 82.8191L115.502 83.3933C115.706 83.4753 115.835 83.5915 115.883 83.7555C115.937 83.9196 115.937 84.0768 115.876 84.2272C115.815 84.3776 115.713 84.4938 115.57 84.569C115.427 84.6442 115.25 84.6442 115.053 84.569L109.396 82.3542L109.402 82.3474ZM108.586 84.2614C108.382 84.1794 108.26 84.0632 108.206 83.8991C108.151 83.735 108.158 83.5778 108.212 83.4274C108.274 83.2771 108.376 83.154 108.525 83.0651C108.675 82.9763 108.852 82.9763 109.049 83.0515L114.815 85.3072C115.019 85.3893 115.142 85.5055 115.196 85.6764C115.25 85.8473 115.244 86.0045 115.182 86.1549C115.121 86.3053 115.019 86.4283 114.87 86.5103C114.72 86.5924 114.543 86.5992 114.346 86.5172L108.58 84.2614L108.586 84.2614Z" fill="#410102"/>
<path d="M106.356 86.9615C106.621 86.5377 106.954 86.2779 107.369 86.1754C107.784 86.0729 108.219 86.1754 108.688 86.4693L111.938 88.5337C112.272 88.7456 112.469 88.9848 112.537 89.2583C112.605 89.5317 112.523 89.8461 112.299 90.2016L110.504 93.0589C110.402 93.2229 110.279 93.3118 110.13 93.3323C109.98 93.3528 109.858 93.3255 109.749 93.2503C109.626 93.1751 109.538 93.0657 109.49 92.9222C109.443 92.7786 109.47 92.6283 109.572 92.4642L111.129 89.9897C111.258 89.7778 111.224 89.6137 111.027 89.4838L109.932 88.7866L108.43 91.1723C108.348 91.3021 108.239 91.3842 108.096 91.4183C107.954 91.4525 107.818 91.4183 107.675 91.3363C107.539 91.2474 107.457 91.1381 107.423 90.9945C107.389 90.851 107.423 90.7143 107.505 90.5844L109.008 88.1987L108.042 87.5835C107.852 87.4605 107.688 87.4195 107.539 87.4605C107.396 87.4947 107.28 87.5835 107.192 87.7202L105.506 90.3998C105.41 90.557 105.281 90.6459 105.138 90.6596C104.989 90.6733 104.86 90.6459 104.751 90.5776C104.635 90.5024 104.554 90.393 104.499 90.2563C104.452 90.1127 104.479 89.9692 104.574 89.812L106.369 86.9547L106.356 86.9615ZM100.984 91.2474C100.8 91.1312 100.698 90.9877 100.678 90.8168C100.657 90.6459 100.691 90.4887 100.78 90.352C100.868 90.2153 100.99 90.1196 101.154 90.058C101.317 89.9965 101.487 90.0307 101.67 90.1469L106.009 92.9017L106.743 91.7328C106.845 91.5756 106.968 91.4867 107.11 91.473C107.26 91.4594 107.389 91.4867 107.505 91.5619C107.62 91.6371 107.702 91.7464 107.756 91.8832C107.811 92.0199 107.777 92.1703 107.682 92.3275L106.947 93.4964L109.334 95.0071C109.518 95.1233 109.62 95.2668 109.633 95.4377C109.654 95.6086 109.62 95.7658 109.531 95.9025C109.443 96.0392 109.32 96.1349 109.157 96.1965C108.994 96.2511 108.817 96.2238 108.64 96.1076L100.977 91.2406L100.984 91.2474Z" fill="#410102"/>
<path d="M53.4109 118.365C53.4449 118.166 53.4109 118.009 53.3293 117.9C53.2477 117.791 53.1185 117.722 52.9417 117.695L48.8753 117.045C48.6985 117.018 48.5761 116.936 48.5081 116.813C48.4401 116.683 48.4129 116.553 48.4333 116.417C48.4537 116.28 48.5149 116.164 48.6237 116.061C48.7257 115.965 48.8685 115.931 49.0453 115.959L51.0921 116.287L51.2553 115.234L48.0185 114.721C47.8281 114.694 47.6989 114.612 47.6241 114.496C47.5493 114.373 47.5221 114.243 47.5493 114.092C47.5697 113.956 47.6377 113.84 47.7465 113.744C47.8553 113.648 48.0049 113.621 48.1953 113.648L49.8409 113.908C49.6301 113.621 49.4805 113.313 49.3989 112.978C49.3105 112.643 49.2969 112.295 49.3581 111.926C49.4125 111.556 49.5485 111.221 49.7525 110.921C49.9565 110.613 50.2149 110.36 50.5209 110.162C50.8269 109.964 51.1805 109.813 51.5749 109.731C51.9693 109.649 52.3909 109.636 52.8261 109.704C53.2613 109.772 53.6489 109.909 54.0025 110.114C54.3493 110.319 54.6417 110.565 54.8661 110.852C55.0905 111.139 55.2605 111.461 55.3557 111.816C55.4577 112.172 55.4781 112.527 55.4169 112.896C55.3625 113.265 55.2333 113.593 55.0497 113.887C54.8661 114.181 54.6281 114.427 54.3425 114.632L55.9881 114.892C56.1717 114.92 56.3009 114.995 56.3757 115.118C56.4505 115.241 56.4777 115.371 56.4573 115.507C56.4369 115.651 56.3689 115.774 56.2601 115.863C56.1513 115.952 56.0085 115.986 55.8249 115.959L52.5813 115.439L52.4181 116.492L53.3565 116.642C53.8461 116.717 54.2133 116.922 54.4649 117.244C54.7165 117.565 54.8049 118.002 54.7165 118.549L54.5465 119.622C54.4853 120.012 54.3425 120.292 54.1181 120.463C53.8937 120.634 53.5741 120.689 53.1593 120.62L48.5217 119.882C48.3449 119.855 48.2225 119.78 48.1477 119.65C48.0729 119.52 48.0457 119.39 48.0661 119.253C48.0865 119.117 48.1545 119 48.2633 118.898C48.3721 118.795 48.5149 118.761 48.6917 118.789L52.8805 119.458C53.1253 119.499 53.2613 119.397 53.3021 119.158L53.4245 118.365L53.4109 118.365ZM54.1113 112.8C54.1521 112.554 54.1453 112.322 54.0909 112.096C54.0365 111.871 53.9413 111.673 53.8121 111.495C53.6829 111.317 53.5129 111.167 53.3157 111.037C53.1117 110.907 52.8873 110.825 52.6357 110.784C52.3841 110.743 52.1461 110.757 51.9149 110.811C51.6837 110.866 51.4797 110.962 51.2961 111.092C51.1193 111.221 50.9629 111.385 50.8473 111.577C50.7249 111.775 50.6501 111.994 50.6093 112.24C50.5685 112.479 50.5821 112.712 50.6365 112.937C50.6909 113.163 50.7793 113.368 50.9153 113.546C51.0513 113.723 51.2145 113.881 51.4117 114.01C51.6157 114.14 51.8401 114.222 52.0917 114.263C52.3433 114.304 52.5813 114.291 52.8125 114.236C53.0437 114.181 53.2477 114.086 53.4313 113.949C53.6149 113.819 53.7645 113.648 53.8801 113.457C54.0025 113.258 54.0773 113.04 54.1181 112.8L54.1113 112.8Z" fill="#410102"/>
<path d="M41.1299 107.714C40.9803 107.66 40.8715 107.571 40.8035 107.441C40.7355 107.311 40.7355 107.168 40.7899 107.01C40.8443 106.846 40.9395 106.737 41.0687 106.682C41.1979 106.628 41.3407 106.621 41.4903 106.682L46.0192 108.275C46.23 108.35 46.4136 108.453 46.5632 108.583C46.7128 108.712 46.8284 108.863 46.9168 109.027C47.0052 109.191 47.0528 109.369 47.0596 109.56C47.0732 109.751 47.046 109.936 46.9848 110.121C46.9236 110.305 46.8284 110.462 46.706 110.592C46.5836 110.722 46.434 110.825 46.2708 110.9C46.1008 110.975 45.9172 111.009 45.72 111.016C45.5228 111.016 45.3188 110.989 45.108 110.914L41.7895 109.745C41.6875 109.71 41.5923 109.71 41.5107 109.745C41.4291 109.786 41.3679 109.854 41.3339 109.95C41.2999 110.045 41.3067 110.127 41.3543 110.196C41.4019 110.264 41.4699 110.319 41.5787 110.353L45.6248 111.782C45.7744 111.836 45.89 111.925 45.958 112.041C46.026 112.158 46.0328 112.301 45.9784 112.458C45.924 112.616 45.8288 112.725 45.6996 112.787C45.5704 112.841 45.4276 112.841 45.278 112.787L43.4011 112.123L43.1767 112.759L46.2776 113.853C46.4612 113.914 46.5768 114.017 46.6312 114.147C46.6856 114.277 46.6856 114.413 46.6312 114.55C46.5768 114.701 46.4952 114.81 46.366 114.878C46.2368 114.947 46.0872 114.953 45.9104 114.892L38.4779 112.274C38.2943 112.212 38.1787 112.11 38.1243 111.973C38.0699 111.836 38.0699 111.693 38.1243 111.549C38.1719 111.406 38.2603 111.303 38.3895 111.235C38.5119 111.166 38.6683 111.166 38.8519 111.235L41.9391 112.322L42.1635 111.686L41.1503 111.331C40.7287 111.18 40.4227 110.955 40.2323 110.64C40.0419 110.326 40.0215 109.957 40.1711 109.533C40.3207 109.109 40.5655 108.836 40.9055 108.706C41.2455 108.576 41.6331 108.583 42.0547 108.733L45.3732 109.902C45.4752 109.936 45.5704 109.936 45.652 109.902C45.7336 109.868 45.788 109.799 45.822 109.71C45.856 109.615 45.8492 109.533 45.8084 109.458C45.7676 109.382 45.6928 109.328 45.5908 109.287L41.1503 107.721L41.1299 107.714ZM43.8839 114.755C44.2783 114.892 44.53 115.09 44.6456 115.343C44.7612 115.596 44.7543 115.91 44.6251 116.286L44.1627 117.612C44.0335 117.982 43.8431 118.235 43.5983 118.358C43.3535 118.481 43.0271 118.474 42.6395 118.337L38.8859 117.018C38.4915 116.881 38.2399 116.683 38.1243 116.43C38.0087 116.177 38.0155 115.863 38.1447 115.487L38.6071 114.16C38.7363 113.791 38.9267 113.538 39.1715 113.415C39.4163 113.292 39.7427 113.299 40.1303 113.436L43.8839 114.755ZM43.4555 115.774L39.8311 114.495L39.3075 115.999L42.9319 117.278L43.4555 115.774Z" fill="#410102"/>
<path d="M31.3106 104.727C31.1406 104.631 31.0454 104.508 31.025 104.365C31.0046 104.221 31.025 104.084 31.093 103.961C31.1678 103.832 31.2698 103.743 31.4058 103.688C31.5418 103.633 31.6982 103.654 31.8614 103.75L38.7294 107.666C38.8926 107.755 38.981 107.878 39.0082 108.022C39.0354 108.165 39.0082 108.309 38.9334 108.432C38.8654 108.555 38.7634 108.644 38.6274 108.699C38.4914 108.753 38.3418 108.733 38.1786 108.644L35.3158 107.01L34.5542 108.357L35.7306 109.027C36.091 109.232 36.3086 109.471 36.3766 109.744C36.4446 110.018 36.3766 110.319 36.1862 110.667L34.3162 113.969C34.2074 114.16 34.0714 114.263 33.9014 114.297C33.7314 114.331 33.575 114.297 33.439 114.215C33.2962 114.133 33.1942 114.01 33.1262 113.853C33.065 113.689 33.0854 113.518 33.1874 113.326L33.779 112.274L30.4334 110.36L29.8418 111.412C29.733 111.604 29.597 111.706 29.427 111.74C29.257 111.775 29.1006 111.74 28.9646 111.658C28.8218 111.576 28.7198 111.453 28.6518 111.296C28.5838 111.132 28.6042 110.961 28.713 110.77L30.583 107.468C30.7802 107.126 31.0046 106.914 31.2766 106.832C31.5418 106.75 31.8614 106.819 32.2286 107.031L33.405 107.701L34.1666 106.354L31.3106 104.727ZM31.7594 108.029L30.9842 109.403L34.3298 111.317L35.105 109.943L31.7594 108.029Z" fill="#410102"/>
<path d="M26.7344 106.038C26.5304 106.284 26.306 106.469 26.0476 106.599C25.796 106.729 25.524 106.804 25.2452 106.831L25.9252 107.406C26.068 107.522 26.136 107.658 26.136 107.802C26.136 107.946 26.0952 108.075 26.0068 108.178C25.9116 108.287 25.796 108.362 25.6532 108.39C25.5104 108.417 25.3676 108.376 25.2248 108.253L23.4228 106.742L22.9808 107.276C22.8312 107.453 22.668 107.542 22.4912 107.535C22.3144 107.529 22.158 107.474 22.0356 107.364C21.8996 107.248 21.8112 107.105 21.7772 106.934C21.7432 106.763 21.8044 106.585 21.9472 106.407L22.3892 105.874L20.6144 104.384C20.4648 104.261 20.39 104.124 20.3968 103.974C20.3968 103.824 20.4444 103.694 20.5396 103.584C20.628 103.475 20.7436 103.413 20.8864 103.386C21.0292 103.359 21.172 103.407 21.3216 103.53L21.9744 104.077C21.9472 103.789 21.9744 103.509 22.056 103.236C22.1376 102.962 22.2804 102.703 22.4776 102.456C22.668 102.224 22.8924 102.04 23.1372 101.91C23.382 101.78 23.6404 101.698 23.9124 101.67C24.1844 101.643 24.4632 101.657 24.742 101.718C25.0208 101.78 25.2996 101.882 25.5716 102.033L26.5984 100.795L24.0892 98.69C23.9396 98.567 23.8716 98.4303 23.8716 98.2799C23.8716 98.1295 23.9192 98.0065 24.0076 97.8971C24.1028 97.7809 24.2184 97.7125 24.368 97.6852C24.5108 97.6578 24.6604 97.7057 24.81 97.8287L30.8756 102.914C31.0184 103.031 31.0864 103.167 31.0864 103.318C31.0864 103.468 31.032 103.598 30.9436 103.707C30.8552 103.817 30.7396 103.885 30.59 103.912C30.4472 103.94 30.3044 103.899 30.1616 103.776L27.6388 101.664L26.612 102.901C26.8024 103.14 26.952 103.393 27.0608 103.666C27.1696 103.933 27.2308 104.206 27.2512 104.48C27.2716 104.753 27.2376 105.02 27.1492 105.286C27.0676 105.553 26.9248 105.799 26.7344 106.032L26.7344 106.038ZM25.7076 105.321C25.8504 105.15 25.9456 104.965 25.9932 104.774C26.0408 104.582 26.0544 104.391 26.0272 104.206C26 104.022 25.9388 103.844 25.8436 103.673C25.7484 103.502 25.6192 103.359 25.4696 103.229C25.32 103.106 25.1568 103.01 24.9732 102.942C24.7896 102.873 24.606 102.846 24.4224 102.86C24.2388 102.873 24.0552 102.921 23.8784 103.003C23.7016 103.085 23.5452 103.215 23.4024 103.386C23.2528 103.564 23.1508 103.748 23.0964 103.94C23.042 104.131 23.0284 104.316 23.0556 104.5C23.0828 104.685 23.144 104.856 23.2392 105.027C23.3344 105.198 23.4568 105.341 23.6064 105.464C23.7628 105.594 23.926 105.69 24.1096 105.758C24.2932 105.826 24.4768 105.854 24.6604 105.847C24.844 105.847 25.0276 105.792 25.2112 105.71C25.3948 105.628 25.558 105.492 25.7076 105.314L25.7076 105.321Z" fill="#410102"/>
<path d="M21.4777 96.654C21.3077 96.7976 21.1309 96.8522 20.9609 96.8181C20.7909 96.7839 20.6481 96.7019 20.5325 96.5651C20.4305 96.4421 20.3761 96.2849 20.3693 96.1072C20.3693 95.9226 20.4509 95.7654 20.6209 95.6218L21.8857 94.5691C22.0557 94.4256 22.1509 94.282 22.1577 94.1385C22.1645 93.9949 22.1169 93.8582 22.0149 93.7215L19.1657 90.2558C19.0501 90.1123 19.0025 89.9687 19.0297 89.8252C19.0569 89.6816 19.1249 89.5654 19.2337 89.4766C19.3425 89.3877 19.4649 89.3467 19.6145 89.3398C19.7641 89.3398 19.8933 89.4082 20.0089 89.5518L23.0349 93.2225C23.3477 93.6053 23.4905 94.0018 23.4565 94.4256C23.4225 94.8426 23.1981 95.2322 22.7697 95.5876L21.4777 96.6608L21.4777 96.654ZM16.8605 91.6708C17.0237 91.5341 17.1937 91.4794 17.3637 91.5136C17.5337 91.5478 17.6697 91.6298 17.7717 91.7528C17.8737 91.8759 17.9281 92.0263 17.9349 92.204C17.9349 92.3749 17.8601 92.5321 17.6901 92.6756L12.9233 96.6403C12.7533 96.777 12.5901 96.8317 12.4201 96.7907C12.2501 96.7565 12.1141 96.6745 12.0121 96.5446C11.9101 96.4216 11.8557 96.2712 11.8557 96.1003C11.8557 95.9294 11.9373 95.7722 12.1005 95.6355L16.8673 91.6708L16.8605 91.6708ZM18.1253 93.3182C18.2885 93.1815 18.4585 93.1268 18.6149 93.1473C18.7781 93.1747 18.9073 93.2498 19.0093 93.3729C19.1113 93.4959 19.1657 93.6463 19.1657 93.8172C19.1657 93.9881 19.0841 94.1453 18.9141 94.282L16.2961 96.4626L16.9625 97.2692C17.0781 97.4128 17.1257 97.5563 17.0985 97.6999C17.0713 97.8434 17.0033 97.9596 16.8945 98.0485C16.7857 98.1373 16.6633 98.1784 16.5137 98.1852C16.3641 98.1852 16.2349 98.1168 16.1193 97.9733L15.4529 97.1667L14.2425 98.1715C14.0725 98.3082 13.9093 98.3629 13.7393 98.3356C13.5693 98.3082 13.4401 98.2262 13.3313 98.1032C13.2293 97.9801 13.1817 97.8297 13.1817 97.6657C13.1817 97.5016 13.2701 97.3512 13.4401 97.2077L18.1185 93.3182L18.1253 93.3182ZM21.4165 98.6637C21.4845 98.6842 21.5457 98.7184 21.5933 98.7525C21.6409 98.7867 21.6817 98.8277 21.7157 98.8688C21.8245 98.9986 21.8653 99.149 21.8313 99.3199C21.8041 99.4908 21.7293 99.6275 21.6069 99.7232C21.4505 99.8531 21.2601 99.8736 21.0357 99.7916C20.6549 99.6549 20.3013 99.5797 19.9681 99.566C19.6349 99.5523 19.3289 99.5728 19.0433 99.6412C18.7577 99.7027 18.5061 99.7984 18.2681 99.9283C18.0369 100.058 17.8193 100.202 17.6221 100.366L16.7109 101.125C16.5409 101.268 16.3641 101.323 16.1941 101.289C16.0241 101.254 15.8813 101.172 15.7725 101.042C15.6705 100.919 15.6161 100.762 15.6161 100.585C15.6161 100.407 15.6977 100.243 15.8745 100.099L16.7449 99.3746C16.9353 99.2174 17.1189 99.0397 17.2889 98.8414C17.4589 98.6432 17.6017 98.4176 17.7173 98.1647C17.8329 97.9118 17.9077 97.6383 17.9485 97.3307C17.9893 97.0231 17.9757 96.6745 17.9077 96.2917C17.8873 96.1687 17.8941 96.0593 17.9281 95.9636C17.9621 95.8679 18.0165 95.7927 18.0913 95.7312C18.2069 95.6355 18.3565 95.5876 18.5265 95.5876C18.6965 95.5876 18.8393 95.656 18.9481 95.7859C19.0161 95.8679 19.0637 95.9773 19.0841 96.114C19.1385 96.5173 19.1453 96.9274 19.1045 97.3239C19.0637 97.7272 18.9753 98.1168 18.8325 98.4928C19.2677 98.4108 19.6961 98.3903 20.1245 98.4244C20.5529 98.4586 20.9813 98.5406 21.4029 98.6637L21.4165 98.6637Z" fill="#410102"/>
<path d="M14.4739 81.5945C14.6643 81.492 14.8411 81.4715 14.9975 81.5398C15.1539 81.6082 15.2763 81.7107 15.3511 81.8543C15.4259 81.9978 15.4531 82.155 15.4191 82.3259C15.3919 82.4968 15.2763 82.6335 15.0927 82.7361L10.5911 85.2106L11.2507 86.4273C11.3391 86.5914 11.3527 86.7418 11.2983 86.8785C11.2439 87.0152 11.1487 87.1177 11.0331 87.1861C10.9107 87.2544 10.7747 87.275 10.6319 87.2476C10.4891 87.2203 10.3667 87.1246 10.2783 86.9605L9.61871 85.7438L7.1435 87.1041C6.9531 87.2066 6.78311 87.2271 6.61991 87.1587C6.46351 87.0904 6.3411 86.9879 6.2663 86.8443C6.1915 86.7008 6.1643 86.5435 6.1983 86.3726C6.2323 86.2018 6.34111 86.065 6.52471 85.9625L14.4807 81.5945L14.4739 81.5945ZM15.5891 88.396C15.8271 88.8335 15.8883 89.2573 15.7795 89.6674C15.6707 90.0776 15.3715 90.4125 14.8819 90.6791L11.5091 92.5316C11.1623 92.723 10.8563 92.7777 10.5911 92.7025C10.3259 92.6273 10.0879 92.4017 9.88391 92.0326L8.27231 89.0659C8.17711 88.895 8.16351 88.7446 8.21791 88.6079C8.27231 88.4712 8.36071 88.3687 8.47631 88.3071C8.60551 88.2388 8.74152 88.2183 8.88432 88.2456C9.02712 88.273 9.14951 88.3687 9.23791 88.5395L10.6319 91.1098C10.7475 91.3285 10.9175 91.3764 11.1215 91.2601L12.2571 90.6381L10.9107 88.1568C10.8359 88.02 10.8223 87.8833 10.8563 87.7398C10.8903 87.5962 10.9855 87.4869 11.1351 87.4048C11.2779 87.3296 11.4207 87.3091 11.5567 87.3501C11.6927 87.3912 11.8015 87.4869 11.8763 87.6167L13.2227 90.0912L14.2291 89.5376C14.4263 89.4282 14.5419 89.3051 14.5827 89.1548C14.6235 89.0112 14.6031 88.8677 14.5283 88.7241L13.0187 85.942C12.9303 85.7779 12.9167 85.6276 12.9711 85.4908C13.0255 85.3541 13.1139 85.2516 13.2295 85.1901C13.3519 85.1217 13.4879 85.1012 13.6307 85.1286C13.7735 85.1559 13.8959 85.2516 13.9843 85.4088L15.5959 88.3755L15.5891 88.396Z" fill="#410102"/>
<path d="M14.1408 26.6082C14.2972 26.7312 14.4468 26.7859 14.5828 26.7654C14.7188 26.7449 14.8412 26.6697 14.95 26.5262L17.5 23.2792C17.6088 23.1425 17.738 23.0673 17.8808 23.0741C18.0236 23.0741 18.1528 23.122 18.2616 23.204C18.3704 23.2861 18.4384 23.4023 18.4724 23.5458C18.5064 23.6825 18.4724 23.8261 18.3568 23.9628L17.0716 25.5965L17.908 26.2596L19.9412 23.6757C20.0568 23.5253 20.1928 23.4433 20.3356 23.4364C20.4784 23.4364 20.6076 23.4706 20.7232 23.5663C20.832 23.6552 20.9 23.7646 20.9272 23.9081C20.9544 24.0516 20.9068 24.1952 20.7912 24.3456L19.7576 25.658C20.1044 25.6102 20.4512 25.6375 20.7844 25.7195C21.1176 25.8084 21.4304 25.9656 21.7228 26.198C22.0152 26.4305 22.2396 26.7107 22.4028 27.0388C22.566 27.3669 22.6612 27.7156 22.6884 28.0847C22.7156 28.4538 22.668 28.8298 22.5456 29.2194C22.43 29.609 22.226 29.9782 21.954 30.3336C21.682 30.6822 21.3692 30.9557 21.0224 31.1607C20.6756 31.3658 20.322 31.5025 19.9616 31.5572C19.6012 31.6119 19.2408 31.6051 18.8872 31.5162C18.5336 31.4273 18.2072 31.2701 17.9216 31.0445C17.6292 30.8121 17.4048 30.5455 17.2416 30.2379C17.0784 29.9303 16.9832 29.6022 16.9424 29.2536L15.9088 30.566C15.7932 30.7096 15.664 30.7848 15.5212 30.7916C15.3784 30.7916 15.256 30.7574 15.1472 30.6686C15.0316 30.5797 14.9636 30.4635 14.9364 30.3199C14.9092 30.1764 14.95 30.0397 15.0656 29.8893L17.0988 27.2986L16.2624 26.6355L15.6776 27.3806C15.3716 27.7702 15.018 27.9958 14.6168 28.0642C14.2156 28.1257 13.794 27.989 13.3587 27.6472L12.5087 26.9705C12.2027 26.7244 12.026 26.4646 11.9852 26.1844C11.9444 25.9041 12.0531 25.5965 12.3183 25.2684L15.2288 21.5635C15.3376 21.4268 15.4668 21.3516 15.6164 21.3516C15.766 21.3516 15.8884 21.3926 15.9972 21.4746C16.106 21.5566 16.174 21.6728 16.208 21.8164C16.242 21.9599 16.208 22.1035 16.0924 22.2402L13.4608 25.5897C13.3044 25.7811 13.3248 25.9588 13.5152 26.1023L14.1408 26.6013L14.1408 26.6082ZM18.622 29.9508C18.8192 30.108 19.0232 30.2106 19.2476 30.2789C19.472 30.3405 19.6896 30.361 19.9072 30.3336C20.1248 30.3063 20.3424 30.2311 20.5464 30.1217C20.7504 30.0123 20.9408 29.8483 21.0972 29.6501C21.2536 29.4518 21.3624 29.2331 21.4304 29.0075C21.4916 28.7751 21.512 28.5495 21.4916 28.3308C21.4644 28.112 21.3964 27.9001 21.2876 27.6951C21.172 27.49 21.0224 27.3123 20.8252 27.1619C20.6348 27.0115 20.4308 26.909 20.2132 26.8406C19.9956 26.7722 19.7712 26.7586 19.5468 26.7859C19.3224 26.8133 19.1116 26.8816 18.9008 26.9978C18.69 27.114 18.5064 27.2712 18.35 27.4695C18.1936 27.6677 18.0848 27.8865 18.0168 28.112C17.9556 28.3444 17.9352 28.57 17.9624 28.7956C17.9896 29.0212 18.0576 29.2331 18.1732 29.4313C18.2888 29.6295 18.4384 29.8073 18.622 29.9577L18.622 29.9508Z" fill="#410102"/>
<path d="M21.9202 20.0254C21.6074 20.3057 21.315 20.4287 21.0362 20.4082C20.7574 20.3877 20.4921 20.2236 20.2269 19.9297L19.3021 18.877C19.0437 18.5831 18.9145 18.296 18.9281 18.0157C18.9417 17.7354 19.0981 17.4552 19.4109 17.1818L22.3894 14.5295C22.7022 14.2493 22.9946 14.1262 23.2734 14.1467C23.5522 14.1672 23.8174 14.3313 24.0826 14.6252L25.0074 15.6779C25.2658 15.9718 25.395 16.2589 25.3814 16.5392C25.3678 16.8195 25.2114 17.0997 24.8986 17.3732L21.9202 20.0254ZM21.247 19.1504L24.1234 16.5939L23.0762 15.4045L20.1998 17.961L21.247 19.1504ZM29.3798 21.0439C29.5022 20.9345 29.6314 20.8867 29.7742 20.8867C29.917 20.8867 30.0462 20.955 30.155 21.0849C30.2638 21.2148 30.3182 21.3515 30.3046 21.4951C30.291 21.6386 30.223 21.7616 30.1006 21.871L26.5102 25.0701C26.3402 25.2205 26.1634 25.3299 25.9798 25.3982C25.7962 25.4666 25.6058 25.5008 25.4222 25.4939C25.2386 25.4939 25.0618 25.4461 24.8918 25.364C24.7218 25.282 24.5722 25.1658 24.443 25.0223C24.3138 24.8787 24.2254 24.7215 24.171 24.5438C24.1166 24.3729 24.0962 24.1951 24.1166 24.0106C24.137 23.826 24.1914 23.6483 24.2866 23.4706C24.3818 23.2928 24.511 23.1356 24.6742 22.9852L27.3058 20.6406C27.3874 20.5722 27.4282 20.4834 27.435 20.3945C27.435 20.2988 27.4078 20.2168 27.3466 20.1416C27.2786 20.0664 27.2038 20.0322 27.1222 20.0391C27.0406 20.0391 26.959 20.0869 26.8774 20.1553L23.6678 23.0126C23.5454 23.1219 23.4162 23.1766 23.2802 23.1766C23.1442 23.1766 23.0218 23.1151 22.9062 22.9921C22.7906 22.8622 22.743 22.7323 22.7566 22.5888C22.7702 22.4452 22.8382 22.3222 22.9606 22.2128L24.4498 20.8867L24.0078 20.3808L21.5462 22.5683C21.4034 22.6981 21.2606 22.7528 21.1246 22.7323C20.9886 22.7118 20.8662 22.6503 20.771 22.5409C20.669 22.4247 20.6146 22.2948 20.6146 22.1513C20.6146 22.0077 20.6826 21.871 20.8254 21.7411L26.721 16.4982C26.8638 16.3683 27.0066 16.3136 27.1562 16.3341C27.299 16.3546 27.4214 16.4162 27.5302 16.5392C27.6254 16.6486 27.673 16.7785 27.673 16.922C27.673 17.0655 27.5982 17.2023 27.4554 17.3321L25.0074 19.5127L25.4494 20.0186L26.2518 19.3008C26.585 19 26.9386 18.8497 27.299 18.836C27.6662 18.8223 27.9926 18.9864 28.2918 19.3213C28.591 19.6563 28.7066 20.0049 28.6522 20.374C28.5978 20.7363 28.4006 21.0712 28.0674 21.3652L25.4358 23.7098C25.3542 23.785 25.3134 23.8602 25.2998 23.9491C25.293 24.0379 25.3202 24.1199 25.3814 24.1951C25.4426 24.2703 25.5242 24.3045 25.6126 24.3045C25.701 24.3045 25.7826 24.2703 25.8642 24.1951L29.3866 21.0576L29.3798 21.0439Z" fill="#410102"/>
<path d="M36.7644 13.8542C36.9276 13.7517 37.084 13.7312 37.22 13.779C37.3628 13.8269 37.4648 13.9157 37.5396 14.0319C37.6144 14.155 37.6416 14.2917 37.628 14.4421C37.6076 14.5925 37.5192 14.7155 37.356 14.8112L30.6104 18.9331C30.454 19.0288 30.3044 19.0493 30.1616 19.0015C30.0188 18.9536 29.9167 18.8648 29.8419 18.7349C29.7671 18.6187 29.74 18.482 29.7604 18.3316C29.7808 18.1812 29.8692 18.065 30.0256 17.9625L32.8408 16.2399L32.0452 14.9206L30.8892 15.6247C30.5356 15.8434 30.2228 15.9186 29.9508 15.8434C29.6788 15.775 29.4475 15.57 29.2435 15.2282L27.2783 11.9812C27.1627 11.7967 27.1355 11.6258 27.1967 11.4617C27.2511 11.2977 27.3531 11.1746 27.4891 11.0926C27.6319 11.0106 27.7815 10.9764 27.9583 10.9969C28.1283 11.0174 28.2711 11.12 28.3867 11.3045L29.0123 12.3367L32.3036 10.327L31.678 9.29484C31.5624 9.11027 31.5352 8.93938 31.5964 8.77533C31.6508 8.61127 31.7528 8.48823 31.8888 8.4062C32.0316 8.32417 32.1812 8.28999 32.358 8.3105C32.528 8.33101 32.6708 8.43354 32.7864 8.61811L34.7516 11.865C34.9556 12.2 35.0304 12.5076 34.9624 12.781C34.9012 13.0544 34.6904 13.3005 34.33 13.5193L33.174 14.2233L33.9696 15.5426L36.7712 13.8269L36.7644 13.8542ZM33.6772 12.6443L32.8612 11.2908L29.57 13.3005L30.386 14.654L33.6772 12.6443Z" fill="#410102"/>
<path d="M37.8253 9.20583C37.7097 8.9119 37.6621 8.61796 37.6689 8.33087C37.6757 8.04377 37.7437 7.77034 37.8593 7.51059L37.0297 7.83186C36.8597 7.90022 36.7101 7.89338 36.5809 7.83186C36.4585 7.76351 36.3701 7.66097 36.3157 7.53109C36.2613 7.39438 36.2613 7.25767 36.3089 7.11412C36.3565 6.97057 36.4653 6.86803 36.6353 6.79968L38.8249 5.95206L38.5801 5.3095C38.4985 5.09076 38.4985 4.9062 38.5937 4.74898C38.6889 4.5986 38.8113 4.48923 38.9609 4.4277C39.1241 4.36618 39.2941 4.35935 39.4573 4.41403C39.6205 4.46872 39.7429 4.60543 39.8313 4.82417L40.0761 5.46672L42.2317 4.63277C42.4085 4.56442 42.5649 4.56442 42.6941 4.63277C42.8233 4.70797 42.9117 4.8105 42.9661 4.94721C43.0137 5.07709 43.0137 5.20697 42.9661 5.34368C42.9185 5.4804 42.8097 5.58293 42.6261 5.65129L41.8305 5.95889C42.0889 6.0751 42.3201 6.23232 42.5173 6.43739C42.7145 6.64246 42.8709 6.89538 42.9865 7.18931C43.0953 7.46957 43.1429 7.74984 43.1429 8.0301C43.1429 8.31036 43.0817 8.57695 42.9729 8.82987C42.8641 9.08279 42.7145 9.3152 42.5241 9.54078C42.3337 9.75952 42.1093 9.95092 41.8509 10.1218L42.4289 11.6325L45.4822 10.4499C45.659 10.3816 45.8154 10.3816 45.9446 10.4568C46.0738 10.5319 46.1622 10.6345 46.2098 10.7644C46.2642 10.9011 46.2642 11.0446 46.2234 11.1813C46.1758 11.3249 46.067 11.4274 45.8834 11.4958L38.5121 14.3462C38.3421 14.4146 38.1925 14.4078 38.0633 14.3326C37.9341 14.2574 37.8457 14.148 37.7913 14.0113C37.7437 13.8814 37.7369 13.7447 37.7845 13.6012C37.8321 13.4576 37.9409 13.3551 38.1109 13.2867L41.1777 12.1042L40.5997 10.5935C40.3005 10.6413 40.0013 10.655 39.7157 10.614C39.4301 10.5798 39.1649 10.5046 38.9201 10.3884C38.6753 10.2722 38.4577 10.115 38.2673 9.9099C38.0769 9.70483 37.9273 9.45875 37.8185 9.17849L37.8253 9.20583ZM38.9541 8.65898C39.0357 8.87088 39.1445 9.04177 39.2873 9.17849C39.4301 9.3152 39.5865 9.41774 39.7633 9.48609C39.9401 9.55445 40.1237 9.58863 40.3141 9.58179C40.5045 9.58179 40.6949 9.54078 40.8853 9.46559C41.0621 9.39723 41.2253 9.29469 41.3749 9.17165C41.5177 9.04177 41.6333 8.89823 41.7149 8.72733C41.7965 8.55644 41.8441 8.37872 41.8509 8.18048C41.8577 7.98225 41.8305 7.78401 41.7489 7.57211C41.6673 7.35337 41.5517 7.17564 41.4157 7.03209C41.2729 6.88854 41.1165 6.78601 40.9465 6.71765C40.7765 6.64929 40.5929 6.62195 40.4025 6.62195C40.2121 6.62195 40.0217 6.66296 39.8449 6.73132C39.6613 6.80651 39.4913 6.90221 39.3485 7.03209C39.2057 7.16197 39.0901 7.30552 39.0017 7.46957C38.9201 7.63363 38.8657 7.81819 38.8521 8.01643C38.8385 8.21466 38.8725 8.42657 38.9541 8.64531L38.9541 8.65898Z" fill="#410102"/>
<path d="M55.1448 7.55002C55.1856 7.76193 55.1448 7.93282 55.036 8.0627C54.9272 8.19257 54.7912 8.2746 54.628 8.30194C54.4648 8.32929 54.3084 8.30194 54.1588 8.21992C54.0024 8.13789 53.9072 7.9875 53.8732 7.7756L52.7648 1.65768C52.724 1.44578 52.7648 1.27489 52.8804 1.13817C52.996 1.0083 53.132 0.926268 53.2952 0.898925C53.4584 0.871583 53.608 0.898925 53.7576 0.980953C53.9072 1.06298 54.0024 1.21337 54.0432 1.42527L55.1516 7.54319L55.1448 7.55002ZM53.098 7.85763C53.1388 8.06953 53.098 8.24042 53.0028 8.3703C52.9008 8.50018 52.7716 8.57537 52.6084 8.60955C52.452 8.63689 52.2956 8.60955 52.146 8.52752C51.9964 8.44549 51.9012 8.29511 51.8672 8.0832L51.2552 4.72006L50.2352 4.90462C50.0516 4.9388 49.9088 4.90462 49.7932 4.80892C49.6776 4.71322 49.6164 4.59702 49.5892 4.4603C49.562 4.32359 49.5892 4.19371 49.6572 4.06384C49.7252 3.93396 49.8544 3.85193 50.038 3.81775L51.0648 3.63319L50.786 2.08149C50.7452 1.86959 50.786 1.69186 50.8948 1.56198C51.0036 1.43211 51.1396 1.35008 51.296 1.32274C51.4524 1.29539 51.6088 1.32274 51.7448 1.40476C51.8876 1.48679 51.976 1.63718 52.0168 1.84908L53.1048 7.85079L53.098 7.85763ZM46.8488 8.12422C46.7944 8.17207 46.74 8.21308 46.6856 8.23359C46.6312 8.26093 46.5768 8.2746 46.5224 8.28827C46.3524 8.31561 46.2028 8.28144 46.0736 8.17207C45.9376 8.0627 45.8628 7.93282 45.8356 7.78243C45.8016 7.5842 45.8696 7.40647 46.0532 7.24242C46.3592 6.97583 46.5972 6.69556 46.774 6.4153C46.9508 6.1282 47.08 5.84794 47.1616 5.56768C47.2432 5.28742 47.284 5.01399 47.2908 4.7474C47.2908 4.48081 47.2704 4.22106 47.2228 3.96814L47.012 2.79924C46.9712 2.5805 47.012 2.40277 47.1208 2.26606C47.2364 2.12934 47.3724 2.04732 47.5424 2.01997C47.6988 1.99263 47.862 2.01997 48.0184 2.102C48.1748 2.18403 48.2768 2.34125 48.3108 2.55999L48.5148 3.68104C48.5624 3.92712 48.6236 4.17321 48.712 4.41929C48.8004 4.66537 48.9228 4.90462 49.086 5.12336C49.2492 5.34894 49.4532 5.54717 49.698 5.73857C49.9428 5.92313 50.2488 6.08719 50.616 6.21023C50.7316 6.25125 50.8268 6.31277 50.888 6.38796C50.956 6.46999 50.9968 6.55202 51.0104 6.64088C51.0376 6.79126 51.0104 6.94165 50.922 7.09203C50.8336 7.24242 50.7112 7.33128 50.5412 7.36546C50.4324 7.38597 50.3168 7.36546 50.1944 7.32444C49.8136 7.17406 49.46 6.98266 49.1336 6.75025C48.8072 6.51784 48.5148 6.25125 48.2564 5.94364C48.1136 6.36062 47.9232 6.75025 47.6784 7.11254C47.4404 7.47483 47.1616 7.80294 46.8488 8.11738L46.8488 8.12422ZM48.5624 9.1564C48.5216 8.93766 48.5624 8.75993 48.6712 8.62322C48.7868 8.48651 48.9296 8.40448 49.0996 8.3703C49.256 8.34296 49.4192 8.3703 49.5756 8.45233C49.7388 8.53436 49.834 8.69158 49.8748 8.91032L50.1672 10.5372C50.208 10.7559 50.2896 10.9063 50.4052 10.9884C50.5276 11.0704 50.6704 11.0909 50.8336 11.0636L55.2332 10.2569C55.4168 10.2228 55.5596 10.2569 55.6752 10.3526C55.7908 10.4483 55.852 10.5645 55.8792 10.7013C55.9064 10.838 55.8792 10.9679 55.8112 11.0977C55.7432 11.2276 55.614 11.3096 55.4304 11.3438L50.7656 12.1983C50.2828 12.2871 49.8612 12.2119 49.5144 11.9864C49.1676 11.754 48.9432 11.3643 48.8412 10.8175L48.542 9.1564L48.5624 9.1564Z" fill="#410102"/>
<path d="M65.032 10.4088C65.032 10.6275 64.9572 10.7847 64.8212 10.8941C64.6852 11.0035 64.5356 11.0513 64.3724 11.0513C64.2092 11.0513 64.0596 10.9898 63.9304 10.8804C63.7944 10.7711 63.7332 10.607 63.7332 10.3883L63.8148 5.22735L62.4412 5.20684C62.2576 5.20684 62.1216 5.14532 62.0264 5.02228C61.938 4.90608 61.8904 4.7762 61.8904 4.63948C61.8904 4.50277 61.938 4.37289 62.0332 4.25669C62.1284 4.14048 62.2644 4.0858 62.4548 4.0858L63.8284 4.1063L63.876 1.26951C63.876 1.05076 63.9508 0.893544 64.0868 0.784173C64.2228 0.674803 64.3724 0.626953 64.5356 0.626953C64.6988 0.626953 64.8416 0.688474 64.9776 0.797845C65.1136 0.907215 65.1748 1.07127 65.1748 1.29001L65.0252 10.4019L65.032 10.4088ZM58.5992 8.02997C58.1028 8.02314 57.7084 7.86592 57.4092 7.57198C57.11 7.27121 56.9672 6.8474 56.974 6.28688L57.0352 2.42473C57.0352 2.02826 57.144 1.73433 57.3412 1.5361C57.5384 1.33786 57.8512 1.24216 58.266 1.249L61.632 1.30368C61.8224 1.30368 61.9652 1.3652 62.0536 1.48141C62.142 1.59762 62.1896 1.72066 62.1896 1.85054C62.1896 1.99408 62.142 2.12396 62.0468 2.24017C61.9516 2.35637 61.8088 2.41106 61.6184 2.40422L58.708 2.35637C58.4632 2.35637 58.334 2.47258 58.334 2.71183L58.3136 4.0106L61.122 4.05845C61.2784 4.05845 61.4076 4.11314 61.5096 4.21567C61.6116 4.31821 61.6592 4.45492 61.6592 4.62581C61.6592 4.78987 61.6048 4.91975 61.496 5.01545C61.3872 5.11798 61.258 5.16583 61.1084 5.159L58.3 5.11115L58.2796 6.25954C58.2796 6.48511 58.3272 6.64917 58.436 6.75854C58.5448 6.86791 58.674 6.91576 58.8372 6.92259L61.9924 6.97728C62.176 6.97728 62.312 7.0388 62.4072 7.16184C62.4956 7.27805 62.5432 7.40109 62.5432 7.5378C62.5432 7.67452 62.4888 7.8044 62.4004 7.9206C62.3052 8.03681 62.1692 8.09149 61.9788 8.08466L58.6128 8.02997L58.5992 8.02997Z" fill="#410102"/>
<path d="M86.6899 18.3848C86.6899 18.3848 86.7103 20.5039 89.4371 21.1601C89.5391 21.1806 89.6411 21.1943 89.7431 21.208C89.8111 21.2216 89.9335 21.2763 90.0831 21.5429C90.3143 21.9531 91.2663 23.2587 92.7147 23.3339C94.1631 23.4091 94.5779 22.6982 94.8295 22.3427C95.0607 22.0214 95.5911 20.791 94.7819 19.6016C94.6663 19.4307 94.5915 19.2256 94.5915 19.0001C94.5915 18.8702 94.5779 18.8428 94.6323 18.7335L94.6799 18.6378C95.0607 18.1524 94.8703 16.423 93.5987 15.6027C92.4019 14.8303 91.2527 15.0764 90.3891 16.0265C90.2259 16.2043 89.9879 16.2795 89.7703 16.2316C89.4235 16.1564 86.7647 15.8352 86.6899 18.378L86.6899 18.3848Z" fill="#410102"/>
<path d="M92.361 13.491C93.1702 13.8055 94.1456 13.2299 94.5398 12.2052C94.9339 11.1805 94.5975 10.0949 93.7883 9.78041C92.9792 9.4659 92.0037 10.0416 91.6096 11.0662C91.2154 12.0909 91.5519 13.1765 92.361 13.491Z" fill="#410102"/>
<path d="M89.6344 12.5137C89.8044 13.5595 89.2264 14.5917 88.356 14.8036C87.4856 15.0155 86.6424 14.3456 86.4724 13.2998C86.3024 12.2539 86.8804 11.2217 87.7508 11.0098C88.6212 10.7979 89.4644 11.4678 89.6344 12.5137Z" fill="#410102"/>
<path d="M97.9985 16.0475C97.0261 16.4986 95.9857 16.191 95.6729 15.3571C95.3601 14.5231 95.9041 13.4773 96.8765 13.0261C97.8489 12.575 98.8893 12.8826 99.2021 13.7165C99.5149 14.5505 98.9709 15.5963 97.9985 16.0475Z" fill="#410102"/>
<path d="M98.182 21.4134C97.1484 21.386 96.38 20.6204 96.4684 19.7045C96.5568 18.7885 97.468 18.0639 98.5016 18.0844C99.5352 18.1049 100.304 18.8773 100.215 19.7933C100.127 20.7093 99.2156 21.4339 98.182 21.4134Z" fill="#410102"/>
<path d="M10.9376 61.6279C10.9376 61.6279 12.8144 60.6572 12.1752 57.9161C12.1548 57.8136 12.114 57.7179 12.08 57.6222C12.0596 57.5538 12.0596 57.4171 12.2228 57.1642C12.4812 56.7745 13.2156 55.3322 12.6376 53.9924C12.0596 52.6526 11.2368 52.6048 10.8084 52.5364C10.4208 52.4749 9.08804 52.5501 8.39444 53.8079C8.29244 53.9924 8.14283 54.1497 7.95243 54.2522C7.83683 54.3069 7.82323 54.3342 7.70083 54.3342L7.59203 54.3342C6.99363 54.2112 5.53843 55.1613 5.37523 56.672C5.22562 58.0938 5.96003 59.0166 7.19083 59.3653C7.42203 59.4336 7.59883 59.6113 7.65323 59.8301L7.65323 59.8369C7.74163 60.1719 8.65284 62.7079 10.9444 61.6347L10.9376 61.6279Z" fill="#410102"/>
<path d="M0.0901153 59.1133C0.173717 59.9813 1.1233 60.5991 2.21108 60.4933C3.29886 60.3874 4.11291 59.5979 4.0293 58.7299C3.9457 57.8619 2.99611 57.244 1.90833 57.3499C0.820552 57.4558 0.00651398 58.2453 0.0901153 59.1133Z" fill="#410102"/>
<path d="M4.38926 61.6211C5.24606 60.9991 6.41566 61.0537 7.00046 61.7373C7.58526 62.4209 7.36767 63.4872 6.50406 64.1024C5.64046 64.7176 4.47765 64.6698 3.89285 63.9862C3.30805 63.3027 3.52565 62.2363 4.38926 61.6211Z" fill="#410102"/>
<path d="M3.7776 52.5237C4.6208 53.1936 4.81121 54.2668 4.20601 54.9162C3.6008 55.5656 2.4312 55.5519 1.5948 54.882C0.758397 54.2121 0.561193 53.1389 1.1664 52.4895C1.7716 51.8401 2.9412 51.8538 3.7776 52.5237Z" fill="#410102"/>
<path d="M8.46242 49.9537C8.90442 50.897 8.57123 51.9223 7.71443 52.2573C6.85762 52.5922 5.80362 52.1001 5.36161 51.1568C4.91961 50.2134 5.25282 49.1881 6.10962 48.8531C6.96642 48.5182 8.02042 49.0104 8.46242 49.9537Z" fill="#410102"/>
<path d="M84.7183 104.789C84.7183 104.789 82.9435 103.64 80.8967 105.568C80.8219 105.636 80.7607 105.718 80.6859 105.794C80.6383 105.848 80.5227 105.917 80.2235 105.896C79.7543 105.869 78.1495 105.944 77.2859 107.12C76.4223 108.295 76.7895 109.034 76.9459 109.444C77.0887 109.813 77.8163 110.934 79.2443 110.913C79.4551 110.913 79.6659 110.961 79.8495 111.077C79.9583 111.146 79.9855 111.153 80.0467 111.262C80.0467 111.262 80.1011 111.351 80.1011 111.358C80.2983 111.939 81.8419 112.739 83.2223 112.123C84.5211 111.542 84.9563 110.449 84.6367 109.198C84.5755 108.965 84.6503 108.719 84.8067 108.562L84.8067 108.555C85.0583 108.316 86.7923 106.258 84.7183 104.796L84.7183 104.789Z" fill="#410102"/>
<path d="M85.533 114.783C86.1672 115.677 87.254 115.992 87.9606 115.486C88.6671 114.98 88.7258 113.845 88.0916 112.95C87.4575 112.055 86.3706 111.74 85.6641 112.246C84.9575 112.752 84.8989 113.888 85.533 114.783Z" fill="#410102"/>
<path d="M87.9821 110.488C87.0165 110.051 86.4793 109.005 86.7785 108.158C87.0777 107.31 88.1045 106.968 89.0633 107.406C90.0221 107.843 90.5661 108.889 90.2669 109.737C89.9677 110.584 88.9409 110.926 87.9821 110.488Z" fill="#410102"/>
<path d="M80.4413 115.569C80.5977 114.502 81.4273 113.798 82.2909 113.996C83.1545 114.195 83.7257 115.22 83.5625 116.286C83.3993 117.353 82.5765 118.057 81.7129 117.858C80.8493 117.66 80.2781 116.635 80.4413 115.569Z" fill="#410102"/>
<path d="M75.885 112.766C76.4766 111.912 77.5306 111.693 78.2446 112.267C78.9586 112.841 79.0606 114.01 78.469 114.865C77.8774 115.719 76.8234 115.938 76.1094 115.364C75.3954 114.789 75.2934 113.62 75.885 112.766Z" fill="#410102"/>
</g>
<defs>
<clipPath id="clip0_74_51">
<rect width="120" height="120" fill="white" transform="translate(120.092 0.640625) rotate(90)"/>
</clipPath>
</defs>
</svg>
