<svg width="209" height="52" viewBox="0 0 209 52" fill="none" xmlns="http://www.w3.org/2000/svg">
<path d="M25.5274 37.9306C25.9706 37.9306 26.3298 37.5714 26.3298 37.1284C26.3298 36.6853 25.9706 36.3262 25.5274 36.3262C25.0843 36.3262 24.7251 36.6853 24.7251 37.1284C24.7251 37.5714 25.0843 37.9306 25.5274 37.9306Z" fill="#FF6647"/>
<path d="M51.0389 25.5122C51.0389 11.442 39.5896 0 25.5221 0C11.4546 0 0 11.4473 0 25.5122C0 39.5772 11.4493 51.0245 25.5168 51.0245C31.9514 51.0245 37.8371 48.6231 42.3292 44.6807C40.3761 45.8788 38.6553 46.6862 36.1374 47.2034C35.6781 47.2932 35.5673 47.3195 35.3086 47.3407C35.3245 47.2879 35.3245 47.272 35.335 47.214C35.5778 46.2271 35.789 44.6754 35.5884 42.4852C35.3139 39.4347 34.2476 35.1651 31.3866 29.4863C31.3866 29.4863 29.0535 25.127 34.7333 22.5937C40.413 20.0604 40.3867 15.6377 40.7667 15.5638C41.1468 15.4899 41.9438 13.3578 41.1837 12.6347C40.4236 11.9117 38.9034 12.1386 37.8001 12.4447C36.6969 12.7508 33.1233 11.6478 32.0201 10.6187C30.9168 9.59479 25.5379 5.50989 18.8288 8.79259C12.0405 12.1122 10.5203 17.4691 10.5203 18.2713C10.5203 19.2951 11.0376 20.1185 11.6816 20.7676C12.3572 21.4432 15.6775 24.6414 18.169 24.747C18.169 24.747 20.7238 25.0372 20.7238 22.1345C20.7238 22.1345 20.6235 20.5037 20.0218 18.6513C19.8001 17.9652 19.1772 16.6352 18.9291 16.2341C18.0159 14.7669 19.6945 15.4477 19.8423 15.8805C19.9373 15.9702 21.22 18.0496 21.6001 20.0235C21.9485 21.8284 23.1361 25.4278 19.0769 26.1508C18.2006 26.3092 17.3033 26.1772 16.5273 25.7445C16.3584 25.6495 16.1895 25.5228 15.9784 25.4067C14.4951 24.6203 14.1414 27.6075 14.0781 27.8186C13.9936 28.1088 12.1883 37.6192 7.02055 40.6116L6.94665 40.6644C3.56306 36.532 1.5308 31.2543 1.5308 25.5122C1.5308 12.2917 12.2886 1.5358 25.5115 1.5358C36.2799 1.5358 45.4119 8.66593 48.4313 18.456C50.4794 23.2692 50.7011 27.7658 50.6799 29.708C50.9069 28.3411 51.0283 26.9425 51.0283 25.5175L51.0389 25.5122ZM29.0851 12.867C29.7978 12.867 30.3784 13.4475 30.3784 14.16C30.3784 14.8725 29.7978 15.453 29.0851 15.453C28.3725 15.453 27.7919 14.8725 27.7919 14.16C27.7919 13.4475 28.3725 12.867 29.0851 12.867ZM15.7936 39.5508C17.2135 33.8721 19.5942 30.7318 21.9801 29.3121C21.9801 29.3121 24.0071 28.4519 24.3608 29.8716C24.3608 29.8716 24.6669 30.3782 24.4611 31.6449C24.4611 31.6449 24.1074 32.0513 25.6277 32.8587C27.1479 33.6715 28.3145 35.4448 28.7684 36.8117C29.2224 38.1786 30.542 37.5189 30.7954 38.2314C31.0488 38.9386 30.542 39.4453 29.8822 39.8516C29.2541 40.2369 29.9931 41.8572 26.7098 42.2794C26.5409 42.3005 26.3719 42.3216 26.1819 42.3374C26.1819 42.3374 25.3215 42.1844 25.4746 43.298C25.5749 44.021 25.8177 45.8524 25.4746 47.6098C25.3479 48.259 25.142 48.9028 24.8147 49.4728C19.8265 49.3303 15.2182 47.6573 11.444 44.9077C12.8323 44.4432 14.891 43.1449 15.7936 39.5455V39.5508Z" fill="#FF6647"/>
<path d="M66.2504 18.4522C66.2504 18.9783 66.3785 19.3694 66.6416 19.619C66.9047 19.8752 67.2689 19.9966 67.7276 19.9966H78.5402C79.0056 19.9966 79.3564 20.1517 79.5857 20.4485C79.8151 20.752 79.9365 21.0824 79.9365 21.4466C79.9365 21.8108 79.8218 22.1412 79.5857 22.4312C79.3497 22.7212 79.0056 22.8696 78.5402 22.8696H73.1036V25.6616H81.7105C82.2164 25.6616 82.5874 25.8033 82.8369 26.0865C83.0798 26.3698 83.2012 26.707 83.2012 27.0914C83.2012 27.4555 83.0798 27.7793 82.8369 28.0625C82.5941 28.3458 82.2164 28.4874 81.7105 28.4874H77.3396C78.0006 29.1348 78.5132 29.8699 78.8707 30.7062C79.235 31.5357 79.4104 32.4326 79.4104 33.4038C79.4104 34.3749 79.208 35.2989 78.8033 36.1621C78.3986 37.0321 77.8387 37.7874 77.1237 38.4416C76.4087 39.089 75.5521 39.6016 74.5673 39.986C73.5757 40.3704 72.4965 40.566 71.3228 40.566C70.1491 40.566 69.1036 40.3704 68.1121 39.986C67.1205 39.6016 66.2706 39.089 65.5691 38.4416C64.8609 37.7942 64.3077 37.0321 63.903 36.1621C63.4983 35.2921 63.2959 34.3682 63.2959 33.4038C63.2959 32.4394 63.4781 31.5357 63.8491 30.7062C64.2133 29.8767 64.7259 29.1348 65.387 28.4874H61.0161C60.5304 28.4874 60.1662 28.3458 59.9233 28.0625C59.6805 27.7793 59.5591 27.4555 59.5591 27.0914C59.5591 26.707 59.6805 26.3765 59.9233 26.0865C60.1662 25.8033 60.5304 25.6616 61.0161 25.6616H69.6432V22.8696H67.1542C65.8591 22.8696 64.8204 22.5054 64.0244 21.7771C63.2352 21.0487 62.844 19.9629 62.844 18.5062V15.6602C62.844 14.6284 63.1003 13.8528 63.6062 13.3133C64.1189 12.7805 64.9216 12.5107 66.0278 12.5107H78.3514C78.8168 12.5107 79.1675 12.6591 79.4171 12.9626C79.6599 13.2661 79.7813 13.5965 79.7813 13.954C79.7813 14.3114 79.6599 14.6419 79.4171 14.9453C79.1743 15.2488 78.8235 15.3972 78.3514 15.3972H67.2149C66.5674 15.3972 66.2436 15.7142 66.2436 16.3414V18.432L66.2504 18.4522ZM66.7023 33.1003C66.7023 33.7477 66.817 34.3547 67.0531 34.9145C67.2891 35.4742 67.6062 35.953 68.0244 36.3577C68.4358 36.7623 68.935 37.086 69.5083 37.3356C70.0817 37.5784 70.7022 37.6997 71.37 37.6997C72.0378 37.6997 72.6584 37.5784 73.2317 37.3356C73.805 37.0928 74.2975 36.7691 74.7157 36.3577C75.1271 35.953 75.4509 35.4675 75.687 34.9145C75.9163 34.3547 76.0377 33.7545 76.0377 33.1003C76.0377 32.4461 75.9231 31.8796 75.687 31.3199C75.4576 30.7601 75.1339 30.2746 74.7157 29.8564C74.3042 29.4383 73.805 29.1078 73.2317 28.8651C72.6584 28.6223 72.0378 28.5009 71.37 28.5009C70.7022 28.5009 70.0817 28.6223 69.5083 28.8651C68.935 29.1078 68.4426 29.4383 68.0244 29.8564C67.6129 30.2746 67.2891 30.7601 67.0531 31.3199C66.8237 31.8796 66.7023 32.4731 66.7023 33.1003Z" fill="#410102"/>
<path d="M103.95 37.3904C104.375 37.3904 104.726 37.5186 104.995 37.7748C105.272 38.0311 105.407 38.3818 105.407 38.8336C105.407 39.2855 105.272 39.6362 104.995 39.8925C104.719 40.1487 104.375 40.2769 103.95 40.2769H91.3566C90.7697 40.2769 90.2301 40.1824 89.7512 39.9869C89.2655 39.7913 88.8473 39.535 88.4898 39.1978C88.1323 38.8606 87.8625 38.4695 87.6737 38.0176C87.4848 37.5658 87.3836 37.0802 87.3836 36.5744C87.3836 36.0686 87.4781 35.5965 87.6737 35.1649C87.8693 34.7333 88.1391 34.3489 88.4898 34.0251C88.8406 33.7014 89.2655 33.4519 89.7512 33.2698C90.2369 33.0877 90.7697 33 91.3566 33H100.584C100.867 33 101.097 32.9124 101.265 32.7438C101.434 32.5752 101.522 32.3526 101.522 32.0896C101.522 31.8266 101.434 31.631 101.265 31.4961C101.097 31.3612 100.867 31.3005 100.584 31.3005H89.3195C88.8946 31.3005 88.5438 31.1859 88.274 30.9498C87.9974 30.7206 87.8625 30.3766 87.8625 29.9315C87.8625 29.4864 87.9974 29.1357 88.274 28.8862C88.5438 28.6299 88.8946 28.5085 89.3195 28.5085H94.5403V26.7483H85.9199C85.414 26.7483 85.0363 26.6134 84.7934 26.3369C84.5506 26.0604 84.4292 25.73 84.4292 25.3388C84.4292 24.9274 84.5506 24.5835 84.7934 24.2935C85.0363 24.0102 85.4073 23.8619 85.9199 23.8619H106.587C107.093 23.8619 107.471 24.0035 107.727 24.2935C107.984 24.5835 108.105 24.9274 108.105 25.3388C108.105 25.7502 107.977 26.0604 107.727 26.3369C107.478 26.6134 107.093 26.7483 106.587 26.7483H97.9939V28.5085H100.82C101.994 28.5085 102.952 28.812 103.687 29.419C104.422 30.0259 104.793 30.9161 104.793 32.0896C104.793 33.2631 104.422 34.16 103.687 34.7737C102.952 35.3942 101.994 35.6977 100.82 35.6977H91.5927C91.3094 35.6977 91.08 35.7786 90.9114 35.9337C90.736 36.0956 90.6551 36.2979 90.6551 36.5609C90.6551 36.8239 90.7428 37.0262 90.9114 37.1746C91.08 37.323 91.3094 37.3972 91.5927 37.3972H103.95V37.3904ZM91.0463 22.4321C89.9536 22.4321 89.1509 22.1691 88.6517 21.6431C88.1458 21.117 87.8963 20.3347 87.8963 19.3029V15.6341C87.8963 14.6023 88.1458 13.8267 88.6517 13.2939C89.1576 12.7679 89.9536 12.5049 91.0463 12.5049H101.488C102.581 12.5049 103.377 12.7679 103.883 13.2939C104.388 13.82 104.638 14.6023 104.638 15.6341V19.3029C104.638 20.3347 104.382 21.117 103.883 21.6431C103.377 22.1691 102.574 22.4321 101.488 22.4321H91.0463ZM91.2284 19.5457H101.306V15.3846H91.2284V19.5457Z" fill="#410102"/>
<path d="M131.511 32.1699C132.017 32.1699 132.388 32.325 132.637 32.6285C132.88 32.9319 133.001 33.2624 133.001 33.6266C133.001 34.011 132.88 34.3549 132.637 34.6584C132.394 34.9619 132.017 35.1103 131.511 35.1103H110.776C110.29 35.1103 109.926 34.9619 109.683 34.6584C109.44 34.3549 109.319 34.011 109.319 33.6266C109.319 33.2624 109.44 32.9252 109.683 32.6285C109.926 32.325 110.29 32.1699 110.776 32.1699H119.43V28.1369H115.882C114.789 28.1369 113.987 27.8739 113.487 27.3479C112.982 26.8218 112.732 26.0395 112.732 25.0144V15.0872C112.732 14.5207 112.907 14.0958 113.251 13.8126C113.595 13.5293 113.987 13.3877 114.418 13.3877C114.85 13.3877 115.241 13.5293 115.599 13.8126C115.956 14.0958 116.132 14.5207 116.132 15.0872V18.2434H126.236V15.0872C126.236 14.5207 126.411 14.0958 126.755 13.8126C127.099 13.5293 127.491 13.3877 127.922 13.3877C128.354 13.3877 128.745 13.5293 129.103 13.8126C129.46 14.0958 129.636 14.5207 129.636 15.0872V25.0144C129.636 26.0463 129.379 26.8218 128.867 27.3479C128.354 27.8739 127.551 28.1369 126.445 28.1369H122.89V32.1699H131.511ZM126.229 25.2505V21.1231H116.125V25.2505H126.229Z" fill="#410102"/>
<path d="M138.796 22.1889C138.796 21.3594 138.944 20.6041 139.234 19.9094C139.524 19.2215 139.936 18.6146 140.462 18.0885H138.128C137.642 18.0885 137.278 17.9402 137.035 17.6502C136.792 17.3602 136.671 17.0365 136.671 16.6723C136.671 16.2946 136.792 15.9507 137.035 15.6539C137.278 15.3572 137.642 15.2021 138.128 15.2021H144.286V13.3947C144.286 12.781 144.475 12.3359 144.846 12.0459C145.217 11.7626 145.622 11.6143 146.047 11.6143C146.512 11.6143 146.924 11.7559 147.275 12.0459C147.625 12.3291 147.807 12.781 147.807 13.3947V15.2021H153.878C154.384 15.2021 154.762 15.3505 155.005 15.6539C155.247 15.9574 155.369 16.2946 155.369 16.6723C155.369 17.0297 155.247 17.3602 155.005 17.6502C154.762 17.9402 154.391 18.0885 153.885 18.0885H151.645C152.178 18.6146 152.59 19.2215 152.887 19.9094C153.183 20.5973 153.332 21.3594 153.332 22.1889C153.332 23.0184 153.197 23.7131 152.92 24.3875C152.644 25.0686 152.259 25.6621 151.76 26.1814C151.261 26.6939 150.674 27.1323 150.006 27.483C149.332 27.8404 148.603 28.0967 147.807 28.2586V32.4736H156.401C156.907 32.4736 157.278 32.6287 157.527 32.9254C157.77 33.2289 157.892 33.5661 157.892 33.9303C157.892 34.3147 157.77 34.6587 157.527 34.9621C157.284 35.2656 156.907 35.414 156.401 35.414H135.666C135.18 35.414 134.816 35.2656 134.573 34.9621C134.33 34.6587 134.209 34.3147 134.209 33.9303C134.209 33.5661 134.33 33.2289 134.573 32.9254C134.816 32.622 135.18 32.4736 135.666 32.4736H144.286V28.2586C143.497 28.0967 142.769 27.8404 142.101 27.483C141.433 27.1323 140.853 26.6939 140.354 26.1814C139.855 25.6621 139.47 25.0686 139.2 24.3875C138.924 23.7131 138.789 22.978 138.789 22.1889H138.796ZM142.074 21.9124C142.074 22.4991 142.189 23.0252 142.411 23.4905C142.634 23.9559 142.931 24.3538 143.295 24.691C143.659 25.0282 144.077 25.2777 144.556 25.4463C145.028 25.6149 145.534 25.7026 146.06 25.7026C146.587 25.7026 147.059 25.6149 147.531 25.4463C148.003 25.2777 148.421 25.0214 148.772 24.691C149.123 24.3538 149.413 23.9559 149.622 23.4905C149.838 23.0252 149.939 22.4991 149.939 21.9124C149.939 21.3257 149.831 20.7659 149.622 20.2871C149.413 19.815 149.123 19.4104 148.772 19.0867C148.414 18.7629 148.003 18.5134 147.531 18.3448C147.052 18.1762 146.566 18.0885 146.06 18.0885C145.554 18.0885 145.035 18.1762 144.556 18.3448C144.077 18.5202 143.659 18.7629 143.295 19.0867C142.931 19.4104 142.634 19.8083 142.411 20.2871C142.189 20.7659 142.074 21.3055 142.074 21.9124Z" fill="#410102"/>
<path d="M161.311 27.5572C161.149 27.6584 160.994 27.7325 160.839 27.773C160.691 27.8135 160.542 27.8337 160.401 27.8337C159.955 27.8337 159.584 27.6651 159.294 27.3212C158.998 26.9772 158.856 26.6063 158.856 26.1949C158.856 25.6689 159.133 25.244 159.672 24.9203C160.583 24.374 161.331 23.7805 161.918 23.1331C162.505 22.4857 162.971 21.8248 163.315 21.1436C163.659 20.4692 163.895 19.7813 164.03 19.0934C164.158 18.4055 164.225 17.7311 164.225 17.0567V13.9612C164.225 13.3745 164.401 12.9361 164.758 12.6394C165.109 12.3494 165.514 12.201 165.959 12.201C166.404 12.201 166.775 12.3494 167.139 12.6394C167.503 12.9361 167.685 13.3745 167.685 13.9612V16.9353C167.685 17.5828 167.739 18.2437 167.854 18.9248C167.962 19.606 168.178 20.2669 168.488 20.9143C168.798 21.5617 169.23 22.1822 169.777 22.7824C170.323 23.3759 171.038 23.9289 171.928 24.4347C172.212 24.5966 172.421 24.7921 172.549 25.0282C172.677 25.2642 172.744 25.5003 172.744 25.7431C172.744 26.1477 172.596 26.5254 172.306 26.8693C172.016 27.2133 171.645 27.3886 171.2 27.3886C170.916 27.3886 170.62 27.3009 170.316 27.1121C169.406 26.5456 168.583 25.8914 167.841 25.1428C167.099 24.3942 166.471 23.5647 165.945 22.6543C165.379 23.6659 164.697 24.5763 163.908 25.3856C163.119 26.1949 162.249 26.9233 161.298 27.5707L161.311 27.5572ZM165.264 31.0169C165.264 30.4302 165.439 29.9918 165.797 29.6951C166.148 29.4051 166.559 29.2567 167.024 29.2567C167.449 29.2567 167.847 29.4051 168.225 29.6951C168.596 29.9918 168.785 30.4302 168.785 31.0169V35.3263C168.785 35.9131 168.92 36.338 169.196 36.601C169.473 36.864 169.83 36.9921 170.276 36.9921H182.026C182.512 36.9921 182.876 37.1405 183.119 37.444C183.361 37.7475 183.483 38.0779 183.483 38.4354C183.483 38.7928 183.361 39.1232 183.119 39.4267C182.876 39.7302 182.512 39.8786 182.026 39.8786H169.581C168.286 39.8786 167.247 39.5009 166.458 38.7388C165.669 37.9768 165.277 36.8707 165.277 35.4208V31.0169H165.264ZM177.588 29.803C177.588 30.3695 177.426 30.7943 177.102 31.0776C176.778 31.3608 176.4 31.5025 175.975 31.5025C175.55 31.5025 175.166 31.3608 174.822 31.0776C174.478 30.7943 174.309 30.3695 174.309 29.803V20.8806H171.578C171.092 20.8806 170.728 20.7322 170.485 20.4287C170.242 20.132 170.121 19.7948 170.121 19.4374C170.121 19.0799 170.242 18.7495 170.485 18.446C170.728 18.1493 171.092 17.9941 171.578 17.9941H174.309V13.8735C174.309 13.307 174.478 12.8754 174.822 12.5922C175.166 12.3089 175.55 12.1673 175.975 12.1673C176.4 12.1673 176.771 12.3089 177.102 12.5922C177.426 12.8754 177.588 13.3003 177.588 13.8668V29.7962V29.803ZM183.017 29.9851C183.017 30.5516 182.842 30.9764 182.498 31.2597C182.154 31.5429 181.763 31.6846 181.331 31.6846C180.899 31.6846 180.508 31.5429 180.151 31.2597C179.793 30.9764 179.618 30.5516 179.618 29.9851V13.7454C179.618 13.1789 179.793 12.754 180.151 12.4708C180.508 12.1875 180.899 12.0459 181.331 12.0459C181.763 12.0459 182.147 12.1875 182.498 12.4708C182.842 12.754 183.017 13.1789 183.017 13.7454V29.9851Z" fill="#410102"/>
<path d="M192.002 31.5971C190.7 31.5971 189.655 31.2127 188.852 30.4438C188.056 29.675 187.658 28.5623 187.658 27.1123V17.0232C187.658 15.9913 187.915 15.2158 188.427 14.6897C188.94 14.1637 189.742 13.9007 190.849 13.9007H199.678C200.184 13.9007 200.555 14.0491 200.805 14.3525C201.048 14.656 201.169 14.973 201.169 15.3102C201.169 15.6879 201.048 16.0318 200.805 16.3286C200.562 16.632 200.184 16.7804 199.678 16.7804H192.029C191.382 16.7804 191.058 17.0974 191.058 17.7246V21.1236H198.437C198.842 21.1236 199.179 21.2517 199.456 21.5147C199.725 21.7777 199.867 22.1352 199.867 22.5803C199.867 23.0254 199.732 23.3491 199.456 23.6121C199.179 23.8751 198.842 24.0033 198.437 24.0033H191.058V27.0111C191.058 27.5979 191.199 28.0295 191.483 28.2992C191.766 28.5757 192.117 28.7106 192.542 28.7106H200.832C201.317 28.7106 201.682 28.8657 201.924 29.1692C202.167 29.4727 202.289 29.7964 202.289 30.1404C202.289 30.5045 202.167 30.8417 201.924 31.1452C201.682 31.4487 201.317 31.5971 200.832 31.5971H192.002ZM209 37.5453C209 38.1118 208.825 38.5367 208.467 38.8199C208.11 39.1032 207.725 39.2448 207.3 39.2448C206.875 39.2448 206.484 39.1032 206.133 38.8199C205.776 38.5367 205.601 38.1118 205.601 37.5453V24.0707H201.985C201.499 24.0707 201.135 23.9223 200.892 23.6189C200.65 23.3154 200.528 22.9782 200.528 22.614C200.528 22.2498 200.65 21.9126 200.892 21.6159C201.135 21.3124 201.499 21.164 201.985 21.164H205.601V13.7591C205.601 13.1926 205.776 12.7677 206.133 12.4844C206.484 12.2012 206.875 12.0596 207.3 12.0596C207.725 12.0596 208.117 12.2012 208.467 12.4844C208.818 12.7677 209 13.1926 209 13.7591V37.5521V37.5453Z" fill="#410102"/>
</svg>
