<svg width="97" height="24" viewBox="0 0 97 24" fill="none" xmlns="http://www.w3.org/2000/svg">
<path d="M11.8476 17.605C12.0533 17.605 12.22 17.4383 12.22 17.2327C12.22 17.027 12.0533 16.8604 11.8476 16.8604C11.6419 16.8604 11.4752 17.027 11.4752 17.2327C11.4752 17.4383 11.6419 17.605 11.8476 17.605Z" fill="#FF6647"/>
<path d="M23.6879 11.8406C23.6879 5.31039 18.3741 0 11.8452 0C5.31624 0 0 5.31284 0 11.8406C0 18.3684 5.31379 23.6812 11.8427 23.6812C14.8291 23.6812 17.5607 22.5667 19.6456 20.737C18.7391 21.293 17.9405 21.6678 16.7719 21.9078C16.5587 21.9494 16.5073 21.9617 16.3872 21.9715C16.3946 21.947 16.3946 21.9396 16.3995 21.9127C16.5122 21.4547 16.6102 20.7345 16.5171 19.718C16.3897 18.3022 15.8948 16.3206 14.567 13.685C14.567 13.685 13.4841 11.6618 16.1202 10.4861C18.7563 9.31033 18.744 7.25769 18.9204 7.2234C19.0968 7.18911 19.4667 6.19954 19.114 5.86396C18.7612 5.52839 18.0556 5.63371 17.5436 5.77578C17.0316 5.91785 15.373 5.40592 14.861 4.92828C14.3489 4.45308 11.8525 2.55722 8.73872 4.08077C5.58818 5.62147 4.88261 8.10765 4.88261 8.47997C4.88261 8.95516 5.1227 9.33727 5.42159 9.63856C5.73517 9.95208 7.27614 11.4364 8.43249 11.4854C8.43249 11.4854 9.61823 11.6202 9.61823 10.273C9.61823 10.273 9.57168 9.51608 9.2924 8.65633C9.1895 8.3379 8.90042 7.72064 8.78527 7.53448C8.36144 6.85353 9.1405 7.16952 9.2091 7.37037C9.2532 7.41201 9.84852 8.37709 10.0249 9.29318C10.1866 10.1309 10.7378 11.8014 8.85387 12.137C8.44719 12.2105 8.03071 12.1492 7.67058 11.9484C7.59218 11.9043 7.51378 11.8455 7.41579 11.7916C6.72737 11.4266 6.56323 12.813 6.53383 12.911C6.49463 13.0457 5.65677 17.4596 3.25834 18.8484L3.22404 18.8729C1.65367 16.955 0.710465 14.5056 0.710465 11.8406C0.710465 5.70475 5.70332 0.712788 11.8403 0.712788C16.838 0.712788 21.0763 4.02198 22.4777 8.5657C23.4282 10.7996 23.5311 12.8865 23.5213 13.7879C23.6266 13.1535 23.683 12.5044 23.683 11.8431L23.6879 11.8406ZM13.4988 5.97174C13.8296 5.97174 14.0991 6.24117 14.0991 6.57185C14.0991 6.90252 13.8296 7.17197 13.4988 7.17197C13.1681 7.17197 12.8986 6.90252 12.8986 6.57185C12.8986 6.24117 13.1681 5.97174 13.4988 5.97174ZM7.33004 18.3561C7.98906 15.7205 9.09396 14.2631 10.2013 13.6042C10.2013 13.6042 11.1421 13.2049 11.3062 13.8638C11.3062 13.8638 11.4483 14.099 11.3527 14.6869C11.3527 14.6869 11.1886 14.8755 11.8942 15.2502C12.5997 15.6274 13.1412 16.4505 13.3518 17.0849C13.5625 17.7193 14.175 17.4131 14.2926 17.7438C14.4102 18.072 14.175 18.3071 13.8688 18.4957C13.5772 18.6745 13.9202 19.4265 12.3964 19.6225C12.318 19.6323 12.2396 19.6421 12.1514 19.6494C12.1514 19.6494 11.7521 19.5784 11.8231 20.0952C11.8697 20.4308 11.9824 21.2807 11.8231 22.0964C11.7643 22.3977 11.6688 22.6965 11.5169 22.9611C9.20175 22.8949 7.06301 22.1185 5.31134 20.8423C5.95566 20.6267 6.91111 20.0242 7.33004 18.3537V18.3561Z" fill="#FF6647"/>
<path d="M30.7476 8.5632C30.7476 8.80734 30.8071 8.98888 30.9292 9.10469C31.0513 9.22363 31.2203 9.27997 31.4332 9.27997H36.4515C36.6675 9.27997 36.8303 9.35197 36.9368 9.48969C37.0432 9.63054 37.0995 9.78391 37.0995 9.95293C37.0995 10.1219 37.0463 10.2753 36.9368 10.4099C36.8272 10.5445 36.6675 10.6134 36.4515 10.6134H33.9283V11.9092H37.9229C38.1577 11.9092 38.3299 11.9749 38.4457 12.1064C38.5584 12.2378 38.6147 12.3943 38.6147 12.5727C38.6147 12.7418 38.5584 12.892 38.4457 13.0235C38.333 13.1549 38.1577 13.2207 37.9229 13.2207H35.8943C36.2011 13.5211 36.439 13.8623 36.6049 14.2504C36.774 14.6354 36.8554 15.0517 36.8554 15.5024C36.8554 15.9532 36.7614 16.382 36.5736 16.7826C36.3858 17.1864 36.1259 17.5369 35.7941 17.8406C35.4623 18.141 35.0647 18.3789 34.6076 18.5573C34.1474 18.7357 33.6465 18.8265 33.1018 18.8265C32.5571 18.8265 32.0718 18.7357 31.6117 18.5573C31.1515 18.3789 30.757 18.141 30.4314 17.8406C30.1027 17.5401 29.846 17.1864 29.6582 16.7826C29.4703 16.3788 29.3764 15.95 29.3764 15.5024C29.3764 15.0548 29.461 14.6354 29.6331 14.2504C29.8022 13.8654 30.0401 13.5211 30.3469 13.2207H28.3183C28.0929 13.2207 27.9238 13.1549 27.8111 13.0235C27.6984 12.892 27.6421 12.7418 27.6421 12.5727C27.6421 12.3943 27.6984 12.241 27.8111 12.1064C27.9238 11.9749 28.0929 11.9092 28.3183 11.9092H32.3223V10.6134H31.1671C30.566 10.6134 30.0839 10.4443 29.7145 10.1063C29.3482 9.76826 29.1667 9.26432 29.1667 8.58824V7.26738C29.1667 6.78849 29.2856 6.42854 29.5204 6.17813C29.7584 5.93086 30.1309 5.80566 30.6443 5.80566H36.3639C36.5799 5.80566 36.7427 5.87452 36.8585 6.01537C36.9712 6.15622 37.0275 6.3096 37.0275 6.47549C37.0275 6.64138 36.9712 6.79475 36.8585 6.9356C36.7458 7.07645 36.583 7.14531 36.3639 7.14531H31.1953C30.8947 7.14531 30.7445 7.29242 30.7445 7.58351V8.55381L30.7476 8.5632ZM30.9574 15.3616C30.9574 15.6621 31.0106 15.9438 31.1202 16.2036C31.2297 16.4633 31.3769 16.6856 31.571 16.8734C31.7619 17.0612 31.9936 17.2114 32.2597 17.3272C32.5258 17.4399 32.8138 17.4963 33.1237 17.4963C33.4336 17.4963 33.7217 17.4399 33.9878 17.3272C34.2539 17.2145 34.4824 17.0643 34.6765 16.8734C34.8674 16.6856 35.0177 16.4602 35.1273 16.2036C35.2337 15.9438 35.2901 15.6652 35.2901 15.3616C35.2901 15.058 35.2369 14.7951 35.1273 14.5353C35.0208 14.2755 34.8706 14.0501 34.6765 13.856C34.4855 13.662 34.2539 13.5086 33.9878 13.3959C33.7217 13.2833 33.4336 13.2269 33.1237 13.2269C32.8138 13.2269 32.5258 13.2833 32.2597 13.3959C31.9936 13.5086 31.7651 13.662 31.571 13.856C31.38 14.0501 31.2297 14.2755 31.1202 14.5353C31.0137 14.7951 30.9574 15.0705 30.9574 15.3616Z" fill="white"/>
<path d="M48.2446 17.3534C48.4418 17.3534 48.6046 17.4129 48.7298 17.5319C48.8582 17.6508 48.9208 17.8136 48.9208 18.0233C48.9208 18.233 48.8582 18.3957 48.7298 18.5147C48.6014 18.6336 48.4418 18.6931 48.2446 18.6931H42.3998C42.1274 18.6931 41.877 18.6493 41.6547 18.5585C41.4293 18.4677 41.2352 18.3488 41.0693 18.1923C40.9034 18.0358 40.7782 17.8543 40.6905 17.6445C40.6028 17.4348 40.5559 17.2095 40.5559 16.9747C40.5559 16.74 40.5997 16.5209 40.6905 16.3205C40.7813 16.1202 40.9065 15.9418 41.0693 15.7916C41.2321 15.6413 41.4293 15.5255 41.6547 15.441C41.8801 15.3565 42.1274 15.3158 42.3998 15.3158H46.6824C46.8139 15.3158 46.9203 15.2751 46.9986 15.1969C47.0769 15.1186 47.1176 15.0153 47.1176 14.8933C47.1176 14.7712 47.0769 14.6804 46.9986 14.6178C46.9203 14.5552 46.8139 14.5271 46.6824 14.5271H41.4544C41.2571 14.5271 41.0943 14.4738 40.9691 14.3643C40.8408 14.2579 40.7782 14.0982 40.7782 13.8917C40.7782 13.6851 40.8408 13.5223 40.9691 13.4065C41.0943 13.2876 41.2571 13.2312 41.4544 13.2312H43.8774V12.4143H39.8766C39.6418 12.4143 39.4664 12.3517 39.3537 12.2234C39.241 12.095 39.1847 11.9417 39.1847 11.7601C39.1847 11.5692 39.241 11.4096 39.3537 11.275C39.4664 11.1435 39.6386 11.0746 39.8766 11.0746H49.4686C49.7034 11.0746 49.8787 11.1404 49.9977 11.275C50.1166 11.4096 50.173 11.5692 50.173 11.7601C50.173 11.9511 50.1135 12.095 49.9977 12.2234C49.8819 12.3517 49.7034 12.4143 49.4686 12.4143H45.4803V13.2312H46.792C47.3367 13.2312 47.7812 13.3721 48.1225 13.6538C48.4637 13.9355 48.6359 14.3486 48.6359 14.8933C48.6359 15.4379 48.4637 15.8542 48.1225 16.139C47.7812 16.427 47.3367 16.5678 46.792 16.5678H42.5094C42.3779 16.5678 42.2714 16.6054 42.1932 16.6774C42.1118 16.7525 42.0742 16.8464 42.0742 16.9685C42.0742 17.0905 42.1149 17.1844 42.1932 17.2533C42.2714 17.3221 42.3779 17.3566 42.5094 17.3566H48.2446V17.3534ZM42.2558 10.4111C41.7486 10.4111 41.3761 10.289 41.1444 10.0449C40.9096 9.80074 40.7938 9.43765 40.7938 8.95876V7.25604C40.7938 6.77714 40.9096 6.41719 41.1444 6.16992C41.3792 5.92578 41.7486 5.80371 42.2558 5.80371H47.1019C47.6091 5.80371 47.9785 5.92578 48.2133 6.16992C48.448 6.41406 48.5639 6.77714 48.5639 7.25604V8.95876C48.5639 9.43765 48.4449 9.80074 48.2133 10.0449C47.9785 10.289 47.6059 10.4111 47.1019 10.4111H42.2558ZM42.3403 9.07144H47.0174V7.14023H42.3403V9.07144Z" fill="white"/>
<path d="M61.036 14.93C61.2708 14.93 61.443 15.002 61.5588 15.1428C61.6715 15.2837 61.7279 15.437 61.7279 15.6061C61.7279 15.7845 61.6715 15.9441 61.5588 16.0849C61.4461 16.2258 61.2708 16.2947 61.036 16.2947H51.4127C51.1873 16.2947 51.0182 16.2258 50.9055 16.0849C50.7928 15.9441 50.7365 15.7845 50.7365 15.6061C50.7365 15.437 50.7928 15.2805 50.9055 15.1428C51.0182 15.002 51.1873 14.93 51.4127 14.93H55.4292V13.0582H53.7825C53.2753 13.0582 52.9028 12.9362 52.6711 12.692C52.4364 12.4479 52.3205 12.0848 52.3205 11.609V7.00165C52.3205 6.73873 52.4019 6.54154 52.5616 6.41008C52.7212 6.27862 52.9028 6.21289 53.1032 6.21289C53.3035 6.21289 53.4851 6.27862 53.651 6.41008C53.8169 6.54154 53.8983 6.73873 53.8983 7.00165V8.4665H58.5879V7.00165C58.5879 6.73873 58.6693 6.54154 58.829 6.41008C58.9886 6.27862 59.1702 6.21289 59.3706 6.21289C59.5709 6.21289 59.7525 6.27862 59.9184 6.41008C60.0843 6.54154 60.1657 6.73873 60.1657 7.00165V11.609C60.1657 12.0879 60.0468 12.4479 59.8088 12.692C59.5709 12.9362 59.1984 13.0582 58.685 13.0582H57.0352V14.93H61.036ZM58.5848 11.7186V9.80301H53.8952V11.7186H58.5848Z" fill="white"/>
<path d="M64.417 10.2985C64.417 9.91349 64.4859 9.56293 64.6205 9.24054C64.7551 8.92128 64.9461 8.63958 65.1902 8.39544H64.1071C63.8817 8.39544 63.7126 8.32657 63.5999 8.19198C63.4872 8.05739 63.4309 7.90715 63.4309 7.73813C63.4309 7.56285 63.4872 7.40322 63.5999 7.2655C63.7126 7.12778 63.8817 7.05579 64.1071 7.05579H66.9653V6.21695C66.9653 5.93212 67.0529 5.72554 67.2251 5.59095C67.3973 5.45949 67.5851 5.39062 67.7824 5.39062C67.9984 5.39062 68.1893 5.45636 68.3521 5.59095C68.5149 5.72241 68.5994 5.93212 68.5994 6.21695V7.05579H71.4169C71.6517 7.05579 71.8271 7.12465 71.9398 7.2655C72.0525 7.40635 72.1088 7.56285 72.1088 7.73813C72.1088 7.90402 72.0525 8.05739 71.9398 8.19198C71.8271 8.32657 71.6549 8.39544 71.4201 8.39544H70.3807C70.628 8.63958 70.819 8.92128 70.9568 9.24054C71.0945 9.5598 71.1634 9.91349 71.1634 10.2985C71.1634 10.6835 71.1008 11.0059 70.9724 11.3189C70.8441 11.635 70.6656 11.9104 70.434 12.1514C70.2023 12.3893 69.9299 12.5928 69.62 12.7555C69.3069 12.9214 68.9688 13.0404 68.5994 13.1155V15.0717H72.5878C72.8226 15.0717 72.9948 15.1437 73.1106 15.2815C73.2233 15.4223 73.2796 15.5788 73.2796 15.7478C73.2796 15.9262 73.2233 16.0859 73.1106 16.2267C72.9979 16.3676 72.8226 16.4364 72.5878 16.4364H62.9644C62.739 16.4364 62.57 16.3676 62.4573 16.2267C62.3446 16.0859 62.2882 15.9262 62.2882 15.7478C62.2882 15.5788 62.3446 15.4223 62.4573 15.2815C62.57 15.1406 62.739 15.0717 62.9644 15.0717H66.9653V13.1155C66.599 13.0404 66.2609 12.9214 65.951 12.7555C65.641 12.5928 65.3718 12.3893 65.1402 12.1514C64.9085 11.9104 64.7301 11.635 64.6048 11.3189C64.4765 11.0059 64.4139 10.6647 64.4139 10.2985H64.417ZM65.9385 10.1702C65.9385 10.4425 65.9917 10.6866 66.095 10.9026C66.1983 11.1185 66.336 11.3032 66.5051 11.4597C66.6741 11.6162 66.8682 11.732 67.0905 11.8103C67.3096 11.8885 67.5444 11.9292 67.7886 11.9292C68.0328 11.9292 68.2519 11.8885 68.4711 11.8103C68.6902 11.732 68.8843 11.6131 69.0471 11.4597C69.2099 11.3032 69.3445 11.1185 69.4416 10.9026C69.5417 10.6866 69.5887 10.4425 69.5887 10.1702C69.5887 9.89784 69.5386 9.63805 69.4416 9.41582C69.3445 9.19672 69.2099 9.00892 69.0471 8.85868C68.8812 8.70844 68.6902 8.59262 68.4711 8.51437C68.2488 8.43612 68.0234 8.39544 67.7886 8.39544C67.5538 8.39544 67.3128 8.43612 67.0905 8.51437C66.8682 8.59575 66.6741 8.70844 66.5051 8.85868C66.336 9.00892 66.1983 9.19359 66.095 9.41582C65.9917 9.63805 65.9385 9.88845 65.9385 10.1702Z" fill="white"/>
<path d="M74.8669 12.7889C74.7918 12.8358 74.7198 12.8702 74.6478 12.889C74.5789 12.9078 74.5101 12.9172 74.4443 12.9172C74.2377 12.9172 74.0655 12.8389 73.9309 12.6793C73.7932 12.5197 73.7274 12.3475 73.7274 12.1566C73.7274 11.9125 73.8558 11.7153 74.1062 11.565C74.5288 11.3115 74.8763 11.0361 75.1487 10.7356C75.4211 10.4351 75.6371 10.1284 75.7967 9.81223C75.9564 9.49923 76.066 9.17997 76.1286 8.8607C76.188 8.54144 76.2193 8.22844 76.2193 7.91544V6.47877C76.2193 6.20646 76.3007 6.00301 76.4667 5.86529C76.6295 5.73069 76.8173 5.66184 77.0239 5.66184C77.2305 5.66184 77.4027 5.73069 77.5718 5.86529C77.7408 6.00301 77.8253 6.20646 77.8253 6.47877V7.8591C77.8253 8.15958 77.8504 8.46632 77.9036 8.78245C77.9537 9.09859 78.0539 9.40533 78.1979 9.70581C78.3419 10.0063 78.5422 10.2943 78.7958 10.5728C79.0494 10.8483 79.3812 11.1049 79.7945 11.3397C79.9259 11.4148 80.023 11.5056 80.0825 11.6151C80.142 11.7247 80.1733 11.8342 80.1733 11.9469C80.1733 12.1347 80.1044 12.31 79.9698 12.4696C79.8352 12.6292 79.663 12.7106 79.4564 12.7106C79.3249 12.7106 79.1871 12.6699 79.0463 12.5823C78.6236 12.3194 78.2417 12.0158 77.8973 11.6683C77.553 11.3209 77.2618 10.9359 77.0176 10.5134C76.7547 10.9829 76.4385 11.4054 76.0722 11.781C75.7059 12.1566 75.3021 12.4946 74.8607 12.7951L74.8669 12.7889ZM76.7015 14.3946C76.7015 14.1223 76.7829 13.9188 76.9488 13.7811C77.1116 13.6465 77.3025 13.5776 77.5185 13.5776C77.7158 13.5776 77.9005 13.6465 78.0758 13.7811C78.248 13.9188 78.3356 14.1223 78.3356 14.3946V16.3946C78.3356 16.667 78.3982 16.8641 78.5266 16.9862C78.6549 17.1083 78.8209 17.1678 79.0275 17.1678H84.4809C84.7063 17.1678 84.8754 17.2366 84.9881 17.3775C85.1008 17.5183 85.1571 17.6717 85.1571 17.8376C85.1571 18.0035 85.1008 18.1568 84.9881 18.2977C84.8754 18.4385 84.7063 18.5074 84.4809 18.5074H78.705C78.104 18.5074 77.6219 18.3321 77.2556 17.9784C76.8893 17.6247 76.7077 17.1114 76.7077 16.4385V14.3946H76.7015ZM82.421 13.8312C82.421 14.0941 82.3459 14.2913 82.1956 14.4227C82.0453 14.5542 81.87 14.6199 81.6728 14.6199C81.4756 14.6199 81.2971 14.5542 81.1375 14.4227C80.9778 14.2913 80.8996 14.0941 80.8996 13.8312V9.69016H79.6317C79.4063 9.69016 79.2372 9.6213 79.1245 9.48045C79.0118 9.34273 78.9555 9.18623 78.9555 9.02034C78.9555 8.85445 79.0118 8.70107 79.1245 8.56022C79.2372 8.4225 79.4063 8.35051 79.6317 8.35051H80.8996V6.43808C80.8996 6.17516 80.9778 5.97484 81.1375 5.84338C81.2971 5.71191 81.4756 5.64618 81.6728 5.64618C81.87 5.64618 82.0422 5.71191 82.1956 5.84338C82.3459 5.97484 82.421 6.17203 82.421 6.43495V13.828V13.8312ZM84.9411 13.9157C84.9411 14.1786 84.8597 14.3758 84.7001 14.5072C84.5404 14.6387 84.3588 14.7044 84.1585 14.7044C83.9581 14.7044 83.7766 14.6387 83.6106 14.5072C83.4447 14.3758 83.3633 14.1786 83.3633 13.9157V6.37861C83.3633 6.11569 83.4447 5.9185 83.6106 5.78703C83.7766 5.65557 83.9581 5.58984 84.1585 5.58984C84.3588 5.58984 84.5373 5.65557 84.7001 5.78703C84.8597 5.9185 84.9411 6.11569 84.9411 6.37861V13.9157Z" fill="white"/>
<path d="M89.1109 14.6643C88.5067 14.6643 88.0215 14.4859 87.649 14.1291C87.2795 13.7723 87.0948 13.2558 87.0948 12.5829V7.90037C87.0948 7.42148 87.2138 7.06152 87.4517 6.81738C87.6897 6.57324 88.0622 6.45117 88.5756 6.45117H92.6735C92.9083 6.45117 93.0805 6.52003 93.1963 6.66088C93.309 6.80173 93.3654 6.94884 93.3654 7.10534C93.3654 7.28062 93.309 7.44026 93.1963 7.57798C93.0836 7.71883 92.9083 7.78769 92.6735 7.78769H89.1235C88.8229 7.78769 88.6726 7.9348 88.6726 8.22589V9.80341H92.0975C92.2853 9.80341 92.4419 9.86288 92.5702 9.98495C92.6954 10.107 92.7612 10.2729 92.7612 10.4795C92.7612 10.6861 92.6986 10.8363 92.5702 10.9584C92.4419 11.0805 92.2853 11.1399 92.0975 11.1399H88.6726V12.5359C88.6726 12.8082 88.7384 13.0085 88.8699 13.1337C89.0014 13.2621 89.1642 13.3247 89.3614 13.3247H93.2089C93.4343 13.3247 93.6033 13.3967 93.716 13.5375C93.8287 13.6784 93.8851 13.8286 93.8851 13.9882C93.8851 14.1573 93.8287 14.3138 93.716 14.4546C93.6033 14.5955 93.4343 14.6643 93.2089 14.6643H89.1109ZM97 17.425C97 17.6879 96.9186 17.8851 96.7527 18.0166C96.5867 18.148 96.4083 18.2138 96.2111 18.2138C96.0138 18.2138 95.8323 18.148 95.6695 18.0166C95.5036 17.8851 95.4222 17.6879 95.4222 17.425V11.1712H93.7442C93.5188 11.1712 93.3497 11.1024 93.237 10.9615C93.1243 10.8207 93.068 10.6642 93.068 10.4951C93.068 10.3261 93.1243 10.1696 93.237 10.0319C93.3497 9.89105 93.5188 9.82219 93.7442 9.82219H95.4222V6.38544C95.4222 6.12252 95.5036 5.92533 95.6695 5.79387C95.8323 5.66241 96.0138 5.59668 96.2111 5.59668C96.4083 5.59668 96.5899 5.66241 96.7527 5.79387C96.9155 5.92533 97 6.12252 97 6.38544V17.4281V17.425Z" fill="white"/>
</svg>
