<svg width="89" height="97" viewBox="0 0 89 97" fill="none" xmlns="http://www.w3.org/2000/svg">
<path d="M86.8121 68.9272C86.7292 69.1251 86.6017 69.24 86.4424 69.2783C86.2767 69.3167 86.1237 69.3103 85.9835 69.2464C85.8369 69.1826 85.7221 69.0804 85.6393 68.9336C85.5564 68.7868 85.5628 68.6144 85.6393 68.4229L86.4105 66.6163L79.7881 63.7755C79.6096 63.6989 79.4822 63.5712 79.412 63.3988C79.3356 63.2265 79.3483 63.0286 79.4375 62.8179C79.5268 62.6072 79.6606 62.4668 79.8391 62.3966C80.0176 62.3263 80.196 62.3327 80.3745 62.4093L86.9969 65.2501L87.7682 63.4435C87.851 63.2584 87.9657 63.1435 88.1315 63.0988C88.2908 63.0541 88.4501 63.0669 88.5967 63.1307C88.737 63.1882 88.8517 63.2967 88.9346 63.4435C89.0174 63.5903 89.0238 63.7563 88.9409 63.9478L86.8121 68.9272Z" fill="#410102"/>
<path d="M83.5298 74.8517C83.1282 75.4326 82.6565 75.8923 82.1084 76.237C81.5602 76.5817 80.993 76.7988 80.3938 76.9073C79.7947 77.0095 79.1892 76.9967 78.5773 76.8626C77.9654 76.7286 77.3917 76.4732 76.8563 76.1093C76.3209 75.7391 75.8811 75.2858 75.537 74.7623C75.1928 74.2389 74.9697 73.6771 74.855 73.077C74.7402 72.4769 74.7466 71.8641 74.8741 71.2321C75.0016 70.6001 75.2629 69.9936 75.6644 69.4127C76.066 68.8317 76.5377 68.3657 77.0858 68.021C77.634 67.6763 78.2076 67.4528 78.8067 67.3443C79.4059 67.2358 80.0114 67.2486 80.6233 67.3826C81.2352 67.5167 81.8088 67.7656 82.3442 68.1423C82.8732 68.5126 83.313 68.9594 83.6572 69.4829C84.0014 70.0128 84.2309 70.5745 84.3392 71.1746C84.454 71.7747 84.4476 72.3939 84.3137 73.0259C84.1863 73.6643 83.9186 74.2708 83.5234 74.8517H83.5298ZM76.7097 70.1404C76.4293 70.549 76.2445 70.9703 76.1616 71.4108C76.0724 71.8513 76.0787 72.2854 76.168 72.7004C76.2572 73.1217 76.4357 73.5175 76.6906 73.8941C76.9519 74.2708 77.2834 74.5964 77.6977 74.8836C78.1056 75.1645 78.5263 75.3624 78.9725 75.4709C79.4186 75.5795 79.852 75.605 80.2791 75.5412C80.7061 75.4773 81.1077 75.3305 81.4901 75.0879C81.8726 74.8453 82.204 74.5261 82.4844 74.124C82.7649 73.7154 82.9497 73.2941 83.039 72.8536C83.1282 72.4131 83.1218 71.979 83.039 71.5576C82.9497 71.1299 82.7713 70.7341 82.5163 70.3511C82.2614 69.9681 81.9235 69.6425 81.522 69.3616C81.1077 69.0743 80.6806 68.8828 80.2345 68.7743C79.7883 68.6721 79.3549 68.6466 78.9278 68.7168C78.5008 68.7807 78.0929 68.9339 77.7168 69.1701C77.3408 69.4063 77.0029 69.7319 76.7225 70.1341L76.7097 70.1404Z" fill="#410102"/>
<path d="M77.5508 79.8443C77.844 80.1635 77.9843 80.4763 77.9779 80.7827C77.9715 81.0892 77.793 81.3956 77.4552 81.7084L76.0147 83.0235C75.7088 83.3043 75.3774 83.515 75.0268 83.6491C74.6762 83.7831 74.3193 83.847 73.9687 83.8214C73.6118 83.8023 73.2676 83.7065 72.9234 83.5405C72.5792 83.3746 72.2669 83.132 71.9737 82.8128C71.6805 82.4936 71.4702 82.1553 71.3363 81.7978C71.2025 81.4403 71.1388 81.0892 71.1515 80.738C71.1642 80.3869 71.2535 80.0422 71.4256 79.7039C71.5913 79.3655 71.8335 79.0527 72.1394 78.7718L73.4652 77.5589L71.6232 75.5416C71.4893 75.3948 71.4256 75.2288 71.432 75.0373C71.432 74.8458 71.5276 74.6734 71.6933 74.5202C71.8654 74.367 72.0438 74.2967 72.2287 74.3031C72.4199 74.3159 72.5792 74.3925 72.7067 74.5393L77.5381 79.8379L77.5508 79.8443ZM74.3257 78.5037L73.1083 79.6145C72.7641 79.9337 72.592 80.2912 72.592 80.6997C72.592 81.1083 72.7513 81.4786 73.0573 81.8169C73.3696 82.1553 73.7265 82.3468 74.1345 82.3851C74.5424 82.4234 74.9184 82.2893 75.2563 81.9829L76.4737 80.8721L74.3193 78.5037H74.3257Z" fill="#410102"/>
<path d="M9.54171 79.8765C9.38874 79.7297 9.325 79.5701 9.34412 79.3977C9.36324 79.2317 9.42698 79.0913 9.53534 78.9827C9.65006 78.8678 9.78392 78.7976 9.94964 78.7721C10.1154 78.7465 10.2747 78.8104 10.4277 78.9572L11.8363 80.3297L16.8589 75.1588C16.9927 75.0184 17.1585 74.9482 17.3497 74.9418C17.5409 74.9354 17.713 75.012 17.8787 75.1716C18.0444 75.3312 18.1273 75.5099 18.1273 75.6951C18.1273 75.8866 18.0572 76.0526 17.9233 76.193L12.9007 81.3639L14.3093 82.7364C14.4559 82.8769 14.5197 83.0301 14.5006 83.1961C14.4814 83.3621 14.4177 83.5025 14.303 83.6174C14.1946 83.7259 14.0608 83.7962 13.8887 83.8217C13.723 83.8472 13.5636 83.7898 13.417 83.6493L9.54171 79.8765Z" fill="#410102"/>
<path d="M5.20804 74.6986C4.80649 74.1176 4.54516 73.5112 4.42406 72.8792C4.30295 72.2472 4.29658 71.6343 4.41131 71.0342C4.52604 70.4405 4.76187 69.8788 5.10606 69.3489C5.45025 68.8254 5.89004 68.3786 6.42545 68.0083C6.96722 67.638 7.54087 67.3891 8.15276 67.255C8.76465 67.1209 9.37016 67.1146 9.96293 67.2167C10.5621 67.3252 11.1293 67.5487 11.6775 67.887C12.2193 68.2317 12.6909 68.6914 13.0925 69.2787C13.494 69.8596 13.7554 70.4725 13.8828 71.1045C14.0103 71.7365 14.0167 72.3557 13.902 72.9558C13.7872 73.5559 13.5578 74.1176 13.2136 74.6411C12.8694 75.1646 12.4296 75.6115 11.8878 75.9817C11.3524 76.3456 10.7788 76.5946 10.1669 76.7286C9.555 76.8627 8.94311 76.8755 8.34397 76.7669C7.74483 76.6584 7.17118 76.4286 6.62303 76.0839C6.07488 75.7391 5.60322 75.2731 5.20167 74.6858L5.20804 74.6986ZM12.0472 70.0064C11.7667 69.5979 11.4417 69.2787 11.0592 69.0361C10.6768 68.7935 10.2752 68.6467 9.8482 68.5828C9.42115 68.519 8.98773 68.5382 8.54793 68.6467C8.10814 68.7552 7.68109 68.9467 7.26679 69.234C6.85887 69.5149 6.52743 69.8405 6.25973 70.2171C5.9984 70.5938 5.81993 70.9896 5.72432 71.4109C5.62871 71.8322 5.62871 72.2599 5.71157 72.7004C5.79443 73.1409 5.97928 73.5686 6.25973 73.9772C6.54017 74.3858 6.86524 74.705 7.24767 74.9475C7.6301 75.1901 8.03165 75.3433 8.4587 75.4072C8.88575 75.4774 9.32554 75.4582 9.77171 75.3497C10.2179 75.2412 10.6449 75.0497 11.0529 74.7688C11.4672 74.4815 11.7986 74.1559 12.0599 73.7793C12.3149 73.4026 12.4933 73.0005 12.5826 72.5791C12.6718 72.1578 12.6782 71.7237 12.589 71.2832C12.5061 70.8427 12.3213 70.415 12.0408 70.0128L12.0472 70.0064Z" fill="#410102"/>
<path d="M2.69007 67.3128C2.28852 67.4724 1.94433 67.4916 1.6575 67.3703C1.37706 67.2554 1.1476 66.9809 0.981877 66.5532L0.27438 64.7338C0.121408 64.3443 0.0449219 63.9613 0.0449219 63.5847C0.0449219 63.208 0.115034 62.8569 0.261633 62.5313C0.408231 62.2058 0.624942 61.9185 0.899017 61.6567C1.17947 61.395 1.51728 61.1907 1.91883 61.0311C2.32038 60.8715 2.71556 60.7949 3.09162 60.7949C3.47405 60.7949 3.82461 60.8651 4.1433 61.0056C4.46837 61.146 4.75519 61.3503 5.01015 61.6312C5.2651 61.9121 5.46906 62.2441 5.62204 62.6335L6.27854 64.3124L8.82171 63.3165C9.00655 63.2463 9.18502 63.2463 9.35711 63.3165C9.5292 63.3931 9.66305 63.5336 9.74591 63.7443C9.82877 63.9613 9.82877 64.1528 9.75229 64.3252C9.6758 64.4976 9.54195 64.6188 9.36348 64.6891L2.69007 67.3001V67.3128ZM5.09938 64.7784L4.50024 63.2463C4.32815 62.8122 4.05407 62.5186 3.67801 62.3781C3.30196 62.2377 2.89403 62.2441 2.46698 62.4164C2.03994 62.5824 1.73399 62.8505 1.54915 63.2208C1.36431 63.591 1.35793 63.9868 1.52365 64.4146L2.1228 65.9467L5.10575 64.7784H5.09938Z" fill="#410102"/>
<path d="M35.732 1.23429C35.9359 1.18322 36.108 1.20875 36.2355 1.31728C36.3694 1.4258 36.4522 1.55348 36.4905 1.70031C36.5287 1.8599 36.516 2.01312 36.4458 2.16633C36.3757 2.31954 36.2419 2.42168 36.0315 2.47275L34.1258 2.94516L35.8467 9.94823C35.8913 10.1397 35.8658 10.3185 35.7766 10.4781C35.681 10.6441 35.5216 10.7526 35.2986 10.8037C35.0755 10.8547 34.8843 10.8356 34.7249 10.7334C34.5656 10.6313 34.4636 10.4845 34.4126 10.2993L32.6916 3.29627L30.7859 3.76229C30.5883 3.81336 30.4226 3.78144 30.2951 3.6793C30.1676 3.57716 30.0784 3.4431 30.0401 3.28989C30.0019 3.14306 30.021 2.98984 30.0847 2.83025C30.1485 2.67065 30.2823 2.56851 30.4799 2.52382L35.7256 1.23429H35.732Z" fill="#410102"/>
<path d="M42.412 0.294773C43.1195 0.262854 43.7696 0.364995 44.3687 0.594814C44.9679 0.824632 45.4905 1.15021 45.9367 1.56516C46.3765 1.98011 46.7334 2.47805 46.9948 3.04621C47.2561 3.62076 47.4027 4.22722 47.4282 4.87199C47.4537 5.52952 47.3644 6.14876 47.1477 6.73607C46.9374 7.32338 46.6251 7.84686 46.2172 8.29373C45.8092 8.74698 45.3184 9.11086 44.7384 9.39175C44.1584 9.67264 43.5146 9.82585 42.8135 9.85777C42.106 9.88969 41.4559 9.78755 40.8504 9.55773C40.2449 9.32791 39.7222 9.00233 39.2697 8.58738C38.8235 8.17244 38.4666 7.68088 38.2052 7.11272C37.9439 6.54456 37.7973 5.93171 37.7718 5.28055C37.7463 4.63579 37.8355 4.01655 38.0523 3.42286C38.2626 2.82916 38.5749 2.30568 38.9892 1.85881C39.3971 1.40556 39.8943 1.04168 40.4807 0.760794C41.0671 0.479905 41.7108 0.326692 42.412 0.294773ZM42.7625 8.59377C43.2533 8.57462 43.7059 8.46609 44.1074 8.26819C44.509 8.07029 44.8532 7.80856 45.1336 7.48298C45.4141 7.1574 45.6244 6.77437 45.771 6.34666C45.9112 5.91255 45.9749 5.44653 45.9558 4.94859C45.9367 4.45704 45.8347 3.9974 45.6563 3.57607C45.4778 3.15473 45.2356 2.79086 44.9296 2.49082C44.6237 2.19077 44.2604 1.95457 43.8397 1.79498C43.419 1.63538 42.9665 1.56516 42.4693 1.58431C41.9785 1.60346 41.526 1.71199 41.1245 1.90989C40.7229 2.10778 40.3787 2.36952 40.0919 2.6951C39.8051 3.02067 39.5947 3.4037 39.4418 3.83781C39.2952 4.27191 39.2314 4.73793 39.2505 5.22948C39.2697 5.73381 39.3716 6.19344 39.5565 6.60839C39.7413 7.02973 39.9835 7.38722 40.2959 7.68726C40.6082 7.9873 40.9715 8.22351 41.3922 8.3831C41.8128 8.5427 42.2654 8.61292 42.7625 8.59377Z" fill="#410102"/>
<path d="M49.9969 2.06961C50.0734 1.6419 50.2391 1.34186 50.4877 1.16311C50.7363 0.98436 51.0869 0.939673 51.5394 1.02266L53.4579 1.38016C53.8659 1.45676 54.2355 1.59721 54.5542 1.79511C54.8729 1.99301 55.1343 2.24198 55.3318 2.53563C55.5294 2.82929 55.6633 3.16763 55.7334 3.5379C55.8035 3.90816 55.8035 4.31034 55.727 4.73806C55.6505 5.16578 55.5039 5.53604 55.3064 5.86162C55.1024 6.18081 54.8602 6.44255 54.5734 6.64683C54.2865 6.85111 53.9551 6.98517 53.5854 7.05539C53.2157 7.12562 52.8206 7.11923 52.4126 7.04263L50.6471 6.71067L50.1499 9.39826C50.1117 9.58978 50.0161 9.74299 49.8631 9.85152C49.7101 9.96004 49.5189 9.99196 49.2958 9.95366C49.0727 9.90897 48.907 9.81321 48.7987 9.65362C48.6967 9.49402 48.6584 9.32166 48.6967 9.13014L50.0097 2.076L49.9969 2.06961ZM50.8702 5.45305L52.4891 5.75309C52.948 5.83608 53.3368 5.75309 53.6619 5.5105C53.987 5.26153 54.1909 4.91681 54.2738 4.46355C54.3567 4.0103 54.2929 3.60812 54.0762 3.25701C53.8595 2.9059 53.528 2.68885 53.0755 2.60586L51.4566 2.30582L50.8702 5.45305Z" fill="#410102"/>
<path d="M8.56047 33.6008C8.56047 33.6008 10.5364 33.5817 11.1482 31.0218C11.1674 30.926 11.1801 30.8303 11.1929 30.7345C11.2056 30.6707 11.2566 30.5558 11.5052 30.4153C11.8876 30.1983 13.105 29.3045 13.1751 27.9448C13.2452 26.585 12.5824 26.1956 12.2509 25.9594C11.9514 25.7423 10.8041 25.2444 9.69501 26.0041C9.53567 26.1126 9.34445 26.1828 9.13411 26.1828C9.01301 26.1828 8.98751 26.1956 8.88553 26.1445L8.7963 26.0998C8.34376 25.7423 6.73117 25.9211 5.96631 27.1149C5.24607 28.2384 5.47553 29.3173 6.36149 30.128C6.52721 30.2813 6.59732 30.5047 6.55271 30.709C6.48259 31.0345 6.18302 33.5306 8.55409 33.6008H8.56047Z" fill="#410102"/>
<path d="M3.99093 28.2692C4.2842 27.5096 3.7474 26.5938 2.79197 26.2238C1.83654 25.8538 0.824268 26.1696 0.531003 26.9293C0.237738 27.6889 0.774532 28.6046 1.72996 28.9747C2.6854 29.3447 3.69767 29.0288 3.99093 28.2692Z" fill="#410102"/>
<path d="M3.07886 30.8365C4.05406 30.6769 5.01651 31.2195 5.2141 32.0366C5.41169 32.8538 4.78705 33.6454 3.81185 33.8049C2.83665 33.9645 1.8742 33.4219 1.67661 32.6048C1.47902 31.7877 2.10366 30.9961 3.07886 30.8365Z" fill="#410102"/>
<path d="M6.37424 22.9845C6.79492 23.8974 6.50809 24.8741 5.73048 25.1677C4.95287 25.4614 3.97768 24.9507 3.557 24.0378C3.13633 23.1249 3.42315 22.1482 4.20076 21.8545C4.97837 21.5609 5.95357 22.0716 6.37424 22.9845Z" fill="#410102"/>
<path d="M11.3779 22.8118C11.3524 23.7821 10.6385 24.5035 9.78443 24.4205C8.93034 24.3375 8.25471 23.4821 8.27383 22.5117C8.29296 21.5414 9.0132 20.82 9.86729 20.903C10.7214 20.986 11.397 21.8414 11.3779 22.8118Z" fill="#410102"/>
<path d="M49.0662 85.7104C49.0662 85.7104 47.9954 84.0442 45.5096 84.8869C45.4203 84.9188 45.3311 84.9635 45.2419 85.0018C45.1845 85.0273 45.057 85.0401 44.8084 84.906C44.4196 84.7018 43.0174 84.1464 41.8255 84.8039C40.6336 85.4678 40.6654 86.2403 40.6399 86.6488C40.6208 87.0191 40.8057 88.2576 42.0358 88.7874C42.2143 88.864 42.38 88.9917 42.4884 89.1641C42.5521 89.2662 42.5776 89.279 42.584 89.3939C42.584 89.3939 42.5967 89.4896 42.5903 89.496C42.533 90.0706 43.54 91.341 44.9614 91.3537C46.2935 91.3665 47.0839 90.6004 47.2942 89.413C47.3325 89.1896 47.4854 89.0109 47.683 88.9406H47.6894C47.9954 88.8321 50.2644 87.7469 49.0598 85.704L49.0662 85.7104Z" fill="#410102"/>
<path d="M47.7104 96.0744C48.5084 95.9182 48.9961 94.9753 48.7996 93.9683C48.603 92.9614 47.7968 92.2718 46.9987 92.428C46.2007 92.5843 45.713 93.5272 45.9095 94.5341C46.106 95.5411 46.9123 96.2307 47.7104 96.0744Z" fill="#410102"/>
<path d="M49.6529 91.8257C48.9964 91.0788 48.9454 89.9807 49.5254 89.3743C50.1054 88.7678 51.1125 88.8763 51.769 89.6233C52.4255 90.3702 52.4765 91.4682 51.8965 92.0747C51.3165 92.6811 50.3094 92.5726 49.6529 91.8257Z" fill="#410102"/>
<path d="M41.2646 93.2178C41.8127 92.3751 42.7879 92.0942 43.4508 92.5986C44.1137 93.1029 44.2029 94.1945 43.6547 95.0436C43.1066 95.8926 42.1314 96.1671 41.4685 95.6628C40.8056 95.1585 40.7164 94.0668 41.2646 93.2178Z" fill="#410102"/>
<path d="M38.4539 89.0684C39.2889 88.5704 40.2768 88.7939 40.6593 89.5599C41.0417 90.326 40.6848 91.3602 39.8498 91.8581C39.0148 92.3561 38.0269 92.1326 37.6444 91.3666C37.262 90.6005 37.6189 89.5663 38.4539 89.0684Z" fill="#410102"/>
<path d="M75.1864 25.3157C75.1864 25.3157 74.4534 27.1542 76.5822 28.6927C76.6587 28.7502 76.7479 28.7949 76.8308 28.846C76.8882 28.8779 76.971 28.9736 77.0093 29.2545C77.0666 29.6886 77.4299 31.1569 78.6537 31.7442C79.8775 32.3315 80.4958 31.8591 80.84 31.6421C81.1523 31.4442 82.051 30.5696 81.7705 29.2609C81.7323 29.0694 81.7387 28.8651 81.8151 28.6736C81.8598 28.5651 81.8598 28.5332 81.949 28.4629C81.949 28.4629 82.0255 28.3991 82.0255 28.3927C82.5226 28.1054 82.9752 26.5414 82.1593 25.3859C81.3945 24.2943 80.3109 24.09 79.2274 24.6071C79.0234 24.7028 78.7876 24.6837 78.6155 24.5624H78.6091C78.3478 24.3709 76.1488 23.1452 75.1864 25.3157Z" fill="#410102"/>
<path d="M84.1856 22.7766C84.8903 22.032 84.9832 20.9742 84.3931 20.4138C83.803 19.8535 82.7533 20.0029 82.0485 20.7475C81.3438 21.4921 81.2509 22.5499 81.841 23.1102C82.4311 23.6705 83.4809 23.5212 84.1856 22.7766Z" fill="#410102"/>
<path d="M79.8201 21.2854C79.5907 22.2493 78.7366 22.9324 77.9016 22.8111C77.0666 22.6898 76.5758 21.8025 76.7989 20.8385C77.022 19.8746 77.8825 19.1915 78.7174 19.3128C79.5524 19.4341 80.0432 20.3214 79.8201 21.2854Z" fill="#410102"/>
<path d="M85.8179 27.3254C84.8109 27.3701 84.0205 26.7317 84.046 25.9018C84.0715 25.0719 84.9129 24.3633 85.9136 24.3186C86.9142 24.2739 87.711 24.9123 87.6855 25.7422C87.66 26.5721 86.8186 27.2807 85.8179 27.3254Z" fill="#410102"/>
<path d="M84.0777 32.0242C83.1917 31.6348 82.7965 30.7027 83.1981 29.9366C83.5996 29.1706 84.6449 28.8705 85.5309 29.2663C86.4169 29.6621 86.8121 30.5878 86.4105 31.3539C86.009 32.1199 84.9636 32.42 84.0777 32.0242Z" fill="#410102"/>
</svg>
